<svg viewBox="-16 -32 880 192" width="880" height="192" xmlns="http://www.w3.org/2000/svg"><desc>Generated with https://github.com/Platane/snk</desc><style>:root{--cb:#1b1f230a;--cs:purple;--ce:#161b22;--c0:#161b22;--c1:#01311f;--c2:#034525;--c3:#0f6d31;--c4:#00c647}.c{shape-rendering:geometricPrecision;fill:var(--ce);stroke-width:1px;stroke:var(--cb);animation:none 18100ms linear infinite;width:12px;height:12px}@keyframes c0{8.83%{fill:var(--c1)}8.85%,100%{fill:var(--ce)}}.c.c0{fill:var(--c1);animation-name:c0}@keyframes c1{28.17%{fill:var(--c1)}28.19%,100%{fill:var(--ce)}}.c.c1{fill:var(--c1);animation-name:c1}@keyframes c2{33.14%{fill:var(--c2)}33.16%,100%{fill:var(--ce)}}.c.c2{fill:var(--c2);animation-name:c2}@keyframes c3{32.59%{fill:var(--c1)}32.61%,100%{fill:var(--ce)}}.c.c3{fill:var(--c1);animation-name:c3}@keyframes c4{71.81%{fill:var(--c4)}71.83%,100%{fill:var(--ce)}}.c.c4{fill:var(--c4);animation-name:c4}@keyframes c5{35.9%{fill:var(--c2)}35.92%,100%{fill:var(--ce)}}.c.c5{fill:var(--c2);animation-name:c5}@keyframes c6{36.45%{fill:var(--c2)}36.47%,100%{fill:var(--ce)}}.c.c6{fill:var(--c2);animation-name:c6}@keyframes c7{66.84%{fill:var(--c4)}66.86%,100%{fill:var(--ce)}}.c.c7{fill:var(--c4);animation-name:c7}@keyframes c8{67.39%{fill:var(--c4)}67.41%,100%{fill:var(--ce)}}.c.c8{fill:var(--c4);animation-name:c8}@keyframes c9{73.47%{fill:var(--c4)}73.49%,100%{fill:var(--ce)}}.c.c9{fill:var(--c4);animation-name:c9}@keyframes ca{39.77%{fill:var(--c2)}39.79%,100%{fill:var(--ce)}}.c.ca{fill:var(--c2);animation-name:ca}@keyframes cb{40.32%{fill:var(--c3)}40.34%,100%{fill:var(--ce)}}.c.cb{fill:var(--c3);animation-name:cb}@keyframes cc{40.87%{fill:var(--c3)}40.89%,100%{fill:var(--ce)}}.c.cc{fill:var(--c3);animation-name:cc}@keyframes cd{65.74%{fill:var(--c4)}65.76%,100%{fill:var(--ce)}}.c.cd{fill:var(--c4);animation-name:cd}@keyframes ce{65.18%{fill:var(--c4)}65.2%,100%{fill:var(--ce)}}.c.ce{fill:var(--c4);animation-name:ce}@keyframes cf{67.95%{fill:var(--c4)}67.97%,100%{fill:var(--ce)}}.c.cf{fill:var(--c4);animation-name:cf}@keyframes cg{47.5%{fill:var(--c3)}47.52%,100%{fill:var(--ce)}}.c.cg{fill:var(--c3);animation-name:cg}@keyframes ch{48.06%{fill:var(--c3)}48.08%,100%{fill:var(--ce)}}.c.ch{fill:var(--c3);animation-name:ch}@keyframes ci{51.92%{fill:var(--c3)}51.94%,100%{fill:var(--ce)}}.c.ci{fill:var(--c3);animation-name:ci}@keyframes cj{41.43%{fill:var(--c3)}41.45%,100%{fill:var(--ce)}}.c.cj{fill:var(--c3);animation-name:cj}@keyframes ck{53.03%{fill:var(--c3)}53.05%,100%{fill:var(--ce)}}.c.ck{fill:var(--c3);animation-name:ck}@keyframes cl{58%{fill:var(--c3)}58.02%,100%{fill:var(--ce)}}.c.cl{fill:var(--c3);animation-name:cl}@keyframes cm{68.5%{fill:var(--c4)}68.52%,100%{fill:var(--ce)}}.c.cm{fill:var(--c4);animation-name:cm}@keyframes cn{46.95%{fill:var(--c3)}46.97%,100%{fill:var(--ce)}}.c.cn{fill:var(--c3);animation-name:cn}@keyframes co{48.61%{fill:var(--c3)}48.63%,100%{fill:var(--ce)}}.c.co{fill:var(--c3);animation-name:co}@keyframes cp{51.37%{fill:var(--c3)}51.39%,100%{fill:var(--ce)}}.c.cp{fill:var(--c3);animation-name:cp}@keyframes cq{41.98%{fill:var(--c3)}42%,100%{fill:var(--ce)}}.c.cq{fill:var(--c3);animation-name:cq}@keyframes cr{53.58%{fill:var(--c3)}53.6%,100%{fill:var(--ce)}}.c.cr{fill:var(--c3);animation-name:cr}@keyframes cs{57.45%{fill:var(--c3)}57.47%,100%{fill:var(--ce)}}.c.cs{fill:var(--c3);animation-name:cs}@keyframes ct{60.21%{fill:var(--c3)}60.23%,100%{fill:var(--ce)}}.c.ct{fill:var(--c3);animation-name:ct}@keyframes cu{46.4%{fill:var(--c3)}46.42%,100%{fill:var(--ce)}}.c.cu{fill:var(--c3);animation-name:cu}@keyframes cv{49.16%{fill:var(--c3)}49.18%,100%{fill:var(--ce)}}.c.cv{fill:var(--c3);animation-name:cv}@keyframes cw{50.82%{fill:var(--c3)}50.84%,100%{fill:var(--ce)}}.c.cw{fill:var(--c3);animation-name:cw}@keyframes cx{42.53%{fill:var(--c3)}42.55%,100%{fill:var(--ce)}}.c.cx{fill:var(--c3);animation-name:cx}@keyframes cy{54.13%{fill:var(--c3)}54.15%,100%{fill:var(--ce)}}.c.cy{fill:var(--c3);animation-name:cy}@keyframes cz{56.9%{fill:var(--c3)}56.92%,100%{fill:var(--ce)}}.c.cz{fill:var(--c3);animation-name:cz}@keyframes c10{60.76%{fill:var(--c3)}60.78%,100%{fill:var(--ce)}}.c.c10{fill:var(--c3);animation-name:c10}@keyframes c11{45.85%{fill:var(--c3)}45.87%,100%{fill:var(--ce)}}.c.c11{fill:var(--c3);animation-name:c11}@keyframes c12{49.71%{fill:var(--c3)}49.73%,100%{fill:var(--ce)}}.c.c12{fill:var(--c3);animation-name:c12}@keyframes c13{50.27%{fill:var(--c3)}50.29%,100%{fill:var(--ce)}}.c.c13{fill:var(--c3);animation-name:c13}@keyframes c14{43.08%{fill:var(--c3)}43.1%,100%{fill:var(--ce)}}.c.c14{fill:var(--c3);animation-name:c14}@keyframes c15{54.69%{fill:var(--c3)}54.71%,100%{fill:var(--ce)}}.c.c15{fill:var(--c3);animation-name:c15}@keyframes c16{56.34%{fill:var(--c3)}56.36%,100%{fill:var(--ce)}}.c.c16{fill:var(--c3);animation-name:c16}@keyframes c17{61.32%{fill:var(--c3)}61.34%,100%{fill:var(--ce)}}.c.c17{fill:var(--c3);animation-name:c17}@keyframes c18{45.29%{fill:var(--c3)}45.31%,100%{fill:var(--ce)}}.c.c18{fill:var(--c3);animation-name:c18}@keyframes c19{44.74%{fill:var(--c3)}44.76%,100%{fill:var(--ce)}}.c.c19{fill:var(--c3);animation-name:c19}@keyframes c1a{44.19%{fill:var(--c3)}44.21%,100%{fill:var(--ce)}}.c.c1a{fill:var(--c3);animation-name:c1a}@keyframes c1b{43.64%{fill:var(--c3)}43.66%,100%{fill:var(--ce)}}.c.c1b{fill:var(--c3);animation-name:c1b}@keyframes c1c{55.24%{fill:var(--c3)}55.26%,100%{fill:var(--ce)}}.c.c1c{fill:var(--c3);animation-name:c1c}@keyframes c1d{55.79%{fill:var(--c3)}55.81%,100%{fill:var(--ce)}}.c.c1d{fill:var(--c3);animation-name:c1d}@keyframes c1e{61.87%{fill:var(--c3)}61.89%,100%{fill:var(--ce)}}.c.c1e{fill:var(--c3);animation-name:c1e}.u{transform-origin:0 0;transform:scale(0,1);animation:none linear 18100ms infinite}@keyframes u0{8.83%{transform:scale(0.000,1)}8.85%,28.17%{transform:scale(0.333,1)}28.19%,32.59%{transform:scale(0.667,1)}32.61%,100%{transform:scale(1.000,1)}}.u.u0{fill:var(--c1);animation-name:u0;transform-origin:0.0px 0}@keyframes u1{33.14%{transform:scale(0.000,1)}33.16%,35.9%{transform:scale(0.250,1)}35.92%,36.45%{transform:scale(0.500,1)}36.47%,39.77%{transform:scale(0.750,1)}39.79%,100%{transform:scale(1.000,1)}}.u.u1{fill:var(--c2);animation-name:u1;transform-origin:49.9px 0}@keyframes u2{40.32%{transform:scale(0.000,1)}40.34%,40.87%{transform:scale(0.028,1)}40.89%,41.43%{transform:scale(0.056,1)}41.45%,41.98%{transform:scale(0.083,1)}42%,42.53%{transform:scale(0.111,1)}42.55%,43.08%{transform:scale(0.139,1)}43.1%,43.64%{transform:scale(0.167,1)}43.66%,44.19%{transform:scale(0.194,1)}44.21%,44.74%{transform:scale(0.222,1)}44.76%,45.29%{transform:scale(0.250,1)}45.31%,45.85%{transform:scale(0.278,1)}45.87%,46.4%{transform:scale(0.306,1)}46.42%,46.95%{transform:scale(0.333,1)}46.97%,47.5%{transform:scale(0.361,1)}47.52%,48.06%{transform:scale(0.389,1)}48.08%,48.61%{transform:scale(0.417,1)}48.63%,49.16%{transform:scale(0.444,1)}49.18%,49.71%{transform:scale(0.472,1)}49.73%,50.27%{transform:scale(0.500,1)}50.29%,50.82%{transform:scale(0.528,1)}50.84%,51.37%{transform:scale(0.556,1)}51.39%,51.92%{transform:scale(0.583,1)}51.94%,53.03%{transform:scale(0.611,1)}53.05%,53.58%{transform:scale(0.639,1)}53.6%,54.13%{transform:scale(0.667,1)}54.15%,54.69%{transform:scale(0.694,1)}54.71%,55.24%{transform:scale(0.722,1)}55.26%,55.79%{transform:scale(0.750,1)}55.81%,56.34%{transform:scale(0.778,1)}56.36%,56.9%{transform:scale(0.806,1)}56.92%,57.45%{transform:scale(0.833,1)}57.47%,58%{transform:scale(0.861,1)}58.02%,60.21%{transform:scale(0.889,1)}60.23%,60.76%{transform:scale(0.917,1)}60.78%,61.32%{transform:scale(0.944,1)}61.34%,61.87%{transform:scale(0.972,1)}61.89%,100%{transform:scale(1.000,1)}}.u.u2{fill:var(--c3);animation-name:u2;transform-origin:116.4px 0}@keyframes u3{65.18%{transform:scale(0.000,1)}65.2%,65.74%{transform:scale(0.125,1)}65.76%,66.84%{transform:scale(0.250,1)}66.86%,67.39%{transform:scale(0.375,1)}67.41%,67.95%{transform:scale(0.500,1)}67.97%,68.5%{transform:scale(0.625,1)}68.52%,71.81%{transform:scale(0.750,1)}71.83%,73.47%{transform:scale(0.875,1)}73.49%,100%{transform:scale(1.000,1)}}.u.u3{fill:var(--c4);animation-name:u3;transform-origin:715.0px 0}.s{shape-rendering:geometricPrecision;fill:var(--cs);animation:none linear 18100ms infinite}@keyframes s0{0%,99.45%{transform:translate(0px,-16px)}0.55%{transform:translate(0px,0px)}6.63%{transform:translate(176px,0px)}8.84%{transform:translate(176px,64px)}27.07%,37.02%{transform:translate(704px,64px)}28.18%{transform:translate(704px,96px)}28.73%{transform:translate(688px,96px)}31.49%{transform:translate(688px,16px)}32.6%,72.38%{transform:translate(720px,16px)}33.15%{transform:translate(720px,0px)}33.7%{transform:translate(704px,0px)}35.36%{transform:translate(704px,48px)}35.91%{transform:translate(720px,48px)}36.46%,66.3%{transform:translate(720px,64px)}38.67%{transform:translate(704px,16px)}39.78%,72.93%{transform:translate(736px,16px)}40.88%{transform:translate(736px,48px)}43.65%{transform:translate(816px,48px)}45.3%{transform:translate(816px,0px)}47.51%{transform:translate(752px,0px)}48.07%{transform:translate(752px,16px)}49.72%{transform:translate(800px,16px)}50.28%{transform:translate(800px,32px)}51.93%,70.72%{transform:translate(752px,32px)}53.04%,58.56%{transform:translate(752px,64px)}55.25%{transform:translate(816px,64px)}55.8%,62.43%{transform:translate(816px,80px)}58.01%{transform:translate(752px,80px)}59.12%{transform:translate(768px,64px)}60.22%{transform:translate(768px,96px)}61.88%{transform:translate(816px,96px)}65.19%{transform:translate(736px,80px)}65.75%{transform:translate(736px,64px)}67.4%{transform:translate(720px,96px)}68.51%{transform:translate(752px,96px)}71.82%{transform:translate(720px,32px)}73.48%{transform:translate(736px,0px)}97.24%{transform:translate(48px,0px)}97.79%{transform:translate(48px,-16px)}}.s.s0{transform:translate(0px,-16px);animation-name:s0}@keyframes s1{0%,99.45%{transform:translate(16px,-16px)}0.55%{transform:translate(0px,-16px)}1.1%{transform:translate(0px,0px)}7.18%{transform:translate(176px,0px)}9.39%{transform:translate(176px,64px)}27.62%,37.57%{transform:translate(704px,64px)}28.73%{transform:translate(704px,96px)}29.28%{transform:translate(688px,96px)}32.04%{transform:translate(688px,16px)}33.15%,72.93%{transform:translate(720px,16px)}33.7%{transform:translate(720px,0px)}34.25%{transform:translate(704px,0px)}35.91%{transform:translate(704px,48px)}36.46%{transform:translate(720px,48px)}37.02%,66.85%{transform:translate(720px,64px)}39.23%{transform:translate(704px,16px)}40.33%,73.48%{transform:translate(736px,16px)}41.44%{transform:translate(736px,48px)}44.2%{transform:translate(816px,48px)}45.86%{transform:translate(816px,0px)}48.07%{transform:translate(752px,0px)}48.62%{transform:translate(752px,16px)}50.28%{transform:translate(800px,16px)}50.83%{transform:translate(800px,32px)}52.49%,71.27%{transform:translate(752px,32px)}53.59%,59.12%{transform:translate(752px,64px)}55.8%{transform:translate(816px,64px)}56.35%,62.98%{transform:translate(816px,80px)}58.56%{transform:translate(752px,80px)}59.67%{transform:translate(768px,64px)}60.77%{transform:translate(768px,96px)}62.43%{transform:translate(816px,96px)}65.75%{transform:translate(736px,80px)}66.3%{transform:translate(736px,64px)}67.96%{transform:translate(720px,96px)}69.06%{transform:translate(752px,96px)}72.38%{transform:translate(720px,32px)}74.03%{transform:translate(736px,0px)}97.79%{transform:translate(48px,0px)}98.34%{transform:translate(48px,-16px)}}.s.s1{transform:translate(16px,-16px);animation-name:s1}@keyframes s2{0%,99.45%{transform:translate(32px,-16px)}1.1%{transform:translate(0px,-16px)}1.66%{transform:translate(0px,0px)}7.73%{transform:translate(176px,0px)}9.94%{transform:translate(176px,64px)}28.18%,38.12%{transform:translate(704px,64px)}29.28%{transform:translate(704px,96px)}29.83%{transform:translate(688px,96px)}32.6%{transform:translate(688px,16px)}33.7%,73.48%{transform:translate(720px,16px)}34.25%{transform:translate(720px,0px)}34.81%{transform:translate(704px,0px)}36.46%{transform:translate(704px,48px)}37.02%{transform:translate(720px,48px)}37.57%,67.4%{transform:translate(720px,64px)}39.78%{transform:translate(704px,16px)}40.88%,74.03%{transform:translate(736px,16px)}41.99%{transform:translate(736px,48px)}44.75%{transform:translate(816px,48px)}46.41%{transform:translate(816px,0px)}48.62%{transform:translate(752px,0px)}49.17%{transform:translate(752px,16px)}50.83%{transform:translate(800px,16px)}51.38%{transform:translate(800px,32px)}53.04%,71.82%{transform:translate(752px,32px)}54.14%,59.67%{transform:translate(752px,64px)}56.35%{transform:translate(816px,64px)}56.91%,63.54%{transform:translate(816px,80px)}59.12%{transform:translate(752px,80px)}60.22%{transform:translate(768px,64px)}61.33%{transform:translate(768px,96px)}62.98%{transform:translate(816px,96px)}66.3%{transform:translate(736px,80px)}66.85%{transform:translate(736px,64px)}68.51%{transform:translate(720px,96px)}69.61%{transform:translate(752px,96px)}72.93%{transform:translate(720px,32px)}74.59%{transform:translate(736px,0px)}98.34%{transform:translate(48px,0px)}98.9%{transform:translate(48px,-16px)}}.s.s2{transform:translate(32px,-16px);animation-name:s2}@keyframes s3{0%,99.45%{transform:translate(48px,-16px)}1.66%{transform:translate(0px,-16px)}2.21%{transform:translate(0px,0px)}8.29%{transform:translate(176px,0px)}10.5%{transform:translate(176px,64px)}28.73%,38.67%{transform:translate(704px,64px)}29.83%{transform:translate(704px,96px)}30.39%{transform:translate(688px,96px)}33.15%{transform:translate(688px,16px)}34.25%,74.03%{transform:translate(720px,16px)}34.81%{transform:translate(720px,0px)}35.36%{transform:translate(704px,0px)}37.02%{transform:translate(704px,48px)}37.57%{transform:translate(720px,48px)}38.12%,67.96%{transform:translate(720px,64px)}40.33%{transform:translate(704px,16px)}41.44%,74.59%{transform:translate(736px,16px)}42.54%{transform:translate(736px,48px)}45.3%{transform:translate(816px,48px)}46.96%{transform:translate(816px,0px)}49.17%{transform:translate(752px,0px)}49.72%{transform:translate(752px,16px)}51.38%{transform:translate(800px,16px)}51.93%{transform:translate(800px,32px)}53.59%,72.38%{transform:translate(752px,32px)}54.7%,60.22%{transform:translate(752px,64px)}56.91%{transform:translate(816px,64px)}57.46%,64.09%{transform:translate(816px,80px)}59.67%{transform:translate(752px,80px)}60.77%{transform:translate(768px,64px)}61.88%{transform:translate(768px,96px)}63.54%{transform:translate(816px,96px)}66.85%{transform:translate(736px,80px)}67.4%{transform:translate(736px,64px)}69.06%{transform:translate(720px,96px)}70.17%{transform:translate(752px,96px)}73.48%{transform:translate(720px,32px)}75.14%{transform:translate(736px,0px)}98.9%{transform:translate(48px,0px)}}.s.s3{transform:translate(48px,-16px);animation-name:s3}</style><rect class="c" x="2" y="2" rx="2" ry="2"/><rect class="c" x="2" y="18" rx="2" ry="2"/><rect class="c" x="2" y="34" rx="2" ry="2"/><rect class="c" x="2" y="50" rx="2" ry="2"/><rect class="c" x="2" y="66" rx="2" ry="2"/><rect class="c" x="2" y="82" rx="2" ry="2"/><rect class="c" x="2" y="98" rx="2" ry="2"/><rect class="c" x="18" y="2" rx="2" ry="2"/><rect class="c" x="18" y="18" rx="2" ry="2"/><rect class="c" x="18" y="34" rx="2" ry="2"/><rect class="c" x="18" y="50" rx="2" ry="2"/><rect class="c" x="18" y="66" rx="2" ry="2"/><rect class="c" x="18" y="82" rx="2" ry="2"/><rect class="c" x="18" y="98" rx="2" ry="2"/><rect class="c" x="34" y="2" rx="2" ry="2"/><rect class="c" x="34" y="18" rx="2" ry="2"/><rect class="c" x="34" y="34" rx="2" ry="2"/><rect class="c" x="34" y="50" rx="2" ry="2"/><rect class="c" x="34" y="66" rx="2" ry="2"/><rect class="c" x="34" y="82" rx="2" ry="2"/><rect class="c" x="34" y="98" rx="2" ry="2"/><rect class="c" x="50" y="2" rx="2" ry="2"/><rect class="c" x="50" y="18" rx="2" ry="2"/><rect class="c" x="50" y="34" rx="2" ry="2"/><rect class="c" x="50" y="50" rx="2" ry="2"/><rect class="c" x="50" y="66" rx="2" ry="2"/><rect class="c" x="50" y="82" rx="2" ry="2"/><rect class="c" x="50" y="98" rx="2" ry="2"/><rect class="c" x="66" y="2" rx="2" ry="2"/><rect class="c" x="66" y="18" rx="2" ry="2"/><rect class="c" x="66" y="34" rx="2" ry="2"/><rect class="c" x="66" y="50" rx="2" ry="2"/><rect class="c" x="66" y="66" rx="2" ry="2"/><rect class="c" x="66" y="82" rx="2" ry="2"/><rect class="c" x="66" y="98" rx="2" ry="2"/><rect class="c" x="82" y="2" rx="2" ry="2"/><rect class="c" x="82" y="18" rx="2" ry="2"/><rect class="c" x="82" y="34" rx="2" ry="2"/><rect class="c" x="82" y="50" rx="2" ry="2"/><rect class="c" x="82" y="66" rx="2" ry="2"/><rect class="c" x="82" y="82" rx="2" ry="2"/><rect class="c" x="82" y="98" rx="2" ry="2"/><rect class="c" x="98" y="2" rx="2" ry="2"/><rect class="c" x="98" y="18" rx="2" ry="2"/><rect class="c" x="98" y="34" rx="2" ry="2"/><rect class="c" x="98" y="50" rx="2" ry="2"/><rect class="c" x="98" y="66" rx="2" ry="2"/><rect class="c" x="98" y="82" rx="2" ry="2"/><rect class="c" x="98" y="98" rx="2" ry="2"/><rect class="c" x="114" y="2" rx="2" ry="2"/><rect class="c" x="114" y="18" rx="2" ry="2"/><rect class="c" x="114" y="34" rx="2" ry="2"/><rect class="c" x="114" y="50" rx="2" ry="2"/><rect class="c" x="114" y="66" rx="2" ry="2"/><rect class="c" x="114" y="82" rx="2" ry="2"/><rect class="c" x="114" y="98" rx="2" ry="2"/><rect class="c" x="130" y="2" rx="2" ry="2"/><rect class="c" x="130" y="18" rx="2" ry="2"/><rect class="c" x="130" y="34" rx="2" ry="2"/><rect class="c" x="130" y="50" rx="2" ry="2"/><rect class="c" x="130" y="66" rx="2" ry="2"/><rect class="c" x="130" y="82" rx="2" ry="2"/><rect class="c" x="130" y="98" rx="2" ry="2"/><rect class="c" x="146" y="2" rx="2" ry="2"/><rect class="c" x="146" y="18" rx="2" ry="2"/><rect class="c" x="146" y="34" rx="2" ry="2"/><rect class="c" x="146" y="50" rx="2" ry="2"/><rect class="c" x="146" y="66" rx="2" ry="2"/><rect class="c" x="146" y="82" rx="2" ry="2"/><rect class="c" x="146" y="98" rx="2" ry="2"/><rect class="c" x="162" y="2" rx="2" ry="2"/><rect class="c" x="162" y="18" rx="2" ry="2"/><rect class="c" x="162" y="34" rx="2" ry="2"/><rect class="c" x="162" y="50" rx="2" ry="2"/><rect class="c" x="162" y="66" rx="2" ry="2"/><rect class="c" x="162" y="82" rx="2" ry="2"/><rect class="c" x="162" y="98" rx="2" ry="2"/><rect class="c" x="178" y="2" rx="2" ry="2"/><rect class="c" x="178" y="18" rx="2" ry="2"/><rect class="c" x="178" y="34" rx="2" ry="2"/><rect class="c" x="178" y="50" rx="2" ry="2"/><rect class="c c0" x="178" y="66" rx="2" ry="2"/><rect class="c" x="178" y="82" rx="2" ry="2"/><rect class="c" x="178" y="98" rx="2" ry="2"/><rect class="c" x="194" y="2" rx="2" ry="2"/><rect class="c" x="194" y="18" rx="2" ry="2"/><rect class="c" x="194" y="34" rx="2" ry="2"/><rect class="c" x="194" y="50" rx="2" ry="2"/><rect class="c" x="194" y="66" rx="2" ry="2"/><rect class="c" x="194" y="82" rx="2" ry="2"/><rect class="c" x="194" y="98" rx="2" ry="2"/><rect class="c" x="210" y="2" rx="2" ry="2"/><rect class="c" x="210" y="18" rx="2" ry="2"/><rect class="c" x="210" y="34" rx="2" ry="2"/><rect class="c" x="210" y="50" rx="2" ry="2"/><rect class="c" x="210" y="66" rx="2" ry="2"/><rect class="c" x="210" y="82" rx="2" ry="2"/><rect class="c" x="210" y="98" rx="2" ry="2"/><rect class="c" x="226" y="2" rx="2" ry="2"/><rect class="c" x="226" y="18" rx="2" ry="2"/><rect class="c" x="226" y="34" rx="2" ry="2"/><rect class="c" x="226" y="50" rx="2" ry="2"/><rect class="c" x="226" y="66" rx="2" ry="2"/><rect class="c" x="226" y="82" rx="2" ry="2"/><rect class="c" x="226" y="98" rx="2" ry="2"/><rect class="c" x="242" y="2" rx="2" ry="2"/><rect class="c" x="242" y="18" rx="2" ry="2"/><rect class="c" x="242" y="34" rx="2" ry="2"/><rect class="c" x="242" y="50" rx="2" ry="2"/><rect class="c" x="242" y="66" rx="2" ry="2"/><rect class="c" x="242" y="82" rx="2" ry="2"/><rect class="c" x="242" y="98" rx="2" ry="2"/><rect class="c" x="258" y="2" rx="2" ry="2"/><rect class="c" x="258" y="18" rx="2" ry="2"/><rect class="c" x="258" y="34" rx="2" ry="2"/><rect class="c" x="258" y="50" rx="2" ry="2"/><rect class="c" x="258" y="66" rx="2" ry="2"/><rect class="c" x="258" y="82" rx="2" ry="2"/><rect class="c" x="258" y="98" rx="2" ry="2"/><rect class="c" x="274" y="2" rx="2" ry="2"/><rect class="c" x="274" y="18" rx="2" ry="2"/><rect class="c" x="274" y="34" rx="2" ry="2"/><rect class="c" x="274" y="50" rx="2" ry="2"/><rect class="c" x="274" y="66" rx="2" ry="2"/><rect class="c" x="274" y="82" rx="2" ry="2"/><rect class="c" x="274" y="98" rx="2" ry="2"/><rect class="c" x="290" y="2" rx="2" ry="2"/><rect class="c" x="290" y="18" rx="2" ry="2"/><rect class="c" x="290" y="34" rx="2" ry="2"/><rect class="c" x="290" y="50" rx="2" ry="2"/><rect class="c" x="290" y="66" rx="2" ry="2"/><rect class="c" x="290" y="82" rx="2" ry="2"/><rect class="c" x="290" y="98" rx="2" ry="2"/><rect class="c" x="306" y="2" rx="2" ry="2"/><rect class="c" x="306" y="18" rx="2" ry="2"/><rect class="c" x="306" y="34" rx="2" ry="2"/><rect class="c" x="306" y="50" rx="2" ry="2"/><rect class="c" x="306" y="66" rx="2" ry="2"/><rect class="c" x="306" y="82" rx="2" ry="2"/><rect class="c" x="306" y="98" rx="2" ry="2"/><rect class="c" x="322" y="2" rx="2" ry="2"/><rect class="c" x="322" y="18" rx="2" ry="2"/><rect class="c" x="322" y="34" rx="2" ry="2"/><rect class="c" x="322" y="50" rx="2" ry="2"/><rect class="c" x="322" y="66" rx="2" ry="2"/><rect class="c" x="322" y="82" rx="2" ry="2"/><rect class="c" x="322" y="98" rx="2" ry="2"/><rect class="c" x="338" y="2" rx="2" ry="2"/><rect class="c" x="338" y="18" rx="2" ry="2"/><rect class="c" x="338" y="34" rx="2" ry="2"/><rect class="c" x="338" y="50" rx="2" ry="2"/><rect class="c" x="338" y="66" rx="2" ry="2"/><rect class="c" x="338" y="82" rx="2" ry="2"/><rect class="c" x="338" y="98" rx="2" ry="2"/><rect class="c" x="354" y="2" rx="2" ry="2"/><rect class="c" x="354" y="18" rx="2" ry="2"/><rect class="c" x="354" y="34" rx="2" ry="2"/><rect class="c" x="354" y="50" rx="2" ry="2"/><rect class="c" x="354" y="66" rx="2" ry="2"/><rect class="c" x="354" y="82" rx="2" ry="2"/><rect class="c" x="354" y="98" rx="2" ry="2"/><rect class="c" x="370" y="2" rx="2" ry="2"/><rect class="c" x="370" y="18" rx="2" ry="2"/><rect class="c" x="370" y="34" rx="2" ry="2"/><rect class="c" x="370" y="50" rx="2" ry="2"/><rect class="c" x="370" y="66" rx="2" ry="2"/><rect class="c" x="370" y="82" rx="2" ry="2"/><rect class="c" x="370" y="98" rx="2" ry="2"/><rect class="c" x="386" y="2" rx="2" ry="2"/><rect class="c" x="386" y="18" rx="2" ry="2"/><rect class="c" x="386" y="34" rx="2" ry="2"/><rect class="c" x="386" y="50" rx="2" ry="2"/><rect class="c" x="386" y="66" rx="2" ry="2"/><rect class="c" x="386" y="82" rx="2" ry="2"/><rect class="c" x="386" y="98" rx="2" ry="2"/><rect class="c" x="402" y="2" rx="2" ry="2"/><rect class="c" x="402" y="18" rx="2" ry="2"/><rect class="c" x="402" y="34" rx="2" ry="2"/><rect class="c" x="402" y="50" rx="2" ry="2"/><rect class="c" x="402" y="66" rx="2" ry="2"/><rect class="c" x="402" y="82" rx="2" ry="2"/><rect class="c" x="402" y="98" rx="2" ry="2"/><rect class="c" x="418" y="2" rx="2" ry="2"/><rect class="c" x="418" y="18" rx="2" ry="2"/><rect class="c" x="418" y="34" rx="2" ry="2"/><rect class="c" x="418" y="50" rx="2" ry="2"/><rect class="c" x="418" y="66" rx="2" ry="2"/><rect class="c" x="418" y="82" rx="2" ry="2"/><rect class="c" x="418" y="98" rx="2" ry="2"/><rect class="c" x="434" y="2" rx="2" ry="2"/><rect class="c" x="434" y="18" rx="2" ry="2"/><rect class="c" x="434" y="34" rx="2" ry="2"/><rect class="c" x="434" y="50" rx="2" ry="2"/><rect class="c" x="434" y="66" rx="2" ry="2"/><rect class="c" x="434" y="82" rx="2" ry="2"/><rect class="c" x="434" y="98" rx="2" ry="2"/><rect class="c" x="450" y="2" rx="2" ry="2"/><rect class="c" x="450" y="18" rx="2" ry="2"/><rect class="c" x="450" y="34" rx="2" ry="2"/><rect class="c" x="450" y="50" rx="2" ry="2"/><rect class="c" x="450" y="66" rx="2" ry="2"/><rect class="c" x="450" y="82" rx="2" ry="2"/><rect class="c" x="450" y="98" rx="2" ry="2"/><rect class="c" x="466" y="2" rx="2" ry="2"/><rect class="c" x="466" y="18" rx="2" ry="2"/><rect class="c" x="466" y="34" rx="2" ry="2"/><rect class="c" x="466" y="50" rx="2" ry="2"/><rect class="c" x="466" y="66" rx="2" ry="2"/><rect class="c" x="466" y="82" rx="2" ry="2"/><rect class="c" x="466" y="98" rx="2" ry="2"/><rect class="c" x="482" y="2" rx="2" ry="2"/><rect class="c" x="482" y="18" rx="2" ry="2"/><rect class="c" x="482" y="34" rx="2" ry="2"/><rect class="c" x="482" y="50" rx="2" ry="2"/><rect class="c" x="482" y="66" rx="2" ry="2"/><rect class="c" x="482" y="82" rx="2" ry="2"/><rect class="c" x="482" y="98" rx="2" ry="2"/><rect class="c" x="498" y="2" rx="2" ry="2"/><rect class="c" x="498" y="18" rx="2" ry="2"/><rect class="c" x="498" y="34" rx="2" ry="2"/><rect class="c" x="498" y="50" rx="2" ry="2"/><rect class="c" x="498" y="66" rx="2" ry="2"/><rect class="c" x="498" y="82" rx="2" ry="2"/><rect class="c" x="498" y="98" rx="2" ry="2"/><rect class="c" x="514" y="2" rx="2" ry="2"/><rect class="c" x="514" y="18" rx="2" ry="2"/><rect class="c" x="514" y="34" rx="2" ry="2"/><rect class="c" x="514" y="50" rx="2" ry="2"/><rect class="c" x="514" y="66" rx="2" ry="2"/><rect class="c" x="514" y="82" rx="2" ry="2"/><rect class="c" x="514" y="98" rx="2" ry="2"/><rect class="c" x="530" y="2" rx="2" ry="2"/><rect class="c" x="530" y="18" rx="2" ry="2"/><rect class="c" x="530" y="34" rx="2" ry="2"/><rect class="c" x="530" y="50" rx="2" ry="2"/><rect class="c" x="530" y="66" rx="2" ry="2"/><rect class="c" x="530" y="82" rx="2" ry="2"/><rect class="c" x="530" y="98" rx="2" ry="2"/><rect class="c" x="546" y="2" rx="2" ry="2"/><rect class="c" x="546" y="18" rx="2" ry="2"/><rect class="c" x="546" y="34" rx="2" ry="2"/><rect class="c" x="546" y="50" rx="2" ry="2"/><rect class="c" x="546" y="66" rx="2" ry="2"/><rect class="c" x="546" y="82" rx="2" ry="2"/><rect class="c" x="546" y="98" rx="2" ry="2"/><rect class="c" x="562" y="2" rx="2" ry="2"/><rect class="c" x="562" y="18" rx="2" ry="2"/><rect class="c" x="562" y="34" rx="2" ry="2"/><rect class="c" x="562" y="50" rx="2" ry="2"/><rect class="c" x="562" y="66" rx="2" ry="2"/><rect class="c" x="562" y="82" rx="2" ry="2"/><rect class="c" x="562" y="98" rx="2" ry="2"/><rect class="c" x="578" y="2" rx="2" ry="2"/><rect class="c" x="578" y="18" rx="2" ry="2"/><rect class="c" x="578" y="34" rx="2" ry="2"/><rect class="c" x="578" y="50" rx="2" ry="2"/><rect class="c" x="578" y="66" rx="2" ry="2"/><rect class="c" x="578" y="82" rx="2" ry="2"/><rect class="c" x="578" y="98" rx="2" ry="2"/><rect class="c" x="594" y="2" rx="2" ry="2"/><rect class="c" x="594" y="18" rx="2" ry="2"/><rect class="c" x="594" y="34" rx="2" ry="2"/><rect class="c" x="594" y="50" rx="2" ry="2"/><rect class="c" x="594" y="66" rx="2" ry="2"/><rect class="c" x="594" y="82" rx="2" ry="2"/><rect class="c" x="594" y="98" rx="2" ry="2"/><rect class="c" x="610" y="2" rx="2" ry="2"/><rect class="c" x="610" y="18" rx="2" ry="2"/><rect class="c" x="610" y="34" rx="2" ry="2"/><rect class="c" x="610" y="50" rx="2" ry="2"/><rect class="c" x="610" y="66" rx="2" ry="2"/><rect class="c" x="610" y="82" rx="2" ry="2"/><rect class="c" x="610" y="98" rx="2" ry="2"/><rect class="c" x="626" y="2" rx="2" ry="2"/><rect class="c" x="626" y="18" rx="2" ry="2"/><rect class="c" x="626" y="34" rx="2" ry="2"/><rect class="c" x="626" y="50" rx="2" ry="2"/><rect class="c" x="626" y="66" rx="2" ry="2"/><rect class="c" x="626" y="82" rx="2" ry="2"/><rect class="c" x="626" y="98" rx="2" ry="2"/><rect class="c" x="642" y="2" rx="2" ry="2"/><rect class="c" x="642" y="18" rx="2" ry="2"/><rect class="c" x="642" y="34" rx="2" ry="2"/><rect class="c" x="642" y="50" rx="2" ry="2"/><rect class="c" x="642" y="66" rx="2" ry="2"/><rect class="c" x="642" y="82" rx="2" ry="2"/><rect class="c" x="642" y="98" rx="2" ry="2"/><rect class="c" x="658" y="2" rx="2" ry="2"/><rect class="c" x="658" y="18" rx="2" ry="2"/><rect class="c" x="658" y="34" rx="2" ry="2"/><rect class="c" x="658" y="50" rx="2" ry="2"/><rect class="c" x="658" y="66" rx="2" ry="2"/><rect class="c" x="658" y="82" rx="2" ry="2"/><rect class="c" x="658" y="98" rx="2" ry="2"/><rect class="c" x="674" y="2" rx="2" ry="2"/><rect class="c" x="674" y="18" rx="2" ry="2"/><rect class="c" x="674" y="34" rx="2" ry="2"/><rect class="c" x="674" y="50" rx="2" ry="2"/><rect class="c" x="674" y="66" rx="2" ry="2"/><rect class="c" x="674" y="82" rx="2" ry="2"/><rect class="c" x="674" y="98" rx="2" ry="2"/><rect class="c" x="690" y="2" rx="2" ry="2"/><rect class="c" x="690" y="18" rx="2" ry="2"/><rect class="c" x="690" y="34" rx="2" ry="2"/><rect class="c" x="690" y="50" rx="2" ry="2"/><rect class="c" x="690" y="66" rx="2" ry="2"/><rect class="c" x="690" y="82" rx="2" ry="2"/><rect class="c" x="690" y="98" rx="2" ry="2"/><rect class="c" x="706" y="2" rx="2" ry="2"/><rect class="c" x="706" y="18" rx="2" ry="2"/><rect class="c" x="706" y="34" rx="2" ry="2"/><rect class="c" x="706" y="50" rx="2" ry="2"/><rect class="c" x="706" y="66" rx="2" ry="2"/><rect class="c" x="706" y="82" rx="2" ry="2"/><rect class="c c1" x="706" y="98" rx="2" ry="2"/><rect class="c c2" x="722" y="2" rx="2" ry="2"/><rect class="c c3" x="722" y="18" rx="2" ry="2"/><rect class="c c4" x="722" y="34" rx="2" ry="2"/><rect class="c c5" x="722" y="50" rx="2" ry="2"/><rect class="c c6" x="722" y="66" rx="2" ry="2"/><rect class="c c7" x="722" y="82" rx="2" ry="2"/><rect class="c c8" x="722" y="98" rx="2" ry="2"/><rect class="c c9" x="738" y="2" rx="2" ry="2"/><rect class="c ca" x="738" y="18" rx="2" ry="2"/><rect class="c cb" x="738" y="34" rx="2" ry="2"/><rect class="c cc" x="738" y="50" rx="2" ry="2"/><rect class="c cd" x="738" y="66" rx="2" ry="2"/><rect class="c ce" x="738" y="82" rx="2" ry="2"/><rect class="c cf" x="738" y="98" rx="2" ry="2"/><rect class="c cg" x="754" y="2" rx="2" ry="2"/><rect class="c ch" x="754" y="18" rx="2" ry="2"/><rect class="c ci" x="754" y="34" rx="2" ry="2"/><rect class="c cj" x="754" y="50" rx="2" ry="2"/><rect class="c ck" x="754" y="66" rx="2" ry="2"/><rect class="c cl" x="754" y="82" rx="2" ry="2"/><rect class="c cm" x="754" y="98" rx="2" ry="2"/><rect class="c cn" x="770" y="2" rx="2" ry="2"/><rect class="c co" x="770" y="18" rx="2" ry="2"/><rect class="c cp" x="770" y="34" rx="2" ry="2"/><rect class="c cq" x="770" y="50" rx="2" ry="2"/><rect class="c cr" x="770" y="66" rx="2" ry="2"/><rect class="c cs" x="770" y="82" rx="2" ry="2"/><rect class="c ct" x="770" y="98" rx="2" ry="2"/><rect class="c cu" x="786" y="2" rx="2" ry="2"/><rect class="c cv" x="786" y="18" rx="2" ry="2"/><rect class="c cw" x="786" y="34" rx="2" ry="2"/><rect class="c cx" x="786" y="50" rx="2" ry="2"/><rect class="c cy" x="786" y="66" rx="2" ry="2"/><rect class="c cz" x="786" y="82" rx="2" ry="2"/><rect class="c c10" x="786" y="98" rx="2" ry="2"/><rect class="c c11" x="802" y="2" rx="2" ry="2"/><rect class="c c12" x="802" y="18" rx="2" ry="2"/><rect class="c c13" x="802" y="34" rx="2" ry="2"/><rect class="c c14" x="802" y="50" rx="2" ry="2"/><rect class="c c15" x="802" y="66" rx="2" ry="2"/><rect class="c c16" x="802" y="82" rx="2" ry="2"/><rect class="c c17" x="802" y="98" rx="2" ry="2"/><rect class="c c18" x="818" y="2" rx="2" ry="2"/><rect class="c c19" x="818" y="18" rx="2" ry="2"/><rect class="c c1a" x="818" y="34" rx="2" ry="2"/><rect class="c c1b" x="818" y="50" rx="2" ry="2"/><rect class="c c1c" x="818" y="66" rx="2" ry="2"/><rect class="c c1d" x="818" y="82" rx="2" ry="2"/><rect class="c c1e" x="818" y="98" rx="2" ry="2"/><rect class="c" x="834" y="2" rx="2" ry="2"/><rect class="u u0" height="12" width="50.5" x="0.0" y="144"/><rect class="u u1" height="12" width="67.1" x="49.9" y="144"/><rect class="u u2" height="12" width="599.2" x="116.4" y="144"/><rect class="u u3" height="12" width="133.6" x="715.0" y="144"/><rect class="s s0" x="0.8" y="0.8" width="14.4" height="14.4" rx="4.5" ry="4.5"/><rect class="s s1" x="1.8" y="1.8" width="12.3" height="12.3" rx="4.1" ry="4.1"/><rect class="s s2" x="2.6" y="2.6" width="10.8" height="10.8" rx="3.6" ry="3.6"/><rect class="s s3" x="3.0" y="3.0" width="9.9" height="9.9" rx="3.3" ry="3.3"/></svg>