<svg viewBox="-16 -32 880 192" width="880" height="192" xmlns="http://www.w3.org/2000/svg"><desc>Generated with https://github.com/Platane/snk</desc><style>:root{--cb:#1b1f230a;--cs:purple;--ce:#161b22;--c0:#161b22;--c1:#01311f;--c2:#034525;--c3:#0f6d31;--c4:#00c647}.c{shape-rendering:geometricPrecision;fill:var(--ce);stroke-width:1px;stroke:var(--cb);animation:none 24300ms linear infinite;width:12px;height:12px}@keyframes c0{4.52%{fill:var(--c1)}4.54%,100%{fill:var(--ce)}}.c.c0{fill:var(--c1);animation-name:c0}@keyframes c1{18.92%{fill:var(--c1)}18.94%,100%{fill:var(--ce)}}.c.c1{fill:var(--c1);animation-name:c1}@keyframes c2{22.62%{fill:var(--c2)}22.64%,100%{fill:var(--ce)}}.c.c2{fill:var(--c2);animation-name:c2}@keyframes c3{22.21%{fill:var(--c1)}22.23%,100%{fill:var(--ce)}}.c.c3{fill:var(--c1);animation-name:c3}@keyframes c4{44.02%{fill:var(--c3)}44.04%,100%{fill:var(--ce)}}.c.c4{fill:var(--c3);animation-name:c4}@keyframes c5{24.68%{fill:var(--c2)}24.7%,100%{fill:var(--ce)}}.c.c5{fill:var(--c2);animation-name:c5}@keyframes c6{25.09%{fill:var(--c2)}25.11%,100%{fill:var(--ce)}}.c.c6{fill:var(--c2);animation-name:c6}@keyframes c7{79%{fill:var(--c4)}79.02%,100%{fill:var(--ce)}}.c.c7{fill:var(--c4);animation-name:c7}@keyframes c8{79.41%{fill:var(--c4)}79.43%,100%{fill:var(--ce)}}.c.c8{fill:var(--c4);animation-name:c8}@keyframes c9{82.29%{fill:var(--c4)}82.31%,100%{fill:var(--ce)}}.c.c9{fill:var(--c4);animation-name:c9}@keyframes ca{43.2%{fill:var(--c2)}43.22%,100%{fill:var(--ce)}}.c.ca{fill:var(--c2);animation-name:ca}@keyframes cb{43.61%{fill:var(--c2)}43.63%,100%{fill:var(--ce)}}.c.cb{fill:var(--c2);animation-name:cb}@keyframes cc{44.85%{fill:var(--c3)}44.87%,100%{fill:var(--ce)}}.c.cc{fill:var(--c3);animation-name:cc}@keyframes cd{76.53%{fill:var(--c3)}76.55%,100%{fill:var(--ce)}}.c.cd{fill:var(--c3);animation-name:cd}@keyframes ce{78.59%{fill:var(--c4)}78.61%,100%{fill:var(--ce)}}.c.ce{fill:var(--c4);animation-name:ce}@keyframes cf{78.18%{fill:var(--c3)}78.2%,100%{fill:var(--ce)}}.c.cf{fill:var(--c3);animation-name:cf}@keyframes cg{52.25%{fill:var(--c3)}52.27%,100%{fill:var(--ce)}}.c.cg{fill:var(--c3);animation-name:cg}@keyframes ch{52.66%{fill:var(--c3)}52.68%,100%{fill:var(--ce)}}.c.ch{fill:var(--c3);animation-name:ch}@keyframes ci{58.01%{fill:var(--c3)}58.03%,100%{fill:var(--ce)}}.c.ci{fill:var(--c3);animation-name:ci}@keyframes cj{45.26%{fill:var(--c3)}45.28%,100%{fill:var(--ce)}}.c.cj{fill:var(--c3);animation-name:cj}@keyframes ck{58.84%{fill:var(--c3)}58.86%,100%{fill:var(--ce)}}.c.ck{fill:var(--c3);animation-name:ck}@keyframes cl{65.01%{fill:var(--c3)}65.03%,100%{fill:var(--ce)}}.c.cl{fill:var(--c3);animation-name:cl}@keyframes cm{65.42%{fill:var(--c3)}65.44%,100%{fill:var(--ce)}}.c.cm{fill:var(--c3);animation-name:cm}@keyframes cn{51.84%{fill:var(--c3)}51.86%,100%{fill:var(--ce)}}.c.cn{fill:var(--c3);animation-name:cn}@keyframes co{53.08%{fill:var(--c3)}53.1%,100%{fill:var(--ce)}}.c.co{fill:var(--c3);animation-name:co}@keyframes cp{57.6%{fill:var(--c3)}57.62%,100%{fill:var(--ce)}}.c.cp{fill:var(--c3);animation-name:cp}@keyframes cq{45.67%{fill:var(--c3)}45.69%,100%{fill:var(--ce)}}.c.cq{fill:var(--c3);animation-name:cq}@keyframes cr{59.25%{fill:var(--c3)}59.27%,100%{fill:var(--ce)}}.c.cr{fill:var(--c3);animation-name:cr}@keyframes cs{64.6%{fill:var(--c3)}64.62%,100%{fill:var(--ce)}}.c.cs{fill:var(--c3);animation-name:cs}@keyframes ct{65.83%{fill:var(--c3)}65.85%,100%{fill:var(--ce)}}.c.ct{fill:var(--c3);animation-name:ct}@keyframes cu{51.43%{fill:var(--c3)}51.45%,100%{fill:var(--ce)}}.c.cu{fill:var(--c3);animation-name:cu}@keyframes cv{53.49%{fill:var(--c3)}53.51%,100%{fill:var(--ce)}}.c.cv{fill:var(--c3);animation-name:cv}@keyframes cw{57.19%{fill:var(--c3)}57.21%,100%{fill:var(--ce)}}.c.cw{fill:var(--c3);animation-name:cw}@keyframes cx{46.08%{fill:var(--c3)}46.1%,100%{fill:var(--ce)}}.c.cx{fill:var(--c3);animation-name:cx}@keyframes cy{59.66%{fill:var(--c3)}59.68%,100%{fill:var(--ce)}}.c.cy{fill:var(--c3);animation-name:cy}@keyframes cz{64.19%{fill:var(--c3)}64.21%,100%{fill:var(--ce)}}.c.cz{fill:var(--c3);animation-name:cz}@keyframes c10{66.25%{fill:var(--c3)}66.27%,100%{fill:var(--ce)}}.c.c10{fill:var(--c3);animation-name:c10}@keyframes c11{51.02%{fill:var(--c3)}51.04%,100%{fill:var(--ce)}}.c.c11{fill:var(--c3);animation-name:c11}@keyframes c12{53.9%{fill:var(--c3)}53.92%,100%{fill:var(--ce)}}.c.c12{fill:var(--c3);animation-name:c12}@keyframes c13{56.78%{fill:var(--c3)}56.8%,100%{fill:var(--ce)}}.c.c13{fill:var(--c3);animation-name:c13}@keyframes c14{46.49%{fill:var(--c3)}46.51%,100%{fill:var(--ce)}}.c.c14{fill:var(--c3);animation-name:c14}@keyframes c15{60.07%{fill:var(--c3)}60.09%,100%{fill:var(--ce)}}.c.c15{fill:var(--c3);animation-name:c15}@keyframes c16{63.78%{fill:var(--c3)}63.8%,100%{fill:var(--ce)}}.c.c16{fill:var(--c3);animation-name:c16}@keyframes c17{66.66%{fill:var(--c3)}66.68%,100%{fill:var(--ce)}}.c.c17{fill:var(--c3);animation-name:c17}@keyframes c18{50.61%{fill:var(--c3)}50.63%,100%{fill:var(--ce)}}.c.c18{fill:var(--c3);animation-name:c18}@keyframes c19{54.31%{fill:var(--c3)}54.33%,100%{fill:var(--ce)}}.c.c19{fill:var(--c3);animation-name:c19}@keyframes c1a{56.37%{fill:var(--c3)}56.39%,100%{fill:var(--ce)}}.c.c1a{fill:var(--c3);animation-name:c1a}@keyframes c1b{46.9%{fill:var(--c3)}46.92%,100%{fill:var(--ce)}}.c.c1b{fill:var(--c3);animation-name:c1b}@keyframes c1c{60.48%{fill:var(--c3)}60.5%,100%{fill:var(--ce)}}.c.c1c{fill:var(--c3);animation-name:c1c}@keyframes c1d{63.36%{fill:var(--c3)}63.38%,100%{fill:var(--ce)}}.c.c1d{fill:var(--c3);animation-name:c1d}@keyframes c1e{67.07%{fill:var(--c3)}67.09%,100%{fill:var(--ce)}}.c.c1e{fill:var(--c3);animation-name:c1e}@keyframes c1f{50.2%{fill:var(--c3)}50.22%,100%{fill:var(--ce)}}.c.c1f{fill:var(--c3);animation-name:c1f}@keyframes c1g{54.72%{fill:var(--c3)}54.74%,100%{fill:var(--ce)}}.c.c1g{fill:var(--c3);animation-name:c1g}@keyframes c1h{55.96%{fill:var(--c3)}55.98%,100%{fill:var(--ce)}}.c.c1h{fill:var(--c3);animation-name:c1h}@keyframes c1i{47.32%{fill:var(--c3)}47.34%,100%{fill:var(--ce)}}.c.c1i{fill:var(--c3);animation-name:c1i}@keyframes c1j{60.9%{fill:var(--c3)}60.92%,100%{fill:var(--ce)}}.c.c1j{fill:var(--c3);animation-name:c1j}@keyframes c1k{62.95%{fill:var(--c3)}62.97%,100%{fill:var(--ce)}}.c.c1k{fill:var(--c3);animation-name:c1k}@keyframes c1l{67.48%{fill:var(--c3)}67.5%,100%{fill:var(--ce)}}.c.c1l{fill:var(--c3);animation-name:c1l}@keyframes c1m{49.78%{fill:var(--c3)}49.8%,100%{fill:var(--ce)}}.c.c1m{fill:var(--c3);animation-name:c1m}@keyframes c1n{55.13%{fill:var(--c3)}55.15%,100%{fill:var(--ce)}}.c.c1n{fill:var(--c3);animation-name:c1n}@keyframes c1o{55.55%{fill:var(--c3)}55.57%,100%{fill:var(--ce)}}.c.c1o{fill:var(--c3);animation-name:c1o}@keyframes c1p{47.73%{fill:var(--c3)}47.75%,100%{fill:var(--ce)}}.c.c1p{fill:var(--c3);animation-name:c1p}@keyframes c1q{61.31%{fill:var(--c3)}61.33%,100%{fill:var(--ce)}}.c.c1q{fill:var(--c3);animation-name:c1q}@keyframes c1r{62.54%{fill:var(--c3)}62.56%,100%{fill:var(--ce)}}.c.c1r{fill:var(--c3);animation-name:c1r}@keyframes c1s{67.89%{fill:var(--c3)}67.91%,100%{fill:var(--ce)}}.c.c1s{fill:var(--c3);animation-name:c1s}@keyframes c1t{49.37%{fill:var(--c3)}49.39%,100%{fill:var(--ce)}}.c.c1t{fill:var(--c3);animation-name:c1t}@keyframes c1u{48.96%{fill:var(--c3)}48.98%,100%{fill:var(--ce)}}.c.c1u{fill:var(--c3);animation-name:c1u}@keyframes c1v{48.55%{fill:var(--c3)}48.57%,100%{fill:var(--ce)}}.c.c1v{fill:var(--c3);animation-name:c1v}@keyframes c1w{48.14%{fill:var(--c3)}48.16%,100%{fill:var(--ce)}}.c.c1w{fill:var(--c3);animation-name:c1w}@keyframes c1x{61.72%{fill:var(--c3)}61.74%,100%{fill:var(--ce)}}.c.c1x{fill:var(--c3);animation-name:c1x}@keyframes c1y{62.13%{fill:var(--c3)}62.15%,100%{fill:var(--ce)}}.c.c1y{fill:var(--c3);animation-name:c1y}@keyframes c1z{68.3%{fill:var(--c3)}68.32%,100%{fill:var(--ce)}}.c.c1z{fill:var(--c3);animation-name:c1z}@keyframes c20{35.79%{fill:var(--c2)}35.81%,100%{fill:var(--ce)}}.c.c20{fill:var(--c2);animation-name:c20}@keyframes c21{35.38%{fill:var(--c2)}35.4%,100%{fill:var(--ce)}}.c.c21{fill:var(--c2);animation-name:c21}@keyframes c22{34.97%{fill:var(--c2)}34.99%,100%{fill:var(--ce)}}.c.c22{fill:var(--c2);animation-name:c22}@keyframes c23{34.56%{fill:var(--c2)}34.58%,100%{fill:var(--ce)}}.c.c23{fill:var(--c2);animation-name:c23}@keyframes c24{34.15%{fill:var(--c2)}34.17%,100%{fill:var(--ce)}}.c.c24{fill:var(--c2);animation-name:c24}@keyframes c25{33.73%{fill:var(--c2)}33.75%,100%{fill:var(--ce)}}.c.c25{fill:var(--c2);animation-name:c25}@keyframes c26{31.68%{fill:var(--c2)}31.7%,100%{fill:var(--ce)}}.c.c26{fill:var(--c2);animation-name:c26}@keyframes c27{36.2%{fill:var(--c2)}36.22%,100%{fill:var(--ce)}}.c.c27{fill:var(--c2);animation-name:c27}@keyframes c28{71.18%{fill:var(--c3)}71.2%,100%{fill:var(--ce)}}.c.c28{fill:var(--c3);animation-name:c28}@keyframes c29{70.77%{fill:var(--c3)}70.79%,100%{fill:var(--ce)}}.c.c29{fill:var(--c3);animation-name:c29}@keyframes c2a{70.36%{fill:var(--c3)}70.38%,100%{fill:var(--ce)}}.c.c2a{fill:var(--c3);animation-name:c2a}@keyframes c2b{69.95%{fill:var(--c3)}69.97%,100%{fill:var(--ce)}}.c.c2b{fill:var(--c3);animation-name:c2b}@keyframes c2c{69.54%{fill:var(--c3)}69.56%,100%{fill:var(--ce)}}.c.c2c{fill:var(--c3);animation-name:c2c}@keyframes c2d{32.09%{fill:var(--c2)}32.11%,100%{fill:var(--ce)}}.c.c2d{fill:var(--c2);animation-name:c2d}@keyframes c2e{36.62%{fill:var(--c2)}36.64%,100%{fill:var(--ce)}}.c.c2e{fill:var(--c2);animation-name:c2e}.u{transform-origin:0 0;transform:scale(0,1);animation:none linear 24300ms infinite}@keyframes u0{4.52%{transform:scale(0.000,1)}4.54%,18.92%{transform:scale(0.333,1)}18.94%,22.21%{transform:scale(0.667,1)}22.23%,100%{transform:scale(1.000,1)}}.u.u0{fill:var(--c1);animation-name:u0;transform-origin:0.0px 0}@keyframes u1{22.62%{transform:scale(0.000,1)}22.64%,24.68%{transform:scale(0.067,1)}24.7%,25.09%{transform:scale(0.133,1)}25.11%,31.68%{transform:scale(0.200,1)}31.7%,32.09%{transform:scale(0.267,1)}32.11%,33.73%{transform:scale(0.333,1)}33.75%,34.15%{transform:scale(0.400,1)}34.17%,34.56%{transform:scale(0.467,1)}34.58%,34.97%{transform:scale(0.533,1)}34.99%,35.38%{transform:scale(0.600,1)}35.4%,35.79%{transform:scale(0.667,1)}35.81%,36.2%{transform:scale(0.733,1)}36.22%,36.62%{transform:scale(0.800,1)}36.64%,43.2%{transform:scale(0.867,1)}43.22%,43.61%{transform:scale(0.933,1)}43.63%,100%{transform:scale(1.000,1)}}.u.u1{fill:var(--c2);animation-name:u1;transform-origin:29.2px 0}@keyframes u2{44.02%{transform:scale(0.000,1)}44.04%,44.85%{transform:scale(0.015,1)}44.87%,45.26%{transform:scale(0.031,1)}45.28%,45.67%{transform:scale(0.046,1)}45.69%,46.08%{transform:scale(0.062,1)}46.1%,46.49%{transform:scale(0.077,1)}46.51%,46.9%{transform:scale(0.092,1)}46.92%,47.32%{transform:scale(0.108,1)}47.34%,47.73%{transform:scale(0.123,1)}47.75%,48.14%{transform:scale(0.138,1)}48.16%,48.55%{transform:scale(0.154,1)}48.57%,48.96%{transform:scale(0.169,1)}48.98%,49.37%{transform:scale(0.185,1)}49.39%,49.78%{transform:scale(0.200,1)}49.8%,50.2%{transform:scale(0.215,1)}50.22%,50.61%{transform:scale(0.231,1)}50.63%,51.02%{transform:scale(0.246,1)}51.04%,51.43%{transform:scale(0.262,1)}51.45%,51.84%{transform:scale(0.277,1)}51.86%,52.25%{transform:scale(0.292,1)}52.27%,52.66%{transform:scale(0.308,1)}52.68%,53.08%{transform:scale(0.323,1)}53.1%,53.49%{transform:scale(0.338,1)}53.51%,53.9%{transform:scale(0.354,1)}53.92%,54.31%{transform:scale(0.369,1)}54.33%,54.72%{transform:scale(0.385,1)}54.74%,55.13%{transform:scale(0.400,1)}55.15%,55.55%{transform:scale(0.415,1)}55.57%,55.96%{transform:scale(0.431,1)}55.98%,56.37%{transform:scale(0.446,1)}56.39%,56.78%{transform:scale(0.462,1)}56.8%,57.19%{transform:scale(0.477,1)}57.21%,57.6%{transform:scale(0.492,1)}57.62%,58.01%{transform:scale(0.508,1)}58.03%,58.84%{transform:scale(0.523,1)}58.86%,59.25%{transform:scale(0.538,1)}59.27%,59.66%{transform:scale(0.554,1)}59.68%,60.07%{transform:scale(0.569,1)}60.09%,60.48%{transform:scale(0.585,1)}60.5%,60.9%{transform:scale(0.600,1)}60.92%,61.31%{transform:scale(0.615,1)}61.33%,61.72%{transform:scale(0.631,1)}61.74%,62.13%{transform:scale(0.646,1)}62.15%,62.54%{transform:scale(0.662,1)}62.56%,62.95%{transform:scale(0.677,1)}62.97%,63.36%{transform:scale(0.692,1)}63.38%,63.78%{transform:scale(0.708,1)}63.8%,64.19%{transform:scale(0.723,1)}64.21%,64.6%{transform:scale(0.738,1)}64.62%,65.01%{transform:scale(0.754,1)}65.03%,65.42%{transform:scale(0.769,1)}65.44%,65.83%{transform:scale(0.785,1)}65.85%,66.25%{transform:scale(0.800,1)}66.27%,66.66%{transform:scale(0.815,1)}66.68%,67.07%{transform:scale(0.831,1)}67.09%,67.48%{transform:scale(0.846,1)}67.5%,67.89%{transform:scale(0.862,1)}67.91%,68.3%{transform:scale(0.877,1)}68.32%,69.54%{transform:scale(0.892,1)}69.56%,69.95%{transform:scale(0.908,1)}69.97%,70.36%{transform:scale(0.923,1)}70.38%,70.77%{transform:scale(0.938,1)}70.79%,71.18%{transform:scale(0.954,1)}71.2%,76.53%{transform:scale(0.969,1)}76.55%,78.18%{transform:scale(0.985,1)}78.2%,100%{transform:scale(1.000,1)}}.u.u2{fill:var(--c3);animation-name:u2;transform-origin:175.4px 0}@keyframes u3{78.59%{transform:scale(0.000,1)}78.61%,79%{transform:scale(0.250,1)}79.02%,79.41%{transform:scale(0.500,1)}79.43%,82.29%{transform:scale(0.750,1)}82.31%,100%{transform:scale(1.000,1)}}.u.u3{fill:var(--c4);animation-name:u3;transform-origin:809.0px 0}.s{shape-rendering:geometricPrecision;fill:var(--cs);animation:none linear 24300ms infinite}@keyframes s0{0%,99.59%{transform:translate(0px,-16px)}0.41%{transform:translate(0px,0px)}2.88%{transform:translate(96px,0px)}4.53%{transform:translate(96px,64px)}18.11%,25.51%{transform:translate(624px,64px)}18.93%{transform:translate(624px,96px)}19.34%{transform:translate(608px,96px)}21.4%{transform:translate(608px,16px)}22.22%,42.8%{transform:translate(640px,16px)}22.63%{transform:translate(640px,0px)}23.05%{transform:translate(624px,0px)}24.28%{transform:translate(624px,48px)}24.69%,44.44%{transform:translate(640px,48px)}25.1%{transform:translate(640px,64px)}26.75%{transform:translate(624px,112px)}31.28%,32.92%{transform:translate(800px,112px)}31.69%{transform:translate(800px,96px)}32.1%,69.14%{transform:translate(816px,96px)}32.51%{transform:translate(816px,112px)}35.8%{transform:translate(800px,0px)}36.63%{transform:translate(832px,0px)}37.04%{transform:translate(832px,-16px)}41.98%{transform:translate(640px,-16px)}43.21%,75.31%{transform:translate(656px,16px)}43.62%{transform:translate(656px,32px)}44.03%{transform:translate(640px,32px)}48.15%{transform:translate(784px,48px)}49.38%{transform:translate(784px,0px)}52.26%{transform:translate(672px,0px)}52.67%{transform:translate(672px,16px)}55.14%{transform:translate(768px,16px)}55.56%{transform:translate(768px,32px)}58.02%{transform:translate(672px,32px)}58.85%,76.95%{transform:translate(672px,64px)}61.73%{transform:translate(784px,64px)}62.14%{transform:translate(784px,80px)}65.02%{transform:translate(672px,80px)}65.43%,77.78%{transform:translate(672px,96px)}71.19%{transform:translate(816px,16px)}76.54%{transform:translate(656px,64px)}78.19%,79.84%{transform:translate(656px,96px)}78.6%{transform:translate(656px,80px)}79.01%{transform:translate(640px,80px)}79.42%{transform:translate(640px,96px)}82.3%{transform:translate(656px,0px)}97.53%{transform:translate(64px,0px)}97.94%{transform:translate(64px,-16px)}}.s.s0{transform:translate(0px,-16px);animation-name:s0}@keyframes s1{0%,99.59%{transform:translate(16px,-16px)}0.41%{transform:translate(0px,-16px)}0.82%{transform:translate(0px,0px)}3.29%{transform:translate(96px,0px)}4.94%{transform:translate(96px,64px)}18.52%,25.93%{transform:translate(624px,64px)}19.34%{transform:translate(624px,96px)}19.75%{transform:translate(608px,96px)}21.81%{transform:translate(608px,16px)}22.63%,43.21%{transform:translate(640px,16px)}23.05%{transform:translate(640px,0px)}23.46%{transform:translate(624px,0px)}24.69%{transform:translate(624px,48px)}25.1%,44.86%{transform:translate(640px,48px)}25.51%{transform:translate(640px,64px)}27.16%{transform:translate(624px,112px)}31.69%,33.33%{transform:translate(800px,112px)}32.1%{transform:translate(800px,96px)}32.51%,69.55%{transform:translate(816px,96px)}32.92%{transform:translate(816px,112px)}36.21%{transform:translate(800px,0px)}37.04%{transform:translate(832px,0px)}37.45%{transform:translate(832px,-16px)}42.39%{transform:translate(640px,-16px)}43.62%,75.72%{transform:translate(656px,16px)}44.03%{transform:translate(656px,32px)}44.44%{transform:translate(640px,32px)}48.56%{transform:translate(784px,48px)}49.79%{transform:translate(784px,0px)}52.67%{transform:translate(672px,0px)}53.09%{transform:translate(672px,16px)}55.56%{transform:translate(768px,16px)}55.97%{transform:translate(768px,32px)}58.44%{transform:translate(672px,32px)}59.26%,77.37%{transform:translate(672px,64px)}62.14%{transform:translate(784px,64px)}62.55%{transform:translate(784px,80px)}65.43%{transform:translate(672px,80px)}65.84%,78.19%{transform:translate(672px,96px)}71.6%{transform:translate(816px,16px)}76.95%{transform:translate(656px,64px)}78.6%,80.25%{transform:translate(656px,96px)}79.01%{transform:translate(656px,80px)}79.42%{transform:translate(640px,80px)}79.84%{transform:translate(640px,96px)}82.72%{transform:translate(656px,0px)}97.94%{transform:translate(64px,0px)}98.35%{transform:translate(64px,-16px)}}.s.s1{transform:translate(16px,-16px);animation-name:s1}@keyframes s2{0%,99.59%{transform:translate(32px,-16px)}0.82%{transform:translate(0px,-16px)}1.23%{transform:translate(0px,0px)}3.7%{transform:translate(96px,0px)}5.35%{transform:translate(96px,64px)}18.93%,26.34%{transform:translate(624px,64px)}19.75%{transform:translate(624px,96px)}20.16%{transform:translate(608px,96px)}22.22%{transform:translate(608px,16px)}23.05%,43.62%{transform:translate(640px,16px)}23.46%{transform:translate(640px,0px)}23.87%{transform:translate(624px,0px)}25.1%{transform:translate(624px,48px)}25.51%,45.27%{transform:translate(640px,48px)}25.93%{transform:translate(640px,64px)}27.57%{transform:translate(624px,112px)}32.1%,33.74%{transform:translate(800px,112px)}32.51%{transform:translate(800px,96px)}32.92%,69.96%{transform:translate(816px,96px)}33.33%{transform:translate(816px,112px)}36.63%{transform:translate(800px,0px)}37.45%{transform:translate(832px,0px)}37.86%{transform:translate(832px,-16px)}42.8%{transform:translate(640px,-16px)}44.03%,76.13%{transform:translate(656px,16px)}44.44%{transform:translate(656px,32px)}44.86%{transform:translate(640px,32px)}48.97%{transform:translate(784px,48px)}50.21%{transform:translate(784px,0px)}53.09%{transform:translate(672px,0px)}53.5%{transform:translate(672px,16px)}55.97%{transform:translate(768px,16px)}56.38%{transform:translate(768px,32px)}58.85%{transform:translate(672px,32px)}59.67%,77.78%{transform:translate(672px,64px)}62.55%{transform:translate(784px,64px)}62.96%{transform:translate(784px,80px)}65.84%{transform:translate(672px,80px)}66.26%,78.6%{transform:translate(672px,96px)}72.02%{transform:translate(816px,16px)}77.37%{transform:translate(656px,64px)}79.01%,80.66%{transform:translate(656px,96px)}79.42%{transform:translate(656px,80px)}79.84%{transform:translate(640px,80px)}80.25%{transform:translate(640px,96px)}83.13%{transform:translate(656px,0px)}98.35%{transform:translate(64px,0px)}98.77%{transform:translate(64px,-16px)}}.s.s2{transform:translate(32px,-16px);animation-name:s2}@keyframes s3{0%,99.59%{transform:translate(48px,-16px)}1.23%{transform:translate(0px,-16px)}1.65%{transform:translate(0px,0px)}4.12%{transform:translate(96px,0px)}5.76%{transform:translate(96px,64px)}19.34%,26.75%{transform:translate(624px,64px)}20.16%{transform:translate(624px,96px)}20.58%{transform:translate(608px,96px)}22.63%{transform:translate(608px,16px)}23.46%,44.03%{transform:translate(640px,16px)}23.87%{transform:translate(640px,0px)}24.28%{transform:translate(624px,0px)}25.51%{transform:translate(624px,48px)}25.93%,45.68%{transform:translate(640px,48px)}26.34%{transform:translate(640px,64px)}27.98%{transform:translate(624px,112px)}32.51%,34.16%{transform:translate(800px,112px)}32.92%{transform:translate(800px,96px)}33.33%,70.37%{transform:translate(816px,96px)}33.74%{transform:translate(816px,112px)}37.04%{transform:translate(800px,0px)}37.86%{transform:translate(832px,0px)}38.27%{transform:translate(832px,-16px)}43.21%{transform:translate(640px,-16px)}44.44%,76.54%{transform:translate(656px,16px)}44.86%{transform:translate(656px,32px)}45.27%{transform:translate(640px,32px)}49.38%{transform:translate(784px,48px)}50.62%{transform:translate(784px,0px)}53.5%{transform:translate(672px,0px)}53.91%{transform:translate(672px,16px)}56.38%{transform:translate(768px,16px)}56.79%{transform:translate(768px,32px)}59.26%{transform:translate(672px,32px)}60.08%,78.19%{transform:translate(672px,64px)}62.96%{transform:translate(784px,64px)}63.37%{transform:translate(784px,80px)}66.26%{transform:translate(672px,80px)}66.67%,79.01%{transform:translate(672px,96px)}72.43%{transform:translate(816px,16px)}77.78%{transform:translate(656px,64px)}79.42%,81.07%{transform:translate(656px,96px)}79.84%{transform:translate(656px,80px)}80.25%{transform:translate(640px,80px)}80.66%{transform:translate(640px,96px)}83.54%{transform:translate(656px,0px)}98.77%{transform:translate(64px,0px)}99.18%{transform:translate(64px,-16px)}}.s.s3{transform:translate(48px,-16px);animation-name:s3}</style><rect class="c" x="2" y="2" rx="2" ry="2"/><rect class="c" x="2" y="18" rx="2" ry="2"/><rect class="c" x="2" y="34" rx="2" ry="2"/><rect class="c" x="2" y="50" rx="2" ry="2"/><rect class="c" x="2" y="66" rx="2" ry="2"/><rect class="c" x="2" y="82" rx="2" ry="2"/><rect class="c" x="2" y="98" rx="2" ry="2"/><rect class="c" x="18" y="2" rx="2" ry="2"/><rect class="c" x="18" y="18" rx="2" ry="2"/><rect class="c" x="18" y="34" rx="2" ry="2"/><rect class="c" x="18" y="50" rx="2" ry="2"/><rect class="c" x="18" y="66" rx="2" ry="2"/><rect class="c" x="18" y="82" rx="2" ry="2"/><rect class="c" x="18" y="98" rx="2" ry="2"/><rect class="c" x="34" y="2" rx="2" ry="2"/><rect class="c" x="34" y="18" rx="2" ry="2"/><rect class="c" x="34" y="34" rx="2" ry="2"/><rect class="c" x="34" y="50" rx="2" ry="2"/><rect class="c" x="34" y="66" rx="2" ry="2"/><rect class="c" x="34" y="82" rx="2" ry="2"/><rect class="c" x="34" y="98" rx="2" ry="2"/><rect class="c" x="50" y="2" rx="2" ry="2"/><rect class="c" x="50" y="18" rx="2" ry="2"/><rect class="c" x="50" y="34" rx="2" ry="2"/><rect class="c" x="50" y="50" rx="2" ry="2"/><rect class="c" x="50" y="66" rx="2" ry="2"/><rect class="c" x="50" y="82" rx="2" ry="2"/><rect class="c" x="50" y="98" rx="2" ry="2"/><rect class="c" x="66" y="2" rx="2" ry="2"/><rect class="c" x="66" y="18" rx="2" ry="2"/><rect class="c" x="66" y="34" rx="2" ry="2"/><rect class="c" x="66" y="50" rx="2" ry="2"/><rect class="c" x="66" y="66" rx="2" ry="2"/><rect class="c" x="66" y="82" rx="2" ry="2"/><rect class="c" x="66" y="98" rx="2" ry="2"/><rect class="c" x="82" y="2" rx="2" ry="2"/><rect class="c" x="82" y="18" rx="2" ry="2"/><rect class="c" x="82" y="34" rx="2" ry="2"/><rect class="c" x="82" y="50" rx="2" ry="2"/><rect class="c" x="82" y="66" rx="2" ry="2"/><rect class="c" x="82" y="82" rx="2" ry="2"/><rect class="c" x="82" y="98" rx="2" ry="2"/><rect class="c" x="98" y="2" rx="2" ry="2"/><rect class="c" x="98" y="18" rx="2" ry="2"/><rect class="c" x="98" y="34" rx="2" ry="2"/><rect class="c" x="98" y="50" rx="2" ry="2"/><rect class="c c0" x="98" y="66" rx="2" ry="2"/><rect class="c" x="98" y="82" rx="2" ry="2"/><rect class="c" x="98" y="98" rx="2" ry="2"/><rect class="c" x="114" y="2" rx="2" ry="2"/><rect class="c" x="114" y="18" rx="2" ry="2"/><rect class="c" x="114" y="34" rx="2" ry="2"/><rect class="c" x="114" y="50" rx="2" ry="2"/><rect class="c" x="114" y="66" rx="2" ry="2"/><rect class="c" x="114" y="82" rx="2" ry="2"/><rect class="c" x="114" y="98" rx="2" ry="2"/><rect class="c" x="130" y="2" rx="2" ry="2"/><rect class="c" x="130" y="18" rx="2" ry="2"/><rect class="c" x="130" y="34" rx="2" ry="2"/><rect class="c" x="130" y="50" rx="2" ry="2"/><rect class="c" x="130" y="66" rx="2" ry="2"/><rect class="c" x="130" y="82" rx="2" ry="2"/><rect class="c" x="130" y="98" rx="2" ry="2"/><rect class="c" x="146" y="2" rx="2" ry="2"/><rect class="c" x="146" y="18" rx="2" ry="2"/><rect class="c" x="146" y="34" rx="2" ry="2"/><rect class="c" x="146" y="50" rx="2" ry="2"/><rect class="c" x="146" y="66" rx="2" ry="2"/><rect class="c" x="146" y="82" rx="2" ry="2"/><rect class="c" x="146" y="98" rx="2" ry="2"/><rect class="c" x="162" y="2" rx="2" ry="2"/><rect class="c" x="162" y="18" rx="2" ry="2"/><rect class="c" x="162" y="34" rx="2" ry="2"/><rect class="c" x="162" y="50" rx="2" ry="2"/><rect class="c" x="162" y="66" rx="2" ry="2"/><rect class="c" x="162" y="82" rx="2" ry="2"/><rect class="c" x="162" y="98" rx="2" ry="2"/><rect class="c" x="178" y="2" rx="2" ry="2"/><rect class="c" x="178" y="18" rx="2" ry="2"/><rect class="c" x="178" y="34" rx="2" ry="2"/><rect class="c" x="178" y="50" rx="2" ry="2"/><rect class="c" x="178" y="66" rx="2" ry="2"/><rect class="c" x="178" y="82" rx="2" ry="2"/><rect class="c" x="178" y="98" rx="2" ry="2"/><rect class="c" x="194" y="2" rx="2" ry="2"/><rect class="c" x="194" y="18" rx="2" ry="2"/><rect class="c" x="194" y="34" rx="2" ry="2"/><rect class="c" x="194" y="50" rx="2" ry="2"/><rect class="c" x="194" y="66" rx="2" ry="2"/><rect class="c" x="194" y="82" rx="2" ry="2"/><rect class="c" x="194" y="98" rx="2" ry="2"/><rect class="c" x="210" y="2" rx="2" ry="2"/><rect class="c" x="210" y="18" rx="2" ry="2"/><rect class="c" x="210" y="34" rx="2" ry="2"/><rect class="c" x="210" y="50" rx="2" ry="2"/><rect class="c" x="210" y="66" rx="2" ry="2"/><rect class="c" x="210" y="82" rx="2" ry="2"/><rect class="c" x="210" y="98" rx="2" ry="2"/><rect class="c" x="226" y="2" rx="2" ry="2"/><rect class="c" x="226" y="18" rx="2" ry="2"/><rect class="c" x="226" y="34" rx="2" ry="2"/><rect class="c" x="226" y="50" rx="2" ry="2"/><rect class="c" x="226" y="66" rx="2" ry="2"/><rect class="c" x="226" y="82" rx="2" ry="2"/><rect class="c" x="226" y="98" rx="2" ry="2"/><rect class="c" x="242" y="2" rx="2" ry="2"/><rect class="c" x="242" y="18" rx="2" ry="2"/><rect class="c" x="242" y="34" rx="2" ry="2"/><rect class="c" x="242" y="50" rx="2" ry="2"/><rect class="c" x="242" y="66" rx="2" ry="2"/><rect class="c" x="242" y="82" rx="2" ry="2"/><rect class="c" x="242" y="98" rx="2" ry="2"/><rect class="c" x="258" y="2" rx="2" ry="2"/><rect class="c" x="258" y="18" rx="2" ry="2"/><rect class="c" x="258" y="34" rx="2" ry="2"/><rect class="c" x="258" y="50" rx="2" ry="2"/><rect class="c" x="258" y="66" rx="2" ry="2"/><rect class="c" x="258" y="82" rx="2" ry="2"/><rect class="c" x="258" y="98" rx="2" ry="2"/><rect class="c" x="274" y="2" rx="2" ry="2"/><rect class="c" x="274" y="18" rx="2" ry="2"/><rect class="c" x="274" y="34" rx="2" ry="2"/><rect class="c" x="274" y="50" rx="2" ry="2"/><rect class="c" x="274" y="66" rx="2" ry="2"/><rect class="c" x="274" y="82" rx="2" ry="2"/><rect class="c" x="274" y="98" rx="2" ry="2"/><rect class="c" x="290" y="2" rx="2" ry="2"/><rect class="c" x="290" y="18" rx="2" ry="2"/><rect class="c" x="290" y="34" rx="2" ry="2"/><rect class="c" x="290" y="50" rx="2" ry="2"/><rect class="c" x="290" y="66" rx="2" ry="2"/><rect class="c" x="290" y="82" rx="2" ry="2"/><rect class="c" x="290" y="98" rx="2" ry="2"/><rect class="c" x="306" y="2" rx="2" ry="2"/><rect class="c" x="306" y="18" rx="2" ry="2"/><rect class="c" x="306" y="34" rx="2" ry="2"/><rect class="c" x="306" y="50" rx="2" ry="2"/><rect class="c" x="306" y="66" rx="2" ry="2"/><rect class="c" x="306" y="82" rx="2" ry="2"/><rect class="c" x="306" y="98" rx="2" ry="2"/><rect class="c" x="322" y="2" rx="2" ry="2"/><rect class="c" x="322" y="18" rx="2" ry="2"/><rect class="c" x="322" y="34" rx="2" ry="2"/><rect class="c" x="322" y="50" rx="2" ry="2"/><rect class="c" x="322" y="66" rx="2" ry="2"/><rect class="c" x="322" y="82" rx="2" ry="2"/><rect class="c" x="322" y="98" rx="2" ry="2"/><rect class="c" x="338" y="2" rx="2" ry="2"/><rect class="c" x="338" y="18" rx="2" ry="2"/><rect class="c" x="338" y="34" rx="2" ry="2"/><rect class="c" x="338" y="50" rx="2" ry="2"/><rect class="c" x="338" y="66" rx="2" ry="2"/><rect class="c" x="338" y="82" rx="2" ry="2"/><rect class="c" x="338" y="98" rx="2" ry="2"/><rect class="c" x="354" y="2" rx="2" ry="2"/><rect class="c" x="354" y="18" rx="2" ry="2"/><rect class="c" x="354" y="34" rx="2" ry="2"/><rect class="c" x="354" y="50" rx="2" ry="2"/><rect class="c" x="354" y="66" rx="2" ry="2"/><rect class="c" x="354" y="82" rx="2" ry="2"/><rect class="c" x="354" y="98" rx="2" ry="2"/><rect class="c" x="370" y="2" rx="2" ry="2"/><rect class="c" x="370" y="18" rx="2" ry="2"/><rect class="c" x="370" y="34" rx="2" ry="2"/><rect class="c" x="370" y="50" rx="2" ry="2"/><rect class="c" x="370" y="66" rx="2" ry="2"/><rect class="c" x="370" y="82" rx="2" ry="2"/><rect class="c" x="370" y="98" rx="2" ry="2"/><rect class="c" x="386" y="2" rx="2" ry="2"/><rect class="c" x="386" y="18" rx="2" ry="2"/><rect class="c" x="386" y="34" rx="2" ry="2"/><rect class="c" x="386" y="50" rx="2" ry="2"/><rect class="c" x="386" y="66" rx="2" ry="2"/><rect class="c" x="386" y="82" rx="2" ry="2"/><rect class="c" x="386" y="98" rx="2" ry="2"/><rect class="c" x="402" y="2" rx="2" ry="2"/><rect class="c" x="402" y="18" rx="2" ry="2"/><rect class="c" x="402" y="34" rx="2" ry="2"/><rect class="c" x="402" y="50" rx="2" ry="2"/><rect class="c" x="402" y="66" rx="2" ry="2"/><rect class="c" x="402" y="82" rx="2" ry="2"/><rect class="c" x="402" y="98" rx="2" ry="2"/><rect class="c" x="418" y="2" rx="2" ry="2"/><rect class="c" x="418" y="18" rx="2" ry="2"/><rect class="c" x="418" y="34" rx="2" ry="2"/><rect class="c" x="418" y="50" rx="2" ry="2"/><rect class="c" x="418" y="66" rx="2" ry="2"/><rect class="c" x="418" y="82" rx="2" ry="2"/><rect class="c" x="418" y="98" rx="2" ry="2"/><rect class="c" x="434" y="2" rx="2" ry="2"/><rect class="c" x="434" y="18" rx="2" ry="2"/><rect class="c" x="434" y="34" rx="2" ry="2"/><rect class="c" x="434" y="50" rx="2" ry="2"/><rect class="c" x="434" y="66" rx="2" ry="2"/><rect class="c" x="434" y="82" rx="2" ry="2"/><rect class="c" x="434" y="98" rx="2" ry="2"/><rect class="c" x="450" y="2" rx="2" ry="2"/><rect class="c" x="450" y="18" rx="2" ry="2"/><rect class="c" x="450" y="34" rx="2" ry="2"/><rect class="c" x="450" y="50" rx="2" ry="2"/><rect class="c" x="450" y="66" rx="2" ry="2"/><rect class="c" x="450" y="82" rx="2" ry="2"/><rect class="c" x="450" y="98" rx="2" ry="2"/><rect class="c" x="466" y="2" rx="2" ry="2"/><rect class="c" x="466" y="18" rx="2" ry="2"/><rect class="c" x="466" y="34" rx="2" ry="2"/><rect class="c" x="466" y="50" rx="2" ry="2"/><rect class="c" x="466" y="66" rx="2" ry="2"/><rect class="c" x="466" y="82" rx="2" ry="2"/><rect class="c" x="466" y="98" rx="2" ry="2"/><rect class="c" x="482" y="2" rx="2" ry="2"/><rect class="c" x="482" y="18" rx="2" ry="2"/><rect class="c" x="482" y="34" rx="2" ry="2"/><rect class="c" x="482" y="50" rx="2" ry="2"/><rect class="c" x="482" y="66" rx="2" ry="2"/><rect class="c" x="482" y="82" rx="2" ry="2"/><rect class="c" x="482" y="98" rx="2" ry="2"/><rect class="c" x="498" y="2" rx="2" ry="2"/><rect class="c" x="498" y="18" rx="2" ry="2"/><rect class="c" x="498" y="34" rx="2" ry="2"/><rect class="c" x="498" y="50" rx="2" ry="2"/><rect class="c" x="498" y="66" rx="2" ry="2"/><rect class="c" x="498" y="82" rx="2" ry="2"/><rect class="c" x="498" y="98" rx="2" ry="2"/><rect class="c" x="514" y="2" rx="2" ry="2"/><rect class="c" x="514" y="18" rx="2" ry="2"/><rect class="c" x="514" y="34" rx="2" ry="2"/><rect class="c" x="514" y="50" rx="2" ry="2"/><rect class="c" x="514" y="66" rx="2" ry="2"/><rect class="c" x="514" y="82" rx="2" ry="2"/><rect class="c" x="514" y="98" rx="2" ry="2"/><rect class="c" x="530" y="2" rx="2" ry="2"/><rect class="c" x="530" y="18" rx="2" ry="2"/><rect class="c" x="530" y="34" rx="2" ry="2"/><rect class="c" x="530" y="50" rx="2" ry="2"/><rect class="c" x="530" y="66" rx="2" ry="2"/><rect class="c" x="530" y="82" rx="2" ry="2"/><rect class="c" x="530" y="98" rx="2" ry="2"/><rect class="c" x="546" y="2" rx="2" ry="2"/><rect class="c" x="546" y="18" rx="2" ry="2"/><rect class="c" x="546" y="34" rx="2" ry="2"/><rect class="c" x="546" y="50" rx="2" ry="2"/><rect class="c" x="546" y="66" rx="2" ry="2"/><rect class="c" x="546" y="82" rx="2" ry="2"/><rect class="c" x="546" y="98" rx="2" ry="2"/><rect class="c" x="562" y="2" rx="2" ry="2"/><rect class="c" x="562" y="18" rx="2" ry="2"/><rect class="c" x="562" y="34" rx="2" ry="2"/><rect class="c" x="562" y="50" rx="2" ry="2"/><rect class="c" x="562" y="66" rx="2" ry="2"/><rect class="c" x="562" y="82" rx="2" ry="2"/><rect class="c" x="562" y="98" rx="2" ry="2"/><rect class="c" x="578" y="2" rx="2" ry="2"/><rect class="c" x="578" y="18" rx="2" ry="2"/><rect class="c" x="578" y="34" rx="2" ry="2"/><rect class="c" x="578" y="50" rx="2" ry="2"/><rect class="c" x="578" y="66" rx="2" ry="2"/><rect class="c" x="578" y="82" rx="2" ry="2"/><rect class="c" x="578" y="98" rx="2" ry="2"/><rect class="c" x="594" y="2" rx="2" ry="2"/><rect class="c" x="594" y="18" rx="2" ry="2"/><rect class="c" x="594" y="34" rx="2" ry="2"/><rect class="c" x="594" y="50" rx="2" ry="2"/><rect class="c" x="594" y="66" rx="2" ry="2"/><rect class="c" x="594" y="82" rx="2" ry="2"/><rect class="c" x="594" y="98" rx="2" ry="2"/><rect class="c" x="610" y="2" rx="2" ry="2"/><rect class="c" x="610" y="18" rx="2" ry="2"/><rect class="c" x="610" y="34" rx="2" ry="2"/><rect class="c" x="610" y="50" rx="2" ry="2"/><rect class="c" x="610" y="66" rx="2" ry="2"/><rect class="c" x="610" y="82" rx="2" ry="2"/><rect class="c" x="610" y="98" rx="2" ry="2"/><rect class="c" x="626" y="2" rx="2" ry="2"/><rect class="c" x="626" y="18" rx="2" ry="2"/><rect class="c" x="626" y="34" rx="2" ry="2"/><rect class="c" x="626" y="50" rx="2" ry="2"/><rect class="c" x="626" y="66" rx="2" ry="2"/><rect class="c" x="626" y="82" rx="2" ry="2"/><rect class="c c1" x="626" y="98" rx="2" ry="2"/><rect class="c c2" x="642" y="2" rx="2" ry="2"/><rect class="c c3" x="642" y="18" rx="2" ry="2"/><rect class="c c4" x="642" y="34" rx="2" ry="2"/><rect class="c c5" x="642" y="50" rx="2" ry="2"/><rect class="c c6" x="642" y="66" rx="2" ry="2"/><rect class="c c7" x="642" y="82" rx="2" ry="2"/><rect class="c c8" x="642" y="98" rx="2" ry="2"/><rect class="c c9" x="658" y="2" rx="2" ry="2"/><rect class="c ca" x="658" y="18" rx="2" ry="2"/><rect class="c cb" x="658" y="34" rx="2" ry="2"/><rect class="c cc" x="658" y="50" rx="2" ry="2"/><rect class="c cd" x="658" y="66" rx="2" ry="2"/><rect class="c ce" x="658" y="82" rx="2" ry="2"/><rect class="c cf" x="658" y="98" rx="2" ry="2"/><rect class="c cg" x="674" y="2" rx="2" ry="2"/><rect class="c ch" x="674" y="18" rx="2" ry="2"/><rect class="c ci" x="674" y="34" rx="2" ry="2"/><rect class="c cj" x="674" y="50" rx="2" ry="2"/><rect class="c ck" x="674" y="66" rx="2" ry="2"/><rect class="c cl" x="674" y="82" rx="2" ry="2"/><rect class="c cm" x="674" y="98" rx="2" ry="2"/><rect class="c cn" x="690" y="2" rx="2" ry="2"/><rect class="c co" x="690" y="18" rx="2" ry="2"/><rect class="c cp" x="690" y="34" rx="2" ry="2"/><rect class="c cq" x="690" y="50" rx="2" ry="2"/><rect class="c cr" x="690" y="66" rx="2" ry="2"/><rect class="c cs" x="690" y="82" rx="2" ry="2"/><rect class="c ct" x="690" y="98" rx="2" ry="2"/><rect class="c cu" x="706" y="2" rx="2" ry="2"/><rect class="c cv" x="706" y="18" rx="2" ry="2"/><rect class="c cw" x="706" y="34" rx="2" ry="2"/><rect class="c cx" x="706" y="50" rx="2" ry="2"/><rect class="c cy" x="706" y="66" rx="2" ry="2"/><rect class="c cz" x="706" y="82" rx="2" ry="2"/><rect class="c c10" x="706" y="98" rx="2" ry="2"/><rect class="c c11" x="722" y="2" rx="2" ry="2"/><rect class="c c12" x="722" y="18" rx="2" ry="2"/><rect class="c c13" x="722" y="34" rx="2" ry="2"/><rect class="c c14" x="722" y="50" rx="2" ry="2"/><rect class="c c15" x="722" y="66" rx="2" ry="2"/><rect class="c c16" x="722" y="82" rx="2" ry="2"/><rect class="c c17" x="722" y="98" rx="2" ry="2"/><rect class="c c18" x="738" y="2" rx="2" ry="2"/><rect class="c c19" x="738" y="18" rx="2" ry="2"/><rect class="c c1a" x="738" y="34" rx="2" ry="2"/><rect class="c c1b" x="738" y="50" rx="2" ry="2"/><rect class="c c1c" x="738" y="66" rx="2" ry="2"/><rect class="c c1d" x="738" y="82" rx="2" ry="2"/><rect class="c c1e" x="738" y="98" rx="2" ry="2"/><rect class="c c1f" x="754" y="2" rx="2" ry="2"/><rect class="c c1g" x="754" y="18" rx="2" ry="2"/><rect class="c c1h" x="754" y="34" rx="2" ry="2"/><rect class="c c1i" x="754" y="50" rx="2" ry="2"/><rect class="c c1j" x="754" y="66" rx="2" ry="2"/><rect class="c c1k" x="754" y="82" rx="2" ry="2"/><rect class="c c1l" x="754" y="98" rx="2" ry="2"/><rect class="c c1m" x="770" y="2" rx="2" ry="2"/><rect class="c c1n" x="770" y="18" rx="2" ry="2"/><rect class="c c1o" x="770" y="34" rx="2" ry="2"/><rect class="c c1p" x="770" y="50" rx="2" ry="2"/><rect class="c c1q" x="770" y="66" rx="2" ry="2"/><rect class="c c1r" x="770" y="82" rx="2" ry="2"/><rect class="c c1s" x="770" y="98" rx="2" ry="2"/><rect class="c c1t" x="786" y="2" rx="2" ry="2"/><rect class="c c1u" x="786" y="18" rx="2" ry="2"/><rect class="c c1v" x="786" y="34" rx="2" ry="2"/><rect class="c c1w" x="786" y="50" rx="2" ry="2"/><rect class="c c1x" x="786" y="66" rx="2" ry="2"/><rect class="c c1y" x="786" y="82" rx="2" ry="2"/><rect class="c c1z" x="786" y="98" rx="2" ry="2"/><rect class="c c20" x="802" y="2" rx="2" ry="2"/><rect class="c c21" x="802" y="18" rx="2" ry="2"/><rect class="c c22" x="802" y="34" rx="2" ry="2"/><rect class="c c23" x="802" y="50" rx="2" ry="2"/><rect class="c c24" x="802" y="66" rx="2" ry="2"/><rect class="c c25" x="802" y="82" rx="2" ry="2"/><rect class="c c26" x="802" y="98" rx="2" ry="2"/><rect class="c c27" x="818" y="2" rx="2" ry="2"/><rect class="c c28" x="818" y="18" rx="2" ry="2"/><rect class="c c29" x="818" y="34" rx="2" ry="2"/><rect class="c c2a" x="818" y="50" rx="2" ry="2"/><rect class="c c2b" x="818" y="66" rx="2" ry="2"/><rect class="c c2c" x="818" y="82" rx="2" ry="2"/><rect class="c c2d" x="818" y="98" rx="2" ry="2"/><rect class="c c2e" x="834" y="2" rx="2" ry="2"/><rect class="c" x="834" y="18" rx="2" ry="2"/><rect class="u u0" height="12" width="29.8" x="0.0" y="144"/><rect class="u u1" height="12" width="146.8" x="29.2" y="144"/><rect class="u u2" height="12" width="634.2" x="175.4" y="144"/><rect class="u u3" height="12" width="39.6" x="809.0" y="144"/><rect class="s s0" x="0.8" y="0.8" width="14.4" height="14.4" rx="4.5" ry="4.5"/><rect class="s s1" x="1.8" y="1.8" width="12.3" height="12.3" rx="4.1" ry="4.1"/><rect class="s s2" x="2.6" y="2.6" width="10.8" height="10.8" rx="3.6" ry="3.6"/><rect class="s s3" x="3.0" y="3.0" width="9.9" height="9.9" rx="3.3" ry="3.3"/></svg>