<svg viewBox="-16 -32 880 192" width="880" height="192" xmlns="http://www.w3.org/2000/svg"><desc>Generated with https://github.com/Platane/snk</desc><style>:root{--cb:#1b1f230a;--cs:purple;--ce:#161b22;--c0:#161b22;--c1:#01311f;--c2:#034525;--c3:#0f6d31;--c4:#00c647}.c{shape-rendering:geometricPrecision;fill:var(--ce);stroke-width:1px;stroke:var(--cb);animation:none 23300ms linear infinite;width:12px;height:12px}@keyframes c0{5.57%{fill:var(--c1)}5.59%,100%{fill:var(--ce)}}.c.c0{fill:var(--c1);animation-name:c0}@keyframes c1{20.59%{fill:var(--c1)}20.61%,100%{fill:var(--ce)}}.c.c1{fill:var(--c1);animation-name:c1}@keyframes c2{24.45%{fill:var(--c2)}24.47%,100%{fill:var(--ce)}}.c.c2{fill:var(--c2);animation-name:c2}@keyframes c3{24.02%{fill:var(--c1)}24.04%,100%{fill:var(--ce)}}.c.c3{fill:var(--c1);animation-name:c3}@keyframes c4{44.2%{fill:var(--c3)}44.22%,100%{fill:var(--ce)}}.c.c4{fill:var(--c3);animation-name:c4}@keyframes c5{26.6%{fill:var(--c2)}26.62%,100%{fill:var(--ce)}}.c.c5{fill:var(--c2);animation-name:c5}@keyframes c6{27.03%{fill:var(--c2)}27.05%,100%{fill:var(--ce)}}.c.c6{fill:var(--c2);animation-name:c6}@keyframes c7{77.24%{fill:var(--c4)}77.26%,100%{fill:var(--ce)}}.c.c7{fill:var(--c4);animation-name:c7}@keyframes c8{77.67%{fill:var(--c4)}77.69%,100%{fill:var(--ce)}}.c.c8{fill:var(--c4);animation-name:c8}@keyframes c9{80.68%{fill:var(--c4)}80.7%,100%{fill:var(--ce)}}.c.c9{fill:var(--c4);animation-name:c9}@keyframes ca{43.34%{fill:var(--c2)}43.36%,100%{fill:var(--ce)}}.c.ca{fill:var(--c2);animation-name:ca}@keyframes cb{43.77%{fill:var(--c2)}43.79%,100%{fill:var(--ce)}}.c.cb{fill:var(--c2);animation-name:cb}@keyframes cc{45.05%{fill:var(--c3)}45.07%,100%{fill:var(--ce)}}.c.cc{fill:var(--c3);animation-name:cc}@keyframes cd{73.81%{fill:var(--c3)}73.83%,100%{fill:var(--ce)}}.c.cd{fill:var(--c3);animation-name:cd}@keyframes ce{76.81%{fill:var(--c4)}76.83%,100%{fill:var(--ce)}}.c.ce{fill:var(--c4);animation-name:ce}@keyframes cf{76.38%{fill:var(--c3)}76.4%,100%{fill:var(--ce)}}.c.cf{fill:var(--c3);animation-name:cf}@keyframes cg{52.78%{fill:var(--c3)}52.8%,100%{fill:var(--ce)}}.c.cg{fill:var(--c3);animation-name:cg}@keyframes ch{53.21%{fill:var(--c3)}53.23%,100%{fill:var(--ce)}}.c.ch{fill:var(--c3);animation-name:ch}@keyframes ci{58.79%{fill:var(--c3)}58.81%,100%{fill:var(--ce)}}.c.ci{fill:var(--c3);animation-name:ci}@keyframes cj{45.48%{fill:var(--c3)}45.5%,100%{fill:var(--ce)}}.c.cj{fill:var(--c3);animation-name:cj}@keyframes ck{59.65%{fill:var(--c3)}59.67%,100%{fill:var(--ce)}}.c.ck{fill:var(--c3);animation-name:ck}@keyframes cl{66.08%{fill:var(--c3)}66.1%,100%{fill:var(--ce)}}.c.cl{fill:var(--c3);animation-name:cl}@keyframes cm{66.51%{fill:var(--c3)}66.53%,100%{fill:var(--ce)}}.c.cm{fill:var(--c3);animation-name:cm}@keyframes cn{52.35%{fill:var(--c3)}52.37%,100%{fill:var(--ce)}}.c.cn{fill:var(--c3);animation-name:cn}@keyframes co{53.64%{fill:var(--c3)}53.66%,100%{fill:var(--ce)}}.c.co{fill:var(--c3);animation-name:co}@keyframes cp{58.36%{fill:var(--c3)}58.38%,100%{fill:var(--ce)}}.c.cp{fill:var(--c3);animation-name:cp}@keyframes cq{45.91%{fill:var(--c3)}45.93%,100%{fill:var(--ce)}}.c.cq{fill:var(--c3);animation-name:cq}@keyframes cr{60.08%{fill:var(--c3)}60.1%,100%{fill:var(--ce)}}.c.cr{fill:var(--c3);animation-name:cr}@keyframes cs{65.66%{fill:var(--c3)}65.68%,100%{fill:var(--ce)}}.c.cs{fill:var(--c3);animation-name:cs}@keyframes ct{66.94%{fill:var(--c3)}66.96%,100%{fill:var(--ce)}}.c.ct{fill:var(--c3);animation-name:ct}@keyframes cu{51.92%{fill:var(--c3)}51.94%,100%{fill:var(--ce)}}.c.cu{fill:var(--c3);animation-name:cu}@keyframes cv{54.07%{fill:var(--c3)}54.09%,100%{fill:var(--ce)}}.c.cv{fill:var(--c3);animation-name:cv}@keyframes cw{57.93%{fill:var(--c3)}57.95%,100%{fill:var(--ce)}}.c.cw{fill:var(--c3);animation-name:cw}@keyframes cx{46.34%{fill:var(--c3)}46.36%,100%{fill:var(--ce)}}.c.cx{fill:var(--c3);animation-name:cx}@keyframes cy{60.51%{fill:var(--c3)}60.53%,100%{fill:var(--ce)}}.c.cy{fill:var(--c3);animation-name:cy}@keyframes cz{65.23%{fill:var(--c3)}65.25%,100%{fill:var(--ce)}}.c.cz{fill:var(--c3);animation-name:cz}@keyframes c10{67.37%{fill:var(--c3)}67.39%,100%{fill:var(--ce)}}.c.c10{fill:var(--c3);animation-name:c10}@keyframes c11{51.49%{fill:var(--c3)}51.51%,100%{fill:var(--ce)}}.c.c11{fill:var(--c3);animation-name:c11}@keyframes c12{54.5%{fill:var(--c3)}54.52%,100%{fill:var(--ce)}}.c.c12{fill:var(--c3);animation-name:c12}@keyframes c13{57.5%{fill:var(--c3)}57.52%,100%{fill:var(--ce)}}.c.c13{fill:var(--c3);animation-name:c13}@keyframes c14{46.77%{fill:var(--c3)}46.79%,100%{fill:var(--ce)}}.c.c14{fill:var(--c3);animation-name:c14}@keyframes c15{60.93%{fill:var(--c3)}60.95%,100%{fill:var(--ce)}}.c.c15{fill:var(--c3);animation-name:c15}@keyframes c16{64.8%{fill:var(--c3)}64.82%,100%{fill:var(--ce)}}.c.c16{fill:var(--c3);animation-name:c16}@keyframes c17{67.8%{fill:var(--c3)}67.82%,100%{fill:var(--ce)}}.c.c17{fill:var(--c3);animation-name:c17}@keyframes c18{51.06%{fill:var(--c3)}51.08%,100%{fill:var(--ce)}}.c.c18{fill:var(--c3);animation-name:c18}@keyframes c19{54.93%{fill:var(--c3)}54.95%,100%{fill:var(--ce)}}.c.c19{fill:var(--c3);animation-name:c19}@keyframes c1a{57.07%{fill:var(--c3)}57.09%,100%{fill:var(--ce)}}.c.c1a{fill:var(--c3);animation-name:c1a}@keyframes c1b{47.2%{fill:var(--c3)}47.22%,100%{fill:var(--ce)}}.c.c1b{fill:var(--c3);animation-name:c1b}@keyframes c1c{61.36%{fill:var(--c3)}61.38%,100%{fill:var(--ce)}}.c.c1c{fill:var(--c3);animation-name:c1c}@keyframes c1d{64.37%{fill:var(--c3)}64.39%,100%{fill:var(--ce)}}.c.c1d{fill:var(--c3);animation-name:c1d}@keyframes c1e{68.23%{fill:var(--c3)}68.25%,100%{fill:var(--ce)}}.c.c1e{fill:var(--c3);animation-name:c1e}@keyframes c1f{50.63%{fill:var(--c3)}50.65%,100%{fill:var(--ce)}}.c.c1f{fill:var(--c3);animation-name:c1f}@keyframes c1g{55.35%{fill:var(--c3)}55.37%,100%{fill:var(--ce)}}.c.c1g{fill:var(--c3);animation-name:c1g}@keyframes c1h{56.64%{fill:var(--c3)}56.66%,100%{fill:var(--ce)}}.c.c1h{fill:var(--c3);animation-name:c1h}@keyframes c1i{47.63%{fill:var(--c3)}47.65%,100%{fill:var(--ce)}}.c.c1i{fill:var(--c3);animation-name:c1i}@keyframes c1j{61.79%{fill:var(--c3)}61.81%,100%{fill:var(--ce)}}.c.c1j{fill:var(--c3);animation-name:c1j}@keyframes c1k{63.94%{fill:var(--c3)}63.96%,100%{fill:var(--ce)}}.c.c1k{fill:var(--c3);animation-name:c1k}@keyframes c1l{68.66%{fill:var(--c3)}68.68%,100%{fill:var(--ce)}}.c.c1l{fill:var(--c3);animation-name:c1l}@keyframes c1m{50.2%{fill:var(--c3)}50.22%,100%{fill:var(--ce)}}.c.c1m{fill:var(--c3);animation-name:c1m}@keyframes c1n{55.78%{fill:var(--c3)}55.8%,100%{fill:var(--ce)}}.c.c1n{fill:var(--c3);animation-name:c1n}@keyframes c1o{56.21%{fill:var(--c3)}56.23%,100%{fill:var(--ce)}}.c.c1o{fill:var(--c3);animation-name:c1o}@keyframes c1p{48.06%{fill:var(--c3)}48.08%,100%{fill:var(--ce)}}.c.c1p{fill:var(--c3);animation-name:c1p}@keyframes c1q{62.22%{fill:var(--c3)}62.24%,100%{fill:var(--ce)}}.c.c1q{fill:var(--c3);animation-name:c1q}@keyframes c1r{63.51%{fill:var(--c3)}63.53%,100%{fill:var(--ce)}}.c.c1r{fill:var(--c3);animation-name:c1r}@keyframes c1s{69.09%{fill:var(--c3)}69.11%,100%{fill:var(--ce)}}.c.c1s{fill:var(--c3);animation-name:c1s}@keyframes c1t{49.78%{fill:var(--c3)}49.8%,100%{fill:var(--ce)}}.c.c1t{fill:var(--c3);animation-name:c1t}@keyframes c1u{49.35%{fill:var(--c3)}49.37%,100%{fill:var(--ce)}}.c.c1u{fill:var(--c3);animation-name:c1u}@keyframes c1v{48.92%{fill:var(--c3)}48.94%,100%{fill:var(--ce)}}.c.c1v{fill:var(--c3);animation-name:c1v}@keyframes c1w{48.49%{fill:var(--c3)}48.51%,100%{fill:var(--ce)}}.c.c1w{fill:var(--c3);animation-name:c1w}@keyframes c1x{62.65%{fill:var(--c3)}62.67%,100%{fill:var(--ce)}}.c.c1x{fill:var(--c3);animation-name:c1x}@keyframes c1y{63.08%{fill:var(--c3)}63.1%,100%{fill:var(--ce)}}.c.c1y{fill:var(--c3);animation-name:c1y}@keyframes c1z{69.52%{fill:var(--c3)}69.54%,100%{fill:var(--ce)}}.c.c1z{fill:var(--c3);animation-name:c1z}@keyframes c20{34.75%{fill:var(--c2)}34.77%,100%{fill:var(--ce)}}.c.c20{fill:var(--c2);animation-name:c20}@keyframes c21{35.18%{fill:var(--c2)}35.2%,100%{fill:var(--ce)}}.c.c21{fill:var(--c2);animation-name:c21}@keyframes c22{35.61%{fill:var(--c2)}35.63%,100%{fill:var(--ce)}}.c.c22{fill:var(--c2);animation-name:c22}.u{transform-origin:0 0;transform:scale(0,1);animation:none linear 23300ms infinite}@keyframes u0{5.57%{transform:scale(0.000,1)}5.59%,20.59%{transform:scale(0.333,1)}20.61%,24.02%{transform:scale(0.667,1)}24.04%,100%{transform:scale(1.000,1)}}.u.u0{fill:var(--c1);animation-name:u0;transform-origin:0.0px 0}@keyframes u1{24.45%{transform:scale(0.000,1)}24.47%,26.6%{transform:scale(0.125,1)}26.62%,27.03%{transform:scale(0.250,1)}27.05%,34.75%{transform:scale(0.375,1)}34.77%,35.18%{transform:scale(0.500,1)}35.2%,35.61%{transform:scale(0.625,1)}35.63%,43.34%{transform:scale(0.750,1)}43.36%,43.77%{transform:scale(0.875,1)}43.79%,100%{transform:scale(1.000,1)}}.u.u1{fill:var(--c2);animation-name:u1;transform-origin:33.9px 0}@keyframes u2{44.2%{transform:scale(0.000,1)}44.22%,45.05%{transform:scale(0.017,1)}45.07%,45.48%{transform:scale(0.033,1)}45.5%,45.91%{transform:scale(0.050,1)}45.93%,46.34%{transform:scale(0.067,1)}46.36%,46.77%{transform:scale(0.083,1)}46.79%,47.2%{transform:scale(0.100,1)}47.22%,47.63%{transform:scale(0.117,1)}47.65%,48.06%{transform:scale(0.133,1)}48.08%,48.49%{transform:scale(0.150,1)}48.51%,48.92%{transform:scale(0.167,1)}48.94%,49.35%{transform:scale(0.183,1)}49.37%,49.78%{transform:scale(0.200,1)}49.8%,50.2%{transform:scale(0.217,1)}50.22%,50.63%{transform:scale(0.233,1)}50.65%,51.06%{transform:scale(0.250,1)}51.08%,51.49%{transform:scale(0.267,1)}51.51%,51.92%{transform:scale(0.283,1)}51.94%,52.35%{transform:scale(0.300,1)}52.37%,52.78%{transform:scale(0.317,1)}52.8%,53.21%{transform:scale(0.333,1)}53.23%,53.64%{transform:scale(0.350,1)}53.66%,54.07%{transform:scale(0.367,1)}54.09%,54.5%{transform:scale(0.383,1)}54.52%,54.93%{transform:scale(0.400,1)}54.95%,55.35%{transform:scale(0.417,1)}55.37%,55.78%{transform:scale(0.433,1)}55.8%,56.21%{transform:scale(0.450,1)}56.23%,56.64%{transform:scale(0.467,1)}56.66%,57.07%{transform:scale(0.483,1)}57.09%,57.5%{transform:scale(0.500,1)}57.52%,57.93%{transform:scale(0.517,1)}57.95%,58.36%{transform:scale(0.533,1)}58.38%,58.79%{transform:scale(0.550,1)}58.81%,59.65%{transform:scale(0.567,1)}59.67%,60.08%{transform:scale(0.583,1)}60.1%,60.51%{transform:scale(0.600,1)}60.53%,60.93%{transform:scale(0.617,1)}60.95%,61.36%{transform:scale(0.633,1)}61.38%,61.79%{transform:scale(0.650,1)}61.81%,62.22%{transform:scale(0.667,1)}62.24%,62.65%{transform:scale(0.683,1)}62.67%,63.08%{transform:scale(0.700,1)}63.1%,63.51%{transform:scale(0.717,1)}63.53%,63.94%{transform:scale(0.733,1)}63.96%,64.37%{transform:scale(0.750,1)}64.39%,64.8%{transform:scale(0.767,1)}64.82%,65.23%{transform:scale(0.783,1)}65.25%,65.66%{transform:scale(0.800,1)}65.68%,66.08%{transform:scale(0.817,1)}66.1%,66.51%{transform:scale(0.833,1)}66.53%,66.94%{transform:scale(0.850,1)}66.96%,67.37%{transform:scale(0.867,1)}67.39%,67.8%{transform:scale(0.883,1)}67.82%,68.23%{transform:scale(0.900,1)}68.25%,68.66%{transform:scale(0.917,1)}68.68%,69.09%{transform:scale(0.933,1)}69.11%,69.52%{transform:scale(0.950,1)}69.54%,73.81%{transform:scale(0.967,1)}73.83%,76.38%{transform:scale(0.983,1)}76.4%,100%{transform:scale(1.000,1)}}.u.u2{fill:var(--c3);animation-name:u2;transform-origin:124.4px 0}@keyframes u3{76.81%{transform:scale(0.000,1)}76.83%,77.24%{transform:scale(0.250,1)}77.26%,77.67%{transform:scale(0.500,1)}77.69%,80.68%{transform:scale(0.750,1)}80.7%,100%{transform:scale(1.000,1)}}.u.u3{fill:var(--c4);animation-name:u3;transform-origin:802.8px 0}.s{shape-rendering:geometricPrecision;fill:var(--cs);animation:none linear 23300ms infinite}@keyframes s0{0%,99.57%{transform:translate(0px,-16px)}0.43%{transform:translate(0px,0px)}3.86%{transform:translate(128px,0px)}5.58%{transform:translate(128px,64px)}19.74%,27.47%{transform:translate(656px,64px)}20.6%{transform:translate(656px,96px)}21.03%{transform:translate(640px,96px)}23.18%{transform:translate(640px,16px)}24.03%,29.18%,42.92%{transform:translate(672px,16px)}24.46%{transform:translate(672px,0px)}24.89%{transform:translate(656px,0px)}26.18%{transform:translate(656px,48px)}26.61%,44.64%{transform:translate(672px,48px)}27.04%{transform:translate(672px,64px)}28.76%{transform:translate(656px,16px)}30.04%,42.06%{transform:translate(672px,-16px)}34.33%{transform:translate(832px,-16px)}35.62%{transform:translate(832px,32px)}36.05%{transform:translate(848px,32px)}37.34%{transform:translate(848px,-16px)}43.35%{transform:translate(688px,16px)}43.78%{transform:translate(688px,32px)}44.21%{transform:translate(672px,32px)}48.5%{transform:translate(816px,48px)}49.79%{transform:translate(816px,0px)}52.79%{transform:translate(704px,0px)}53.22%{transform:translate(704px,16px)}55.79%{transform:translate(800px,16px)}56.22%{transform:translate(800px,32px)}58.8%{transform:translate(704px,32px)}59.66%{transform:translate(704px,64px)}62.66%,70.39%{transform:translate(816px,64px)}63.09%{transform:translate(816px,80px)}66.09%{transform:translate(704px,80px)}66.52%,75.97%{transform:translate(704px,96px)}69.53%{transform:translate(816px,96px)}73.82%{transform:translate(688px,64px)}74.25%{transform:translate(688px,48px)}74.68%{transform:translate(704px,48px)}76.39%,78.11%{transform:translate(688px,96px)}76.82%{transform:translate(688px,80px)}77.25%{transform:translate(672px,80px)}77.68%{transform:translate(672px,96px)}80.69%{transform:translate(688px,0px)}97%{transform:translate(80px,0px)}97.42%{transform:translate(80px,-16px)}}.s.s0{transform:translate(0px,-16px);animation-name:s0}@keyframes s1{0%,99.57%{transform:translate(16px,-16px)}0.43%{transform:translate(0px,-16px)}0.86%{transform:translate(0px,0px)}4.29%{transform:translate(128px,0px)}6.01%{transform:translate(128px,64px)}20.17%,27.9%{transform:translate(656px,64px)}21.03%{transform:translate(656px,96px)}21.46%{transform:translate(640px,96px)}23.61%{transform:translate(640px,16px)}24.46%,29.61%,43.35%{transform:translate(672px,16px)}24.89%{transform:translate(672px,0px)}25.32%{transform:translate(656px,0px)}26.61%{transform:translate(656px,48px)}27.04%,45.06%{transform:translate(672px,48px)}27.47%{transform:translate(672px,64px)}29.18%{transform:translate(656px,16px)}30.47%,42.49%{transform:translate(672px,-16px)}34.76%{transform:translate(832px,-16px)}36.05%{transform:translate(832px,32px)}36.48%{transform:translate(848px,32px)}37.77%{transform:translate(848px,-16px)}43.78%{transform:translate(688px,16px)}44.21%{transform:translate(688px,32px)}44.64%{transform:translate(672px,32px)}48.93%{transform:translate(816px,48px)}50.21%{transform:translate(816px,0px)}53.22%{transform:translate(704px,0px)}53.65%{transform:translate(704px,16px)}56.22%{transform:translate(800px,16px)}56.65%{transform:translate(800px,32px)}59.23%{transform:translate(704px,32px)}60.09%{transform:translate(704px,64px)}63.09%,70.82%{transform:translate(816px,64px)}63.52%{transform:translate(816px,80px)}66.52%{transform:translate(704px,80px)}66.95%,76.39%{transform:translate(704px,96px)}69.96%{transform:translate(816px,96px)}74.25%{transform:translate(688px,64px)}74.68%{transform:translate(688px,48px)}75.11%{transform:translate(704px,48px)}76.82%,78.54%{transform:translate(688px,96px)}77.25%{transform:translate(688px,80px)}77.68%{transform:translate(672px,80px)}78.11%{transform:translate(672px,96px)}81.12%{transform:translate(688px,0px)}97.42%{transform:translate(80px,0px)}97.85%{transform:translate(80px,-16px)}}.s.s1{transform:translate(16px,-16px);animation-name:s1}@keyframes s2{0%,99.57%{transform:translate(32px,-16px)}0.86%{transform:translate(0px,-16px)}1.29%{transform:translate(0px,0px)}4.72%{transform:translate(128px,0px)}6.44%{transform:translate(128px,64px)}20.6%,28.33%{transform:translate(656px,64px)}21.46%{transform:translate(656px,96px)}21.89%{transform:translate(640px,96px)}24.03%{transform:translate(640px,16px)}24.89%,30.04%,43.78%{transform:translate(672px,16px)}25.32%{transform:translate(672px,0px)}25.75%{transform:translate(656px,0px)}27.04%{transform:translate(656px,48px)}27.47%,45.49%{transform:translate(672px,48px)}27.9%{transform:translate(672px,64px)}29.61%{transform:translate(656px,16px)}30.9%,42.92%{transform:translate(672px,-16px)}35.19%{transform:translate(832px,-16px)}36.48%{transform:translate(832px,32px)}36.91%{transform:translate(848px,32px)}38.2%{transform:translate(848px,-16px)}44.21%{transform:translate(688px,16px)}44.64%{transform:translate(688px,32px)}45.06%{transform:translate(672px,32px)}49.36%{transform:translate(816px,48px)}50.64%{transform:translate(816px,0px)}53.65%{transform:translate(704px,0px)}54.08%{transform:translate(704px,16px)}56.65%{transform:translate(800px,16px)}57.08%{transform:translate(800px,32px)}59.66%{transform:translate(704px,32px)}60.52%{transform:translate(704px,64px)}63.52%,71.24%{transform:translate(816px,64px)}63.95%{transform:translate(816px,80px)}66.95%{transform:translate(704px,80px)}67.38%,76.82%{transform:translate(704px,96px)}70.39%{transform:translate(816px,96px)}74.68%{transform:translate(688px,64px)}75.11%{transform:translate(688px,48px)}75.54%{transform:translate(704px,48px)}77.25%,78.97%{transform:translate(688px,96px)}77.68%{transform:translate(688px,80px)}78.11%{transform:translate(672px,80px)}78.54%{transform:translate(672px,96px)}81.55%{transform:translate(688px,0px)}97.85%{transform:translate(80px,0px)}98.28%{transform:translate(80px,-16px)}}.s.s2{transform:translate(32px,-16px);animation-name:s2}@keyframes s3{0%,99.57%{transform:translate(48px,-16px)}1.29%{transform:translate(0px,-16px)}1.72%{transform:translate(0px,0px)}5.15%{transform:translate(128px,0px)}6.87%{transform:translate(128px,64px)}21.03%,28.76%{transform:translate(656px,64px)}21.89%{transform:translate(656px,96px)}22.32%{transform:translate(640px,96px)}24.46%{transform:translate(640px,16px)}25.32%,30.47%,44.21%{transform:translate(672px,16px)}25.75%{transform:translate(672px,0px)}26.18%{transform:translate(656px,0px)}27.47%{transform:translate(656px,48px)}27.9%,45.92%{transform:translate(672px,48px)}28.33%{transform:translate(672px,64px)}30.04%{transform:translate(656px,16px)}31.33%,43.35%{transform:translate(672px,-16px)}35.62%{transform:translate(832px,-16px)}36.91%{transform:translate(832px,32px)}37.34%{transform:translate(848px,32px)}38.63%{transform:translate(848px,-16px)}44.64%{transform:translate(688px,16px)}45.06%{transform:translate(688px,32px)}45.49%{transform:translate(672px,32px)}49.79%{transform:translate(816px,48px)}51.07%{transform:translate(816px,0px)}54.08%{transform:translate(704px,0px)}54.51%{transform:translate(704px,16px)}57.08%{transform:translate(800px,16px)}57.51%{transform:translate(800px,32px)}60.09%{transform:translate(704px,32px)}60.94%{transform:translate(704px,64px)}63.95%,71.67%{transform:translate(816px,64px)}64.38%{transform:translate(816px,80px)}67.38%{transform:translate(704px,80px)}67.81%,77.25%{transform:translate(704px,96px)}70.82%{transform:translate(816px,96px)}75.11%{transform:translate(688px,64px)}75.54%{transform:translate(688px,48px)}75.97%{transform:translate(704px,48px)}77.68%,79.4%{transform:translate(688px,96px)}78.11%{transform:translate(688px,80px)}78.54%{transform:translate(672px,80px)}78.97%{transform:translate(672px,96px)}81.97%{transform:translate(688px,0px)}98.28%{transform:translate(80px,0px)}98.71%{transform:translate(80px,-16px)}}.s.s3{transform:translate(48px,-16px);animation-name:s3}</style><rect class="c" x="2" y="2" rx="2" ry="2"/><rect class="c" x="2" y="18" rx="2" ry="2"/><rect class="c" x="2" y="34" rx="2" ry="2"/><rect class="c" x="2" y="50" rx="2" ry="2"/><rect class="c" x="2" y="66" rx="2" ry="2"/><rect class="c" x="2" y="82" rx="2" ry="2"/><rect class="c" x="2" y="98" rx="2" ry="2"/><rect class="c" x="18" y="2" rx="2" ry="2"/><rect class="c" x="18" y="18" rx="2" ry="2"/><rect class="c" x="18" y="34" rx="2" ry="2"/><rect class="c" x="18" y="50" rx="2" ry="2"/><rect class="c" x="18" y="66" rx="2" ry="2"/><rect class="c" x="18" y="82" rx="2" ry="2"/><rect class="c" x="18" y="98" rx="2" ry="2"/><rect class="c" x="34" y="2" rx="2" ry="2"/><rect class="c" x="34" y="18" rx="2" ry="2"/><rect class="c" x="34" y="34" rx="2" ry="2"/><rect class="c" x="34" y="50" rx="2" ry="2"/><rect class="c" x="34" y="66" rx="2" ry="2"/><rect class="c" x="34" y="82" rx="2" ry="2"/><rect class="c" x="34" y="98" rx="2" ry="2"/><rect class="c" x="50" y="2" rx="2" ry="2"/><rect class="c" x="50" y="18" rx="2" ry="2"/><rect class="c" x="50" y="34" rx="2" ry="2"/><rect class="c" x="50" y="50" rx="2" ry="2"/><rect class="c" x="50" y="66" rx="2" ry="2"/><rect class="c" x="50" y="82" rx="2" ry="2"/><rect class="c" x="50" y="98" rx="2" ry="2"/><rect class="c" x="66" y="2" rx="2" ry="2"/><rect class="c" x="66" y="18" rx="2" ry="2"/><rect class="c" x="66" y="34" rx="2" ry="2"/><rect class="c" x="66" y="50" rx="2" ry="2"/><rect class="c" x="66" y="66" rx="2" ry="2"/><rect class="c" x="66" y="82" rx="2" ry="2"/><rect class="c" x="66" y="98" rx="2" ry="2"/><rect class="c" x="82" y="2" rx="2" ry="2"/><rect class="c" x="82" y="18" rx="2" ry="2"/><rect class="c" x="82" y="34" rx="2" ry="2"/><rect class="c" x="82" y="50" rx="2" ry="2"/><rect class="c" x="82" y="66" rx="2" ry="2"/><rect class="c" x="82" y="82" rx="2" ry="2"/><rect class="c" x="82" y="98" rx="2" ry="2"/><rect class="c" x="98" y="2" rx="2" ry="2"/><rect class="c" x="98" y="18" rx="2" ry="2"/><rect class="c" x="98" y="34" rx="2" ry="2"/><rect class="c" x="98" y="50" rx="2" ry="2"/><rect class="c" x="98" y="66" rx="2" ry="2"/><rect class="c" x="98" y="82" rx="2" ry="2"/><rect class="c" x="98" y="98" rx="2" ry="2"/><rect class="c" x="114" y="2" rx="2" ry="2"/><rect class="c" x="114" y="18" rx="2" ry="2"/><rect class="c" x="114" y="34" rx="2" ry="2"/><rect class="c" x="114" y="50" rx="2" ry="2"/><rect class="c" x="114" y="66" rx="2" ry="2"/><rect class="c" x="114" y="82" rx="2" ry="2"/><rect class="c" x="114" y="98" rx="2" ry="2"/><rect class="c" x="130" y="2" rx="2" ry="2"/><rect class="c" x="130" y="18" rx="2" ry="2"/><rect class="c" x="130" y="34" rx="2" ry="2"/><rect class="c" x="130" y="50" rx="2" ry="2"/><rect class="c c0" x="130" y="66" rx="2" ry="2"/><rect class="c" x="130" y="82" rx="2" ry="2"/><rect class="c" x="130" y="98" rx="2" ry="2"/><rect class="c" x="146" y="2" rx="2" ry="2"/><rect class="c" x="146" y="18" rx="2" ry="2"/><rect class="c" x="146" y="34" rx="2" ry="2"/><rect class="c" x="146" y="50" rx="2" ry="2"/><rect class="c" x="146" y="66" rx="2" ry="2"/><rect class="c" x="146" y="82" rx="2" ry="2"/><rect class="c" x="146" y="98" rx="2" ry="2"/><rect class="c" x="162" y="2" rx="2" ry="2"/><rect class="c" x="162" y="18" rx="2" ry="2"/><rect class="c" x="162" y="34" rx="2" ry="2"/><rect class="c" x="162" y="50" rx="2" ry="2"/><rect class="c" x="162" y="66" rx="2" ry="2"/><rect class="c" x="162" y="82" rx="2" ry="2"/><rect class="c" x="162" y="98" rx="2" ry="2"/><rect class="c" x="178" y="2" rx="2" ry="2"/><rect class="c" x="178" y="18" rx="2" ry="2"/><rect class="c" x="178" y="34" rx="2" ry="2"/><rect class="c" x="178" y="50" rx="2" ry="2"/><rect class="c" x="178" y="66" rx="2" ry="2"/><rect class="c" x="178" y="82" rx="2" ry="2"/><rect class="c" x="178" y="98" rx="2" ry="2"/><rect class="c" x="194" y="2" rx="2" ry="2"/><rect class="c" x="194" y="18" rx="2" ry="2"/><rect class="c" x="194" y="34" rx="2" ry="2"/><rect class="c" x="194" y="50" rx="2" ry="2"/><rect class="c" x="194" y="66" rx="2" ry="2"/><rect class="c" x="194" y="82" rx="2" ry="2"/><rect class="c" x="194" y="98" rx="2" ry="2"/><rect class="c" x="210" y="2" rx="2" ry="2"/><rect class="c" x="210" y="18" rx="2" ry="2"/><rect class="c" x="210" y="34" rx="2" ry="2"/><rect class="c" x="210" y="50" rx="2" ry="2"/><rect class="c" x="210" y="66" rx="2" ry="2"/><rect class="c" x="210" y="82" rx="2" ry="2"/><rect class="c" x="210" y="98" rx="2" ry="2"/><rect class="c" x="226" y="2" rx="2" ry="2"/><rect class="c" x="226" y="18" rx="2" ry="2"/><rect class="c" x="226" y="34" rx="2" ry="2"/><rect class="c" x="226" y="50" rx="2" ry="2"/><rect class="c" x="226" y="66" rx="2" ry="2"/><rect class="c" x="226" y="82" rx="2" ry="2"/><rect class="c" x="226" y="98" rx="2" ry="2"/><rect class="c" x="242" y="2" rx="2" ry="2"/><rect class="c" x="242" y="18" rx="2" ry="2"/><rect class="c" x="242" y="34" rx="2" ry="2"/><rect class="c" x="242" y="50" rx="2" ry="2"/><rect class="c" x="242" y="66" rx="2" ry="2"/><rect class="c" x="242" y="82" rx="2" ry="2"/><rect class="c" x="242" y="98" rx="2" ry="2"/><rect class="c" x="258" y="2" rx="2" ry="2"/><rect class="c" x="258" y="18" rx="2" ry="2"/><rect class="c" x="258" y="34" rx="2" ry="2"/><rect class="c" x="258" y="50" rx="2" ry="2"/><rect class="c" x="258" y="66" rx="2" ry="2"/><rect class="c" x="258" y="82" rx="2" ry="2"/><rect class="c" x="258" y="98" rx="2" ry="2"/><rect class="c" x="274" y="2" rx="2" ry="2"/><rect class="c" x="274" y="18" rx="2" ry="2"/><rect class="c" x="274" y="34" rx="2" ry="2"/><rect class="c" x="274" y="50" rx="2" ry="2"/><rect class="c" x="274" y="66" rx="2" ry="2"/><rect class="c" x="274" y="82" rx="2" ry="2"/><rect class="c" x="274" y="98" rx="2" ry="2"/><rect class="c" x="290" y="2" rx="2" ry="2"/><rect class="c" x="290" y="18" rx="2" ry="2"/><rect class="c" x="290" y="34" rx="2" ry="2"/><rect class="c" x="290" y="50" rx="2" ry="2"/><rect class="c" x="290" y="66" rx="2" ry="2"/><rect class="c" x="290" y="82" rx="2" ry="2"/><rect class="c" x="290" y="98" rx="2" ry="2"/><rect class="c" x="306" y="2" rx="2" ry="2"/><rect class="c" x="306" y="18" rx="2" ry="2"/><rect class="c" x="306" y="34" rx="2" ry="2"/><rect class="c" x="306" y="50" rx="2" ry="2"/><rect class="c" x="306" y="66" rx="2" ry="2"/><rect class="c" x="306" y="82" rx="2" ry="2"/><rect class="c" x="306" y="98" rx="2" ry="2"/><rect class="c" x="322" y="2" rx="2" ry="2"/><rect class="c" x="322" y="18" rx="2" ry="2"/><rect class="c" x="322" y="34" rx="2" ry="2"/><rect class="c" x="322" y="50" rx="2" ry="2"/><rect class="c" x="322" y="66" rx="2" ry="2"/><rect class="c" x="322" y="82" rx="2" ry="2"/><rect class="c" x="322" y="98" rx="2" ry="2"/><rect class="c" x="338" y="2" rx="2" ry="2"/><rect class="c" x="338" y="18" rx="2" ry="2"/><rect class="c" x="338" y="34" rx="2" ry="2"/><rect class="c" x="338" y="50" rx="2" ry="2"/><rect class="c" x="338" y="66" rx="2" ry="2"/><rect class="c" x="338" y="82" rx="2" ry="2"/><rect class="c" x="338" y="98" rx="2" ry="2"/><rect class="c" x="354" y="2" rx="2" ry="2"/><rect class="c" x="354" y="18" rx="2" ry="2"/><rect class="c" x="354" y="34" rx="2" ry="2"/><rect class="c" x="354" y="50" rx="2" ry="2"/><rect class="c" x="354" y="66" rx="2" ry="2"/><rect class="c" x="354" y="82" rx="2" ry="2"/><rect class="c" x="354" y="98" rx="2" ry="2"/><rect class="c" x="370" y="2" rx="2" ry="2"/><rect class="c" x="370" y="18" rx="2" ry="2"/><rect class="c" x="370" y="34" rx="2" ry="2"/><rect class="c" x="370" y="50" rx="2" ry="2"/><rect class="c" x="370" y="66" rx="2" ry="2"/><rect class="c" x="370" y="82" rx="2" ry="2"/><rect class="c" x="370" y="98" rx="2" ry="2"/><rect class="c" x="386" y="2" rx="2" ry="2"/><rect class="c" x="386" y="18" rx="2" ry="2"/><rect class="c" x="386" y="34" rx="2" ry="2"/><rect class="c" x="386" y="50" rx="2" ry="2"/><rect class="c" x="386" y="66" rx="2" ry="2"/><rect class="c" x="386" y="82" rx="2" ry="2"/><rect class="c" x="386" y="98" rx="2" ry="2"/><rect class="c" x="402" y="2" rx="2" ry="2"/><rect class="c" x="402" y="18" rx="2" ry="2"/><rect class="c" x="402" y="34" rx="2" ry="2"/><rect class="c" x="402" y="50" rx="2" ry="2"/><rect class="c" x="402" y="66" rx="2" ry="2"/><rect class="c" x="402" y="82" rx="2" ry="2"/><rect class="c" x="402" y="98" rx="2" ry="2"/><rect class="c" x="418" y="2" rx="2" ry="2"/><rect class="c" x="418" y="18" rx="2" ry="2"/><rect class="c" x="418" y="34" rx="2" ry="2"/><rect class="c" x="418" y="50" rx="2" ry="2"/><rect class="c" x="418" y="66" rx="2" ry="2"/><rect class="c" x="418" y="82" rx="2" ry="2"/><rect class="c" x="418" y="98" rx="2" ry="2"/><rect class="c" x="434" y="2" rx="2" ry="2"/><rect class="c" x="434" y="18" rx="2" ry="2"/><rect class="c" x="434" y="34" rx="2" ry="2"/><rect class="c" x="434" y="50" rx="2" ry="2"/><rect class="c" x="434" y="66" rx="2" ry="2"/><rect class="c" x="434" y="82" rx="2" ry="2"/><rect class="c" x="434" y="98" rx="2" ry="2"/><rect class="c" x="450" y="2" rx="2" ry="2"/><rect class="c" x="450" y="18" rx="2" ry="2"/><rect class="c" x="450" y="34" rx="2" ry="2"/><rect class="c" x="450" y="50" rx="2" ry="2"/><rect class="c" x="450" y="66" rx="2" ry="2"/><rect class="c" x="450" y="82" rx="2" ry="2"/><rect class="c" x="450" y="98" rx="2" ry="2"/><rect class="c" x="466" y="2" rx="2" ry="2"/><rect class="c" x="466" y="18" rx="2" ry="2"/><rect class="c" x="466" y="34" rx="2" ry="2"/><rect class="c" x="466" y="50" rx="2" ry="2"/><rect class="c" x="466" y="66" rx="2" ry="2"/><rect class="c" x="466" y="82" rx="2" ry="2"/><rect class="c" x="466" y="98" rx="2" ry="2"/><rect class="c" x="482" y="2" rx="2" ry="2"/><rect class="c" x="482" y="18" rx="2" ry="2"/><rect class="c" x="482" y="34" rx="2" ry="2"/><rect class="c" x="482" y="50" rx="2" ry="2"/><rect class="c" x="482" y="66" rx="2" ry="2"/><rect class="c" x="482" y="82" rx="2" ry="2"/><rect class="c" x="482" y="98" rx="2" ry="2"/><rect class="c" x="498" y="2" rx="2" ry="2"/><rect class="c" x="498" y="18" rx="2" ry="2"/><rect class="c" x="498" y="34" rx="2" ry="2"/><rect class="c" x="498" y="50" rx="2" ry="2"/><rect class="c" x="498" y="66" rx="2" ry="2"/><rect class="c" x="498" y="82" rx="2" ry="2"/><rect class="c" x="498" y="98" rx="2" ry="2"/><rect class="c" x="514" y="2" rx="2" ry="2"/><rect class="c" x="514" y="18" rx="2" ry="2"/><rect class="c" x="514" y="34" rx="2" ry="2"/><rect class="c" x="514" y="50" rx="2" ry="2"/><rect class="c" x="514" y="66" rx="2" ry="2"/><rect class="c" x="514" y="82" rx="2" ry="2"/><rect class="c" x="514" y="98" rx="2" ry="2"/><rect class="c" x="530" y="2" rx="2" ry="2"/><rect class="c" x="530" y="18" rx="2" ry="2"/><rect class="c" x="530" y="34" rx="2" ry="2"/><rect class="c" x="530" y="50" rx="2" ry="2"/><rect class="c" x="530" y="66" rx="2" ry="2"/><rect class="c" x="530" y="82" rx="2" ry="2"/><rect class="c" x="530" y="98" rx="2" ry="2"/><rect class="c" x="546" y="2" rx="2" ry="2"/><rect class="c" x="546" y="18" rx="2" ry="2"/><rect class="c" x="546" y="34" rx="2" ry="2"/><rect class="c" x="546" y="50" rx="2" ry="2"/><rect class="c" x="546" y="66" rx="2" ry="2"/><rect class="c" x="546" y="82" rx="2" ry="2"/><rect class="c" x="546" y="98" rx="2" ry="2"/><rect class="c" x="562" y="2" rx="2" ry="2"/><rect class="c" x="562" y="18" rx="2" ry="2"/><rect class="c" x="562" y="34" rx="2" ry="2"/><rect class="c" x="562" y="50" rx="2" ry="2"/><rect class="c" x="562" y="66" rx="2" ry="2"/><rect class="c" x="562" y="82" rx="2" ry="2"/><rect class="c" x="562" y="98" rx="2" ry="2"/><rect class="c" x="578" y="2" rx="2" ry="2"/><rect class="c" x="578" y="18" rx="2" ry="2"/><rect class="c" x="578" y="34" rx="2" ry="2"/><rect class="c" x="578" y="50" rx="2" ry="2"/><rect class="c" x="578" y="66" rx="2" ry="2"/><rect class="c" x="578" y="82" rx="2" ry="2"/><rect class="c" x="578" y="98" rx="2" ry="2"/><rect class="c" x="594" y="2" rx="2" ry="2"/><rect class="c" x="594" y="18" rx="2" ry="2"/><rect class="c" x="594" y="34" rx="2" ry="2"/><rect class="c" x="594" y="50" rx="2" ry="2"/><rect class="c" x="594" y="66" rx="2" ry="2"/><rect class="c" x="594" y="82" rx="2" ry="2"/><rect class="c" x="594" y="98" rx="2" ry="2"/><rect class="c" x="610" y="2" rx="2" ry="2"/><rect class="c" x="610" y="18" rx="2" ry="2"/><rect class="c" x="610" y="34" rx="2" ry="2"/><rect class="c" x="610" y="50" rx="2" ry="2"/><rect class="c" x="610" y="66" rx="2" ry="2"/><rect class="c" x="610" y="82" rx="2" ry="2"/><rect class="c" x="610" y="98" rx="2" ry="2"/><rect class="c" x="626" y="2" rx="2" ry="2"/><rect class="c" x="626" y="18" rx="2" ry="2"/><rect class="c" x="626" y="34" rx="2" ry="2"/><rect class="c" x="626" y="50" rx="2" ry="2"/><rect class="c" x="626" y="66" rx="2" ry="2"/><rect class="c" x="626" y="82" rx="2" ry="2"/><rect class="c" x="626" y="98" rx="2" ry="2"/><rect class="c" x="642" y="2" rx="2" ry="2"/><rect class="c" x="642" y="18" rx="2" ry="2"/><rect class="c" x="642" y="34" rx="2" ry="2"/><rect class="c" x="642" y="50" rx="2" ry="2"/><rect class="c" x="642" y="66" rx="2" ry="2"/><rect class="c" x="642" y="82" rx="2" ry="2"/><rect class="c" x="642" y="98" rx="2" ry="2"/><rect class="c" x="658" y="2" rx="2" ry="2"/><rect class="c" x="658" y="18" rx="2" ry="2"/><rect class="c" x="658" y="34" rx="2" ry="2"/><rect class="c" x="658" y="50" rx="2" ry="2"/><rect class="c" x="658" y="66" rx="2" ry="2"/><rect class="c" x="658" y="82" rx="2" ry="2"/><rect class="c c1" x="658" y="98" rx="2" ry="2"/><rect class="c c2" x="674" y="2" rx="2" ry="2"/><rect class="c c3" x="674" y="18" rx="2" ry="2"/><rect class="c c4" x="674" y="34" rx="2" ry="2"/><rect class="c c5" x="674" y="50" rx="2" ry="2"/><rect class="c c6" x="674" y="66" rx="2" ry="2"/><rect class="c c7" x="674" y="82" rx="2" ry="2"/><rect class="c c8" x="674" y="98" rx="2" ry="2"/><rect class="c c9" x="690" y="2" rx="2" ry="2"/><rect class="c ca" x="690" y="18" rx="2" ry="2"/><rect class="c cb" x="690" y="34" rx="2" ry="2"/><rect class="c cc" x="690" y="50" rx="2" ry="2"/><rect class="c cd" x="690" y="66" rx="2" ry="2"/><rect class="c ce" x="690" y="82" rx="2" ry="2"/><rect class="c cf" x="690" y="98" rx="2" ry="2"/><rect class="c cg" x="706" y="2" rx="2" ry="2"/><rect class="c ch" x="706" y="18" rx="2" ry="2"/><rect class="c ci" x="706" y="34" rx="2" ry="2"/><rect class="c cj" x="706" y="50" rx="2" ry="2"/><rect class="c ck" x="706" y="66" rx="2" ry="2"/><rect class="c cl" x="706" y="82" rx="2" ry="2"/><rect class="c cm" x="706" y="98" rx="2" ry="2"/><rect class="c cn" x="722" y="2" rx="2" ry="2"/><rect class="c co" x="722" y="18" rx="2" ry="2"/><rect class="c cp" x="722" y="34" rx="2" ry="2"/><rect class="c cq" x="722" y="50" rx="2" ry="2"/><rect class="c cr" x="722" y="66" rx="2" ry="2"/><rect class="c cs" x="722" y="82" rx="2" ry="2"/><rect class="c ct" x="722" y="98" rx="2" ry="2"/><rect class="c cu" x="738" y="2" rx="2" ry="2"/><rect class="c cv" x="738" y="18" rx="2" ry="2"/><rect class="c cw" x="738" y="34" rx="2" ry="2"/><rect class="c cx" x="738" y="50" rx="2" ry="2"/><rect class="c cy" x="738" y="66" rx="2" ry="2"/><rect class="c cz" x="738" y="82" rx="2" ry="2"/><rect class="c c10" x="738" y="98" rx="2" ry="2"/><rect class="c c11" x="754" y="2" rx="2" ry="2"/><rect class="c c12" x="754" y="18" rx="2" ry="2"/><rect class="c c13" x="754" y="34" rx="2" ry="2"/><rect class="c c14" x="754" y="50" rx="2" ry="2"/><rect class="c c15" x="754" y="66" rx="2" ry="2"/><rect class="c c16" x="754" y="82" rx="2" ry="2"/><rect class="c c17" x="754" y="98" rx="2" ry="2"/><rect class="c c18" x="770" y="2" rx="2" ry="2"/><rect class="c c19" x="770" y="18" rx="2" ry="2"/><rect class="c c1a" x="770" y="34" rx="2" ry="2"/><rect class="c c1b" x="770" y="50" rx="2" ry="2"/><rect class="c c1c" x="770" y="66" rx="2" ry="2"/><rect class="c c1d" x="770" y="82" rx="2" ry="2"/><rect class="c c1e" x="770" y="98" rx="2" ry="2"/><rect class="c c1f" x="786" y="2" rx="2" ry="2"/><rect class="c c1g" x="786" y="18" rx="2" ry="2"/><rect class="c c1h" x="786" y="34" rx="2" ry="2"/><rect class="c c1i" x="786" y="50" rx="2" ry="2"/><rect class="c c1j" x="786" y="66" rx="2" ry="2"/><rect class="c c1k" x="786" y="82" rx="2" ry="2"/><rect class="c c1l" x="786" y="98" rx="2" ry="2"/><rect class="c c1m" x="802" y="2" rx="2" ry="2"/><rect class="c c1n" x="802" y="18" rx="2" ry="2"/><rect class="c c1o" x="802" y="34" rx="2" ry="2"/><rect class="c c1p" x="802" y="50" rx="2" ry="2"/><rect class="c c1q" x="802" y="66" rx="2" ry="2"/><rect class="c c1r" x="802" y="82" rx="2" ry="2"/><rect class="c c1s" x="802" y="98" rx="2" ry="2"/><rect class="c c1t" x="818" y="2" rx="2" ry="2"/><rect class="c c1u" x="818" y="18" rx="2" ry="2"/><rect class="c c1v" x="818" y="34" rx="2" ry="2"/><rect class="c c1w" x="818" y="50" rx="2" ry="2"/><rect class="c c1x" x="818" y="66" rx="2" ry="2"/><rect class="c c1y" x="818" y="82" rx="2" ry="2"/><rect class="c c1z" x="818" y="98" rx="2" ry="2"/><rect class="c c20" x="834" y="2" rx="2" ry="2"/><rect class="c c21" x="834" y="18" rx="2" ry="2"/><rect class="c c22" x="834" y="34" rx="2" ry="2"/><rect class="c" x="834" y="50" rx="2" ry="2"/><rect class="u u0" height="12" width="34.5" x="0.0" y="144"/><rect class="u u1" height="12" width="91.1" x="33.9" y="144"/><rect class="u u2" height="12" width="679.0" x="124.4" y="144"/><rect class="u u3" height="12" width="45.8" x="802.8" y="144"/><rect class="s s0" x="0.8" y="0.8" width="14.4" height="14.4" rx="4.5" ry="4.5"/><rect class="s s1" x="1.8" y="1.8" width="12.3" height="12.3" rx="4.1" ry="4.1"/><rect class="s s2" x="2.6" y="2.6" width="10.8" height="10.8" rx="3.6" ry="3.6"/><rect class="s s3" x="3.0" y="3.0" width="9.9" height="9.9" rx="3.3" ry="3.3"/></svg>