<svg viewBox="-16 -32 880 192" width="880" height="192" xmlns="http://www.w3.org/2000/svg"><desc>Generated with https://github.com/Platane/snk</desc><style>:root{--cb:#1b1f230a;--cs:purple;--ce:#161b22;--c0:#161b22;--c1:#01311f;--c2:#034525;--c3:#0f6d31;--c4:#00c647}.c{shape-rendering:geometricPrecision;fill:var(--ce);stroke-width:1px;stroke:var(--cb);animation:none 29300ms linear infinite;width:12px;height:12px}@keyframes c0{2.72%{fill:var(--c1)}2.74%,100%{fill:var(--ce)}}.c.c0{fill:var(--c1);animation-name:c0}@keyframes c1{14.67%{fill:var(--c1)}14.69%,100%{fill:var(--ce)}}.c.c1{fill:var(--c1);animation-name:c1}@keyframes c2{17.74%{fill:var(--c1)}17.76%,100%{fill:var(--ce)}}.c.c2{fill:var(--c1);animation-name:c2}@keyframes c3{17.4%{fill:var(--c1)}17.42%,100%{fill:var(--ce)}}.c.c3{fill:var(--c1);animation-name:c3}@keyframes c4{64.15%{fill:var(--c3)}64.17%,100%{fill:var(--ce)}}.c.c4{fill:var(--c3);animation-name:c4}@keyframes c5{38.56%{fill:var(--c2)}38.58%,100%{fill:var(--ce)}}.c.c5{fill:var(--c2);animation-name:c5}@keyframes c6{38.9%{fill:var(--c2)}38.92%,100%{fill:var(--ce)}}.c.c6{fill:var(--c2);animation-name:c6}@keyframes c7{83.61%{fill:var(--c4)}83.63%,100%{fill:var(--ce)}}.c.c7{fill:var(--c4);animation-name:c7}@keyframes c8{83.95%{fill:var(--c4)}83.97%,100%{fill:var(--ce)}}.c.c8{fill:var(--c4);animation-name:c8}@keyframes c9{86.34%{fill:var(--c4)}86.36%,100%{fill:var(--ce)}}.c.c9{fill:var(--c4);animation-name:c9}@keyframes ca{37.53%{fill:var(--c1)}37.55%,100%{fill:var(--ce)}}.c.ca{fill:var(--c1);animation-name:ca}@keyframes cb{37.87%{fill:var(--c2)}37.89%,100%{fill:var(--ce)}}.c.cb{fill:var(--c2);animation-name:cb}@keyframes cc{38.22%{fill:var(--c2)}38.24%,100%{fill:var(--ce)}}.c.cc{fill:var(--c2);animation-name:cc}@keyframes cd{65.18%{fill:var(--c3)}65.2%,100%{fill:var(--ce)}}.c.cd{fill:var(--c3);animation-name:cd}@keyframes ce{83.27%{fill:var(--c4)}83.29%,100%{fill:var(--ce)}}.c.ce{fill:var(--c4);animation-name:ce}@keyframes cf{82.93%{fill:var(--c3)}82.95%,100%{fill:var(--ce)}}.c.cf{fill:var(--c3);animation-name:cf}@keyframes cg{53.23%{fill:var(--c3)}53.25%,100%{fill:var(--ce)}}.c.cg{fill:var(--c3);animation-name:cg}@keyframes ch{52.89%{fill:var(--c2)}52.91%,100%{fill:var(--ce)}}.c.ch{fill:var(--c2);animation-name:ch}@keyframes ci{63.47%{fill:var(--c3)}63.49%,100%{fill:var(--ce)}}.c.ci{fill:var(--c3);animation-name:ci}@keyframes cj{63.13%{fill:var(--c3)}63.15%,100%{fill:var(--ce)}}.c.cj{fill:var(--c3);animation-name:cj}@keyframes ck{65.52%{fill:var(--c3)}65.54%,100%{fill:var(--ce)}}.c.ck{fill:var(--c3);animation-name:ck}@keyframes cl{70.64%{fill:var(--c3)}70.66%,100%{fill:var(--ce)}}.c.cl{fill:var(--c3);animation-name:cl}@keyframes cm{70.98%{fill:var(--c3)}71%,100%{fill:var(--ce)}}.c.cm{fill:var(--c3);animation-name:cm}@keyframes cn{53.57%{fill:var(--c3)}53.59%,100%{fill:var(--ce)}}.c.cn{fill:var(--c3);animation-name:cn}@keyframes co{58.01%{fill:var(--c3)}58.03%,100%{fill:var(--ce)}}.c.co{fill:var(--c3);animation-name:co}@keyframes cp{58.35%{fill:var(--c3)}58.37%,100%{fill:var(--ce)}}.c.cp{fill:var(--c3);animation-name:cp}@keyframes cq{62.79%{fill:var(--c3)}62.81%,100%{fill:var(--ce)}}.c.cq{fill:var(--c3);animation-name:cq}@keyframes cr{65.86%{fill:var(--c3)}65.88%,100%{fill:var(--ce)}}.c.cr{fill:var(--c3);animation-name:cr}@keyframes cs{70.3%{fill:var(--c3)}70.32%,100%{fill:var(--ce)}}.c.cs{fill:var(--c3);animation-name:cs}@keyframes ct{71.32%{fill:var(--c3)}71.34%,100%{fill:var(--ce)}}.c.ct{fill:var(--c3);animation-name:ct}@keyframes cu{53.91%{fill:var(--c3)}53.93%,100%{fill:var(--ce)}}.c.cu{fill:var(--c3);animation-name:cu}@keyframes cv{57.67%{fill:var(--c3)}57.69%,100%{fill:var(--ce)}}.c.cv{fill:var(--c3);animation-name:cv}@keyframes cw{58.69%{fill:var(--c3)}58.71%,100%{fill:var(--ce)}}.c.cw{fill:var(--c3);animation-name:cw}@keyframes cx{62.45%{fill:var(--c3)}62.47%,100%{fill:var(--ce)}}.c.cx{fill:var(--c3);animation-name:cx}@keyframes cy{66.2%{fill:var(--c3)}66.22%,100%{fill:var(--ce)}}.c.cy{fill:var(--c3);animation-name:cy}@keyframes cz{69.96%{fill:var(--c3)}69.98%,100%{fill:var(--ce)}}.c.cz{fill:var(--c3);animation-name:cz}@keyframes c10{71.66%{fill:var(--c3)}71.68%,100%{fill:var(--ce)}}.c.c10{fill:var(--c3);animation-name:c10}@keyframes c11{54.26%{fill:var(--c3)}54.28%,100%{fill:var(--ce)}}.c.c11{fill:var(--c3);animation-name:c11}@keyframes c12{57.33%{fill:var(--c3)}57.35%,100%{fill:var(--ce)}}.c.c12{fill:var(--c3);animation-name:c12}@keyframes c13{59.03%{fill:var(--c3)}59.05%,100%{fill:var(--ce)}}.c.c13{fill:var(--c3);animation-name:c13}@keyframes c14{62.11%{fill:var(--c3)}62.13%,100%{fill:var(--ce)}}.c.c14{fill:var(--c3);animation-name:c14}@keyframes c15{66.54%{fill:var(--c3)}66.56%,100%{fill:var(--ce)}}.c.c15{fill:var(--c3);animation-name:c15}@keyframes c16{69.61%{fill:var(--c3)}69.63%,100%{fill:var(--ce)}}.c.c16{fill:var(--c3);animation-name:c16}@keyframes c17{72%{fill:var(--c3)}72.02%,100%{fill:var(--ce)}}.c.c17{fill:var(--c3);animation-name:c17}@keyframes c18{54.6%{fill:var(--c3)}54.62%,100%{fill:var(--ce)}}.c.c18{fill:var(--c3);animation-name:c18}@keyframes c19{56.99%{fill:var(--c3)}57.01%,100%{fill:var(--ce)}}.c.c19{fill:var(--c3);animation-name:c19}@keyframes c1a{59.38%{fill:var(--c3)}59.4%,100%{fill:var(--ce)}}.c.c1a{fill:var(--c3);animation-name:c1a}@keyframes c1b{61.76%{fill:var(--c3)}61.78%,100%{fill:var(--ce)}}.c.c1b{fill:var(--c3);animation-name:c1b}@keyframes c1c{66.88%{fill:var(--c3)}66.9%,100%{fill:var(--ce)}}.c.c1c{fill:var(--c3);animation-name:c1c}@keyframes c1d{69.27%{fill:var(--c3)}69.29%,100%{fill:var(--ce)}}.c.c1d{fill:var(--c3);animation-name:c1d}@keyframes c1e{72.34%{fill:var(--c3)}72.36%,100%{fill:var(--ce)}}.c.c1e{fill:var(--c3);animation-name:c1e}@keyframes c1f{54.94%{fill:var(--c3)}54.96%,100%{fill:var(--ce)}}.c.c1f{fill:var(--c3);animation-name:c1f}@keyframes c1g{56.65%{fill:var(--c3)}56.67%,100%{fill:var(--ce)}}.c.c1g{fill:var(--c3);animation-name:c1g}@keyframes c1h{59.72%{fill:var(--c3)}59.74%,100%{fill:var(--ce)}}.c.c1h{fill:var(--c3);animation-name:c1h}@keyframes c1i{61.42%{fill:var(--c3)}61.44%,100%{fill:var(--ce)}}.c.c1i{fill:var(--c3);animation-name:c1i}@keyframes c1j{67.23%{fill:var(--c3)}67.25%,100%{fill:var(--ce)}}.c.c1j{fill:var(--c3);animation-name:c1j}@keyframes c1k{68.93%{fill:var(--c3)}68.95%,100%{fill:var(--ce)}}.c.c1k{fill:var(--c3);animation-name:c1k}@keyframes c1l{72.69%{fill:var(--c3)}72.71%,100%{fill:var(--ce)}}.c.c1l{fill:var(--c3);animation-name:c1l}@keyframes c1m{55.28%{fill:var(--c3)}55.3%,100%{fill:var(--ce)}}.c.c1m{fill:var(--c3);animation-name:c1m}@keyframes c1n{56.3%{fill:var(--c3)}56.32%,100%{fill:var(--ce)}}.c.c1n{fill:var(--c3);animation-name:c1n}@keyframes c1o{60.06%{fill:var(--c3)}60.08%,100%{fill:var(--ce)}}.c.c1o{fill:var(--c3);animation-name:c1o}@keyframes c1p{61.08%{fill:var(--c3)}61.1%,100%{fill:var(--ce)}}.c.c1p{fill:var(--c3);animation-name:c1p}@keyframes c1q{67.57%{fill:var(--c3)}67.59%,100%{fill:var(--ce)}}.c.c1q{fill:var(--c3);animation-name:c1q}@keyframes c1r{68.59%{fill:var(--c3)}68.61%,100%{fill:var(--ce)}}.c.c1r{fill:var(--c3);animation-name:c1r}@keyframes c1s{73.03%{fill:var(--c3)}73.05%,100%{fill:var(--ce)}}.c.c1s{fill:var(--c3);animation-name:c1s}@keyframes c1t{55.62%{fill:var(--c3)}55.64%,100%{fill:var(--ce)}}.c.c1t{fill:var(--c3);animation-name:c1t}@keyframes c1u{55.96%{fill:var(--c3)}55.98%,100%{fill:var(--ce)}}.c.c1u{fill:var(--c3);animation-name:c1u}@keyframes c1v{60.4%{fill:var(--c3)}60.42%,100%{fill:var(--ce)}}.c.c1v{fill:var(--c3);animation-name:c1v}@keyframes c1w{60.74%{fill:var(--c3)}60.76%,100%{fill:var(--ce)}}.c.c1w{fill:var(--c3);animation-name:c1w}@keyframes c1x{67.91%{fill:var(--c3)}67.93%,100%{fill:var(--ce)}}.c.c1x{fill:var(--c3);animation-name:c1x}@keyframes c1y{68.25%{fill:var(--c3)}68.27%,100%{fill:var(--ce)}}.c.c1y{fill:var(--c3);animation-name:c1y}@keyframes c1z{73.37%{fill:var(--c3)}73.39%,100%{fill:var(--ce)}}.c.c1z{fill:var(--c3);animation-name:c1z}@keyframes c20{21.83%{fill:var(--c1)}21.85%,100%{fill:var(--ce)}}.c.c20{fill:var(--c1);animation-name:c20}@keyframes c21{32.41%{fill:var(--c1)}32.43%,100%{fill:var(--ce)}}.c.c21{fill:var(--c1);animation-name:c21}@keyframes c22{32.07%{fill:var(--c1)}32.09%,100%{fill:var(--ce)}}.c.c22{fill:var(--c1);animation-name:c22}@keyframes c23{31.73%{fill:var(--c1)}31.75%,100%{fill:var(--ce)}}.c.c23{fill:var(--c1);animation-name:c23}@keyframes c24{31.39%{fill:var(--c1)}31.41%,100%{fill:var(--ce)}}.c.c24{fill:var(--c1);animation-name:c24}@keyframes c25{31.05%{fill:var(--c1)}31.07%,100%{fill:var(--ce)}}.c.c25{fill:var(--c1);animation-name:c25}@keyframes c26{30.71%{fill:var(--c1)}30.73%,100%{fill:var(--ce)}}.c.c26{fill:var(--c1);animation-name:c26}@keyframes c27{22.17%{fill:var(--c1)}22.19%,100%{fill:var(--ce)}}.c.c27{fill:var(--c1);animation-name:c27}@keyframes c28{77.81%{fill:var(--c3)}77.83%,100%{fill:var(--ce)}}.c.c28{fill:var(--c3);animation-name:c28}@keyframes c29{77.46%{fill:var(--c3)}77.48%,100%{fill:var(--ce)}}.c.c29{fill:var(--c3);animation-name:c29}@keyframes c2a{75.08%{fill:var(--c3)}75.1%,100%{fill:var(--ce)}}.c.c2a{fill:var(--c3);animation-name:c2a}@keyframes c2b{74.73%{fill:var(--c3)}74.75%,100%{fill:var(--ce)}}.c.c2b{fill:var(--c3);animation-name:c2b}@keyframes c2c{74.39%{fill:var(--c3)}74.41%,100%{fill:var(--ce)}}.c.c2c{fill:var(--c3);animation-name:c2c}@keyframes c2d{30.37%{fill:var(--c1)}30.39%,100%{fill:var(--ce)}}.c.c2d{fill:var(--c1);animation-name:c2d}@keyframes c2e{22.52%{fill:var(--c1)}22.54%,100%{fill:var(--ce)}}.c.c2e{fill:var(--c1);animation-name:c2e}@keyframes c2f{24.22%{fill:var(--c1)}24.24%,100%{fill:var(--ce)}}.c.c2f{fill:var(--c1);animation-name:c2f}@keyframes c2g{24.56%{fill:var(--c1)}24.58%,100%{fill:var(--ce)}}.c.c2g{fill:var(--c1);animation-name:c2g}@keyframes c2h{75.42%{fill:var(--c3)}75.44%,100%{fill:var(--ce)}}.c.c2h{fill:var(--c3);animation-name:c2h}@keyframes c2i{27.29%{fill:var(--c1)}27.31%,100%{fill:var(--ce)}}.c.c2i{fill:var(--c1);animation-name:c2i}@keyframes c2j{27.64%{fill:var(--c1)}27.66%,100%{fill:var(--ce)}}.c.c2j{fill:var(--c1);animation-name:c2j}@keyframes c2k{45.04%{fill:var(--c2)}45.06%,100%{fill:var(--ce)}}.c.c2k{fill:var(--c2);animation-name:c2k}@keyframes c2l{22.86%{fill:var(--c1)}22.88%,100%{fill:var(--ce)}}.c.c2l{fill:var(--c1);animation-name:c2l}@keyframes c2m{23.88%{fill:var(--c1)}23.9%,100%{fill:var(--ce)}}.c.c2m{fill:var(--c1);animation-name:c2m}@keyframes c2n{24.9%{fill:var(--c1)}24.92%,100%{fill:var(--ce)}}.c.c2n{fill:var(--c1);animation-name:c2n}@keyframes c2o{75.76%{fill:var(--c3)}75.78%,100%{fill:var(--ce)}}.c.c2o{fill:var(--c3);animation-name:c2o}@keyframes c2p{26.95%{fill:var(--c1)}26.97%,100%{fill:var(--ce)}}.c.c2p{fill:var(--c1);animation-name:c2p}@keyframes c2q{27.98%{fill:var(--c1)}28%,100%{fill:var(--ce)}}.c.c2q{fill:var(--c1);animation-name:c2q}@keyframes c2r{29%{fill:var(--c1)}29.02%,100%{fill:var(--ce)}}.c.c2r{fill:var(--c1);animation-name:c2r}@keyframes c2s{23.2%{fill:var(--c1)}23.22%,100%{fill:var(--ce)}}.c.c2s{fill:var(--c1);animation-name:c2s}@keyframes c2t{23.54%{fill:var(--c1)}23.56%,100%{fill:var(--ce)}}.c.c2t{fill:var(--c1);animation-name:c2t}@keyframes c2u{25.25%{fill:var(--c1)}25.27%,100%{fill:var(--ce)}}.c.c2u{fill:var(--c1);animation-name:c2u}@keyframes c2v{76.1%{fill:var(--c3)}76.12%,100%{fill:var(--ce)}}.c.c2v{fill:var(--c3);animation-name:c2v}@keyframes c2w{26.61%{fill:var(--c1)}26.63%,100%{fill:var(--ce)}}.c.c2w{fill:var(--c1);animation-name:c2w}@keyframes c2x{28.32%{fill:var(--c1)}28.34%,100%{fill:var(--ce)}}.c.c2x{fill:var(--c1);animation-name:c2x}@keyframes c2y{28.66%{fill:var(--c1)}28.68%,100%{fill:var(--ce)}}.c.c2y{fill:var(--c1);animation-name:c2y}.u{transform-origin:0 0;transform:scale(0,1);animation:none linear 29300ms infinite}@keyframes u0{2.72%{transform:scale(0.000,1)}2.74%,14.67%{transform:scale(0.032,1)}14.69%,17.4%{transform:scale(0.065,1)}17.42%,17.74%{transform:scale(0.097,1)}17.76%,21.83%{transform:scale(0.129,1)}21.85%,22.17%{transform:scale(0.161,1)}22.19%,22.52%{transform:scale(0.194,1)}22.54%,22.86%{transform:scale(0.226,1)}22.88%,23.2%{transform:scale(0.258,1)}23.22%,23.54%{transform:scale(0.290,1)}23.56%,23.88%{transform:scale(0.323,1)}23.9%,24.22%{transform:scale(0.355,1)}24.24%,24.56%{transform:scale(0.387,1)}24.58%,24.9%{transform:scale(0.419,1)}24.92%,25.25%{transform:scale(0.452,1)}25.27%,26.61%{transform:scale(0.484,1)}26.63%,26.95%{transform:scale(0.516,1)}26.97%,27.29%{transform:scale(0.548,1)}27.31%,27.64%{transform:scale(0.581,1)}27.66%,27.98%{transform:scale(0.613,1)}28%,28.32%{transform:scale(0.645,1)}28.34%,28.66%{transform:scale(0.677,1)}28.68%,29%{transform:scale(0.710,1)}29.02%,30.37%{transform:scale(0.742,1)}30.39%,30.71%{transform:scale(0.774,1)}30.73%,31.05%{transform:scale(0.806,1)}31.07%,31.39%{transform:scale(0.839,1)}31.41%,31.73%{transform:scale(0.871,1)}31.75%,32.07%{transform:scale(0.903,1)}32.09%,32.41%{transform:scale(0.935,1)}32.43%,37.53%{transform:scale(0.968,1)}37.55%,100%{transform:scale(1.000,1)}}.u.u0{fill:var(--c1);animation-name:u0;transform-origin:0.0px 0}@keyframes u1{37.87%{transform:scale(0.000,1)}37.89%,38.22%{transform:scale(0.167,1)}38.24%,38.56%{transform:scale(0.333,1)}38.58%,38.9%{transform:scale(0.500,1)}38.92%,45.04%{transform:scale(0.667,1)}45.06%,52.89%{transform:scale(0.833,1)}52.91%,100%{transform:scale(1.000,1)}}.u.u1{fill:var(--c2);animation-name:u1;transform-origin:245.7px 0}@keyframes u2{53.23%{transform:scale(0.000,1)}53.25%,53.57%{transform:scale(0.015,1)}53.59%,53.91%{transform:scale(0.030,1)}53.93%,54.26%{transform:scale(0.045,1)}54.28%,54.6%{transform:scale(0.061,1)}54.62%,54.94%{transform:scale(0.076,1)}54.96%,55.28%{transform:scale(0.091,1)}55.3%,55.62%{transform:scale(0.106,1)}55.64%,55.96%{transform:scale(0.121,1)}55.98%,56.3%{transform:scale(0.136,1)}56.32%,56.65%{transform:scale(0.152,1)}56.67%,56.99%{transform:scale(0.167,1)}57.01%,57.33%{transform:scale(0.182,1)}57.35%,57.67%{transform:scale(0.197,1)}57.69%,58.01%{transform:scale(0.212,1)}58.03%,58.35%{transform:scale(0.227,1)}58.37%,58.69%{transform:scale(0.242,1)}58.71%,59.03%{transform:scale(0.258,1)}59.05%,59.38%{transform:scale(0.273,1)}59.4%,59.72%{transform:scale(0.288,1)}59.74%,60.06%{transform:scale(0.303,1)}60.08%,60.4%{transform:scale(0.318,1)}60.42%,60.74%{transform:scale(0.333,1)}60.76%,61.08%{transform:scale(0.348,1)}61.1%,61.42%{transform:scale(0.364,1)}61.44%,61.76%{transform:scale(0.379,1)}61.78%,62.11%{transform:scale(0.394,1)}62.13%,62.45%{transform:scale(0.409,1)}62.47%,62.79%{transform:scale(0.424,1)}62.81%,63.13%{transform:scale(0.439,1)}63.15%,63.47%{transform:scale(0.455,1)}63.49%,64.15%{transform:scale(0.470,1)}64.17%,65.18%{transform:scale(0.485,1)}65.2%,65.52%{transform:scale(0.500,1)}65.54%,65.86%{transform:scale(0.515,1)}65.88%,66.2%{transform:scale(0.530,1)}66.22%,66.54%{transform:scale(0.545,1)}66.56%,66.88%{transform:scale(0.561,1)}66.9%,67.23%{transform:scale(0.576,1)}67.25%,67.57%{transform:scale(0.591,1)}67.59%,67.91%{transform:scale(0.606,1)}67.93%,68.25%{transform:scale(0.621,1)}68.27%,68.59%{transform:scale(0.636,1)}68.61%,68.93%{transform:scale(0.652,1)}68.95%,69.27%{transform:scale(0.667,1)}69.29%,69.61%{transform:scale(0.682,1)}69.63%,69.96%{transform:scale(0.697,1)}69.98%,70.3%{transform:scale(0.712,1)}70.32%,70.64%{transform:scale(0.727,1)}70.66%,70.98%{transform:scale(0.742,1)}71%,71.32%{transform:scale(0.758,1)}71.34%,71.66%{transform:scale(0.773,1)}71.68%,72%{transform:scale(0.788,1)}72.02%,72.34%{transform:scale(0.803,1)}72.36%,72.69%{transform:scale(0.818,1)}72.71%,73.03%{transform:scale(0.833,1)}73.05%,73.37%{transform:scale(0.848,1)}73.39%,74.39%{transform:scale(0.864,1)}74.41%,74.73%{transform:scale(0.879,1)}74.75%,75.08%{transform:scale(0.894,1)}75.1%,75.42%{transform:scale(0.909,1)}75.44%,75.76%{transform:scale(0.924,1)}75.78%,76.1%{transform:scale(0.939,1)}76.12%,77.46%{transform:scale(0.955,1)}77.48%,77.81%{transform:scale(0.970,1)}77.83%,82.93%{transform:scale(0.985,1)}82.95%,100%{transform:scale(1.000,1)}}.u.u2{fill:var(--c3);animation-name:u2;transform-origin:293.2px 0}@keyframes u3{83.27%{transform:scale(0.000,1)}83.29%,83.61%{transform:scale(0.250,1)}83.63%,83.95%{transform:scale(0.500,1)}83.97%,86.34%{transform:scale(0.750,1)}86.36%,100%{transform:scale(1.000,1)}}.u.u3{fill:var(--c4);animation-name:u3;transform-origin:816.3px 0}.s{shape-rendering:geometricPrecision;fill:var(--cs);animation:none linear 29300ms infinite}@keyframes s0{0%,99.66%{transform:translate(0px,-16px)}0.34%{transform:translate(0px,0px)}1.37%{transform:translate(48px,0px)}2.73%{transform:translate(48px,64px)}13.99%,39.25%{transform:translate(576px,64px)}14.68%{transform:translate(576px,96px)}15.02%{transform:translate(560px,96px)}15.36%{transform:translate(560px,80px)}15.7%{transform:translate(576px,80px)}17.06%,51.88%{transform:translate(576px,16px)}17.41%,37.2%{transform:translate(592px,16px)}18.09%,36.52%{transform:translate(592px,-16px)}21.5%,33.11%{transform:translate(752px,-16px)}21.84%{transform:translate(752px,0px)}23.21%{transform:translate(816px,0px)}23.55%{transform:translate(816px,16px)}24.23%{transform:translate(784px,16px)}24.57%{transform:translate(784px,32px)}25.6%{transform:translate(832px,32px)}26.28%{transform:translate(832px,64px)}27.3%{transform:translate(784px,64px)}27.65%{transform:translate(784px,80px)}28.33%{transform:translate(816px,80px)}28.67%{transform:translate(816px,96px)}29.01%{transform:translate(800px,96px)}29.35%{transform:translate(800px,112px)}30.03%{transform:translate(768px,112px)}30.38%,74.06%{transform:translate(768px,96px)}30.72%,45.73%{transform:translate(752px,96px)}37.54%{transform:translate(608px,16px)}38.23%,64.85%{transform:translate(608px,48px)}38.57%,64.51%{transform:translate(592px,48px)}38.91%{transform:translate(592px,64px)}40.27%,49.83%{transform:translate(576px,112px)}44.71%{transform:translate(784px,112px)}45.05%{transform:translate(784px,96px)}46.08%{transform:translate(752px,112px)}52.9%,80.89%{transform:translate(624px,16px)}53.24%{transform:translate(624px,0px)}55.63%{transform:translate(736px,0px)}55.97%{transform:translate(736px,16px)}58.02%{transform:translate(640px,16px)}58.36%{transform:translate(640px,32px)}60.41%{transform:translate(736px,32px)}60.75%{transform:translate(736px,48px)}63.14%{transform:translate(624px,48px)}63.48%{transform:translate(624px,32px)}64.16%{transform:translate(592px,32px)}65.19%{transform:translate(608px,64px)}67.92%{transform:translate(736px,64px)}68.26%{transform:translate(736px,80px)}70.65%{transform:translate(624px,80px)}70.99%,82.59%{transform:translate(624px,96px)}75.09%{transform:translate(768px,48px)}76.11%{transform:translate(816px,48px)}76.45%{transform:translate(816px,32px)}77.47%{transform:translate(768px,32px)}77.82%{transform:translate(768px,16px)}82.94%,84.3%{transform:translate(608px,96px)}83.28%{transform:translate(608px,80px)}83.62%{transform:translate(592px,80px)}83.96%{transform:translate(592px,96px)}86.35%{transform:translate(608px,0px)}97.95%{transform:translate(64px,0px)}98.29%{transform:translate(64px,-16px)}}.s.s0{transform:translate(0px,-16px);animation-name:s0}@keyframes s1{0%,99.66%{transform:translate(16px,-16px)}0.34%{transform:translate(0px,-16px)}0.68%{transform:translate(0px,0px)}1.71%{transform:translate(48px,0px)}3.07%{transform:translate(48px,64px)}14.33%,39.59%{transform:translate(576px,64px)}15.02%{transform:translate(576px,96px)}15.36%{transform:translate(560px,96px)}15.7%{transform:translate(560px,80px)}16.04%{transform:translate(576px,80px)}17.41%,52.22%{transform:translate(576px,16px)}17.75%,37.54%{transform:translate(592px,16px)}18.43%,36.86%{transform:translate(592px,-16px)}21.84%,33.45%{transform:translate(752px,-16px)}22.18%{transform:translate(752px,0px)}23.55%{transform:translate(816px,0px)}23.89%{transform:translate(816px,16px)}24.57%{transform:translate(784px,16px)}24.91%{transform:translate(784px,32px)}25.94%{transform:translate(832px,32px)}26.62%{transform:translate(832px,64px)}27.65%{transform:translate(784px,64px)}27.99%{transform:translate(784px,80px)}28.67%{transform:translate(816px,80px)}29.01%{transform:translate(816px,96px)}29.35%{transform:translate(800px,96px)}29.69%{transform:translate(800px,112px)}30.38%{transform:translate(768px,112px)}30.72%,74.4%{transform:translate(768px,96px)}31.06%,46.08%{transform:translate(752px,96px)}37.88%{transform:translate(608px,16px)}38.57%,65.19%{transform:translate(608px,48px)}38.91%,64.85%{transform:translate(592px,48px)}39.25%{transform:translate(592px,64px)}40.61%,50.17%{transform:translate(576px,112px)}45.05%{transform:translate(784px,112px)}45.39%{transform:translate(784px,96px)}46.42%{transform:translate(752px,112px)}53.24%,81.23%{transform:translate(624px,16px)}53.58%{transform:translate(624px,0px)}55.97%{transform:translate(736px,0px)}56.31%{transform:translate(736px,16px)}58.36%{transform:translate(640px,16px)}58.7%{transform:translate(640px,32px)}60.75%{transform:translate(736px,32px)}61.09%{transform:translate(736px,48px)}63.48%{transform:translate(624px,48px)}63.82%{transform:translate(624px,32px)}64.51%{transform:translate(592px,32px)}65.53%{transform:translate(608px,64px)}68.26%{transform:translate(736px,64px)}68.6%{transform:translate(736px,80px)}70.99%{transform:translate(624px,80px)}71.33%,82.94%{transform:translate(624px,96px)}75.43%{transform:translate(768px,48px)}76.45%{transform:translate(816px,48px)}76.79%{transform:translate(816px,32px)}77.82%{transform:translate(768px,32px)}78.16%{transform:translate(768px,16px)}83.28%,84.64%{transform:translate(608px,96px)}83.62%{transform:translate(608px,80px)}83.96%{transform:translate(592px,80px)}84.3%{transform:translate(592px,96px)}86.69%{transform:translate(608px,0px)}98.29%{transform:translate(64px,0px)}98.63%{transform:translate(64px,-16px)}}.s.s1{transform:translate(16px,-16px);animation-name:s1}@keyframes s2{0%,99.66%{transform:translate(32px,-16px)}0.68%{transform:translate(0px,-16px)}1.02%{transform:translate(0px,0px)}2.05%{transform:translate(48px,0px)}3.41%{transform:translate(48px,64px)}14.68%,39.93%{transform:translate(576px,64px)}15.36%{transform:translate(576px,96px)}15.7%{transform:translate(560px,96px)}16.04%{transform:translate(560px,80px)}16.38%{transform:translate(576px,80px)}17.75%,52.56%{transform:translate(576px,16px)}18.09%,37.88%{transform:translate(592px,16px)}18.77%,37.2%{transform:translate(592px,-16px)}22.18%,33.79%{transform:translate(752px,-16px)}22.53%{transform:translate(752px,0px)}23.89%{transform:translate(816px,0px)}24.23%{transform:translate(816px,16px)}24.91%{transform:translate(784px,16px)}25.26%{transform:translate(784px,32px)}26.28%{transform:translate(832px,32px)}26.96%{transform:translate(832px,64px)}27.99%{transform:translate(784px,64px)}28.33%{transform:translate(784px,80px)}29.01%{transform:translate(816px,80px)}29.35%{transform:translate(816px,96px)}29.69%{transform:translate(800px,96px)}30.03%{transform:translate(800px,112px)}30.72%{transform:translate(768px,112px)}31.06%,74.74%{transform:translate(768px,96px)}31.4%,46.42%{transform:translate(752px,96px)}38.23%{transform:translate(608px,16px)}38.91%,65.53%{transform:translate(608px,48px)}39.25%,65.19%{transform:translate(592px,48px)}39.59%{transform:translate(592px,64px)}40.96%,50.51%{transform:translate(576px,112px)}45.39%{transform:translate(784px,112px)}45.73%{transform:translate(784px,96px)}46.76%{transform:translate(752px,112px)}53.58%,81.57%{transform:translate(624px,16px)}53.92%{transform:translate(624px,0px)}56.31%{transform:translate(736px,0px)}56.66%{transform:translate(736px,16px)}58.7%{transform:translate(640px,16px)}59.04%{transform:translate(640px,32px)}61.09%{transform:translate(736px,32px)}61.43%{transform:translate(736px,48px)}63.82%{transform:translate(624px,48px)}64.16%{transform:translate(624px,32px)}64.85%{transform:translate(592px,32px)}65.87%{transform:translate(608px,64px)}68.6%{transform:translate(736px,64px)}68.94%{transform:translate(736px,80px)}71.33%{transform:translate(624px,80px)}71.67%,83.28%{transform:translate(624px,96px)}75.77%{transform:translate(768px,48px)}76.79%{transform:translate(816px,48px)}77.13%{transform:translate(816px,32px)}78.16%{transform:translate(768px,32px)}78.5%{transform:translate(768px,16px)}83.62%,84.98%{transform:translate(608px,96px)}83.96%{transform:translate(608px,80px)}84.3%{transform:translate(592px,80px)}84.64%{transform:translate(592px,96px)}87.03%{transform:translate(608px,0px)}98.63%{transform:translate(64px,0px)}98.98%{transform:translate(64px,-16px)}}.s.s2{transform:translate(32px,-16px);animation-name:s2}@keyframes s3{0%,99.66%{transform:translate(48px,-16px)}1.02%{transform:translate(0px,-16px)}1.37%{transform:translate(0px,0px)}2.39%{transform:translate(48px,0px)}3.75%{transform:translate(48px,64px)}15.02%,40.27%{transform:translate(576px,64px)}15.7%{transform:translate(576px,96px)}16.04%{transform:translate(560px,96px)}16.38%{transform:translate(560px,80px)}16.72%{transform:translate(576px,80px)}18.09%,52.9%{transform:translate(576px,16px)}18.43%,38.23%{transform:translate(592px,16px)}19.11%,37.54%{transform:translate(592px,-16px)}22.53%,34.13%{transform:translate(752px,-16px)}22.87%{transform:translate(752px,0px)}24.23%{transform:translate(816px,0px)}24.57%{transform:translate(816px,16px)}25.26%{transform:translate(784px,16px)}25.6%{transform:translate(784px,32px)}26.62%{transform:translate(832px,32px)}27.3%{transform:translate(832px,64px)}28.33%{transform:translate(784px,64px)}28.67%{transform:translate(784px,80px)}29.35%{transform:translate(816px,80px)}29.69%{transform:translate(816px,96px)}30.03%{transform:translate(800px,96px)}30.38%{transform:translate(800px,112px)}31.06%{transform:translate(768px,112px)}31.4%,75.09%{transform:translate(768px,96px)}31.74%,46.76%{transform:translate(752px,96px)}38.57%{transform:translate(608px,16px)}39.25%,65.87%{transform:translate(608px,48px)}39.59%,65.53%{transform:translate(592px,48px)}39.93%{transform:translate(592px,64px)}41.3%,50.85%{transform:translate(576px,112px)}45.73%{transform:translate(784px,112px)}46.08%{transform:translate(784px,96px)}47.1%{transform:translate(752px,112px)}53.92%,81.91%{transform:translate(624px,16px)}54.27%{transform:translate(624px,0px)}56.66%{transform:translate(736px,0px)}57%{transform:translate(736px,16px)}59.04%{transform:translate(640px,16px)}59.39%{transform:translate(640px,32px)}61.43%{transform:translate(736px,32px)}61.77%{transform:translate(736px,48px)}64.16%{transform:translate(624px,48px)}64.51%{transform:translate(624px,32px)}65.19%{transform:translate(592px,32px)}66.21%{transform:translate(608px,64px)}68.94%{transform:translate(736px,64px)}69.28%{transform:translate(736px,80px)}71.67%{transform:translate(624px,80px)}72.01%,83.62%{transform:translate(624px,96px)}76.11%{transform:translate(768px,48px)}77.13%{transform:translate(816px,48px)}77.47%{transform:translate(816px,32px)}78.5%{transform:translate(768px,32px)}78.84%{transform:translate(768px,16px)}83.96%,85.32%{transform:translate(608px,96px)}84.3%{transform:translate(608px,80px)}84.64%{transform:translate(592px,80px)}84.98%{transform:translate(592px,96px)}87.37%{transform:translate(608px,0px)}98.98%{transform:translate(64px,0px)}99.32%{transform:translate(64px,-16px)}}.s.s3{transform:translate(48px,-16px);animation-name:s3}</style><rect class="c" x="2" y="2" rx="2" ry="2"/><rect class="c" x="2" y="18" rx="2" ry="2"/><rect class="c" x="2" y="34" rx="2" ry="2"/><rect class="c" x="2" y="50" rx="2" ry="2"/><rect class="c" x="2" y="66" rx="2" ry="2"/><rect class="c" x="2" y="82" rx="2" ry="2"/><rect class="c" x="2" y="98" rx="2" ry="2"/><rect class="c" x="18" y="2" rx="2" ry="2"/><rect class="c" x="18" y="18" rx="2" ry="2"/><rect class="c" x="18" y="34" rx="2" ry="2"/><rect class="c" x="18" y="50" rx="2" ry="2"/><rect class="c" x="18" y="66" rx="2" ry="2"/><rect class="c" x="18" y="82" rx="2" ry="2"/><rect class="c" x="18" y="98" rx="2" ry="2"/><rect class="c" x="34" y="2" rx="2" ry="2"/><rect class="c" x="34" y="18" rx="2" ry="2"/><rect class="c" x="34" y="34" rx="2" ry="2"/><rect class="c" x="34" y="50" rx="2" ry="2"/><rect class="c" x="34" y="66" rx="2" ry="2"/><rect class="c" x="34" y="82" rx="2" ry="2"/><rect class="c" x="34" y="98" rx="2" ry="2"/><rect class="c" x="50" y="2" rx="2" ry="2"/><rect class="c" x="50" y="18" rx="2" ry="2"/><rect class="c" x="50" y="34" rx="2" ry="2"/><rect class="c" x="50" y="50" rx="2" ry="2"/><rect class="c c0" x="50" y="66" rx="2" ry="2"/><rect class="c" x="50" y="82" rx="2" ry="2"/><rect class="c" x="50" y="98" rx="2" ry="2"/><rect class="c" x="66" y="2" rx="2" ry="2"/><rect class="c" x="66" y="18" rx="2" ry="2"/><rect class="c" x="66" y="34" rx="2" ry="2"/><rect class="c" x="66" y="50" rx="2" ry="2"/><rect class="c" x="66" y="66" rx="2" ry="2"/><rect class="c" x="66" y="82" rx="2" ry="2"/><rect class="c" x="66" y="98" rx="2" ry="2"/><rect class="c" x="82" y="2" rx="2" ry="2"/><rect class="c" x="82" y="18" rx="2" ry="2"/><rect class="c" x="82" y="34" rx="2" ry="2"/><rect class="c" x="82" y="50" rx="2" ry="2"/><rect class="c" x="82" y="66" rx="2" ry="2"/><rect class="c" x="82" y="82" rx="2" ry="2"/><rect class="c" x="82" y="98" rx="2" ry="2"/><rect class="c" x="98" y="2" rx="2" ry="2"/><rect class="c" x="98" y="18" rx="2" ry="2"/><rect class="c" x="98" y="34" rx="2" ry="2"/><rect class="c" x="98" y="50" rx="2" ry="2"/><rect class="c" x="98" y="66" rx="2" ry="2"/><rect class="c" x="98" y="82" rx="2" ry="2"/><rect class="c" x="98" y="98" rx="2" ry="2"/><rect class="c" x="114" y="2" rx="2" ry="2"/><rect class="c" x="114" y="18" rx="2" ry="2"/><rect class="c" x="114" y="34" rx="2" ry="2"/><rect class="c" x="114" y="50" rx="2" ry="2"/><rect class="c" x="114" y="66" rx="2" ry="2"/><rect class="c" x="114" y="82" rx="2" ry="2"/><rect class="c" x="114" y="98" rx="2" ry="2"/><rect class="c" x="130" y="2" rx="2" ry="2"/><rect class="c" x="130" y="18" rx="2" ry="2"/><rect class="c" x="130" y="34" rx="2" ry="2"/><rect class="c" x="130" y="50" rx="2" ry="2"/><rect class="c" x="130" y="66" rx="2" ry="2"/><rect class="c" x="130" y="82" rx="2" ry="2"/><rect class="c" x="130" y="98" rx="2" ry="2"/><rect class="c" x="146" y="2" rx="2" ry="2"/><rect class="c" x="146" y="18" rx="2" ry="2"/><rect class="c" x="146" y="34" rx="2" ry="2"/><rect class="c" x="146" y="50" rx="2" ry="2"/><rect class="c" x="146" y="66" rx="2" ry="2"/><rect class="c" x="146" y="82" rx="2" ry="2"/><rect class="c" x="146" y="98" rx="2" ry="2"/><rect class="c" x="162" y="2" rx="2" ry="2"/><rect class="c" x="162" y="18" rx="2" ry="2"/><rect class="c" x="162" y="34" rx="2" ry="2"/><rect class="c" x="162" y="50" rx="2" ry="2"/><rect class="c" x="162" y="66" rx="2" ry="2"/><rect class="c" x="162" y="82" rx="2" ry="2"/><rect class="c" x="162" y="98" rx="2" ry="2"/><rect class="c" x="178" y="2" rx="2" ry="2"/><rect class="c" x="178" y="18" rx="2" ry="2"/><rect class="c" x="178" y="34" rx="2" ry="2"/><rect class="c" x="178" y="50" rx="2" ry="2"/><rect class="c" x="178" y="66" rx="2" ry="2"/><rect class="c" x="178" y="82" rx="2" ry="2"/><rect class="c" x="178" y="98" rx="2" ry="2"/><rect class="c" x="194" y="2" rx="2" ry="2"/><rect class="c" x="194" y="18" rx="2" ry="2"/><rect class="c" x="194" y="34" rx="2" ry="2"/><rect class="c" x="194" y="50" rx="2" ry="2"/><rect class="c" x="194" y="66" rx="2" ry="2"/><rect class="c" x="194" y="82" rx="2" ry="2"/><rect class="c" x="194" y="98" rx="2" ry="2"/><rect class="c" x="210" y="2" rx="2" ry="2"/><rect class="c" x="210" y="18" rx="2" ry="2"/><rect class="c" x="210" y="34" rx="2" ry="2"/><rect class="c" x="210" y="50" rx="2" ry="2"/><rect class="c" x="210" y="66" rx="2" ry="2"/><rect class="c" x="210" y="82" rx="2" ry="2"/><rect class="c" x="210" y="98" rx="2" ry="2"/><rect class="c" x="226" y="2" rx="2" ry="2"/><rect class="c" x="226" y="18" rx="2" ry="2"/><rect class="c" x="226" y="34" rx="2" ry="2"/><rect class="c" x="226" y="50" rx="2" ry="2"/><rect class="c" x="226" y="66" rx="2" ry="2"/><rect class="c" x="226" y="82" rx="2" ry="2"/><rect class="c" x="226" y="98" rx="2" ry="2"/><rect class="c" x="242" y="2" rx="2" ry="2"/><rect class="c" x="242" y="18" rx="2" ry="2"/><rect class="c" x="242" y="34" rx="2" ry="2"/><rect class="c" x="242" y="50" rx="2" ry="2"/><rect class="c" x="242" y="66" rx="2" ry="2"/><rect class="c" x="242" y="82" rx="2" ry="2"/><rect class="c" x="242" y="98" rx="2" ry="2"/><rect class="c" x="258" y="2" rx="2" ry="2"/><rect class="c" x="258" y="18" rx="2" ry="2"/><rect class="c" x="258" y="34" rx="2" ry="2"/><rect class="c" x="258" y="50" rx="2" ry="2"/><rect class="c" x="258" y="66" rx="2" ry="2"/><rect class="c" x="258" y="82" rx="2" ry="2"/><rect class="c" x="258" y="98" rx="2" ry="2"/><rect class="c" x="274" y="2" rx="2" ry="2"/><rect class="c" x="274" y="18" rx="2" ry="2"/><rect class="c" x="274" y="34" rx="2" ry="2"/><rect class="c" x="274" y="50" rx="2" ry="2"/><rect class="c" x="274" y="66" rx="2" ry="2"/><rect class="c" x="274" y="82" rx="2" ry="2"/><rect class="c" x="274" y="98" rx="2" ry="2"/><rect class="c" x="290" y="2" rx="2" ry="2"/><rect class="c" x="290" y="18" rx="2" ry="2"/><rect class="c" x="290" y="34" rx="2" ry="2"/><rect class="c" x="290" y="50" rx="2" ry="2"/><rect class="c" x="290" y="66" rx="2" ry="2"/><rect class="c" x="290" y="82" rx="2" ry="2"/><rect class="c" x="290" y="98" rx="2" ry="2"/><rect class="c" x="306" y="2" rx="2" ry="2"/><rect class="c" x="306" y="18" rx="2" ry="2"/><rect class="c" x="306" y="34" rx="2" ry="2"/><rect class="c" x="306" y="50" rx="2" ry="2"/><rect class="c" x="306" y="66" rx="2" ry="2"/><rect class="c" x="306" y="82" rx="2" ry="2"/><rect class="c" x="306" y="98" rx="2" ry="2"/><rect class="c" x="322" y="2" rx="2" ry="2"/><rect class="c" x="322" y="18" rx="2" ry="2"/><rect class="c" x="322" y="34" rx="2" ry="2"/><rect class="c" x="322" y="50" rx="2" ry="2"/><rect class="c" x="322" y="66" rx="2" ry="2"/><rect class="c" x="322" y="82" rx="2" ry="2"/><rect class="c" x="322" y="98" rx="2" ry="2"/><rect class="c" x="338" y="2" rx="2" ry="2"/><rect class="c" x="338" y="18" rx="2" ry="2"/><rect class="c" x="338" y="34" rx="2" ry="2"/><rect class="c" x="338" y="50" rx="2" ry="2"/><rect class="c" x="338" y="66" rx="2" ry="2"/><rect class="c" x="338" y="82" rx="2" ry="2"/><rect class="c" x="338" y="98" rx="2" ry="2"/><rect class="c" x="354" y="2" rx="2" ry="2"/><rect class="c" x="354" y="18" rx="2" ry="2"/><rect class="c" x="354" y="34" rx="2" ry="2"/><rect class="c" x="354" y="50" rx="2" ry="2"/><rect class="c" x="354" y="66" rx="2" ry="2"/><rect class="c" x="354" y="82" rx="2" ry="2"/><rect class="c" x="354" y="98" rx="2" ry="2"/><rect class="c" x="370" y="2" rx="2" ry="2"/><rect class="c" x="370" y="18" rx="2" ry="2"/><rect class="c" x="370" y="34" rx="2" ry="2"/><rect class="c" x="370" y="50" rx="2" ry="2"/><rect class="c" x="370" y="66" rx="2" ry="2"/><rect class="c" x="370" y="82" rx="2" ry="2"/><rect class="c" x="370" y="98" rx="2" ry="2"/><rect class="c" x="386" y="2" rx="2" ry="2"/><rect class="c" x="386" y="18" rx="2" ry="2"/><rect class="c" x="386" y="34" rx="2" ry="2"/><rect class="c" x="386" y="50" rx="2" ry="2"/><rect class="c" x="386" y="66" rx="2" ry="2"/><rect class="c" x="386" y="82" rx="2" ry="2"/><rect class="c" x="386" y="98" rx="2" ry="2"/><rect class="c" x="402" y="2" rx="2" ry="2"/><rect class="c" x="402" y="18" rx="2" ry="2"/><rect class="c" x="402" y="34" rx="2" ry="2"/><rect class="c" x="402" y="50" rx="2" ry="2"/><rect class="c" x="402" y="66" rx="2" ry="2"/><rect class="c" x="402" y="82" rx="2" ry="2"/><rect class="c" x="402" y="98" rx="2" ry="2"/><rect class="c" x="418" y="2" rx="2" ry="2"/><rect class="c" x="418" y="18" rx="2" ry="2"/><rect class="c" x="418" y="34" rx="2" ry="2"/><rect class="c" x="418" y="50" rx="2" ry="2"/><rect class="c" x="418" y="66" rx="2" ry="2"/><rect class="c" x="418" y="82" rx="2" ry="2"/><rect class="c" x="418" y="98" rx="2" ry="2"/><rect class="c" x="434" y="2" rx="2" ry="2"/><rect class="c" x="434" y="18" rx="2" ry="2"/><rect class="c" x="434" y="34" rx="2" ry="2"/><rect class="c" x="434" y="50" rx="2" ry="2"/><rect class="c" x="434" y="66" rx="2" ry="2"/><rect class="c" x="434" y="82" rx="2" ry="2"/><rect class="c" x="434" y="98" rx="2" ry="2"/><rect class="c" x="450" y="2" rx="2" ry="2"/><rect class="c" x="450" y="18" rx="2" ry="2"/><rect class="c" x="450" y="34" rx="2" ry="2"/><rect class="c" x="450" y="50" rx="2" ry="2"/><rect class="c" x="450" y="66" rx="2" ry="2"/><rect class="c" x="450" y="82" rx="2" ry="2"/><rect class="c" x="450" y="98" rx="2" ry="2"/><rect class="c" x="466" y="2" rx="2" ry="2"/><rect class="c" x="466" y="18" rx="2" ry="2"/><rect class="c" x="466" y="34" rx="2" ry="2"/><rect class="c" x="466" y="50" rx="2" ry="2"/><rect class="c" x="466" y="66" rx="2" ry="2"/><rect class="c" x="466" y="82" rx="2" ry="2"/><rect class="c" x="466" y="98" rx="2" ry="2"/><rect class="c" x="482" y="2" rx="2" ry="2"/><rect class="c" x="482" y="18" rx="2" ry="2"/><rect class="c" x="482" y="34" rx="2" ry="2"/><rect class="c" x="482" y="50" rx="2" ry="2"/><rect class="c" x="482" y="66" rx="2" ry="2"/><rect class="c" x="482" y="82" rx="2" ry="2"/><rect class="c" x="482" y="98" rx="2" ry="2"/><rect class="c" x="498" y="2" rx="2" ry="2"/><rect class="c" x="498" y="18" rx="2" ry="2"/><rect class="c" x="498" y="34" rx="2" ry="2"/><rect class="c" x="498" y="50" rx="2" ry="2"/><rect class="c" x="498" y="66" rx="2" ry="2"/><rect class="c" x="498" y="82" rx="2" ry="2"/><rect class="c" x="498" y="98" rx="2" ry="2"/><rect class="c" x="514" y="2" rx="2" ry="2"/><rect class="c" x="514" y="18" rx="2" ry="2"/><rect class="c" x="514" y="34" rx="2" ry="2"/><rect class="c" x="514" y="50" rx="2" ry="2"/><rect class="c" x="514" y="66" rx="2" ry="2"/><rect class="c" x="514" y="82" rx="2" ry="2"/><rect class="c" x="514" y="98" rx="2" ry="2"/><rect class="c" x="530" y="2" rx="2" ry="2"/><rect class="c" x="530" y="18" rx="2" ry="2"/><rect class="c" x="530" y="34" rx="2" ry="2"/><rect class="c" x="530" y="50" rx="2" ry="2"/><rect class="c" x="530" y="66" rx="2" ry="2"/><rect class="c" x="530" y="82" rx="2" ry="2"/><rect class="c" x="530" y="98" rx="2" ry="2"/><rect class="c" x="546" y="2" rx="2" ry="2"/><rect class="c" x="546" y="18" rx="2" ry="2"/><rect class="c" x="546" y="34" rx="2" ry="2"/><rect class="c" x="546" y="50" rx="2" ry="2"/><rect class="c" x="546" y="66" rx="2" ry="2"/><rect class="c" x="546" y="82" rx="2" ry="2"/><rect class="c" x="546" y="98" rx="2" ry="2"/><rect class="c" x="562" y="2" rx="2" ry="2"/><rect class="c" x="562" y="18" rx="2" ry="2"/><rect class="c" x="562" y="34" rx="2" ry="2"/><rect class="c" x="562" y="50" rx="2" ry="2"/><rect class="c" x="562" y="66" rx="2" ry="2"/><rect class="c" x="562" y="82" rx="2" ry="2"/><rect class="c" x="562" y="98" rx="2" ry="2"/><rect class="c" x="578" y="2" rx="2" ry="2"/><rect class="c" x="578" y="18" rx="2" ry="2"/><rect class="c" x="578" y="34" rx="2" ry="2"/><rect class="c" x="578" y="50" rx="2" ry="2"/><rect class="c" x="578" y="66" rx="2" ry="2"/><rect class="c" x="578" y="82" rx="2" ry="2"/><rect class="c c1" x="578" y="98" rx="2" ry="2"/><rect class="c c2" x="594" y="2" rx="2" ry="2"/><rect class="c c3" x="594" y="18" rx="2" ry="2"/><rect class="c c4" x="594" y="34" rx="2" ry="2"/><rect class="c c5" x="594" y="50" rx="2" ry="2"/><rect class="c c6" x="594" y="66" rx="2" ry="2"/><rect class="c c7" x="594" y="82" rx="2" ry="2"/><rect class="c c8" x="594" y="98" rx="2" ry="2"/><rect class="c c9" x="610" y="2" rx="2" ry="2"/><rect class="c ca" x="610" y="18" rx="2" ry="2"/><rect class="c cb" x="610" y="34" rx="2" ry="2"/><rect class="c cc" x="610" y="50" rx="2" ry="2"/><rect class="c cd" x="610" y="66" rx="2" ry="2"/><rect class="c ce" x="610" y="82" rx="2" ry="2"/><rect class="c cf" x="610" y="98" rx="2" ry="2"/><rect class="c cg" x="626" y="2" rx="2" ry="2"/><rect class="c ch" x="626" y="18" rx="2" ry="2"/><rect class="c ci" x="626" y="34" rx="2" ry="2"/><rect class="c cj" x="626" y="50" rx="2" ry="2"/><rect class="c ck" x="626" y="66" rx="2" ry="2"/><rect class="c cl" x="626" y="82" rx="2" ry="2"/><rect class="c cm" x="626" y="98" rx="2" ry="2"/><rect class="c cn" x="642" y="2" rx="2" ry="2"/><rect class="c co" x="642" y="18" rx="2" ry="2"/><rect class="c cp" x="642" y="34" rx="2" ry="2"/><rect class="c cq" x="642" y="50" rx="2" ry="2"/><rect class="c cr" x="642" y="66" rx="2" ry="2"/><rect class="c cs" x="642" y="82" rx="2" ry="2"/><rect class="c ct" x="642" y="98" rx="2" ry="2"/><rect class="c cu" x="658" y="2" rx="2" ry="2"/><rect class="c cv" x="658" y="18" rx="2" ry="2"/><rect class="c cw" x="658" y="34" rx="2" ry="2"/><rect class="c cx" x="658" y="50" rx="2" ry="2"/><rect class="c cy" x="658" y="66" rx="2" ry="2"/><rect class="c cz" x="658" y="82" rx="2" ry="2"/><rect class="c c10" x="658" y="98" rx="2" ry="2"/><rect class="c c11" x="674" y="2" rx="2" ry="2"/><rect class="c c12" x="674" y="18" rx="2" ry="2"/><rect class="c c13" x="674" y="34" rx="2" ry="2"/><rect class="c c14" x="674" y="50" rx="2" ry="2"/><rect class="c c15" x="674" y="66" rx="2" ry="2"/><rect class="c c16" x="674" y="82" rx="2" ry="2"/><rect class="c c17" x="674" y="98" rx="2" ry="2"/><rect class="c c18" x="690" y="2" rx="2" ry="2"/><rect class="c c19" x="690" y="18" rx="2" ry="2"/><rect class="c c1a" x="690" y="34" rx="2" ry="2"/><rect class="c c1b" x="690" y="50" rx="2" ry="2"/><rect class="c c1c" x="690" y="66" rx="2" ry="2"/><rect class="c c1d" x="690" y="82" rx="2" ry="2"/><rect class="c c1e" x="690" y="98" rx="2" ry="2"/><rect class="c c1f" x="706" y="2" rx="2" ry="2"/><rect class="c c1g" x="706" y="18" rx="2" ry="2"/><rect class="c c1h" x="706" y="34" rx="2" ry="2"/><rect class="c c1i" x="706" y="50" rx="2" ry="2"/><rect class="c c1j" x="706" y="66" rx="2" ry="2"/><rect class="c c1k" x="706" y="82" rx="2" ry="2"/><rect class="c c1l" x="706" y="98" rx="2" ry="2"/><rect class="c c1m" x="722" y="2" rx="2" ry="2"/><rect class="c c1n" x="722" y="18" rx="2" ry="2"/><rect class="c c1o" x="722" y="34" rx="2" ry="2"/><rect class="c c1p" x="722" y="50" rx="2" ry="2"/><rect class="c c1q" x="722" y="66" rx="2" ry="2"/><rect class="c c1r" x="722" y="82" rx="2" ry="2"/><rect class="c c1s" x="722" y="98" rx="2" ry="2"/><rect class="c c1t" x="738" y="2" rx="2" ry="2"/><rect class="c c1u" x="738" y="18" rx="2" ry="2"/><rect class="c c1v" x="738" y="34" rx="2" ry="2"/><rect class="c c1w" x="738" y="50" rx="2" ry="2"/><rect class="c c1x" x="738" y="66" rx="2" ry="2"/><rect class="c c1y" x="738" y="82" rx="2" ry="2"/><rect class="c c1z" x="738" y="98" rx="2" ry="2"/><rect class="c c20" x="754" y="2" rx="2" ry="2"/><rect class="c c21" x="754" y="18" rx="2" ry="2"/><rect class="c c22" x="754" y="34" rx="2" ry="2"/><rect class="c c23" x="754" y="50" rx="2" ry="2"/><rect class="c c24" x="754" y="66" rx="2" ry="2"/><rect class="c c25" x="754" y="82" rx="2" ry="2"/><rect class="c c26" x="754" y="98" rx="2" ry="2"/><rect class="c c27" x="770" y="2" rx="2" ry="2"/><rect class="c c28" x="770" y="18" rx="2" ry="2"/><rect class="c c29" x="770" y="34" rx="2" ry="2"/><rect class="c c2a" x="770" y="50" rx="2" ry="2"/><rect class="c c2b" x="770" y="66" rx="2" ry="2"/><rect class="c c2c" x="770" y="82" rx="2" ry="2"/><rect class="c c2d" x="770" y="98" rx="2" ry="2"/><rect class="c c2e" x="786" y="2" rx="2" ry="2"/><rect class="c c2f" x="786" y="18" rx="2" ry="2"/><rect class="c c2g" x="786" y="34" rx="2" ry="2"/><rect class="c c2h" x="786" y="50" rx="2" ry="2"/><rect class="c c2i" x="786" y="66" rx="2" ry="2"/><rect class="c c2j" x="786" y="82" rx="2" ry="2"/><rect class="c c2k" x="786" y="98" rx="2" ry="2"/><rect class="c c2l" x="802" y="2" rx="2" ry="2"/><rect class="c c2m" x="802" y="18" rx="2" ry="2"/><rect class="c c2n" x="802" y="34" rx="2" ry="2"/><rect class="c c2o" x="802" y="50" rx="2" ry="2"/><rect class="c c2p" x="802" y="66" rx="2" ry="2"/><rect class="c c2q" x="802" y="82" rx="2" ry="2"/><rect class="c c2r" x="802" y="98" rx="2" ry="2"/><rect class="c c2s" x="818" y="2" rx="2" ry="2"/><rect class="c c2t" x="818" y="18" rx="2" ry="2"/><rect class="c c2u" x="818" y="34" rx="2" ry="2"/><rect class="c c2v" x="818" y="50" rx="2" ry="2"/><rect class="c c2w" x="818" y="66" rx="2" ry="2"/><rect class="c c2x" x="818" y="82" rx="2" ry="2"/><rect class="c c2y" x="818" y="98" rx="2" ry="2"/><rect class="c" x="834" y="2" rx="2" ry="2"/><rect class="u u0" height="12" width="246.3" x="0.0" y="144"/><rect class="u u1" height="12" width="48.2" x="245.7" y="144"/><rect class="u u2" height="12" width="523.7" x="293.2" y="144"/><rect class="u u3" height="12" width="32.3" x="816.3" y="144"/><rect class="s s0" x="0.8" y="0.8" width="14.4" height="14.4" rx="4.5" ry="4.5"/><rect class="s s1" x="1.8" y="1.8" width="12.3" height="12.3" rx="4.1" ry="4.1"/><rect class="s s2" x="2.6" y="2.6" width="10.8" height="10.8" rx="3.6" ry="3.6"/><rect class="s s3" x="3.0" y="3.0" width="9.9" height="9.9" rx="3.3" ry="3.3"/></svg>