<svg viewBox="-16 -32 880 192" width="880" height="192" xmlns="http://www.w3.org/2000/svg"><desc>Generated with https://github.com/Platane/snk</desc><style>:root{--cb:#1b1f230a;--cs:purple;--ce:#ebedf0;--c0:#ebedf0;--c1:#9be9a8;--c2:#40c463;--c3:#30a14e;--c4:#216e39}.c{shape-rendering:geometricPrecision;fill:var(--ce);stroke-width:1px;stroke:var(--cb);animation:none 19500ms linear infinite;width:12px;height:12px}@keyframes c0{7.17%{fill:var(--c1)}7.19%,100%{fill:var(--ce)}}.c.c0{fill:var(--c1);animation-name:c0}@keyframes c1{25.12%{fill:var(--c1)}25.14%,100%{fill:var(--ce)}}.c.c1{fill:var(--c1);animation-name:c1}@keyframes c2{29.73%{fill:var(--c2)}29.75%,100%{fill:var(--ce)}}.c.c2{fill:var(--c2);animation-name:c2}@keyframes c3{29.22%{fill:var(--c1)}29.24%,100%{fill:var(--ce)}}.c.c3{fill:var(--c1);animation-name:c3}@keyframes c4{36.91%{fill:var(--c3)}36.93%,100%{fill:var(--ce)}}.c.c4{fill:var(--c3);animation-name:c4}@keyframes c5{32.3%{fill:var(--c2)}32.32%,100%{fill:var(--ce)}}.c.c5{fill:var(--c2);animation-name:c5}@keyframes c6{32.81%{fill:var(--c2)}32.83%,100%{fill:var(--ce)}}.c.c6{fill:var(--c2);animation-name:c6}@keyframes c7{72.3%{fill:var(--c4)}72.32%,100%{fill:var(--ce)}}.c.c7{fill:var(--c4);animation-name:c7}@keyframes c8{72.81%{fill:var(--c4)}72.83%,100%{fill:var(--ce)}}.c.c8{fill:var(--c4);animation-name:c8}@keyframes c9{76.4%{fill:var(--c4)}76.42%,100%{fill:var(--ce)}}.c.c9{fill:var(--c4);animation-name:c9}@keyframes ca{35.89%{fill:var(--c2)}35.91%,100%{fill:var(--ce)}}.c.ca{fill:var(--c2);animation-name:ca}@keyframes cb{36.4%{fill:var(--c2)}36.42%,100%{fill:var(--ce)}}.c.cb{fill:var(--c2);animation-name:cb}@keyframes cc{37.94%{fill:var(--c3)}37.96%,100%{fill:var(--ce)}}.c.cc{fill:var(--c3);animation-name:cc}@keyframes cd{68.2%{fill:var(--c3)}68.22%,100%{fill:var(--ce)}}.c.cd{fill:var(--c3);animation-name:cd}@keyframes ce{71.78%{fill:var(--c4)}71.8%,100%{fill:var(--ce)}}.c.ce{fill:var(--c4);animation-name:ce}@keyframes cf{71.27%{fill:var(--c3)}71.29%,100%{fill:var(--ce)}}.c.cf{fill:var(--c3);animation-name:cf}@keyframes cg{46.14%{fill:var(--c3)}46.16%,100%{fill:var(--ce)}}.c.cg{fill:var(--c3);animation-name:cg}@keyframes ch{46.66%{fill:var(--c3)}46.68%,100%{fill:var(--ce)}}.c.ch{fill:var(--c3);animation-name:ch}@keyframes ci{52.3%{fill:var(--c3)}52.32%,100%{fill:var(--ce)}}.c.ci{fill:var(--c3);animation-name:ci}@keyframes cj{38.45%{fill:var(--c3)}38.47%,100%{fill:var(--ce)}}.c.cj{fill:var(--c3);animation-name:cj}@keyframes ck{53.32%{fill:var(--c3)}53.34%,100%{fill:var(--ce)}}.c.ck{fill:var(--c3);animation-name:ck}@keyframes cl{59.99%{fill:var(--c3)}60.01%,100%{fill:var(--ce)}}.c.cl{fill:var(--c3);animation-name:cl}@keyframes cm{60.5%{fill:var(--c3)}60.52%,100%{fill:var(--ce)}}.c.cm{fill:var(--c3);animation-name:cm}@keyframes cn{45.63%{fill:var(--c3)}45.65%,100%{fill:var(--ce)}}.c.cn{fill:var(--c3);animation-name:cn}@keyframes co{47.17%{fill:var(--c3)}47.19%,100%{fill:var(--ce)}}.c.co{fill:var(--c3);animation-name:co}@keyframes cp{51.78%{fill:var(--c3)}51.8%,100%{fill:var(--ce)}}.c.cp{fill:var(--c3);animation-name:cp}@keyframes cq{38.96%{fill:var(--c3)}38.98%,100%{fill:var(--ce)}}.c.cq{fill:var(--c3);animation-name:cq}@keyframes cr{53.84%{fill:var(--c3)}53.86%,100%{fill:var(--ce)}}.c.cr{fill:var(--c3);animation-name:cr}@keyframes cs{59.48%{fill:var(--c3)}59.5%,100%{fill:var(--ce)}}.c.cs{fill:var(--c3);animation-name:cs}@keyframes ct{61.02%{fill:var(--c3)}61.04%,100%{fill:var(--ce)}}.c.ct{fill:var(--c3);animation-name:ct}@keyframes cu{45.12%{fill:var(--c3)}45.14%,100%{fill:var(--ce)}}.c.cu{fill:var(--c3);animation-name:cu}@keyframes cv{47.68%{fill:var(--c3)}47.7%,100%{fill:var(--ce)}}.c.cv{fill:var(--c3);animation-name:cv}@keyframes cw{51.27%{fill:var(--c3)}51.29%,100%{fill:var(--ce)}}.c.cw{fill:var(--c3);animation-name:cw}@keyframes cx{39.48%{fill:var(--c3)}39.5%,100%{fill:var(--ce)}}.c.cx{fill:var(--c3);animation-name:cx}@keyframes cy{54.35%{fill:var(--c3)}54.37%,100%{fill:var(--ce)}}.c.cy{fill:var(--c3);animation-name:cy}@keyframes cz{58.96%{fill:var(--c3)}58.98%,100%{fill:var(--ce)}}.c.cz{fill:var(--c3);animation-name:cz}@keyframes c10{61.53%{fill:var(--c3)}61.55%,100%{fill:var(--ce)}}.c.c10{fill:var(--c3);animation-name:c10}@keyframes c11{44.61%{fill:var(--c3)}44.63%,100%{fill:var(--ce)}}.c.c11{fill:var(--c3);animation-name:c11}@keyframes c12{48.2%{fill:var(--c3)}48.22%,100%{fill:var(--ce)}}.c.c12{fill:var(--c3);animation-name:c12}@keyframes c13{50.76%{fill:var(--c3)}50.78%,100%{fill:var(--ce)}}.c.c13{fill:var(--c3);animation-name:c13}@keyframes c14{39.99%{fill:var(--c3)}40.01%,100%{fill:var(--ce)}}.c.c14{fill:var(--c3);animation-name:c14}@keyframes c15{54.86%{fill:var(--c3)}54.88%,100%{fill:var(--ce)}}.c.c15{fill:var(--c3);animation-name:c15}@keyframes c16{58.45%{fill:var(--c3)}58.47%,100%{fill:var(--ce)}}.c.c16{fill:var(--c3);animation-name:c16}@keyframes c17{62.04%{fill:var(--c3)}62.06%,100%{fill:var(--ce)}}.c.c17{fill:var(--c3);animation-name:c17}@keyframes c18{44.09%{fill:var(--c3)}44.11%,100%{fill:var(--ce)}}.c.c18{fill:var(--c3);animation-name:c18}@keyframes c19{48.71%{fill:var(--c3)}48.73%,100%{fill:var(--ce)}}.c.c19{fill:var(--c3);animation-name:c19}@keyframes c1a{50.25%{fill:var(--c3)}50.27%,100%{fill:var(--ce)}}.c.c1a{fill:var(--c3);animation-name:c1a}@keyframes c1b{40.5%{fill:var(--c3)}40.52%,100%{fill:var(--ce)}}.c.c1b{fill:var(--c3);animation-name:c1b}@keyframes c1c{55.37%{fill:var(--c3)}55.39%,100%{fill:var(--ce)}}.c.c1c{fill:var(--c3);animation-name:c1c}@keyframes c1d{57.94%{fill:var(--c3)}57.96%,100%{fill:var(--ce)}}.c.c1d{fill:var(--c3);animation-name:c1d}@keyframes c1e{62.55%{fill:var(--c3)}62.57%,100%{fill:var(--ce)}}.c.c1e{fill:var(--c3);animation-name:c1e}@keyframes c1f{43.58%{fill:var(--c3)}43.6%,100%{fill:var(--ce)}}.c.c1f{fill:var(--c3);animation-name:c1f}@keyframes c1g{49.22%{fill:var(--c3)}49.24%,100%{fill:var(--ce)}}.c.c1g{fill:var(--c3);animation-name:c1g}@keyframes c1h{49.73%{fill:var(--c3)}49.75%,100%{fill:var(--ce)}}.c.c1h{fill:var(--c3);animation-name:c1h}@keyframes c1i{41.02%{fill:var(--c3)}41.04%,100%{fill:var(--ce)}}.c.c1i{fill:var(--c3);animation-name:c1i}@keyframes c1j{55.89%{fill:var(--c3)}55.91%,100%{fill:var(--ce)}}.c.c1j{fill:var(--c3);animation-name:c1j}@keyframes c1k{57.43%{fill:var(--c3)}57.45%,100%{fill:var(--ce)}}.c.c1k{fill:var(--c3);animation-name:c1k}@keyframes c1l{63.07%{fill:var(--c3)}63.09%,100%{fill:var(--ce)}}.c.c1l{fill:var(--c3);animation-name:c1l}@keyframes c1m{43.07%{fill:var(--c3)}43.09%,100%{fill:var(--ce)}}.c.c1m{fill:var(--c3);animation-name:c1m}@keyframes c1n{42.55%{fill:var(--c3)}42.57%,100%{fill:var(--ce)}}.c.c1n{fill:var(--c3);animation-name:c1n}@keyframes c1o{42.04%{fill:var(--c3)}42.06%,100%{fill:var(--ce)}}.c.c1o{fill:var(--c3);animation-name:c1o}@keyframes c1p{41.53%{fill:var(--c3)}41.55%,100%{fill:var(--ce)}}.c.c1p{fill:var(--c3);animation-name:c1p}@keyframes c1q{56.4%{fill:var(--c3)}56.42%,100%{fill:var(--ce)}}.c.c1q{fill:var(--c3);animation-name:c1q}@keyframes c1r{56.91%{fill:var(--c3)}56.93%,100%{fill:var(--ce)}}.c.c1r{fill:var(--c3);animation-name:c1r}@keyframes c1s{63.58%{fill:var(--c3)}63.6%,100%{fill:var(--ce)}}.c.c1s{fill:var(--c3);animation-name:c1s}.u{transform-origin:0 0;transform:scale(0,1);animation:none linear 19500ms infinite}@keyframes u0{7.17%{transform:scale(0.000,1)}7.19%,25.12%{transform:scale(0.333,1)}25.14%,29.22%{transform:scale(0.667,1)}29.24%,100%{transform:scale(1.000,1)}}.u.u0{fill:var(--c1);animation-name:u0;transform-origin:0.0px 0}@keyframes u1{29.73%{transform:scale(0.000,1)}29.75%,32.3%{transform:scale(0.200,1)}32.32%,32.81%{transform:scale(0.400,1)}32.83%,35.89%{transform:scale(0.600,1)}35.91%,36.4%{transform:scale(0.800,1)}36.42%,100%{transform:scale(1.000,1)}}.u.u1{fill:var(--c2);animation-name:u1;transform-origin:39.1px 0}@keyframes u2{36.91%{transform:scale(0.000,1)}36.93%,37.94%{transform:scale(0.019,1)}37.96%,38.45%{transform:scale(0.038,1)}38.47%,38.96%{transform:scale(0.057,1)}38.98%,39.48%{transform:scale(0.075,1)}39.5%,39.99%{transform:scale(0.094,1)}40.01%,40.5%{transform:scale(0.113,1)}40.52%,41.02%{transform:scale(0.132,1)}41.04%,41.53%{transform:scale(0.151,1)}41.55%,42.04%{transform:scale(0.170,1)}42.06%,42.55%{transform:scale(0.189,1)}42.57%,43.07%{transform:scale(0.208,1)}43.09%,43.58%{transform:scale(0.226,1)}43.6%,44.09%{transform:scale(0.245,1)}44.11%,44.61%{transform:scale(0.264,1)}44.63%,45.12%{transform:scale(0.283,1)}45.14%,45.63%{transform:scale(0.302,1)}45.65%,46.14%{transform:scale(0.321,1)}46.16%,46.66%{transform:scale(0.340,1)}46.68%,47.17%{transform:scale(0.358,1)}47.19%,47.68%{transform:scale(0.377,1)}47.7%,48.2%{transform:scale(0.396,1)}48.22%,48.71%{transform:scale(0.415,1)}48.73%,49.22%{transform:scale(0.434,1)}49.24%,49.73%{transform:scale(0.453,1)}49.75%,50.25%{transform:scale(0.472,1)}50.27%,50.76%{transform:scale(0.491,1)}50.78%,51.27%{transform:scale(0.509,1)}51.29%,51.78%{transform:scale(0.528,1)}51.8%,52.3%{transform:scale(0.547,1)}52.32%,53.32%{transform:scale(0.566,1)}53.34%,53.84%{transform:scale(0.585,1)}53.86%,54.35%{transform:scale(0.604,1)}54.37%,54.86%{transform:scale(0.623,1)}54.88%,55.37%{transform:scale(0.642,1)}55.39%,55.89%{transform:scale(0.660,1)}55.91%,56.4%{transform:scale(0.679,1)}56.42%,56.91%{transform:scale(0.698,1)}56.93%,57.43%{transform:scale(0.717,1)}57.45%,57.94%{transform:scale(0.736,1)}57.96%,58.45%{transform:scale(0.755,1)}58.47%,58.96%{transform:scale(0.774,1)}58.98%,59.48%{transform:scale(0.792,1)}59.5%,59.99%{transform:scale(0.811,1)}60.01%,60.5%{transform:scale(0.830,1)}60.52%,61.02%{transform:scale(0.849,1)}61.04%,61.53%{transform:scale(0.868,1)}61.55%,62.04%{transform:scale(0.887,1)}62.06%,62.55%{transform:scale(0.906,1)}62.57%,63.07%{transform:scale(0.925,1)}63.09%,63.58%{transform:scale(0.943,1)}63.6%,68.2%{transform:scale(0.962,1)}68.22%,71.27%{transform:scale(0.981,1)}71.29%,100%{transform:scale(1.000,1)}}.u.u2{fill:var(--c3);animation-name:u2;transform-origin:104.4px 0}@keyframes u3{71.78%{transform:scale(0.000,1)}71.8%,72.3%{transform:scale(0.250,1)}72.32%,72.81%{transform:scale(0.500,1)}72.83%,76.4%{transform:scale(0.750,1)}76.42%,100%{transform:scale(1.000,1)}}.u.u3{fill:var(--c4);animation-name:u3;transform-origin:795.8px 0}.s{shape-rendering:geometricPrecision;fill:var(--cs);animation:none linear 19500ms infinite}@keyframes s0{0%,99.49%{transform:translate(0px,-16px)}0.51%{transform:translate(0px,0px)}5.13%{transform:translate(144px,0px)}7.18%{transform:translate(144px,64px)}24.1%,33.33%{transform:translate(672px,64px)}25.13%{transform:translate(672px,96px)}25.64%{transform:translate(656px,96px)}28.21%{transform:translate(656px,16px)}29.23%{transform:translate(688px,16px)}29.74%{transform:translate(688px,0px)}30.26%{transform:translate(672px,0px)}31.79%{transform:translate(672px,48px)}32.31%,37.44%{transform:translate(688px,48px)}32.82%{transform:translate(688px,64px)}34.87%{transform:translate(672px,16px)}35.9%{transform:translate(704px,16px)}36.41%{transform:translate(704px,32px)}36.92%{transform:translate(688px,32px)}41.54%{transform:translate(816px,48px)}43.08%{transform:translate(816px,0px)}46.15%{transform:translate(720px,0px)}46.67%{transform:translate(720px,16px)}49.23%{transform:translate(800px,16px)}49.74%{transform:translate(800px,32px)}52.31%{transform:translate(720px,32px)}53.33%{transform:translate(720px,64px)}56.41%,64.62%{transform:translate(816px,64px)}56.92%{transform:translate(816px,80px)}60%{transform:translate(720px,80px)}60.51%,70.77%{transform:translate(720px,96px)}63.59%{transform:translate(816px,96px)}68.21%{transform:translate(704px,64px)}68.72%{transform:translate(704px,48px)}69.23%{transform:translate(720px,48px)}71.28%,73.33%{transform:translate(704px,96px)}71.79%{transform:translate(704px,80px)}72.31%{transform:translate(688px,80px)}72.82%{transform:translate(688px,96px)}76.41%{transform:translate(704px,0px)}96.92%{transform:translate(64px,0px)}97.44%{transform:translate(64px,-16px)}}.s.s0{transform:translate(0px,-16px);animation-name:s0}@keyframes s1{0%,99.49%{transform:translate(16px,-16px)}0.51%{transform:translate(0px,-16px)}1.03%{transform:translate(0px,0px)}5.64%{transform:translate(144px,0px)}7.69%{transform:translate(144px,64px)}24.62%,33.85%{transform:translate(672px,64px)}25.64%{transform:translate(672px,96px)}26.15%{transform:translate(656px,96px)}28.72%{transform:translate(656px,16px)}29.74%{transform:translate(688px,16px)}30.26%{transform:translate(688px,0px)}30.77%{transform:translate(672px,0px)}32.31%{transform:translate(672px,48px)}32.82%,37.95%{transform:translate(688px,48px)}33.33%{transform:translate(688px,64px)}35.38%{transform:translate(672px,16px)}36.41%{transform:translate(704px,16px)}36.92%{transform:translate(704px,32px)}37.44%{transform:translate(688px,32px)}42.05%{transform:translate(816px,48px)}43.59%{transform:translate(816px,0px)}46.67%{transform:translate(720px,0px)}47.18%{transform:translate(720px,16px)}49.74%{transform:translate(800px,16px)}50.26%{transform:translate(800px,32px)}52.82%{transform:translate(720px,32px)}53.85%{transform:translate(720px,64px)}56.92%,65.13%{transform:translate(816px,64px)}57.44%{transform:translate(816px,80px)}60.51%{transform:translate(720px,80px)}61.03%,71.28%{transform:translate(720px,96px)}64.1%{transform:translate(816px,96px)}68.72%{transform:translate(704px,64px)}69.23%{transform:translate(704px,48px)}69.74%{transform:translate(720px,48px)}71.79%,73.85%{transform:translate(704px,96px)}72.31%{transform:translate(704px,80px)}72.82%{transform:translate(688px,80px)}73.33%{transform:translate(688px,96px)}76.92%{transform:translate(704px,0px)}97.44%{transform:translate(64px,0px)}97.95%{transform:translate(64px,-16px)}}.s.s1{transform:translate(16px,-16px);animation-name:s1}@keyframes s2{0%,99.49%{transform:translate(32px,-16px)}1.03%{transform:translate(0px,-16px)}1.54%{transform:translate(0px,0px)}6.15%{transform:translate(144px,0px)}8.21%{transform:translate(144px,64px)}25.13%,34.36%{transform:translate(672px,64px)}26.15%{transform:translate(672px,96px)}26.67%{transform:translate(656px,96px)}29.23%{transform:translate(656px,16px)}30.26%{transform:translate(688px,16px)}30.77%{transform:translate(688px,0px)}31.28%{transform:translate(672px,0px)}32.82%{transform:translate(672px,48px)}33.33%,38.46%{transform:translate(688px,48px)}33.85%{transform:translate(688px,64px)}35.9%{transform:translate(672px,16px)}36.92%{transform:translate(704px,16px)}37.44%{transform:translate(704px,32px)}37.95%{transform:translate(688px,32px)}42.56%{transform:translate(816px,48px)}44.1%{transform:translate(816px,0px)}47.18%{transform:translate(720px,0px)}47.69%{transform:translate(720px,16px)}50.26%{transform:translate(800px,16px)}50.77%{transform:translate(800px,32px)}53.33%{transform:translate(720px,32px)}54.36%{transform:translate(720px,64px)}57.44%,65.64%{transform:translate(816px,64px)}57.95%{transform:translate(816px,80px)}61.03%{transform:translate(720px,80px)}61.54%,71.79%{transform:translate(720px,96px)}64.62%{transform:translate(816px,96px)}69.23%{transform:translate(704px,64px)}69.74%{transform:translate(704px,48px)}70.26%{transform:translate(720px,48px)}72.31%,74.36%{transform:translate(704px,96px)}72.82%{transform:translate(704px,80px)}73.33%{transform:translate(688px,80px)}73.85%{transform:translate(688px,96px)}77.44%{transform:translate(704px,0px)}97.95%{transform:translate(64px,0px)}98.46%{transform:translate(64px,-16px)}}.s.s2{transform:translate(32px,-16px);animation-name:s2}@keyframes s3{0%,99.49%{transform:translate(48px,-16px)}1.54%{transform:translate(0px,-16px)}2.05%{transform:translate(0px,0px)}6.67%{transform:translate(144px,0px)}8.72%{transform:translate(144px,64px)}25.64%,34.87%{transform:translate(672px,64px)}26.67%{transform:translate(672px,96px)}27.18%{transform:translate(656px,96px)}29.74%{transform:translate(656px,16px)}30.77%{transform:translate(688px,16px)}31.28%{transform:translate(688px,0px)}31.79%{transform:translate(672px,0px)}33.33%{transform:translate(672px,48px)}33.85%,38.97%{transform:translate(688px,48px)}34.36%{transform:translate(688px,64px)}36.41%{transform:translate(672px,16px)}37.44%{transform:translate(704px,16px)}37.95%{transform:translate(704px,32px)}38.46%{transform:translate(688px,32px)}43.08%{transform:translate(816px,48px)}44.62%{transform:translate(816px,0px)}47.69%{transform:translate(720px,0px)}48.21%{transform:translate(720px,16px)}50.77%{transform:translate(800px,16px)}51.28%{transform:translate(800px,32px)}53.85%{transform:translate(720px,32px)}54.87%{transform:translate(720px,64px)}57.95%,66.15%{transform:translate(816px,64px)}58.46%{transform:translate(816px,80px)}61.54%{transform:translate(720px,80px)}62.05%,72.31%{transform:translate(720px,96px)}65.13%{transform:translate(816px,96px)}69.74%{transform:translate(704px,64px)}70.26%{transform:translate(704px,48px)}70.77%{transform:translate(720px,48px)}72.82%,74.87%{transform:translate(704px,96px)}73.33%{transform:translate(704px,80px)}73.85%{transform:translate(688px,80px)}74.36%{transform:translate(688px,96px)}77.95%{transform:translate(704px,0px)}98.46%{transform:translate(64px,0px)}98.97%{transform:translate(64px,-16px)}}.s.s3{transform:translate(48px,-16px);animation-name:s3}</style><rect class="c" x="2" y="2" rx="2" ry="2"/><rect class="c" x="2" y="18" rx="2" ry="2"/><rect class="c" x="2" y="34" rx="2" ry="2"/><rect class="c" x="2" y="50" rx="2" ry="2"/><rect class="c" x="2" y="66" rx="2" ry="2"/><rect class="c" x="2" y="82" rx="2" ry="2"/><rect class="c" x="2" y="98" rx="2" ry="2"/><rect class="c" x="18" y="2" rx="2" ry="2"/><rect class="c" x="18" y="18" rx="2" ry="2"/><rect class="c" x="18" y="34" rx="2" ry="2"/><rect class="c" x="18" y="50" rx="2" ry="2"/><rect class="c" x="18" y="66" rx="2" ry="2"/><rect class="c" x="18" y="82" rx="2" ry="2"/><rect class="c" x="18" y="98" rx="2" ry="2"/><rect class="c" x="34" y="2" rx="2" ry="2"/><rect class="c" x="34" y="18" rx="2" ry="2"/><rect class="c" x="34" y="34" rx="2" ry="2"/><rect class="c" x="34" y="50" rx="2" ry="2"/><rect class="c" x="34" y="66" rx="2" ry="2"/><rect class="c" x="34" y="82" rx="2" ry="2"/><rect class="c" x="34" y="98" rx="2" ry="2"/><rect class="c" x="50" y="2" rx="2" ry="2"/><rect class="c" x="50" y="18" rx="2" ry="2"/><rect class="c" x="50" y="34" rx="2" ry="2"/><rect class="c" x="50" y="50" rx="2" ry="2"/><rect class="c" x="50" y="66" rx="2" ry="2"/><rect class="c" x="50" y="82" rx="2" ry="2"/><rect class="c" x="50" y="98" rx="2" ry="2"/><rect class="c" x="66" y="2" rx="2" ry="2"/><rect class="c" x="66" y="18" rx="2" ry="2"/><rect class="c" x="66" y="34" rx="2" ry="2"/><rect class="c" x="66" y="50" rx="2" ry="2"/><rect class="c" x="66" y="66" rx="2" ry="2"/><rect class="c" x="66" y="82" rx="2" ry="2"/><rect class="c" x="66" y="98" rx="2" ry="2"/><rect class="c" x="82" y="2" rx="2" ry="2"/><rect class="c" x="82" y="18" rx="2" ry="2"/><rect class="c" x="82" y="34" rx="2" ry="2"/><rect class="c" x="82" y="50" rx="2" ry="2"/><rect class="c" x="82" y="66" rx="2" ry="2"/><rect class="c" x="82" y="82" rx="2" ry="2"/><rect class="c" x="82" y="98" rx="2" ry="2"/><rect class="c" x="98" y="2" rx="2" ry="2"/><rect class="c" x="98" y="18" rx="2" ry="2"/><rect class="c" x="98" y="34" rx="2" ry="2"/><rect class="c" x="98" y="50" rx="2" ry="2"/><rect class="c" x="98" y="66" rx="2" ry="2"/><rect class="c" x="98" y="82" rx="2" ry="2"/><rect class="c" x="98" y="98" rx="2" ry="2"/><rect class="c" x="114" y="2" rx="2" ry="2"/><rect class="c" x="114" y="18" rx="2" ry="2"/><rect class="c" x="114" y="34" rx="2" ry="2"/><rect class="c" x="114" y="50" rx="2" ry="2"/><rect class="c" x="114" y="66" rx="2" ry="2"/><rect class="c" x="114" y="82" rx="2" ry="2"/><rect class="c" x="114" y="98" rx="2" ry="2"/><rect class="c" x="130" y="2" rx="2" ry="2"/><rect class="c" x="130" y="18" rx="2" ry="2"/><rect class="c" x="130" y="34" rx="2" ry="2"/><rect class="c" x="130" y="50" rx="2" ry="2"/><rect class="c" x="130" y="66" rx="2" ry="2"/><rect class="c" x="130" y="82" rx="2" ry="2"/><rect class="c" x="130" y="98" rx="2" ry="2"/><rect class="c" x="146" y="2" rx="2" ry="2"/><rect class="c" x="146" y="18" rx="2" ry="2"/><rect class="c" x="146" y="34" rx="2" ry="2"/><rect class="c" x="146" y="50" rx="2" ry="2"/><rect class="c c0" x="146" y="66" rx="2" ry="2"/><rect class="c" x="146" y="82" rx="2" ry="2"/><rect class="c" x="146" y="98" rx="2" ry="2"/><rect class="c" x="162" y="2" rx="2" ry="2"/><rect class="c" x="162" y="18" rx="2" ry="2"/><rect class="c" x="162" y="34" rx="2" ry="2"/><rect class="c" x="162" y="50" rx="2" ry="2"/><rect class="c" x="162" y="66" rx="2" ry="2"/><rect class="c" x="162" y="82" rx="2" ry="2"/><rect class="c" x="162" y="98" rx="2" ry="2"/><rect class="c" x="178" y="2" rx="2" ry="2"/><rect class="c" x="178" y="18" rx="2" ry="2"/><rect class="c" x="178" y="34" rx="2" ry="2"/><rect class="c" x="178" y="50" rx="2" ry="2"/><rect class="c" x="178" y="66" rx="2" ry="2"/><rect class="c" x="178" y="82" rx="2" ry="2"/><rect class="c" x="178" y="98" rx="2" ry="2"/><rect class="c" x="194" y="2" rx="2" ry="2"/><rect class="c" x="194" y="18" rx="2" ry="2"/><rect class="c" x="194" y="34" rx="2" ry="2"/><rect class="c" x="194" y="50" rx="2" ry="2"/><rect class="c" x="194" y="66" rx="2" ry="2"/><rect class="c" x="194" y="82" rx="2" ry="2"/><rect class="c" x="194" y="98" rx="2" ry="2"/><rect class="c" x="210" y="2" rx="2" ry="2"/><rect class="c" x="210" y="18" rx="2" ry="2"/><rect class="c" x="210" y="34" rx="2" ry="2"/><rect class="c" x="210" y="50" rx="2" ry="2"/><rect class="c" x="210" y="66" rx="2" ry="2"/><rect class="c" x="210" y="82" rx="2" ry="2"/><rect class="c" x="210" y="98" rx="2" ry="2"/><rect class="c" x="226" y="2" rx="2" ry="2"/><rect class="c" x="226" y="18" rx="2" ry="2"/><rect class="c" x="226" y="34" rx="2" ry="2"/><rect class="c" x="226" y="50" rx="2" ry="2"/><rect class="c" x="226" y="66" rx="2" ry="2"/><rect class="c" x="226" y="82" rx="2" ry="2"/><rect class="c" x="226" y="98" rx="2" ry="2"/><rect class="c" x="242" y="2" rx="2" ry="2"/><rect class="c" x="242" y="18" rx="2" ry="2"/><rect class="c" x="242" y="34" rx="2" ry="2"/><rect class="c" x="242" y="50" rx="2" ry="2"/><rect class="c" x="242" y="66" rx="2" ry="2"/><rect class="c" x="242" y="82" rx="2" ry="2"/><rect class="c" x="242" y="98" rx="2" ry="2"/><rect class="c" x="258" y="2" rx="2" ry="2"/><rect class="c" x="258" y="18" rx="2" ry="2"/><rect class="c" x="258" y="34" rx="2" ry="2"/><rect class="c" x="258" y="50" rx="2" ry="2"/><rect class="c" x="258" y="66" rx="2" ry="2"/><rect class="c" x="258" y="82" rx="2" ry="2"/><rect class="c" x="258" y="98" rx="2" ry="2"/><rect class="c" x="274" y="2" rx="2" ry="2"/><rect class="c" x="274" y="18" rx="2" ry="2"/><rect class="c" x="274" y="34" rx="2" ry="2"/><rect class="c" x="274" y="50" rx="2" ry="2"/><rect class="c" x="274" y="66" rx="2" ry="2"/><rect class="c" x="274" y="82" rx="2" ry="2"/><rect class="c" x="274" y="98" rx="2" ry="2"/><rect class="c" x="290" y="2" rx="2" ry="2"/><rect class="c" x="290" y="18" rx="2" ry="2"/><rect class="c" x="290" y="34" rx="2" ry="2"/><rect class="c" x="290" y="50" rx="2" ry="2"/><rect class="c" x="290" y="66" rx="2" ry="2"/><rect class="c" x="290" y="82" rx="2" ry="2"/><rect class="c" x="290" y="98" rx="2" ry="2"/><rect class="c" x="306" y="2" rx="2" ry="2"/><rect class="c" x="306" y="18" rx="2" ry="2"/><rect class="c" x="306" y="34" rx="2" ry="2"/><rect class="c" x="306" y="50" rx="2" ry="2"/><rect class="c" x="306" y="66" rx="2" ry="2"/><rect class="c" x="306" y="82" rx="2" ry="2"/><rect class="c" x="306" y="98" rx="2" ry="2"/><rect class="c" x="322" y="2" rx="2" ry="2"/><rect class="c" x="322" y="18" rx="2" ry="2"/><rect class="c" x="322" y="34" rx="2" ry="2"/><rect class="c" x="322" y="50" rx="2" ry="2"/><rect class="c" x="322" y="66" rx="2" ry="2"/><rect class="c" x="322" y="82" rx="2" ry="2"/><rect class="c" x="322" y="98" rx="2" ry="2"/><rect class="c" x="338" y="2" rx="2" ry="2"/><rect class="c" x="338" y="18" rx="2" ry="2"/><rect class="c" x="338" y="34" rx="2" ry="2"/><rect class="c" x="338" y="50" rx="2" ry="2"/><rect class="c" x="338" y="66" rx="2" ry="2"/><rect class="c" x="338" y="82" rx="2" ry="2"/><rect class="c" x="338" y="98" rx="2" ry="2"/><rect class="c" x="354" y="2" rx="2" ry="2"/><rect class="c" x="354" y="18" rx="2" ry="2"/><rect class="c" x="354" y="34" rx="2" ry="2"/><rect class="c" x="354" y="50" rx="2" ry="2"/><rect class="c" x="354" y="66" rx="2" ry="2"/><rect class="c" x="354" y="82" rx="2" ry="2"/><rect class="c" x="354" y="98" rx="2" ry="2"/><rect class="c" x="370" y="2" rx="2" ry="2"/><rect class="c" x="370" y="18" rx="2" ry="2"/><rect class="c" x="370" y="34" rx="2" ry="2"/><rect class="c" x="370" y="50" rx="2" ry="2"/><rect class="c" x="370" y="66" rx="2" ry="2"/><rect class="c" x="370" y="82" rx="2" ry="2"/><rect class="c" x="370" y="98" rx="2" ry="2"/><rect class="c" x="386" y="2" rx="2" ry="2"/><rect class="c" x="386" y="18" rx="2" ry="2"/><rect class="c" x="386" y="34" rx="2" ry="2"/><rect class="c" x="386" y="50" rx="2" ry="2"/><rect class="c" x="386" y="66" rx="2" ry="2"/><rect class="c" x="386" y="82" rx="2" ry="2"/><rect class="c" x="386" y="98" rx="2" ry="2"/><rect class="c" x="402" y="2" rx="2" ry="2"/><rect class="c" x="402" y="18" rx="2" ry="2"/><rect class="c" x="402" y="34" rx="2" ry="2"/><rect class="c" x="402" y="50" rx="2" ry="2"/><rect class="c" x="402" y="66" rx="2" ry="2"/><rect class="c" x="402" y="82" rx="2" ry="2"/><rect class="c" x="402" y="98" rx="2" ry="2"/><rect class="c" x="418" y="2" rx="2" ry="2"/><rect class="c" x="418" y="18" rx="2" ry="2"/><rect class="c" x="418" y="34" rx="2" ry="2"/><rect class="c" x="418" y="50" rx="2" ry="2"/><rect class="c" x="418" y="66" rx="2" ry="2"/><rect class="c" x="418" y="82" rx="2" ry="2"/><rect class="c" x="418" y="98" rx="2" ry="2"/><rect class="c" x="434" y="2" rx="2" ry="2"/><rect class="c" x="434" y="18" rx="2" ry="2"/><rect class="c" x="434" y="34" rx="2" ry="2"/><rect class="c" x="434" y="50" rx="2" ry="2"/><rect class="c" x="434" y="66" rx="2" ry="2"/><rect class="c" x="434" y="82" rx="2" ry="2"/><rect class="c" x="434" y="98" rx="2" ry="2"/><rect class="c" x="450" y="2" rx="2" ry="2"/><rect class="c" x="450" y="18" rx="2" ry="2"/><rect class="c" x="450" y="34" rx="2" ry="2"/><rect class="c" x="450" y="50" rx="2" ry="2"/><rect class="c" x="450" y="66" rx="2" ry="2"/><rect class="c" x="450" y="82" rx="2" ry="2"/><rect class="c" x="450" y="98" rx="2" ry="2"/><rect class="c" x="466" y="2" rx="2" ry="2"/><rect class="c" x="466" y="18" rx="2" ry="2"/><rect class="c" x="466" y="34" rx="2" ry="2"/><rect class="c" x="466" y="50" rx="2" ry="2"/><rect class="c" x="466" y="66" rx="2" ry="2"/><rect class="c" x="466" y="82" rx="2" ry="2"/><rect class="c" x="466" y="98" rx="2" ry="2"/><rect class="c" x="482" y="2" rx="2" ry="2"/><rect class="c" x="482" y="18" rx="2" ry="2"/><rect class="c" x="482" y="34" rx="2" ry="2"/><rect class="c" x="482" y="50" rx="2" ry="2"/><rect class="c" x="482" y="66" rx="2" ry="2"/><rect class="c" x="482" y="82" rx="2" ry="2"/><rect class="c" x="482" y="98" rx="2" ry="2"/><rect class="c" x="498" y="2" rx="2" ry="2"/><rect class="c" x="498" y="18" rx="2" ry="2"/><rect class="c" x="498" y="34" rx="2" ry="2"/><rect class="c" x="498" y="50" rx="2" ry="2"/><rect class="c" x="498" y="66" rx="2" ry="2"/><rect class="c" x="498" y="82" rx="2" ry="2"/><rect class="c" x="498" y="98" rx="2" ry="2"/><rect class="c" x="514" y="2" rx="2" ry="2"/><rect class="c" x="514" y="18" rx="2" ry="2"/><rect class="c" x="514" y="34" rx="2" ry="2"/><rect class="c" x="514" y="50" rx="2" ry="2"/><rect class="c" x="514" y="66" rx="2" ry="2"/><rect class="c" x="514" y="82" rx="2" ry="2"/><rect class="c" x="514" y="98" rx="2" ry="2"/><rect class="c" x="530" y="2" rx="2" ry="2"/><rect class="c" x="530" y="18" rx="2" ry="2"/><rect class="c" x="530" y="34" rx="2" ry="2"/><rect class="c" x="530" y="50" rx="2" ry="2"/><rect class="c" x="530" y="66" rx="2" ry="2"/><rect class="c" x="530" y="82" rx="2" ry="2"/><rect class="c" x="530" y="98" rx="2" ry="2"/><rect class="c" x="546" y="2" rx="2" ry="2"/><rect class="c" x="546" y="18" rx="2" ry="2"/><rect class="c" x="546" y="34" rx="2" ry="2"/><rect class="c" x="546" y="50" rx="2" ry="2"/><rect class="c" x="546" y="66" rx="2" ry="2"/><rect class="c" x="546" y="82" rx="2" ry="2"/><rect class="c" x="546" y="98" rx="2" ry="2"/><rect class="c" x="562" y="2" rx="2" ry="2"/><rect class="c" x="562" y="18" rx="2" ry="2"/><rect class="c" x="562" y="34" rx="2" ry="2"/><rect class="c" x="562" y="50" rx="2" ry="2"/><rect class="c" x="562" y="66" rx="2" ry="2"/><rect class="c" x="562" y="82" rx="2" ry="2"/><rect class="c" x="562" y="98" rx="2" ry="2"/><rect class="c" x="578" y="2" rx="2" ry="2"/><rect class="c" x="578" y="18" rx="2" ry="2"/><rect class="c" x="578" y="34" rx="2" ry="2"/><rect class="c" x="578" y="50" rx="2" ry="2"/><rect class="c" x="578" y="66" rx="2" ry="2"/><rect class="c" x="578" y="82" rx="2" ry="2"/><rect class="c" x="578" y="98" rx="2" ry="2"/><rect class="c" x="594" y="2" rx="2" ry="2"/><rect class="c" x="594" y="18" rx="2" ry="2"/><rect class="c" x="594" y="34" rx="2" ry="2"/><rect class="c" x="594" y="50" rx="2" ry="2"/><rect class="c" x="594" y="66" rx="2" ry="2"/><rect class="c" x="594" y="82" rx="2" ry="2"/><rect class="c" x="594" y="98" rx="2" ry="2"/><rect class="c" x="610" y="2" rx="2" ry="2"/><rect class="c" x="610" y="18" rx="2" ry="2"/><rect class="c" x="610" y="34" rx="2" ry="2"/><rect class="c" x="610" y="50" rx="2" ry="2"/><rect class="c" x="610" y="66" rx="2" ry="2"/><rect class="c" x="610" y="82" rx="2" ry="2"/><rect class="c" x="610" y="98" rx="2" ry="2"/><rect class="c" x="626" y="2" rx="2" ry="2"/><rect class="c" x="626" y="18" rx="2" ry="2"/><rect class="c" x="626" y="34" rx="2" ry="2"/><rect class="c" x="626" y="50" rx="2" ry="2"/><rect class="c" x="626" y="66" rx="2" ry="2"/><rect class="c" x="626" y="82" rx="2" ry="2"/><rect class="c" x="626" y="98" rx="2" ry="2"/><rect class="c" x="642" y="2" rx="2" ry="2"/><rect class="c" x="642" y="18" rx="2" ry="2"/><rect class="c" x="642" y="34" rx="2" ry="2"/><rect class="c" x="642" y="50" rx="2" ry="2"/><rect class="c" x="642" y="66" rx="2" ry="2"/><rect class="c" x="642" y="82" rx="2" ry="2"/><rect class="c" x="642" y="98" rx="2" ry="2"/><rect class="c" x="658" y="2" rx="2" ry="2"/><rect class="c" x="658" y="18" rx="2" ry="2"/><rect class="c" x="658" y="34" rx="2" ry="2"/><rect class="c" x="658" y="50" rx="2" ry="2"/><rect class="c" x="658" y="66" rx="2" ry="2"/><rect class="c" x="658" y="82" rx="2" ry="2"/><rect class="c" x="658" y="98" rx="2" ry="2"/><rect class="c" x="674" y="2" rx="2" ry="2"/><rect class="c" x="674" y="18" rx="2" ry="2"/><rect class="c" x="674" y="34" rx="2" ry="2"/><rect class="c" x="674" y="50" rx="2" ry="2"/><rect class="c" x="674" y="66" rx="2" ry="2"/><rect class="c" x="674" y="82" rx="2" ry="2"/><rect class="c c1" x="674" y="98" rx="2" ry="2"/><rect class="c c2" x="690" y="2" rx="2" ry="2"/><rect class="c c3" x="690" y="18" rx="2" ry="2"/><rect class="c c4" x="690" y="34" rx="2" ry="2"/><rect class="c c5" x="690" y="50" rx="2" ry="2"/><rect class="c c6" x="690" y="66" rx="2" ry="2"/><rect class="c c7" x="690" y="82" rx="2" ry="2"/><rect class="c c8" x="690" y="98" rx="2" ry="2"/><rect class="c c9" x="706" y="2" rx="2" ry="2"/><rect class="c ca" x="706" y="18" rx="2" ry="2"/><rect class="c cb" x="706" y="34" rx="2" ry="2"/><rect class="c cc" x="706" y="50" rx="2" ry="2"/><rect class="c cd" x="706" y="66" rx="2" ry="2"/><rect class="c ce" x="706" y="82" rx="2" ry="2"/><rect class="c cf" x="706" y="98" rx="2" ry="2"/><rect class="c cg" x="722" y="2" rx="2" ry="2"/><rect class="c ch" x="722" y="18" rx="2" ry="2"/><rect class="c ci" x="722" y="34" rx="2" ry="2"/><rect class="c cj" x="722" y="50" rx="2" ry="2"/><rect class="c ck" x="722" y="66" rx="2" ry="2"/><rect class="c cl" x="722" y="82" rx="2" ry="2"/><rect class="c cm" x="722" y="98" rx="2" ry="2"/><rect class="c cn" x="738" y="2" rx="2" ry="2"/><rect class="c co" x="738" y="18" rx="2" ry="2"/><rect class="c cp" x="738" y="34" rx="2" ry="2"/><rect class="c cq" x="738" y="50" rx="2" ry="2"/><rect class="c cr" x="738" y="66" rx="2" ry="2"/><rect class="c cs" x="738" y="82" rx="2" ry="2"/><rect class="c ct" x="738" y="98" rx="2" ry="2"/><rect class="c cu" x="754" y="2" rx="2" ry="2"/><rect class="c cv" x="754" y="18" rx="2" ry="2"/><rect class="c cw" x="754" y="34" rx="2" ry="2"/><rect class="c cx" x="754" y="50" rx="2" ry="2"/><rect class="c cy" x="754" y="66" rx="2" ry="2"/><rect class="c cz" x="754" y="82" rx="2" ry="2"/><rect class="c c10" x="754" y="98" rx="2" ry="2"/><rect class="c c11" x="770" y="2" rx="2" ry="2"/><rect class="c c12" x="770" y="18" rx="2" ry="2"/><rect class="c c13" x="770" y="34" rx="2" ry="2"/><rect class="c c14" x="770" y="50" rx="2" ry="2"/><rect class="c c15" x="770" y="66" rx="2" ry="2"/><rect class="c c16" x="770" y="82" rx="2" ry="2"/><rect class="c c17" x="770" y="98" rx="2" ry="2"/><rect class="c c18" x="786" y="2" rx="2" ry="2"/><rect class="c c19" x="786" y="18" rx="2" ry="2"/><rect class="c c1a" x="786" y="34" rx="2" ry="2"/><rect class="c c1b" x="786" y="50" rx="2" ry="2"/><rect class="c c1c" x="786" y="66" rx="2" ry="2"/><rect class="c c1d" x="786" y="82" rx="2" ry="2"/><rect class="c c1e" x="786" y="98" rx="2" ry="2"/><rect class="c c1f" x="802" y="2" rx="2" ry="2"/><rect class="c c1g" x="802" y="18" rx="2" ry="2"/><rect class="c c1h" x="802" y="34" rx="2" ry="2"/><rect class="c c1i" x="802" y="50" rx="2" ry="2"/><rect class="c c1j" x="802" y="66" rx="2" ry="2"/><rect class="c c1k" x="802" y="82" rx="2" ry="2"/><rect class="c c1l" x="802" y="98" rx="2" ry="2"/><rect class="c c1m" x="818" y="2" rx="2" ry="2"/><rect class="c c1n" x="818" y="18" rx="2" ry="2"/><rect class="c c1o" x="818" y="34" rx="2" ry="2"/><rect class="c c1p" x="818" y="50" rx="2" ry="2"/><rect class="c c1q" x="818" y="66" rx="2" ry="2"/><rect class="c c1r" x="818" y="82" rx="2" ry="2"/><rect class="c c1s" x="818" y="98" rx="2" ry="2"/><rect class="c" x="834" y="2" rx="2" ry="2"/><rect class="u u0" height="12" width="39.7" x="0.0" y="144"/><rect class="u u1" height="12" width="65.8" x="39.1" y="144"/><rect class="u u2" height="12" width="692.0" x="104.4" y="144"/><rect class="u u3" height="12" width="52.8" x="795.8" y="144"/><rect class="s s0" x="0.8" y="0.8" width="14.4" height="14.4" rx="4.5" ry="4.5"/><rect class="s s1" x="1.8" y="1.8" width="12.3" height="12.3" rx="4.1" ry="4.1"/><rect class="s s2" x="2.6" y="2.6" width="10.8" height="10.8" rx="3.6" ry="3.6"/><rect class="s s3" x="3.0" y="3.0" width="9.9" height="9.9" rx="3.3" ry="3.3"/></svg>