<svg viewBox="-16 -32 880 192" width="880" height="192" xmlns="http://www.w3.org/2000/svg"><desc>Generated with https://github.com/Platane/snk</desc><style>:root{--cb:#1b1f230a;--cs:purple;--ce:#ebedf0;--c0:#ebedf0;--c1:#9be9a8;--c2:#40c463;--c3:#30a14e;--c4:#216e39}.c{shape-rendering:geometricPrecision;fill:var(--ce);stroke-width:1px;stroke:var(--cb);animation:none 32100ms linear infinite;width:12px;height:12px}@keyframes c0{2.17%{fill:var(--c1)}2.19%,100%{fill:var(--ce)}}.c.c0{fill:var(--c1);animation-name:c0}@keyframes c1{13.07%{fill:var(--c1)}13.09%,100%{fill:var(--ce)}}.c.c1{fill:var(--c1);animation-name:c1}@keyframes c2{15.88%{fill:var(--c1)}15.9%,100%{fill:var(--ce)}}.c.c2{fill:var(--c1);animation-name:c2}@keyframes c3{15.57%{fill:var(--c1)}15.59%,100%{fill:var(--ce)}}.c.c3{fill:var(--c1);animation-name:c3}@keyframes c4{64.48%{fill:var(--c3)}64.5%,100%{fill:var(--ce)}}.c.c4{fill:var(--c3);animation-name:c4}@keyframes c5{41.11%{fill:var(--c2)}41.13%,100%{fill:var(--ce)}}.c.c5{fill:var(--c2);animation-name:c5}@keyframes c6{41.42%{fill:var(--c2)}41.44%,100%{fill:var(--ce)}}.c.c6{fill:var(--c2);animation-name:c6}@keyframes c7{85.35%{fill:var(--c4)}85.37%,100%{fill:var(--ce)}}.c.c7{fill:var(--c4);animation-name:c7}@keyframes c8{85.66%{fill:var(--c4)}85.68%,100%{fill:var(--ce)}}.c.c8{fill:var(--c4);animation-name:c8}@keyframes c9{87.84%{fill:var(--c4)}87.86%,100%{fill:var(--ce)}}.c.c9{fill:var(--c4);animation-name:c9}@keyframes ca{40.18%{fill:var(--c1)}40.2%,100%{fill:var(--ce)}}.c.ca{fill:var(--c1);animation-name:ca}@keyframes cb{40.49%{fill:var(--c2)}40.51%,100%{fill:var(--ce)}}.c.cb{fill:var(--c2);animation-name:cb}@keyframes cc{40.8%{fill:var(--c2)}40.82%,100%{fill:var(--ce)}}.c.cc{fill:var(--c2);animation-name:cc}@keyframes cd{65.41%{fill:var(--c3)}65.43%,100%{fill:var(--ce)}}.c.cd{fill:var(--c3);animation-name:cd}@keyframes ce{85.04%{fill:var(--c4)}85.06%,100%{fill:var(--ce)}}.c.ce{fill:var(--c4);animation-name:ce}@keyframes cf{84.73%{fill:var(--c3)}84.75%,100%{fill:var(--ce)}}.c.cf{fill:var(--c3);animation-name:cf}@keyframes cg{54.51%{fill:var(--c3)}54.53%,100%{fill:var(--ce)}}.c.cg{fill:var(--c3);animation-name:cg}@keyframes ch{54.2%{fill:var(--c2)}54.22%,100%{fill:var(--ce)}}.c.ch{fill:var(--c2);animation-name:ch}@keyframes ci{63.85%{fill:var(--c3)}63.87%,100%{fill:var(--ce)}}.c.ci{fill:var(--c3);animation-name:ci}@keyframes cj{63.54%{fill:var(--c3)}63.56%,100%{fill:var(--ce)}}.c.cj{fill:var(--c3);animation-name:cj}@keyframes ck{65.72%{fill:var(--c3)}65.74%,100%{fill:var(--ce)}}.c.ck{fill:var(--c3);animation-name:ck}@keyframes cl{70.39%{fill:var(--c3)}70.41%,100%{fill:var(--ce)}}.c.cl{fill:var(--c3);animation-name:cl}@keyframes cm{70.71%{fill:var(--c3)}70.73%,100%{fill:var(--ce)}}.c.cm{fill:var(--c3);animation-name:cm}@keyframes cn{54.82%{fill:var(--c3)}54.84%,100%{fill:var(--ce)}}.c.cn{fill:var(--c3);animation-name:cn}@keyframes co{58.87%{fill:var(--c3)}58.89%,100%{fill:var(--ce)}}.c.co{fill:var(--c3);animation-name:co}@keyframes cp{59.18%{fill:var(--c3)}59.2%,100%{fill:var(--ce)}}.c.cp{fill:var(--c3);animation-name:cp}@keyframes cq{63.23%{fill:var(--c3)}63.25%,100%{fill:var(--ce)}}.c.cq{fill:var(--c3);animation-name:cq}@keyframes cr{66.03%{fill:var(--c3)}66.05%,100%{fill:var(--ce)}}.c.cr{fill:var(--c3);animation-name:cr}@keyframes cs{70.08%{fill:var(--c3)}70.1%,100%{fill:var(--ce)}}.c.cs{fill:var(--c3);animation-name:cs}@keyframes ct{71.02%{fill:var(--c3)}71.04%,100%{fill:var(--ce)}}.c.ct{fill:var(--c3);animation-name:ct}@keyframes cu{55.13%{fill:var(--c3)}55.15%,100%{fill:var(--ce)}}.c.cu{fill:var(--c3);animation-name:cu}@keyframes cv{58.56%{fill:var(--c3)}58.58%,100%{fill:var(--ce)}}.c.cv{fill:var(--c3);animation-name:cv}@keyframes cw{59.49%{fill:var(--c3)}59.51%,100%{fill:var(--ce)}}.c.cw{fill:var(--c3);animation-name:cw}@keyframes cx{62.92%{fill:var(--c3)}62.94%,100%{fill:var(--ce)}}.c.cx{fill:var(--c3);animation-name:cx}@keyframes cy{66.35%{fill:var(--c3)}66.37%,100%{fill:var(--ce)}}.c.cy{fill:var(--c3);animation-name:cy}@keyframes cz{69.77%{fill:var(--c3)}69.79%,100%{fill:var(--ce)}}.c.cz{fill:var(--c3);animation-name:cz}@keyframes c10{71.33%{fill:var(--c3)}71.35%,100%{fill:var(--ce)}}.c.c10{fill:var(--c3);animation-name:c10}@keyframes c11{55.44%{fill:var(--c3)}55.46%,100%{fill:var(--ce)}}.c.c11{fill:var(--c3);animation-name:c11}@keyframes c12{58.25%{fill:var(--c3)}58.27%,100%{fill:var(--ce)}}.c.c12{fill:var(--c3);animation-name:c12}@keyframes c13{59.8%{fill:var(--c3)}59.82%,100%{fill:var(--ce)}}.c.c13{fill:var(--c3);animation-name:c13}@keyframes c14{62.61%{fill:var(--c3)}62.63%,100%{fill:var(--ce)}}.c.c14{fill:var(--c3);animation-name:c14}@keyframes c15{66.66%{fill:var(--c3)}66.68%,100%{fill:var(--ce)}}.c.c15{fill:var(--c3);animation-name:c15}@keyframes c16{69.46%{fill:var(--c3)}69.48%,100%{fill:var(--ce)}}.c.c16{fill:var(--c3);animation-name:c16}@keyframes c17{71.64%{fill:var(--c3)}71.66%,100%{fill:var(--ce)}}.c.c17{fill:var(--c3);animation-name:c17}@keyframes c18{55.75%{fill:var(--c3)}55.77%,100%{fill:var(--ce)}}.c.c18{fill:var(--c3);animation-name:c18}@keyframes c19{57.93%{fill:var(--c3)}57.95%,100%{fill:var(--ce)}}.c.c19{fill:var(--c3);animation-name:c19}@keyframes c1a{60.11%{fill:var(--c3)}60.13%,100%{fill:var(--ce)}}.c.c1a{fill:var(--c3);animation-name:c1a}@keyframes c1b{62.3%{fill:var(--c3)}62.32%,100%{fill:var(--ce)}}.c.c1b{fill:var(--c3);animation-name:c1b}@keyframes c1c{66.97%{fill:var(--c3)}66.99%,100%{fill:var(--ce)}}.c.c1c{fill:var(--c3);animation-name:c1c}@keyframes c1d{69.15%{fill:var(--c3)}69.17%,100%{fill:var(--ce)}}.c.c1d{fill:var(--c3);animation-name:c1d}@keyframes c1e{71.95%{fill:var(--c3)}71.97%,100%{fill:var(--ce)}}.c.c1e{fill:var(--c3);animation-name:c1e}@keyframes c1f{56.06%{fill:var(--c3)}56.08%,100%{fill:var(--ce)}}.c.c1f{fill:var(--c3);animation-name:c1f}@keyframes c1g{57.62%{fill:var(--c3)}57.64%,100%{fill:var(--ce)}}.c.c1g{fill:var(--c3);animation-name:c1g}@keyframes c1h{60.43%{fill:var(--c3)}60.45%,100%{fill:var(--ce)}}.c.c1h{fill:var(--c3);animation-name:c1h}@keyframes c1i{61.98%{fill:var(--c3)}62%,100%{fill:var(--ce)}}.c.c1i{fill:var(--c3);animation-name:c1i}@keyframes c1j{67.28%{fill:var(--c3)}67.3%,100%{fill:var(--ce)}}.c.c1j{fill:var(--c3);animation-name:c1j}@keyframes c1k{68.84%{fill:var(--c3)}68.86%,100%{fill:var(--ce)}}.c.c1k{fill:var(--c3);animation-name:c1k}@keyframes c1l{72.26%{fill:var(--c3)}72.28%,100%{fill:var(--ce)}}.c.c1l{fill:var(--c3);animation-name:c1l}@keyframes c1m{56.38%{fill:var(--c3)}56.4%,100%{fill:var(--ce)}}.c.c1m{fill:var(--c3);animation-name:c1m}@keyframes c1n{57.31%{fill:var(--c3)}57.33%,100%{fill:var(--ce)}}.c.c1n{fill:var(--c3);animation-name:c1n}@keyframes c1o{60.74%{fill:var(--c3)}60.76%,100%{fill:var(--ce)}}.c.c1o{fill:var(--c3);animation-name:c1o}@keyframes c1p{61.67%{fill:var(--c3)}61.69%,100%{fill:var(--ce)}}.c.c1p{fill:var(--c3);animation-name:c1p}@keyframes c1q{67.59%{fill:var(--c3)}67.61%,100%{fill:var(--ce)}}.c.c1q{fill:var(--c3);animation-name:c1q}@keyframes c1r{68.53%{fill:var(--c3)}68.55%,100%{fill:var(--ce)}}.c.c1r{fill:var(--c3);animation-name:c1r}@keyframes c1s{72.58%{fill:var(--c3)}72.6%,100%{fill:var(--ce)}}.c.c1s{fill:var(--c3);animation-name:c1s}@keyframes c1t{56.69%{fill:var(--c3)}56.71%,100%{fill:var(--ce)}}.c.c1t{fill:var(--c3);animation-name:c1t}@keyframes c1u{57%{fill:var(--c3)}57.02%,100%{fill:var(--ce)}}.c.c1u{fill:var(--c3);animation-name:c1u}@keyframes c1v{61.05%{fill:var(--c3)}61.07%,100%{fill:var(--ce)}}.c.c1v{fill:var(--c3);animation-name:c1v}@keyframes c1w{61.36%{fill:var(--c3)}61.38%,100%{fill:var(--ce)}}.c.c1w{fill:var(--c3);animation-name:c1w}@keyframes c1x{67.9%{fill:var(--c3)}67.92%,100%{fill:var(--ce)}}.c.c1x{fill:var(--c3);animation-name:c1x}@keyframes c1y{68.21%{fill:var(--c3)}68.23%,100%{fill:var(--ce)}}.c.c1y{fill:var(--c3);animation-name:c1y}@keyframes c1z{72.89%{fill:var(--c3)}72.91%,100%{fill:var(--ce)}}.c.c1z{fill:var(--c3);animation-name:c1z}@keyframes c20{19.62%{fill:var(--c1)}19.64%,100%{fill:var(--ce)}}.c.c20{fill:var(--c1);animation-name:c20}@keyframes c21{26.16%{fill:var(--c1)}26.18%,100%{fill:var(--ce)}}.c.c21{fill:var(--c1);animation-name:c21}@keyframes c22{26.47%{fill:var(--c1)}26.49%,100%{fill:var(--ce)}}.c.c22{fill:var(--c1);animation-name:c22}@keyframes c23{26.78%{fill:var(--c1)}26.8%,100%{fill:var(--ce)}}.c.c23{fill:var(--c1);animation-name:c23}@keyframes c24{27.09%{fill:var(--c1)}27.11%,100%{fill:var(--ce)}}.c.c24{fill:var(--c1);animation-name:c24}@keyframes c25{27.4%{fill:var(--c1)}27.42%,100%{fill:var(--ce)}}.c.c25{fill:var(--c1);animation-name:c25}@keyframes c26{27.72%{fill:var(--c1)}27.74%,100%{fill:var(--ce)}}.c.c26{fill:var(--c1);animation-name:c26}@keyframes c27{19.93%{fill:var(--c1)}19.95%,100%{fill:var(--ce)}}.c.c27{fill:var(--c1);animation-name:c27}@keyframes c28{77.56%{fill:var(--c3)}77.58%,100%{fill:var(--ce)}}.c.c28{fill:var(--c3);animation-name:c28}@keyframes c29{77.87%{fill:var(--c3)}77.89%,100%{fill:var(--ce)}}.c.c29{fill:var(--c3);animation-name:c29}@keyframes c2a{74.44%{fill:var(--c3)}74.46%,100%{fill:var(--ce)}}.c.c2a{fill:var(--c3);animation-name:c2a}@keyframes c2b{74.13%{fill:var(--c3)}74.15%,100%{fill:var(--ce)}}.c.c2b{fill:var(--c3);animation-name:c2b}@keyframes c2c{73.82%{fill:var(--c3)}73.84%,100%{fill:var(--ce)}}.c.c2c{fill:var(--c3);animation-name:c2c}@keyframes c2d{28.03%{fill:var(--c1)}28.05%,100%{fill:var(--ce)}}.c.c2d{fill:var(--c1);animation-name:c2d}@keyframes c2e{20.24%{fill:var(--c1)}20.26%,100%{fill:var(--ce)}}.c.c2e{fill:var(--c1);animation-name:c2e}@keyframes c2f{23.04%{fill:var(--c1)}23.06%,100%{fill:var(--ce)}}.c.c2f{fill:var(--c1);animation-name:c2f}@keyframes c2g{23.35%{fill:var(--c1)}23.37%,100%{fill:var(--ce)}}.c.c2g{fill:var(--c1);animation-name:c2g}@keyframes c2h{74.76%{fill:var(--c3)}74.78%,100%{fill:var(--ce)}}.c.c2h{fill:var(--c3);animation-name:c2h}@keyframes c2i{32.08%{fill:var(--c1)}32.1%,100%{fill:var(--ce)}}.c.c2i{fill:var(--c1);animation-name:c2i}@keyframes c2j{32.39%{fill:var(--c1)}32.41%,100%{fill:var(--ce)}}.c.c2j{fill:var(--c1);animation-name:c2j}@keyframes c2k{47.03%{fill:var(--c2)}47.05%,100%{fill:var(--ce)}}.c.c2k{fill:var(--c2);animation-name:c2k}@keyframes c2l{20.55%{fill:var(--c1)}20.57%,100%{fill:var(--ce)}}.c.c2l{fill:var(--c1);animation-name:c2l}@keyframes c2m{22.73%{fill:var(--c1)}22.75%,100%{fill:var(--ce)}}.c.c2m{fill:var(--c1);animation-name:c2m}@keyframes c2n{23.67%{fill:var(--c1)}23.69%,100%{fill:var(--ce)}}.c.c2n{fill:var(--c1);animation-name:c2n}@keyframes c2o{75.07%{fill:var(--c3)}75.09%,100%{fill:var(--ce)}}.c.c2o{fill:var(--c3);animation-name:c2o}@keyframes c2p{31.77%{fill:var(--c1)}31.79%,100%{fill:var(--ce)}}.c.c2p{fill:var(--c1);animation-name:c2p}@keyframes c2q{32.7%{fill:var(--c1)}32.72%,100%{fill:var(--ce)}}.c.c2q{fill:var(--c1);animation-name:c2q}@keyframes c2r{29.27%{fill:var(--c1)}29.29%,100%{fill:var(--ce)}}.c.c2r{fill:var(--c1);animation-name:c2r}@keyframes c2s{20.86%{fill:var(--c1)}20.88%,100%{fill:var(--ce)}}.c.c2s{fill:var(--c1);animation-name:c2s}@keyframes c2t{22.42%{fill:var(--c1)}22.44%,100%{fill:var(--ce)}}.c.c2t{fill:var(--c1);animation-name:c2t}@keyframes c2u{23.98%{fill:var(--c1)}24%,100%{fill:var(--ce)}}.c.c2u{fill:var(--c1);animation-name:c2u}@keyframes c2v{75.38%{fill:var(--c3)}75.4%,100%{fill:var(--ce)}}.c.c2v{fill:var(--c3);animation-name:c2v}@keyframes c2w{31.45%{fill:var(--c1)}31.47%,100%{fill:var(--ce)}}.c.c2w{fill:var(--c1);animation-name:c2w}@keyframes c2x{31.14%{fill:var(--c1)}31.16%,100%{fill:var(--ce)}}.c.c2x{fill:var(--c1);animation-name:c2x}@keyframes c2y{29.59%{fill:var(--c1)}29.61%,100%{fill:var(--ce)}}.c.c2y{fill:var(--c1);animation-name:c2y}@keyframes c2z{21.17%{fill:var(--c1)}21.19%,100%{fill:var(--ce)}}.c.c2z{fill:var(--c1);animation-name:c2z}@keyframes c30{76.31%{fill:var(--c3)}76.33%,100%{fill:var(--ce)}}.c.c30{fill:var(--c3);animation-name:c30}@keyframes c31{76%{fill:var(--c3)}76.02%,100%{fill:var(--ce)}}.c.c31{fill:var(--c3);animation-name:c31}@keyframes c32{75.69%{fill:var(--c3)}75.71%,100%{fill:var(--ce)}}.c.c32{fill:var(--c3);animation-name:c32}@keyframes c33{79.74%{fill:var(--c3)}79.76%,100%{fill:var(--ce)}}.c.c33{fill:var(--c3);animation-name:c33}@keyframes c34{80.05%{fill:var(--c3)}80.07%,100%{fill:var(--ce)}}.c.c34{fill:var(--c3);animation-name:c34}@keyframes c35{29.9%{fill:var(--c1)}29.92%,100%{fill:var(--ce)}}.c.c35{fill:var(--c1);animation-name:c35}.u{transform-origin:0 0;transform:scale(0,1);animation:none linear 32100ms infinite}@keyframes u0{2.17%{transform:scale(0.000,1)}2.19%,13.07%{transform:scale(0.030,1)}13.09%,15.57%{transform:scale(0.061,1)}15.59%,15.88%{transform:scale(0.091,1)}15.9%,19.62%{transform:scale(0.121,1)}19.64%,19.93%{transform:scale(0.152,1)}19.95%,20.24%{transform:scale(0.182,1)}20.26%,20.55%{transform:scale(0.212,1)}20.57%,20.86%{transform:scale(0.242,1)}20.88%,21.17%{transform:scale(0.273,1)}21.19%,22.42%{transform:scale(0.303,1)}22.44%,22.73%{transform:scale(0.333,1)}22.75%,23.04%{transform:scale(0.364,1)}23.06%,23.35%{transform:scale(0.394,1)}23.37%,23.67%{transform:scale(0.424,1)}23.69%,23.98%{transform:scale(0.455,1)}24%,26.16%{transform:scale(0.485,1)}26.18%,26.47%{transform:scale(0.515,1)}26.49%,26.78%{transform:scale(0.545,1)}26.8%,27.09%{transform:scale(0.576,1)}27.11%,27.4%{transform:scale(0.606,1)}27.42%,27.72%{transform:scale(0.636,1)}27.74%,28.03%{transform:scale(0.667,1)}28.05%,29.27%{transform:scale(0.697,1)}29.29%,29.59%{transform:scale(0.727,1)}29.61%,29.9%{transform:scale(0.758,1)}29.92%,31.14%{transform:scale(0.788,1)}31.16%,31.45%{transform:scale(0.818,1)}31.47%,31.77%{transform:scale(0.848,1)}31.79%,32.08%{transform:scale(0.879,1)}32.1%,32.39%{transform:scale(0.909,1)}32.41%,32.7%{transform:scale(0.939,1)}32.72%,40.18%{transform:scale(0.970,1)}40.2%,100%{transform:scale(1.000,1)}}.u.u0{fill:var(--c1);animation-name:u0;transform-origin:0.0px 0}@keyframes u1{40.49%{transform:scale(0.000,1)}40.51%,40.8%{transform:scale(0.167,1)}40.82%,41.11%{transform:scale(0.333,1)}41.13%,41.42%{transform:scale(0.500,1)}41.44%,47.03%{transform:scale(0.667,1)}47.05%,54.2%{transform:scale(0.833,1)}54.22%,100%{transform:scale(1.000,1)}}.u.u1{fill:var(--c2);animation-name:u1;transform-origin:245.5px 0}@keyframes u2{54.51%{transform:scale(0.000,1)}54.53%,54.82%{transform:scale(0.014,1)}54.84%,55.13%{transform:scale(0.028,1)}55.15%,55.44%{transform:scale(0.042,1)}55.46%,55.75%{transform:scale(0.056,1)}55.77%,56.06%{transform:scale(0.070,1)}56.08%,56.38%{transform:scale(0.085,1)}56.4%,56.69%{transform:scale(0.099,1)}56.71%,57%{transform:scale(0.113,1)}57.02%,57.31%{transform:scale(0.127,1)}57.33%,57.62%{transform:scale(0.141,1)}57.64%,57.93%{transform:scale(0.155,1)}57.95%,58.25%{transform:scale(0.169,1)}58.27%,58.56%{transform:scale(0.183,1)}58.58%,58.87%{transform:scale(0.197,1)}58.89%,59.18%{transform:scale(0.211,1)}59.2%,59.49%{transform:scale(0.225,1)}59.51%,59.8%{transform:scale(0.239,1)}59.82%,60.11%{transform:scale(0.254,1)}60.13%,60.43%{transform:scale(0.268,1)}60.45%,60.74%{transform:scale(0.282,1)}60.76%,61.05%{transform:scale(0.296,1)}61.07%,61.36%{transform:scale(0.310,1)}61.38%,61.67%{transform:scale(0.324,1)}61.69%,61.98%{transform:scale(0.338,1)}62%,62.3%{transform:scale(0.352,1)}62.32%,62.61%{transform:scale(0.366,1)}62.63%,62.92%{transform:scale(0.380,1)}62.94%,63.23%{transform:scale(0.394,1)}63.25%,63.54%{transform:scale(0.408,1)}63.56%,63.85%{transform:scale(0.423,1)}63.87%,64.48%{transform:scale(0.437,1)}64.5%,65.41%{transform:scale(0.451,1)}65.43%,65.72%{transform:scale(0.465,1)}65.74%,66.03%{transform:scale(0.479,1)}66.05%,66.35%{transform:scale(0.493,1)}66.37%,66.66%{transform:scale(0.507,1)}66.68%,66.97%{transform:scale(0.521,1)}66.99%,67.28%{transform:scale(0.535,1)}67.3%,67.59%{transform:scale(0.549,1)}67.61%,67.9%{transform:scale(0.563,1)}67.92%,68.21%{transform:scale(0.577,1)}68.23%,68.53%{transform:scale(0.592,1)}68.55%,68.84%{transform:scale(0.606,1)}68.86%,69.15%{transform:scale(0.620,1)}69.17%,69.46%{transform:scale(0.634,1)}69.48%,69.77%{transform:scale(0.648,1)}69.79%,70.08%{transform:scale(0.662,1)}70.1%,70.39%{transform:scale(0.676,1)}70.41%,70.71%{transform:scale(0.690,1)}70.73%,71.02%{transform:scale(0.704,1)}71.04%,71.33%{transform:scale(0.718,1)}71.35%,71.64%{transform:scale(0.732,1)}71.66%,71.95%{transform:scale(0.746,1)}71.97%,72.26%{transform:scale(0.761,1)}72.28%,72.58%{transform:scale(0.775,1)}72.6%,72.89%{transform:scale(0.789,1)}72.91%,73.82%{transform:scale(0.803,1)}73.84%,74.13%{transform:scale(0.817,1)}74.15%,74.44%{transform:scale(0.831,1)}74.46%,74.76%{transform:scale(0.845,1)}74.78%,75.07%{transform:scale(0.859,1)}75.09%,75.38%{transform:scale(0.873,1)}75.4%,75.69%{transform:scale(0.887,1)}75.71%,76%{transform:scale(0.901,1)}76.02%,76.31%{transform:scale(0.915,1)}76.33%,77.56%{transform:scale(0.930,1)}77.58%,77.87%{transform:scale(0.944,1)}77.89%,79.74%{transform:scale(0.958,1)}79.76%,80.05%{transform:scale(0.972,1)}80.07%,84.73%{transform:scale(0.986,1)}84.75%,100%{transform:scale(1.000,1)}}.u.u2{fill:var(--c3);animation-name:u2;transform-origin:290.1px 0}@keyframes u3{85.04%{transform:scale(0.000,1)}85.06%,85.35%{transform:scale(0.250,1)}85.37%,85.66%{transform:scale(0.500,1)}85.68%,87.84%{transform:scale(0.750,1)}87.86%,100%{transform:scale(1.000,1)}}.u.u3{fill:var(--c4);animation-name:u3;transform-origin:818.2px 0}.s{shape-rendering:geometricPrecision;fill:var(--cs);animation:none linear 32100ms infinite}@keyframes s0{0%,99.69%{transform:translate(0px,-16px)}0.31%{transform:translate(0px,0px)}0.93%{transform:translate(32px,0px)}2.18%{transform:translate(32px,64px)}12.46%,41.74%{transform:translate(560px,64px)}13.08%{transform:translate(560px,96px)}13.4%{transform:translate(544px,96px)}13.71%{transform:translate(544px,80px)}14.02%{transform:translate(560px,80px)}15.26%,39.56%{transform:translate(560px,16px)}15.58%,53.58%{transform:translate(576px,16px)}16.2%,52.96%{transform:translate(576px,-16px)}19.31%,49.84%{transform:translate(736px,-16px)}19.63%,25.86%{transform:translate(736px,0px)}21.18%{transform:translate(816px,0px)}21.5%{transform:translate(816px,-16px)}21.81%{transform:translate(800px,-16px)}22.43%{transform:translate(800px,16px)}23.05%{transform:translate(768px,16px)}23.36%{transform:translate(768px,32px)}23.99%{transform:translate(800px,32px)}24.61%{transform:translate(800px,0px)}27.73%,47.66%{transform:translate(736px,96px)}28.04%,73.52%{transform:translate(752px,96px)}28.35%{transform:translate(752px,112px)}28.97%,33.33%{transform:translate(784px,112px)}29.28%{transform:translate(784px,96px)}29.91%{transform:translate(816px,96px)}30.22%{transform:translate(816px,112px)}30.53%{transform:translate(800px,112px)}31.46%{transform:translate(800px,64px)}32.09%{transform:translate(768px,64px)}32.4%{transform:translate(768px,80px)}32.71%{transform:translate(784px,80px)}37.69%,42.68%{transform:translate(560px,112px)}40.19%{transform:translate(592px,16px)}40.81%,65.11%{transform:translate(592px,48px)}41.12%,64.8%{transform:translate(576px,48px)}41.43%{transform:translate(576px,64px)}46.73%{transform:translate(768px,112px)}47.04%{transform:translate(768px,96px)}54.21%{transform:translate(608px,16px)}54.52%{transform:translate(608px,0px)}56.7%{transform:translate(720px,0px)}57.01%{transform:translate(720px,16px)}58.88%{transform:translate(624px,16px)}59.19%{transform:translate(624px,32px)}61.06%{transform:translate(720px,32px)}61.37%{transform:translate(720px,48px)}63.55%{transform:translate(608px,48px)}63.86%{transform:translate(608px,32px)}64.49%{transform:translate(576px,32px)}65.42%{transform:translate(592px,64px)}67.91%{transform:translate(720px,64px)}68.22%{transform:translate(720px,80px)}70.4%,84.11%{transform:translate(608px,80px)}70.72%,84.42%{transform:translate(608px,96px)}74.45%{transform:translate(752px,48px)}75.7%{transform:translate(816px,48px)}76.32%{transform:translate(816px,16px)}77.57%{transform:translate(752px,16px)}77.88%{transform:translate(752px,32px)}79.13%{transform:translate(816px,32px)}80.06%{transform:translate(816px,80px)}84.74%,85.98%{transform:translate(592px,96px)}85.05%{transform:translate(592px,80px)}85.36%{transform:translate(576px,80px)}85.67%{transform:translate(576px,96px)}87.85%{transform:translate(592px,0px)}97.51%{transform:translate(96px,0px)}97.82%{transform:translate(96px,-16px)}}.s.s0{transform:translate(0px,-16px);animation-name:s0}@keyframes s1{0%,99.69%{transform:translate(16px,-16px)}0.31%{transform:translate(0px,-16px)}0.62%{transform:translate(0px,0px)}1.25%{transform:translate(32px,0px)}2.49%{transform:translate(32px,64px)}12.77%,42.06%{transform:translate(560px,64px)}13.4%{transform:translate(560px,96px)}13.71%{transform:translate(544px,96px)}14.02%{transform:translate(544px,80px)}14.33%{transform:translate(560px,80px)}15.58%,39.88%{transform:translate(560px,16px)}15.89%,53.89%{transform:translate(576px,16px)}16.51%,53.27%{transform:translate(576px,-16px)}19.63%,50.16%{transform:translate(736px,-16px)}19.94%,26.17%{transform:translate(736px,0px)}21.5%{transform:translate(816px,0px)}21.81%{transform:translate(816px,-16px)}22.12%{transform:translate(800px,-16px)}22.74%{transform:translate(800px,16px)}23.36%{transform:translate(768px,16px)}23.68%{transform:translate(768px,32px)}24.3%{transform:translate(800px,32px)}24.92%{transform:translate(800px,0px)}28.04%,47.98%{transform:translate(736px,96px)}28.35%,73.83%{transform:translate(752px,96px)}28.66%{transform:translate(752px,112px)}29.28%,33.64%{transform:translate(784px,112px)}29.6%{transform:translate(784px,96px)}30.22%{transform:translate(816px,96px)}30.53%{transform:translate(816px,112px)}30.84%{transform:translate(800px,112px)}31.78%{transform:translate(800px,64px)}32.4%{transform:translate(768px,64px)}32.71%{transform:translate(768px,80px)}33.02%{transform:translate(784px,80px)}38.01%,42.99%{transform:translate(560px,112px)}40.5%{transform:translate(592px,16px)}41.12%,65.42%{transform:translate(592px,48px)}41.43%,65.11%{transform:translate(576px,48px)}41.74%{transform:translate(576px,64px)}47.04%{transform:translate(768px,112px)}47.35%{transform:translate(768px,96px)}54.52%{transform:translate(608px,16px)}54.83%{transform:translate(608px,0px)}57.01%{transform:translate(720px,0px)}57.32%{transform:translate(720px,16px)}59.19%{transform:translate(624px,16px)}59.5%{transform:translate(624px,32px)}61.37%{transform:translate(720px,32px)}61.68%{transform:translate(720px,48px)}63.86%{transform:translate(608px,48px)}64.17%{transform:translate(608px,32px)}64.8%{transform:translate(576px,32px)}65.73%{transform:translate(592px,64px)}68.22%{transform:translate(720px,64px)}68.54%{transform:translate(720px,80px)}70.72%,84.42%{transform:translate(608px,80px)}71.03%,84.74%{transform:translate(608px,96px)}74.77%{transform:translate(752px,48px)}76.01%{transform:translate(816px,48px)}76.64%{transform:translate(816px,16px)}77.88%{transform:translate(752px,16px)}78.19%{transform:translate(752px,32px)}79.44%{transform:translate(816px,32px)}80.37%{transform:translate(816px,80px)}85.05%,86.29%{transform:translate(592px,96px)}85.36%{transform:translate(592px,80px)}85.67%{transform:translate(576px,80px)}85.98%{transform:translate(576px,96px)}88.16%{transform:translate(592px,0px)}97.82%{transform:translate(96px,0px)}98.13%{transform:translate(96px,-16px)}}.s.s1{transform:translate(16px,-16px);animation-name:s1}@keyframes s2{0%,99.69%{transform:translate(32px,-16px)}0.62%{transform:translate(0px,-16px)}0.93%{transform:translate(0px,0px)}1.56%{transform:translate(32px,0px)}2.8%{transform:translate(32px,64px)}13.08%,42.37%{transform:translate(560px,64px)}13.71%{transform:translate(560px,96px)}14.02%{transform:translate(544px,96px)}14.33%{transform:translate(544px,80px)}14.64%{transform:translate(560px,80px)}15.89%,40.19%{transform:translate(560px,16px)}16.2%,54.21%{transform:translate(576px,16px)}16.82%,53.58%{transform:translate(576px,-16px)}19.94%,50.47%{transform:translate(736px,-16px)}20.25%,26.48%{transform:translate(736px,0px)}21.81%{transform:translate(816px,0px)}22.12%{transform:translate(816px,-16px)}22.43%{transform:translate(800px,-16px)}23.05%{transform:translate(800px,16px)}23.68%{transform:translate(768px,16px)}23.99%{transform:translate(768px,32px)}24.61%{transform:translate(800px,32px)}25.23%{transform:translate(800px,0px)}28.35%,48.29%{transform:translate(736px,96px)}28.66%,74.14%{transform:translate(752px,96px)}28.97%{transform:translate(752px,112px)}29.6%,33.96%{transform:translate(784px,112px)}29.91%{transform:translate(784px,96px)}30.53%{transform:translate(816px,96px)}30.84%{transform:translate(816px,112px)}31.15%{transform:translate(800px,112px)}32.09%{transform:translate(800px,64px)}32.71%{transform:translate(768px,64px)}33.02%{transform:translate(768px,80px)}33.33%{transform:translate(784px,80px)}38.32%,43.3%{transform:translate(560px,112px)}40.81%{transform:translate(592px,16px)}41.43%,65.73%{transform:translate(592px,48px)}41.74%,65.42%{transform:translate(576px,48px)}42.06%{transform:translate(576px,64px)}47.35%{transform:translate(768px,112px)}47.66%{transform:translate(768px,96px)}54.83%{transform:translate(608px,16px)}55.14%{transform:translate(608px,0px)}57.32%{transform:translate(720px,0px)}57.63%{transform:translate(720px,16px)}59.5%{transform:translate(624px,16px)}59.81%{transform:translate(624px,32px)}61.68%{transform:translate(720px,32px)}61.99%{transform:translate(720px,48px)}64.17%{transform:translate(608px,48px)}64.49%{transform:translate(608px,32px)}65.11%{transform:translate(576px,32px)}66.04%{transform:translate(592px,64px)}68.54%{transform:translate(720px,64px)}68.85%{transform:translate(720px,80px)}71.03%,84.74%{transform:translate(608px,80px)}71.34%,85.05%{transform:translate(608px,96px)}75.08%{transform:translate(752px,48px)}76.32%{transform:translate(816px,48px)}76.95%{transform:translate(816px,16px)}78.19%{transform:translate(752px,16px)}78.5%{transform:translate(752px,32px)}79.75%{transform:translate(816px,32px)}80.69%{transform:translate(816px,80px)}85.36%,86.6%{transform:translate(592px,96px)}85.67%{transform:translate(592px,80px)}85.98%{transform:translate(576px,80px)}86.29%{transform:translate(576px,96px)}88.47%{transform:translate(592px,0px)}98.13%{transform:translate(96px,0px)}98.44%{transform:translate(96px,-16px)}}.s.s2{transform:translate(32px,-16px);animation-name:s2}@keyframes s3{0%,99.69%{transform:translate(48px,-16px)}0.93%{transform:translate(0px,-16px)}1.25%{transform:translate(0px,0px)}1.87%{transform:translate(32px,0px)}3.12%{transform:translate(32px,64px)}13.4%,42.68%{transform:translate(560px,64px)}14.02%{transform:translate(560px,96px)}14.33%{transform:translate(544px,96px)}14.64%{transform:translate(544px,80px)}14.95%{transform:translate(560px,80px)}16.2%,40.5%{transform:translate(560px,16px)}16.51%,54.52%{transform:translate(576px,16px)}17.13%,53.89%{transform:translate(576px,-16px)}20.25%,50.78%{transform:translate(736px,-16px)}20.56%,26.79%{transform:translate(736px,0px)}22.12%{transform:translate(816px,0px)}22.43%{transform:translate(816px,-16px)}22.74%{transform:translate(800px,-16px)}23.36%{transform:translate(800px,16px)}23.99%{transform:translate(768px,16px)}24.3%{transform:translate(768px,32px)}24.92%{transform:translate(800px,32px)}25.55%{transform:translate(800px,0px)}28.66%,48.6%{transform:translate(736px,96px)}28.97%,74.45%{transform:translate(752px,96px)}29.28%{transform:translate(752px,112px)}29.91%,34.27%{transform:translate(784px,112px)}30.22%{transform:translate(784px,96px)}30.84%{transform:translate(816px,96px)}31.15%{transform:translate(816px,112px)}31.46%{transform:translate(800px,112px)}32.4%{transform:translate(800px,64px)}33.02%{transform:translate(768px,64px)}33.33%{transform:translate(768px,80px)}33.64%{transform:translate(784px,80px)}38.63%,43.61%{transform:translate(560px,112px)}41.12%{transform:translate(592px,16px)}41.74%,66.04%{transform:translate(592px,48px)}42.06%,65.73%{transform:translate(576px,48px)}42.37%{transform:translate(576px,64px)}47.66%{transform:translate(768px,112px)}47.98%{transform:translate(768px,96px)}55.14%{transform:translate(608px,16px)}55.45%{transform:translate(608px,0px)}57.63%{transform:translate(720px,0px)}57.94%{transform:translate(720px,16px)}59.81%{transform:translate(624px,16px)}60.12%{transform:translate(624px,32px)}61.99%{transform:translate(720px,32px)}62.31%{transform:translate(720px,48px)}64.49%{transform:translate(608px,48px)}64.8%{transform:translate(608px,32px)}65.42%{transform:translate(576px,32px)}66.36%{transform:translate(592px,64px)}68.85%{transform:translate(720px,64px)}69.16%{transform:translate(720px,80px)}71.34%,85.05%{transform:translate(608px,80px)}71.65%,85.36%{transform:translate(608px,96px)}75.39%{transform:translate(752px,48px)}76.64%{transform:translate(816px,48px)}77.26%{transform:translate(816px,16px)}78.5%{transform:translate(752px,16px)}78.82%{transform:translate(752px,32px)}80.06%{transform:translate(816px,32px)}81%{transform:translate(816px,80px)}85.67%,86.92%{transform:translate(592px,96px)}85.98%{transform:translate(592px,80px)}86.29%{transform:translate(576px,80px)}86.6%{transform:translate(576px,96px)}88.79%{transform:translate(592px,0px)}98.44%{transform:translate(96px,0px)}98.75%{transform:translate(96px,-16px)}}.s.s3{transform:translate(48px,-16px);animation-name:s3}</style><rect class="c" x="2" y="2" rx="2" ry="2"/><rect class="c" x="2" y="18" rx="2" ry="2"/><rect class="c" x="2" y="34" rx="2" ry="2"/><rect class="c" x="2" y="50" rx="2" ry="2"/><rect class="c" x="2" y="66" rx="2" ry="2"/><rect class="c" x="2" y="82" rx="2" ry="2"/><rect class="c" x="2" y="98" rx="2" ry="2"/><rect class="c" x="18" y="2" rx="2" ry="2"/><rect class="c" x="18" y="18" rx="2" ry="2"/><rect class="c" x="18" y="34" rx="2" ry="2"/><rect class="c" x="18" y="50" rx="2" ry="2"/><rect class="c" x="18" y="66" rx="2" ry="2"/><rect class="c" x="18" y="82" rx="2" ry="2"/><rect class="c" x="18" y="98" rx="2" ry="2"/><rect class="c" x="34" y="2" rx="2" ry="2"/><rect class="c" x="34" y="18" rx="2" ry="2"/><rect class="c" x="34" y="34" rx="2" ry="2"/><rect class="c" x="34" y="50" rx="2" ry="2"/><rect class="c c0" x="34" y="66" rx="2" ry="2"/><rect class="c" x="34" y="82" rx="2" ry="2"/><rect class="c" x="34" y="98" rx="2" ry="2"/><rect class="c" x="50" y="2" rx="2" ry="2"/><rect class="c" x="50" y="18" rx="2" ry="2"/><rect class="c" x="50" y="34" rx="2" ry="2"/><rect class="c" x="50" y="50" rx="2" ry="2"/><rect class="c" x="50" y="66" rx="2" ry="2"/><rect class="c" x="50" y="82" rx="2" ry="2"/><rect class="c" x="50" y="98" rx="2" ry="2"/><rect class="c" x="66" y="2" rx="2" ry="2"/><rect class="c" x="66" y="18" rx="2" ry="2"/><rect class="c" x="66" y="34" rx="2" ry="2"/><rect class="c" x="66" y="50" rx="2" ry="2"/><rect class="c" x="66" y="66" rx="2" ry="2"/><rect class="c" x="66" y="82" rx="2" ry="2"/><rect class="c" x="66" y="98" rx="2" ry="2"/><rect class="c" x="82" y="2" rx="2" ry="2"/><rect class="c" x="82" y="18" rx="2" ry="2"/><rect class="c" x="82" y="34" rx="2" ry="2"/><rect class="c" x="82" y="50" rx="2" ry="2"/><rect class="c" x="82" y="66" rx="2" ry="2"/><rect class="c" x="82" y="82" rx="2" ry="2"/><rect class="c" x="82" y="98" rx="2" ry="2"/><rect class="c" x="98" y="2" rx="2" ry="2"/><rect class="c" x="98" y="18" rx="2" ry="2"/><rect class="c" x="98" y="34" rx="2" ry="2"/><rect class="c" x="98" y="50" rx="2" ry="2"/><rect class="c" x="98" y="66" rx="2" ry="2"/><rect class="c" x="98" y="82" rx="2" ry="2"/><rect class="c" x="98" y="98" rx="2" ry="2"/><rect class="c" x="114" y="2" rx="2" ry="2"/><rect class="c" x="114" y="18" rx="2" ry="2"/><rect class="c" x="114" y="34" rx="2" ry="2"/><rect class="c" x="114" y="50" rx="2" ry="2"/><rect class="c" x="114" y="66" rx="2" ry="2"/><rect class="c" x="114" y="82" rx="2" ry="2"/><rect class="c" x="114" y="98" rx="2" ry="2"/><rect class="c" x="130" y="2" rx="2" ry="2"/><rect class="c" x="130" y="18" rx="2" ry="2"/><rect class="c" x="130" y="34" rx="2" ry="2"/><rect class="c" x="130" y="50" rx="2" ry="2"/><rect class="c" x="130" y="66" rx="2" ry="2"/><rect class="c" x="130" y="82" rx="2" ry="2"/><rect class="c" x="130" y="98" rx="2" ry="2"/><rect class="c" x="146" y="2" rx="2" ry="2"/><rect class="c" x="146" y="18" rx="2" ry="2"/><rect class="c" x="146" y="34" rx="2" ry="2"/><rect class="c" x="146" y="50" rx="2" ry="2"/><rect class="c" x="146" y="66" rx="2" ry="2"/><rect class="c" x="146" y="82" rx="2" ry="2"/><rect class="c" x="146" y="98" rx="2" ry="2"/><rect class="c" x="162" y="2" rx="2" ry="2"/><rect class="c" x="162" y="18" rx="2" ry="2"/><rect class="c" x="162" y="34" rx="2" ry="2"/><rect class="c" x="162" y="50" rx="2" ry="2"/><rect class="c" x="162" y="66" rx="2" ry="2"/><rect class="c" x="162" y="82" rx="2" ry="2"/><rect class="c" x="162" y="98" rx="2" ry="2"/><rect class="c" x="178" y="2" rx="2" ry="2"/><rect class="c" x="178" y="18" rx="2" ry="2"/><rect class="c" x="178" y="34" rx="2" ry="2"/><rect class="c" x="178" y="50" rx="2" ry="2"/><rect class="c" x="178" y="66" rx="2" ry="2"/><rect class="c" x="178" y="82" rx="2" ry="2"/><rect class="c" x="178" y="98" rx="2" ry="2"/><rect class="c" x="194" y="2" rx="2" ry="2"/><rect class="c" x="194" y="18" rx="2" ry="2"/><rect class="c" x="194" y="34" rx="2" ry="2"/><rect class="c" x="194" y="50" rx="2" ry="2"/><rect class="c" x="194" y="66" rx="2" ry="2"/><rect class="c" x="194" y="82" rx="2" ry="2"/><rect class="c" x="194" y="98" rx="2" ry="2"/><rect class="c" x="210" y="2" rx="2" ry="2"/><rect class="c" x="210" y="18" rx="2" ry="2"/><rect class="c" x="210" y="34" rx="2" ry="2"/><rect class="c" x="210" y="50" rx="2" ry="2"/><rect class="c" x="210" y="66" rx="2" ry="2"/><rect class="c" x="210" y="82" rx="2" ry="2"/><rect class="c" x="210" y="98" rx="2" ry="2"/><rect class="c" x="226" y="2" rx="2" ry="2"/><rect class="c" x="226" y="18" rx="2" ry="2"/><rect class="c" x="226" y="34" rx="2" ry="2"/><rect class="c" x="226" y="50" rx="2" ry="2"/><rect class="c" x="226" y="66" rx="2" ry="2"/><rect class="c" x="226" y="82" rx="2" ry="2"/><rect class="c" x="226" y="98" rx="2" ry="2"/><rect class="c" x="242" y="2" rx="2" ry="2"/><rect class="c" x="242" y="18" rx="2" ry="2"/><rect class="c" x="242" y="34" rx="2" ry="2"/><rect class="c" x="242" y="50" rx="2" ry="2"/><rect class="c" x="242" y="66" rx="2" ry="2"/><rect class="c" x="242" y="82" rx="2" ry="2"/><rect class="c" x="242" y="98" rx="2" ry="2"/><rect class="c" x="258" y="2" rx="2" ry="2"/><rect class="c" x="258" y="18" rx="2" ry="2"/><rect class="c" x="258" y="34" rx="2" ry="2"/><rect class="c" x="258" y="50" rx="2" ry="2"/><rect class="c" x="258" y="66" rx="2" ry="2"/><rect class="c" x="258" y="82" rx="2" ry="2"/><rect class="c" x="258" y="98" rx="2" ry="2"/><rect class="c" x="274" y="2" rx="2" ry="2"/><rect class="c" x="274" y="18" rx="2" ry="2"/><rect class="c" x="274" y="34" rx="2" ry="2"/><rect class="c" x="274" y="50" rx="2" ry="2"/><rect class="c" x="274" y="66" rx="2" ry="2"/><rect class="c" x="274" y="82" rx="2" ry="2"/><rect class="c" x="274" y="98" rx="2" ry="2"/><rect class="c" x="290" y="2" rx="2" ry="2"/><rect class="c" x="290" y="18" rx="2" ry="2"/><rect class="c" x="290" y="34" rx="2" ry="2"/><rect class="c" x="290" y="50" rx="2" ry="2"/><rect class="c" x="290" y="66" rx="2" ry="2"/><rect class="c" x="290" y="82" rx="2" ry="2"/><rect class="c" x="290" y="98" rx="2" ry="2"/><rect class="c" x="306" y="2" rx="2" ry="2"/><rect class="c" x="306" y="18" rx="2" ry="2"/><rect class="c" x="306" y="34" rx="2" ry="2"/><rect class="c" x="306" y="50" rx="2" ry="2"/><rect class="c" x="306" y="66" rx="2" ry="2"/><rect class="c" x="306" y="82" rx="2" ry="2"/><rect class="c" x="306" y="98" rx="2" ry="2"/><rect class="c" x="322" y="2" rx="2" ry="2"/><rect class="c" x="322" y="18" rx="2" ry="2"/><rect class="c" x="322" y="34" rx="2" ry="2"/><rect class="c" x="322" y="50" rx="2" ry="2"/><rect class="c" x="322" y="66" rx="2" ry="2"/><rect class="c" x="322" y="82" rx="2" ry="2"/><rect class="c" x="322" y="98" rx="2" ry="2"/><rect class="c" x="338" y="2" rx="2" ry="2"/><rect class="c" x="338" y="18" rx="2" ry="2"/><rect class="c" x="338" y="34" rx="2" ry="2"/><rect class="c" x="338" y="50" rx="2" ry="2"/><rect class="c" x="338" y="66" rx="2" ry="2"/><rect class="c" x="338" y="82" rx="2" ry="2"/><rect class="c" x="338" y="98" rx="2" ry="2"/><rect class="c" x="354" y="2" rx="2" ry="2"/><rect class="c" x="354" y="18" rx="2" ry="2"/><rect class="c" x="354" y="34" rx="2" ry="2"/><rect class="c" x="354" y="50" rx="2" ry="2"/><rect class="c" x="354" y="66" rx="2" ry="2"/><rect class="c" x="354" y="82" rx="2" ry="2"/><rect class="c" x="354" y="98" rx="2" ry="2"/><rect class="c" x="370" y="2" rx="2" ry="2"/><rect class="c" x="370" y="18" rx="2" ry="2"/><rect class="c" x="370" y="34" rx="2" ry="2"/><rect class="c" x="370" y="50" rx="2" ry="2"/><rect class="c" x="370" y="66" rx="2" ry="2"/><rect class="c" x="370" y="82" rx="2" ry="2"/><rect class="c" x="370" y="98" rx="2" ry="2"/><rect class="c" x="386" y="2" rx="2" ry="2"/><rect class="c" x="386" y="18" rx="2" ry="2"/><rect class="c" x="386" y="34" rx="2" ry="2"/><rect class="c" x="386" y="50" rx="2" ry="2"/><rect class="c" x="386" y="66" rx="2" ry="2"/><rect class="c" x="386" y="82" rx="2" ry="2"/><rect class="c" x="386" y="98" rx="2" ry="2"/><rect class="c" x="402" y="2" rx="2" ry="2"/><rect class="c" x="402" y="18" rx="2" ry="2"/><rect class="c" x="402" y="34" rx="2" ry="2"/><rect class="c" x="402" y="50" rx="2" ry="2"/><rect class="c" x="402" y="66" rx="2" ry="2"/><rect class="c" x="402" y="82" rx="2" ry="2"/><rect class="c" x="402" y="98" rx="2" ry="2"/><rect class="c" x="418" y="2" rx="2" ry="2"/><rect class="c" x="418" y="18" rx="2" ry="2"/><rect class="c" x="418" y="34" rx="2" ry="2"/><rect class="c" x="418" y="50" rx="2" ry="2"/><rect class="c" x="418" y="66" rx="2" ry="2"/><rect class="c" x="418" y="82" rx="2" ry="2"/><rect class="c" x="418" y="98" rx="2" ry="2"/><rect class="c" x="434" y="2" rx="2" ry="2"/><rect class="c" x="434" y="18" rx="2" ry="2"/><rect class="c" x="434" y="34" rx="2" ry="2"/><rect class="c" x="434" y="50" rx="2" ry="2"/><rect class="c" x="434" y="66" rx="2" ry="2"/><rect class="c" x="434" y="82" rx="2" ry="2"/><rect class="c" x="434" y="98" rx="2" ry="2"/><rect class="c" x="450" y="2" rx="2" ry="2"/><rect class="c" x="450" y="18" rx="2" ry="2"/><rect class="c" x="450" y="34" rx="2" ry="2"/><rect class="c" x="450" y="50" rx="2" ry="2"/><rect class="c" x="450" y="66" rx="2" ry="2"/><rect class="c" x="450" y="82" rx="2" ry="2"/><rect class="c" x="450" y="98" rx="2" ry="2"/><rect class="c" x="466" y="2" rx="2" ry="2"/><rect class="c" x="466" y="18" rx="2" ry="2"/><rect class="c" x="466" y="34" rx="2" ry="2"/><rect class="c" x="466" y="50" rx="2" ry="2"/><rect class="c" x="466" y="66" rx="2" ry="2"/><rect class="c" x="466" y="82" rx="2" ry="2"/><rect class="c" x="466" y="98" rx="2" ry="2"/><rect class="c" x="482" y="2" rx="2" ry="2"/><rect class="c" x="482" y="18" rx="2" ry="2"/><rect class="c" x="482" y="34" rx="2" ry="2"/><rect class="c" x="482" y="50" rx="2" ry="2"/><rect class="c" x="482" y="66" rx="2" ry="2"/><rect class="c" x="482" y="82" rx="2" ry="2"/><rect class="c" x="482" y="98" rx="2" ry="2"/><rect class="c" x="498" y="2" rx="2" ry="2"/><rect class="c" x="498" y="18" rx="2" ry="2"/><rect class="c" x="498" y="34" rx="2" ry="2"/><rect class="c" x="498" y="50" rx="2" ry="2"/><rect class="c" x="498" y="66" rx="2" ry="2"/><rect class="c" x="498" y="82" rx="2" ry="2"/><rect class="c" x="498" y="98" rx="2" ry="2"/><rect class="c" x="514" y="2" rx="2" ry="2"/><rect class="c" x="514" y="18" rx="2" ry="2"/><rect class="c" x="514" y="34" rx="2" ry="2"/><rect class="c" x="514" y="50" rx="2" ry="2"/><rect class="c" x="514" y="66" rx="2" ry="2"/><rect class="c" x="514" y="82" rx="2" ry="2"/><rect class="c" x="514" y="98" rx="2" ry="2"/><rect class="c" x="530" y="2" rx="2" ry="2"/><rect class="c" x="530" y="18" rx="2" ry="2"/><rect class="c" x="530" y="34" rx="2" ry="2"/><rect class="c" x="530" y="50" rx="2" ry="2"/><rect class="c" x="530" y="66" rx="2" ry="2"/><rect class="c" x="530" y="82" rx="2" ry="2"/><rect class="c" x="530" y="98" rx="2" ry="2"/><rect class="c" x="546" y="2" rx="2" ry="2"/><rect class="c" x="546" y="18" rx="2" ry="2"/><rect class="c" x="546" y="34" rx="2" ry="2"/><rect class="c" x="546" y="50" rx="2" ry="2"/><rect class="c" x="546" y="66" rx="2" ry="2"/><rect class="c" x="546" y="82" rx="2" ry="2"/><rect class="c" x="546" y="98" rx="2" ry="2"/><rect class="c" x="562" y="2" rx="2" ry="2"/><rect class="c" x="562" y="18" rx="2" ry="2"/><rect class="c" x="562" y="34" rx="2" ry="2"/><rect class="c" x="562" y="50" rx="2" ry="2"/><rect class="c" x="562" y="66" rx="2" ry="2"/><rect class="c" x="562" y="82" rx="2" ry="2"/><rect class="c c1" x="562" y="98" rx="2" ry="2"/><rect class="c c2" x="578" y="2" rx="2" ry="2"/><rect class="c c3" x="578" y="18" rx="2" ry="2"/><rect class="c c4" x="578" y="34" rx="2" ry="2"/><rect class="c c5" x="578" y="50" rx="2" ry="2"/><rect class="c c6" x="578" y="66" rx="2" ry="2"/><rect class="c c7" x="578" y="82" rx="2" ry="2"/><rect class="c c8" x="578" y="98" rx="2" ry="2"/><rect class="c c9" x="594" y="2" rx="2" ry="2"/><rect class="c ca" x="594" y="18" rx="2" ry="2"/><rect class="c cb" x="594" y="34" rx="2" ry="2"/><rect class="c cc" x="594" y="50" rx="2" ry="2"/><rect class="c cd" x="594" y="66" rx="2" ry="2"/><rect class="c ce" x="594" y="82" rx="2" ry="2"/><rect class="c cf" x="594" y="98" rx="2" ry="2"/><rect class="c cg" x="610" y="2" rx="2" ry="2"/><rect class="c ch" x="610" y="18" rx="2" ry="2"/><rect class="c ci" x="610" y="34" rx="2" ry="2"/><rect class="c cj" x="610" y="50" rx="2" ry="2"/><rect class="c ck" x="610" y="66" rx="2" ry="2"/><rect class="c cl" x="610" y="82" rx="2" ry="2"/><rect class="c cm" x="610" y="98" rx="2" ry="2"/><rect class="c cn" x="626" y="2" rx="2" ry="2"/><rect class="c co" x="626" y="18" rx="2" ry="2"/><rect class="c cp" x="626" y="34" rx="2" ry="2"/><rect class="c cq" x="626" y="50" rx="2" ry="2"/><rect class="c cr" x="626" y="66" rx="2" ry="2"/><rect class="c cs" x="626" y="82" rx="2" ry="2"/><rect class="c ct" x="626" y="98" rx="2" ry="2"/><rect class="c cu" x="642" y="2" rx="2" ry="2"/><rect class="c cv" x="642" y="18" rx="2" ry="2"/><rect class="c cw" x="642" y="34" rx="2" ry="2"/><rect class="c cx" x="642" y="50" rx="2" ry="2"/><rect class="c cy" x="642" y="66" rx="2" ry="2"/><rect class="c cz" x="642" y="82" rx="2" ry="2"/><rect class="c c10" x="642" y="98" rx="2" ry="2"/><rect class="c c11" x="658" y="2" rx="2" ry="2"/><rect class="c c12" x="658" y="18" rx="2" ry="2"/><rect class="c c13" x="658" y="34" rx="2" ry="2"/><rect class="c c14" x="658" y="50" rx="2" ry="2"/><rect class="c c15" x="658" y="66" rx="2" ry="2"/><rect class="c c16" x="658" y="82" rx="2" ry="2"/><rect class="c c17" x="658" y="98" rx="2" ry="2"/><rect class="c c18" x="674" y="2" rx="2" ry="2"/><rect class="c c19" x="674" y="18" rx="2" ry="2"/><rect class="c c1a" x="674" y="34" rx="2" ry="2"/><rect class="c c1b" x="674" y="50" rx="2" ry="2"/><rect class="c c1c" x="674" y="66" rx="2" ry="2"/><rect class="c c1d" x="674" y="82" rx="2" ry="2"/><rect class="c c1e" x="674" y="98" rx="2" ry="2"/><rect class="c c1f" x="690" y="2" rx="2" ry="2"/><rect class="c c1g" x="690" y="18" rx="2" ry="2"/><rect class="c c1h" x="690" y="34" rx="2" ry="2"/><rect class="c c1i" x="690" y="50" rx="2" ry="2"/><rect class="c c1j" x="690" y="66" rx="2" ry="2"/><rect class="c c1k" x="690" y="82" rx="2" ry="2"/><rect class="c c1l" x="690" y="98" rx="2" ry="2"/><rect class="c c1m" x="706" y="2" rx="2" ry="2"/><rect class="c c1n" x="706" y="18" rx="2" ry="2"/><rect class="c c1o" x="706" y="34" rx="2" ry="2"/><rect class="c c1p" x="706" y="50" rx="2" ry="2"/><rect class="c c1q" x="706" y="66" rx="2" ry="2"/><rect class="c c1r" x="706" y="82" rx="2" ry="2"/><rect class="c c1s" x="706" y="98" rx="2" ry="2"/><rect class="c c1t" x="722" y="2" rx="2" ry="2"/><rect class="c c1u" x="722" y="18" rx="2" ry="2"/><rect class="c c1v" x="722" y="34" rx="2" ry="2"/><rect class="c c1w" x="722" y="50" rx="2" ry="2"/><rect class="c c1x" x="722" y="66" rx="2" ry="2"/><rect class="c c1y" x="722" y="82" rx="2" ry="2"/><rect class="c c1z" x="722" y="98" rx="2" ry="2"/><rect class="c c20" x="738" y="2" rx="2" ry="2"/><rect class="c c21" x="738" y="18" rx="2" ry="2"/><rect class="c c22" x="738" y="34" rx="2" ry="2"/><rect class="c c23" x="738" y="50" rx="2" ry="2"/><rect class="c c24" x="738" y="66" rx="2" ry="2"/><rect class="c c25" x="738" y="82" rx="2" ry="2"/><rect class="c c26" x="738" y="98" rx="2" ry="2"/><rect class="c c27" x="754" y="2" rx="2" ry="2"/><rect class="c c28" x="754" y="18" rx="2" ry="2"/><rect class="c c29" x="754" y="34" rx="2" ry="2"/><rect class="c c2a" x="754" y="50" rx="2" ry="2"/><rect class="c c2b" x="754" y="66" rx="2" ry="2"/><rect class="c c2c" x="754" y="82" rx="2" ry="2"/><rect class="c c2d" x="754" y="98" rx="2" ry="2"/><rect class="c c2e" x="770" y="2" rx="2" ry="2"/><rect class="c c2f" x="770" y="18" rx="2" ry="2"/><rect class="c c2g" x="770" y="34" rx="2" ry="2"/><rect class="c c2h" x="770" y="50" rx="2" ry="2"/><rect class="c c2i" x="770" y="66" rx="2" ry="2"/><rect class="c c2j" x="770" y="82" rx="2" ry="2"/><rect class="c c2k" x="770" y="98" rx="2" ry="2"/><rect class="c c2l" x="786" y="2" rx="2" ry="2"/><rect class="c c2m" x="786" y="18" rx="2" ry="2"/><rect class="c c2n" x="786" y="34" rx="2" ry="2"/><rect class="c c2o" x="786" y="50" rx="2" ry="2"/><rect class="c c2p" x="786" y="66" rx="2" ry="2"/><rect class="c c2q" x="786" y="82" rx="2" ry="2"/><rect class="c c2r" x="786" y="98" rx="2" ry="2"/><rect class="c c2s" x="802" y="2" rx="2" ry="2"/><rect class="c c2t" x="802" y="18" rx="2" ry="2"/><rect class="c c2u" x="802" y="34" rx="2" ry="2"/><rect class="c c2v" x="802" y="50" rx="2" ry="2"/><rect class="c c2w" x="802" y="66" rx="2" ry="2"/><rect class="c c2x" x="802" y="82" rx="2" ry="2"/><rect class="c c2y" x="802" y="98" rx="2" ry="2"/><rect class="c c2z" x="818" y="2" rx="2" ry="2"/><rect class="c c30" x="818" y="18" rx="2" ry="2"/><rect class="c c31" x="818" y="34" rx="2" ry="2"/><rect class="c c32" x="818" y="50" rx="2" ry="2"/><rect class="c c33" x="818" y="66" rx="2" ry="2"/><rect class="c c34" x="818" y="82" rx="2" ry="2"/><rect class="c c35" x="818" y="98" rx="2" ry="2"/><rect class="c" x="834" y="2" rx="2" ry="2"/><rect class="u u0" height="12" width="246.1" x="0.0" y="144"/><rect class="u u1" height="12" width="45.2" x="245.5" y="144"/><rect class="u u2" height="12" width="528.7" x="290.1" y="144"/><rect class="u u3" height="12" width="30.4" x="818.2" y="144"/><rect class="s s0" x="0.8" y="0.8" width="14.4" height="14.4" rx="4.5" ry="4.5"/><rect class="s s1" x="1.8" y="1.8" width="12.3" height="12.3" rx="4.1" ry="4.1"/><rect class="s s2" x="2.6" y="2.6" width="10.8" height="10.8" rx="3.6" ry="3.6"/><rect class="s s3" x="3.0" y="3.0" width="9.9" height="9.9" rx="3.3" ry="3.3"/></svg>