<svg viewBox="-16 -32 880 192" width="880" height="192" xmlns="http://www.w3.org/2000/svg"><desc>Generated with https://github.com/Platane/snk</desc><style>:root{--cb:#1b1f230a;--cs:purple;--ce:#161b22;--c0:#161b22;--c1:#01311f;--c2:#034525;--c3:#0f6d31;--c4:#00c647}.c{shape-rendering:geometricPrecision;fill:var(--ce);stroke-width:1px;stroke:var(--cb);animation:none 31700ms linear infinite;width:12px;height:12px}@keyframes c0{1.88%{fill:var(--c1)}1.9%,100%{fill:var(--ce)}}.c.c0{fill:var(--c1);animation-name:c0}@keyframes c1{12.92%{fill:var(--c1)}12.94%,100%{fill:var(--ce)}}.c.c1{fill:var(--c1);animation-name:c1}@keyframes c2{15.76%{fill:var(--c1)}15.78%,100%{fill:var(--ce)}}.c.c2{fill:var(--c1);animation-name:c2}@keyframes c3{15.45%{fill:var(--c1)}15.47%,100%{fill:var(--ce)}}.c.c3{fill:var(--c1);animation-name:c3}@keyframes c4{64.34%{fill:var(--c3)}64.36%,100%{fill:var(--ce)}}.c.c4{fill:var(--c3);animation-name:c4}@keyframes c5{40.68%{fill:var(--c2)}40.7%,100%{fill:var(--ce)}}.c.c5{fill:var(--c2);animation-name:c5}@keyframes c6{41%{fill:var(--c2)}41.02%,100%{fill:var(--ce)}}.c.c6{fill:var(--c2);animation-name:c6}@keyframes c7{85.48%{fill:var(--c4)}85.5%,100%{fill:var(--ce)}}.c.c7{fill:var(--c4);animation-name:c7}@keyframes c8{85.79%{fill:var(--c4)}85.81%,100%{fill:var(--ce)}}.c.c8{fill:var(--c4);animation-name:c8}@keyframes c9{88%{fill:var(--c4)}88.02%,100%{fill:var(--ce)}}.c.c9{fill:var(--c4);animation-name:c9}@keyframes ca{39.74%{fill:var(--c1)}39.76%,100%{fill:var(--ce)}}.c.ca{fill:var(--c1);animation-name:ca}@keyframes cb{40.05%{fill:var(--c2)}40.07%,100%{fill:var(--ce)}}.c.cb{fill:var(--c2);animation-name:cb}@keyframes cc{40.37%{fill:var(--c2)}40.39%,100%{fill:var(--ce)}}.c.cc{fill:var(--c2);animation-name:cc}@keyframes cd{65.29%{fill:var(--c3)}65.31%,100%{fill:var(--ce)}}.c.cd{fill:var(--c3);animation-name:cd}@keyframes ce{85.16%{fill:var(--c4)}85.18%,100%{fill:var(--ce)}}.c.ce{fill:var(--c4);animation-name:ce}@keyframes cf{84.85%{fill:var(--c3)}84.87%,100%{fill:var(--ce)}}.c.cf{fill:var(--c3);animation-name:cf}@keyframes cg{54.25%{fill:var(--c3)}54.27%,100%{fill:var(--ce)}}.c.cg{fill:var(--c3);animation-name:cg}@keyframes ch{53.93%{fill:var(--c2)}53.95%,100%{fill:var(--ce)}}.c.ch{fill:var(--c2);animation-name:ch}@keyframes ci{63.71%{fill:var(--c3)}63.73%,100%{fill:var(--ce)}}.c.ci{fill:var(--c3);animation-name:ci}@keyframes cj{63.4%{fill:var(--c3)}63.42%,100%{fill:var(--ce)}}.c.cj{fill:var(--c3);animation-name:cj}@keyframes ck{65.61%{fill:var(--c3)}65.63%,100%{fill:var(--ce)}}.c.ck{fill:var(--c3);animation-name:ck}@keyframes cl{70.34%{fill:var(--c3)}70.36%,100%{fill:var(--ce)}}.c.cl{fill:var(--c3);animation-name:cl}@keyframes cm{70.65%{fill:var(--c3)}70.67%,100%{fill:var(--ce)}}.c.cm{fill:var(--c3);animation-name:cm}@keyframes cn{54.56%{fill:var(--c3)}54.58%,100%{fill:var(--ce)}}.c.cn{fill:var(--c3);animation-name:cn}@keyframes co{58.67%{fill:var(--c3)}58.69%,100%{fill:var(--ce)}}.c.co{fill:var(--c3);animation-name:co}@keyframes cp{58.98%{fill:var(--c3)}59%,100%{fill:var(--ce)}}.c.cp{fill:var(--c3);animation-name:cp}@keyframes cq{63.08%{fill:var(--c3)}63.1%,100%{fill:var(--ce)}}.c.cq{fill:var(--c3);animation-name:cq}@keyframes cr{65.92%{fill:var(--c3)}65.94%,100%{fill:var(--ce)}}.c.cr{fill:var(--c3);animation-name:cr}@keyframes cs{70.02%{fill:var(--c3)}70.04%,100%{fill:var(--ce)}}.c.cs{fill:var(--c3);animation-name:cs}@keyframes ct{70.97%{fill:var(--c3)}70.99%,100%{fill:var(--ce)}}.c.ct{fill:var(--c3);animation-name:ct}@keyframes cu{54.88%{fill:var(--c3)}54.9%,100%{fill:var(--ce)}}.c.cu{fill:var(--c3);animation-name:cu}@keyframes cv{58.35%{fill:var(--c3)}58.37%,100%{fill:var(--ce)}}.c.cv{fill:var(--c3);animation-name:cv}@keyframes cw{59.3%{fill:var(--c3)}59.32%,100%{fill:var(--ce)}}.c.cw{fill:var(--c3);animation-name:cw}@keyframes cx{62.77%{fill:var(--c3)}62.79%,100%{fill:var(--ce)}}.c.cx{fill:var(--c3);animation-name:cx}@keyframes cy{66.24%{fill:var(--c3)}66.26%,100%{fill:var(--ce)}}.c.cy{fill:var(--c3);animation-name:cy}@keyframes cz{69.71%{fill:var(--c3)}69.73%,100%{fill:var(--ce)}}.c.cz{fill:var(--c3);animation-name:cz}@keyframes c10{71.28%{fill:var(--c3)}71.3%,100%{fill:var(--ce)}}.c.c10{fill:var(--c3);animation-name:c10}@keyframes c11{55.2%{fill:var(--c3)}55.22%,100%{fill:var(--ce)}}.c.c11{fill:var(--c3);animation-name:c11}@keyframes c12{58.03%{fill:var(--c3)}58.05%,100%{fill:var(--ce)}}.c.c12{fill:var(--c3);animation-name:c12}@keyframes c13{59.61%{fill:var(--c3)}59.63%,100%{fill:var(--ce)}}.c.c13{fill:var(--c3);animation-name:c13}@keyframes c14{62.45%{fill:var(--c3)}62.47%,100%{fill:var(--ce)}}.c.c14{fill:var(--c3);animation-name:c14}@keyframes c15{66.55%{fill:var(--c3)}66.57%,100%{fill:var(--ce)}}.c.c15{fill:var(--c3);animation-name:c15}@keyframes c16{69.39%{fill:var(--c3)}69.41%,100%{fill:var(--ce)}}.c.c16{fill:var(--c3);animation-name:c16}@keyframes c17{71.6%{fill:var(--c3)}71.62%,100%{fill:var(--ce)}}.c.c17{fill:var(--c3);animation-name:c17}@keyframes c18{55.51%{fill:var(--c3)}55.53%,100%{fill:var(--ce)}}.c.c18{fill:var(--c3);animation-name:c18}@keyframes c19{57.72%{fill:var(--c3)}57.74%,100%{fill:var(--ce)}}.c.c19{fill:var(--c3);animation-name:c19}@keyframes c1a{59.93%{fill:var(--c3)}59.95%,100%{fill:var(--ce)}}.c.c1a{fill:var(--c3);animation-name:c1a}@keyframes c1b{62.14%{fill:var(--c3)}62.16%,100%{fill:var(--ce)}}.c.c1b{fill:var(--c3);animation-name:c1b}@keyframes c1c{66.87%{fill:var(--c3)}66.89%,100%{fill:var(--ce)}}.c.c1c{fill:var(--c3);animation-name:c1c}@keyframes c1d{69.08%{fill:var(--c3)}69.1%,100%{fill:var(--ce)}}.c.c1d{fill:var(--c3);animation-name:c1d}@keyframes c1e{71.91%{fill:var(--c3)}71.93%,100%{fill:var(--ce)}}.c.c1e{fill:var(--c3);animation-name:c1e}@keyframes c1f{55.83%{fill:var(--c3)}55.85%,100%{fill:var(--ce)}}.c.c1f{fill:var(--c3);animation-name:c1f}@keyframes c1g{57.4%{fill:var(--c3)}57.42%,100%{fill:var(--ce)}}.c.c1g{fill:var(--c3);animation-name:c1g}@keyframes c1h{60.24%{fill:var(--c3)}60.26%,100%{fill:var(--ce)}}.c.c1h{fill:var(--c3);animation-name:c1h}@keyframes c1i{61.82%{fill:var(--c3)}61.84%,100%{fill:var(--ce)}}.c.c1i{fill:var(--c3);animation-name:c1i}@keyframes c1j{67.18%{fill:var(--c3)}67.2%,100%{fill:var(--ce)}}.c.c1j{fill:var(--c3);animation-name:c1j}@keyframes c1k{68.76%{fill:var(--c3)}68.78%,100%{fill:var(--ce)}}.c.c1k{fill:var(--c3);animation-name:c1k}@keyframes c1l{72.23%{fill:var(--c3)}72.25%,100%{fill:var(--ce)}}.c.c1l{fill:var(--c3);animation-name:c1l}@keyframes c1m{56.14%{fill:var(--c3)}56.16%,100%{fill:var(--ce)}}.c.c1m{fill:var(--c3);animation-name:c1m}@keyframes c1n{57.09%{fill:var(--c3)}57.11%,100%{fill:var(--ce)}}.c.c1n{fill:var(--c3);animation-name:c1n}@keyframes c1o{60.56%{fill:var(--c3)}60.58%,100%{fill:var(--ce)}}.c.c1o{fill:var(--c3);animation-name:c1o}@keyframes c1p{61.5%{fill:var(--c3)}61.52%,100%{fill:var(--ce)}}.c.c1p{fill:var(--c3);animation-name:c1p}@keyframes c1q{67.5%{fill:var(--c3)}67.52%,100%{fill:var(--ce)}}.c.c1q{fill:var(--c3);animation-name:c1q}@keyframes c1r{68.44%{fill:var(--c3)}68.46%,100%{fill:var(--ce)}}.c.c1r{fill:var(--c3);animation-name:c1r}@keyframes c1s{72.55%{fill:var(--c3)}72.57%,100%{fill:var(--ce)}}.c.c1s{fill:var(--c3);animation-name:c1s}@keyframes c1t{56.46%{fill:var(--c3)}56.48%,100%{fill:var(--ce)}}.c.c1t{fill:var(--c3);animation-name:c1t}@keyframes c1u{56.77%{fill:var(--c3)}56.79%,100%{fill:var(--ce)}}.c.c1u{fill:var(--c3);animation-name:c1u}@keyframes c1v{60.87%{fill:var(--c3)}60.89%,100%{fill:var(--ce)}}.c.c1v{fill:var(--c3);animation-name:c1v}@keyframes c1w{61.19%{fill:var(--c3)}61.21%,100%{fill:var(--ce)}}.c.c1w{fill:var(--c3);animation-name:c1w}@keyframes c1x{67.81%{fill:var(--c3)}67.83%,100%{fill:var(--ce)}}.c.c1x{fill:var(--c3);animation-name:c1x}@keyframes c1y{68.13%{fill:var(--c3)}68.15%,100%{fill:var(--ce)}}.c.c1y{fill:var(--c3);animation-name:c1y}@keyframes c1z{72.86%{fill:var(--c3)}72.88%,100%{fill:var(--ce)}}.c.c1z{fill:var(--c3);animation-name:c1z}@keyframes c20{19.55%{fill:var(--c1)}19.57%,100%{fill:var(--ce)}}.c.c20{fill:var(--c1);animation-name:c20}@keyframes c21{31.22%{fill:var(--c1)}31.24%,100%{fill:var(--ce)}}.c.c21{fill:var(--c1);animation-name:c21}@keyframes c22{30.9%{fill:var(--c1)}30.92%,100%{fill:var(--ce)}}.c.c22{fill:var(--c1);animation-name:c22}@keyframes c23{30.59%{fill:var(--c1)}30.61%,100%{fill:var(--ce)}}.c.c23{fill:var(--c1);animation-name:c23}@keyframes c24{30.27%{fill:var(--c1)}30.29%,100%{fill:var(--ce)}}.c.c24{fill:var(--c1);animation-name:c24}@keyframes c25{29.96%{fill:var(--c1)}29.98%,100%{fill:var(--ce)}}.c.c25{fill:var(--c1);animation-name:c25}@keyframes c26{29.64%{fill:var(--c1)}29.66%,100%{fill:var(--ce)}}.c.c26{fill:var(--c1);animation-name:c26}@keyframes c27{19.86%{fill:var(--c1)}19.88%,100%{fill:var(--ce)}}.c.c27{fill:var(--c1);animation-name:c27}@keyframes c28{77.59%{fill:var(--c3)}77.61%,100%{fill:var(--ce)}}.c.c28{fill:var(--c3);animation-name:c28}@keyframes c29{77.91%{fill:var(--c3)}77.93%,100%{fill:var(--ce)}}.c.c29{fill:var(--c3);animation-name:c29}@keyframes c2a{74.44%{fill:var(--c3)}74.46%,100%{fill:var(--ce)}}.c.c2a{fill:var(--c3);animation-name:c2a}@keyframes c2b{74.12%{fill:var(--c3)}74.14%,100%{fill:var(--ce)}}.c.c2b{fill:var(--c3);animation-name:c2b}@keyframes c2c{73.81%{fill:var(--c3)}73.83%,100%{fill:var(--ce)}}.c.c2c{fill:var(--c3);animation-name:c2c}@keyframes c2d{29.33%{fill:var(--c1)}29.35%,100%{fill:var(--ce)}}.c.c2d{fill:var(--c1);animation-name:c2d}@keyframes c2e{20.18%{fill:var(--c1)}20.2%,100%{fill:var(--ce)}}.c.c2e{fill:var(--c1);animation-name:c2e}@keyframes c2f{32.48%{fill:var(--c1)}32.5%,100%{fill:var(--ce)}}.c.c2f{fill:var(--c1);animation-name:c2f}@keyframes c2g{34.06%{fill:var(--c1)}34.08%,100%{fill:var(--ce)}}.c.c2g{fill:var(--c1);animation-name:c2g}@keyframes c2h{74.75%{fill:var(--c3)}74.77%,100%{fill:var(--ce)}}.c.c2h{fill:var(--c3);animation-name:c2h}@keyframes c2i{27.12%{fill:var(--c1)}27.14%,100%{fill:var(--ce)}}.c.c2i{fill:var(--c1);animation-name:c2i}@keyframes c2j{27.43%{fill:var(--c1)}27.45%,100%{fill:var(--ce)}}.c.c2j{fill:var(--c1);animation-name:c2j}@keyframes c2k{46.68%{fill:var(--c2)}46.7%,100%{fill:var(--ce)}}.c.c2k{fill:var(--c2);animation-name:c2k}@keyframes c2l{20.49%{fill:var(--c1)}20.51%,100%{fill:var(--ce)}}.c.c2l{fill:var(--c1);animation-name:c2l}@keyframes c2m{32.8%{fill:var(--c1)}32.82%,100%{fill:var(--ce)}}.c.c2m{fill:var(--c1);animation-name:c2m}@keyframes c2n{33.74%{fill:var(--c1)}33.76%,100%{fill:var(--ce)}}.c.c2n{fill:var(--c1);animation-name:c2n}@keyframes c2o{75.07%{fill:var(--c3)}75.09%,100%{fill:var(--ce)}}.c.c2o{fill:var(--c3);animation-name:c2o}@keyframes c2p{26.8%{fill:var(--c1)}26.82%,100%{fill:var(--ce)}}.c.c2p{fill:var(--c1);animation-name:c2p}@keyframes c2q{27.75%{fill:var(--c1)}27.77%,100%{fill:var(--ce)}}.c.c2q{fill:var(--c1);animation-name:c2q}@keyframes c2r{28.07%{fill:var(--c1)}28.09%,100%{fill:var(--ce)}}.c.c2r{fill:var(--c1);animation-name:c2r}@keyframes c2s{20.81%{fill:var(--c1)}20.83%,100%{fill:var(--ce)}}.c.c2s{fill:var(--c1);animation-name:c2s}@keyframes c2t{33.11%{fill:var(--c1)}33.13%,100%{fill:var(--ce)}}.c.c2t{fill:var(--c1);animation-name:c2t}@keyframes c2u{33.43%{fill:var(--c1)}33.45%,100%{fill:var(--ce)}}.c.c2u{fill:var(--c1);animation-name:c2u}@keyframes c2v{75.38%{fill:var(--c3)}75.4%,100%{fill:var(--ce)}}.c.c2v{fill:var(--c3);animation-name:c2v}@keyframes c2w{26.49%{fill:var(--c1)}26.51%,100%{fill:var(--ce)}}.c.c2w{fill:var(--c1);animation-name:c2w}@keyframes c2x{26.17%{fill:var(--c1)}26.19%,100%{fill:var(--ce)}}.c.c2x{fill:var(--c1);animation-name:c2x}@keyframes c2y{25.86%{fill:var(--c1)}25.88%,100%{fill:var(--ce)}}.c.c2y{fill:var(--c1);animation-name:c2y}@keyframes c2z{21.13%{fill:var(--c1)}21.15%,100%{fill:var(--ce)}}.c.c2z{fill:var(--c1);animation-name:c2z}@keyframes c30{76.33%{fill:var(--c3)}76.35%,100%{fill:var(--ce)}}.c.c30{fill:var(--c3);animation-name:c30}@keyframes c31{76.02%{fill:var(--c3)}76.04%,100%{fill:var(--ce)}}.c.c31{fill:var(--c3);animation-name:c31}@keyframes c32{75.7%{fill:var(--c3)}75.72%,100%{fill:var(--ce)}}.c.c32{fill:var(--c3);animation-name:c32}@keyframes c33{79.8%{fill:var(--c3)}79.82%,100%{fill:var(--ce)}}.c.c33{fill:var(--c3);animation-name:c33}@keyframes c34{80.12%{fill:var(--c3)}80.14%,100%{fill:var(--ce)}}.c.c34{fill:var(--c3);animation-name:c34}@keyframes c35{25.54%{fill:var(--c1)}25.56%,100%{fill:var(--ce)}}.c.c35{fill:var(--c1);animation-name:c35}@keyframes c36{21.44%{fill:var(--c1)}21.46%,100%{fill:var(--ce)}}.c.c36{fill:var(--c1);animation-name:c36}@keyframes c37{22.39%{fill:var(--c1)}22.41%,100%{fill:var(--ce)}}.c.c37{fill:var(--c1);animation-name:c37}@keyframes c38{22.7%{fill:var(--c1)}22.72%,100%{fill:var(--ce)}}.c.c38{fill:var(--c1);animation-name:c38}@keyframes c39{23.65%{fill:var(--c1)}23.67%,100%{fill:var(--ce)}}.c.c39{fill:var(--c1);animation-name:c39}@keyframes c3a{23.96%{fill:var(--c1)}23.98%,100%{fill:var(--ce)}}.c.c3a{fill:var(--c1);animation-name:c3a}@keyframes c3b{24.91%{fill:var(--c1)}24.93%,100%{fill:var(--ce)}}.c.c3b{fill:var(--c1);animation-name:c3b}@keyframes c3c{25.23%{fill:var(--c1)}25.25%,100%{fill:var(--ce)}}.c.c3c{fill:var(--c1);animation-name:c3c}@keyframes c3d{21.76%{fill:var(--c1)}21.78%,100%{fill:var(--ce)}}.c.c3d{fill:var(--c1);animation-name:c3d}@keyframes c3e{22.07%{fill:var(--c1)}22.09%,100%{fill:var(--ce)}}.c.c3e{fill:var(--c1);animation-name:c3e}@keyframes c3f{23.02%{fill:var(--c1)}23.04%,100%{fill:var(--ce)}}.c.c3f{fill:var(--c1);animation-name:c3f}@keyframes c3g{23.33%{fill:var(--c1)}23.35%,100%{fill:var(--ce)}}.c.c3g{fill:var(--c1);animation-name:c3g}@keyframes c3h{24.28%{fill:var(--c1)}24.3%,100%{fill:var(--ce)}}.c.c3h{fill:var(--c1);animation-name:c3h}.u{transform-origin:0 0;transform:scale(0,1);animation:none linear 31700ms infinite}@keyframes u0{1.88%{transform:scale(0.000,1)}1.9%,12.92%{transform:scale(0.022,1)}12.94%,15.45%{transform:scale(0.044,1)}15.47%,15.76%{transform:scale(0.067,1)}15.78%,19.55%{transform:scale(0.089,1)}19.57%,19.86%{transform:scale(0.111,1)}19.88%,20.18%{transform:scale(0.133,1)}20.2%,20.49%{transform:scale(0.156,1)}20.51%,20.81%{transform:scale(0.178,1)}20.83%,21.13%{transform:scale(0.200,1)}21.15%,21.44%{transform:scale(0.222,1)}21.46%,21.76%{transform:scale(0.244,1)}21.78%,22.07%{transform:scale(0.267,1)}22.09%,22.39%{transform:scale(0.289,1)}22.41%,22.7%{transform:scale(0.311,1)}22.72%,23.02%{transform:scale(0.333,1)}23.04%,23.33%{transform:scale(0.356,1)}23.35%,23.65%{transform:scale(0.378,1)}23.67%,23.96%{transform:scale(0.400,1)}23.98%,24.28%{transform:scale(0.422,1)}24.3%,24.91%{transform:scale(0.444,1)}24.93%,25.23%{transform:scale(0.467,1)}25.25%,25.54%{transform:scale(0.489,1)}25.56%,25.86%{transform:scale(0.511,1)}25.88%,26.17%{transform:scale(0.533,1)}26.19%,26.49%{transform:scale(0.556,1)}26.51%,26.8%{transform:scale(0.578,1)}26.82%,27.12%{transform:scale(0.600,1)}27.14%,27.43%{transform:scale(0.622,1)}27.45%,27.75%{transform:scale(0.644,1)}27.77%,28.07%{transform:scale(0.667,1)}28.09%,29.33%{transform:scale(0.689,1)}29.35%,29.64%{transform:scale(0.711,1)}29.66%,29.96%{transform:scale(0.733,1)}29.98%,30.27%{transform:scale(0.756,1)}30.29%,30.59%{transform:scale(0.778,1)}30.61%,30.9%{transform:scale(0.800,1)}30.92%,31.22%{transform:scale(0.822,1)}31.24%,32.48%{transform:scale(0.844,1)}32.5%,32.8%{transform:scale(0.867,1)}32.82%,33.11%{transform:scale(0.889,1)}33.13%,33.43%{transform:scale(0.911,1)}33.45%,33.74%{transform:scale(0.933,1)}33.76%,34.06%{transform:scale(0.956,1)}34.08%,39.74%{transform:scale(0.978,1)}39.76%,100%{transform:scale(1.000,1)}}.u.u0{fill:var(--c1);animation-name:u0;transform-origin:0.0px 0}@keyframes u1{40.05%{transform:scale(0.000,1)}40.07%,40.37%{transform:scale(0.167,1)}40.39%,40.68%{transform:scale(0.333,1)}40.7%,41%{transform:scale(0.500,1)}41.02%,46.68%{transform:scale(0.667,1)}46.7%,53.93%{transform:scale(0.833,1)}53.95%,100%{transform:scale(1.000,1)}}.u.u1{fill:var(--c2);animation-name:u1;transform-origin:302.9px 0}@keyframes u2{54.25%{transform:scale(0.000,1)}54.27%,54.56%{transform:scale(0.014,1)}54.58%,54.88%{transform:scale(0.028,1)}54.9%,55.2%{transform:scale(0.042,1)}55.22%,55.51%{transform:scale(0.056,1)}55.53%,55.83%{transform:scale(0.070,1)}55.85%,56.14%{transform:scale(0.085,1)}56.16%,56.46%{transform:scale(0.099,1)}56.48%,56.77%{transform:scale(0.113,1)}56.79%,57.09%{transform:scale(0.127,1)}57.11%,57.4%{transform:scale(0.141,1)}57.42%,57.72%{transform:scale(0.155,1)}57.74%,58.03%{transform:scale(0.169,1)}58.05%,58.35%{transform:scale(0.183,1)}58.37%,58.67%{transform:scale(0.197,1)}58.69%,58.98%{transform:scale(0.211,1)}59%,59.3%{transform:scale(0.225,1)}59.32%,59.61%{transform:scale(0.239,1)}59.63%,59.93%{transform:scale(0.254,1)}59.95%,60.24%{transform:scale(0.268,1)}60.26%,60.56%{transform:scale(0.282,1)}60.58%,60.87%{transform:scale(0.296,1)}60.89%,61.19%{transform:scale(0.310,1)}61.21%,61.5%{transform:scale(0.324,1)}61.52%,61.82%{transform:scale(0.338,1)}61.84%,62.14%{transform:scale(0.352,1)}62.16%,62.45%{transform:scale(0.366,1)}62.47%,62.77%{transform:scale(0.380,1)}62.79%,63.08%{transform:scale(0.394,1)}63.1%,63.4%{transform:scale(0.408,1)}63.42%,63.71%{transform:scale(0.423,1)}63.73%,64.34%{transform:scale(0.437,1)}64.36%,65.29%{transform:scale(0.451,1)}65.31%,65.61%{transform:scale(0.465,1)}65.63%,65.92%{transform:scale(0.479,1)}65.94%,66.24%{transform:scale(0.493,1)}66.26%,66.55%{transform:scale(0.507,1)}66.57%,66.87%{transform:scale(0.521,1)}66.89%,67.18%{transform:scale(0.535,1)}67.2%,67.5%{transform:scale(0.549,1)}67.52%,67.81%{transform:scale(0.563,1)}67.83%,68.13%{transform:scale(0.577,1)}68.15%,68.44%{transform:scale(0.592,1)}68.46%,68.76%{transform:scale(0.606,1)}68.78%,69.08%{transform:scale(0.620,1)}69.1%,69.39%{transform:scale(0.634,1)}69.41%,69.71%{transform:scale(0.648,1)}69.73%,70.02%{transform:scale(0.662,1)}70.04%,70.34%{transform:scale(0.676,1)}70.36%,70.65%{transform:scale(0.690,1)}70.67%,70.97%{transform:scale(0.704,1)}70.99%,71.28%{transform:scale(0.718,1)}71.3%,71.6%{transform:scale(0.732,1)}71.62%,71.91%{transform:scale(0.746,1)}71.93%,72.23%{transform:scale(0.761,1)}72.25%,72.55%{transform:scale(0.775,1)}72.57%,72.86%{transform:scale(0.789,1)}72.88%,73.81%{transform:scale(0.803,1)}73.83%,74.12%{transform:scale(0.817,1)}74.14%,74.44%{transform:scale(0.831,1)}74.46%,74.75%{transform:scale(0.845,1)}74.77%,75.07%{transform:scale(0.859,1)}75.09%,75.38%{transform:scale(0.873,1)}75.4%,75.7%{transform:scale(0.887,1)}75.72%,76.02%{transform:scale(0.901,1)}76.04%,76.33%{transform:scale(0.915,1)}76.35%,77.59%{transform:scale(0.930,1)}77.61%,77.91%{transform:scale(0.944,1)}77.93%,79.8%{transform:scale(0.958,1)}79.82%,80.12%{transform:scale(0.972,1)}80.14%,84.85%{transform:scale(0.986,1)}84.87%,100%{transform:scale(1.000,1)}}.u.u2{fill:var(--c3);animation-name:u2;transform-origin:343.2px 0}@keyframes u3{85.16%{transform:scale(0.000,1)}85.18%,85.48%{transform:scale(0.250,1)}85.5%,85.79%{transform:scale(0.500,1)}85.81%,88%{transform:scale(0.750,1)}88.02%,100%{transform:scale(1.000,1)}}.u.u3{fill:var(--c4);animation-name:u3;transform-origin:821.1px 0}.s{shape-rendering:geometricPrecision;fill:var(--cs);animation:none linear 31700ms infinite}@keyframes s0{0%,99.68%{transform:translate(0px,-16px)}0.32%{transform:translate(0px,0px)}0.63%{transform:translate(16px,0px)}1.89%{transform:translate(16px,64px)}12.3%,41.32%{transform:translate(544px,64px)}12.93%{transform:translate(544px,96px)}13.25%{transform:translate(528px,96px)}13.56%{transform:translate(528px,80px)}13.88%{transform:translate(544px,80px)}15.14%{transform:translate(544px,16px)}15.46%,39.43%,53.31%{transform:translate(560px,16px)}16.09%,38.8%,52.68%{transform:translate(560px,-16px)}19.24%,49.53%{transform:translate(720px,-16px)}19.56%,31.55%{transform:translate(720px,0px)}21.77%{transform:translate(832px,0px)}22.08%{transform:translate(832px,16px)}22.4%{transform:translate(816px,16px)}22.71%{transform:translate(816px,32px)}23.03%{transform:translate(832px,32px)}23.34%{transform:translate(832px,48px)}23.66%{transform:translate(816px,48px)}23.97%{transform:translate(816px,64px)}24.29%{transform:translate(832px,64px)}24.61%{transform:translate(832px,80px)}24.92%{transform:translate(816px,80px)}25.24%{transform:translate(816px,96px)}25.87%{transform:translate(784px,96px)}26.5%{transform:translate(784px,64px)}27.13%{transform:translate(752px,64px)}27.44%{transform:translate(752px,80px)}27.76%{transform:translate(768px,80px)}28.39%{transform:translate(768px,112px)}29.02%{transform:translate(736px,112px)}29.34%,73.5%{transform:translate(736px,96px)}29.65%,47.32%{transform:translate(720px,96px)}32.18%{transform:translate(752px,0px)}32.49%{transform:translate(752px,16px)}33.12%{transform:translate(784px,16px)}33.44%{transform:translate(784px,32px)}34.07%{transform:translate(752px,32px)}35.02%{transform:translate(752px,-16px)}39.75%{transform:translate(576px,16px)}40.38%,64.98%{transform:translate(576px,48px)}40.69%,64.67%{transform:translate(560px,48px)}41.01%{transform:translate(560px,64px)}42.27%{transform:translate(544px,112px)}46.37%{transform:translate(752px,112px)}46.69%{transform:translate(752px,96px)}53.94%{transform:translate(592px,16px)}54.26%{transform:translate(592px,0px)}56.47%{transform:translate(704px,0px)}56.78%{transform:translate(704px,16px)}58.68%{transform:translate(608px,16px)}58.99%{transform:translate(608px,32px)}60.88%{transform:translate(704px,32px)}61.2%{transform:translate(704px,48px)}63.41%{transform:translate(592px,48px)}63.72%{transform:translate(592px,32px)}64.35%{transform:translate(560px,32px)}65.3%{transform:translate(576px,64px)}67.82%{transform:translate(704px,64px)}68.14%{transform:translate(704px,80px)}70.35%,84.23%{transform:translate(592px,80px)}70.66%,84.54%{transform:translate(592px,96px)}74.45%{transform:translate(736px,48px)}75.71%{transform:translate(800px,48px)}76.34%{transform:translate(800px,16px)}77.6%{transform:translate(736px,16px)}77.92%{transform:translate(736px,32px)}79.18%{transform:translate(800px,32px)}80.13%{transform:translate(800px,80px)}84.86%,86.12%{transform:translate(576px,96px)}85.17%{transform:translate(576px,80px)}85.49%{transform:translate(560px,80px)}85.8%{transform:translate(560px,96px)}88.01%{transform:translate(576px,0px)}98.11%{transform:translate(64px,0px)}98.42%{transform:translate(64px,-16px)}}.s.s0{transform:translate(0px,-16px);animation-name:s0}@keyframes s1{0%,99.68%{transform:translate(16px,-16px)}0.32%{transform:translate(0px,-16px)}0.63%{transform:translate(0px,0px)}0.95%{transform:translate(16px,0px)}2.21%{transform:translate(16px,64px)}12.62%,41.64%{transform:translate(544px,64px)}13.25%{transform:translate(544px,96px)}13.56%{transform:translate(528px,96px)}13.88%{transform:translate(528px,80px)}14.2%{transform:translate(544px,80px)}15.46%{transform:translate(544px,16px)}15.77%,39.75%,53.63%{transform:translate(560px,16px)}16.4%,39.12%,53%{transform:translate(560px,-16px)}19.56%,49.84%{transform:translate(720px,-16px)}19.87%,31.86%{transform:translate(720px,0px)}22.08%{transform:translate(832px,0px)}22.4%{transform:translate(832px,16px)}22.71%{transform:translate(816px,16px)}23.03%{transform:translate(816px,32px)}23.34%{transform:translate(832px,32px)}23.66%{transform:translate(832px,48px)}23.97%{transform:translate(816px,48px)}24.29%{transform:translate(816px,64px)}24.61%{transform:translate(832px,64px)}24.92%{transform:translate(832px,80px)}25.24%{transform:translate(816px,80px)}25.55%{transform:translate(816px,96px)}26.18%{transform:translate(784px,96px)}26.81%{transform:translate(784px,64px)}27.44%{transform:translate(752px,64px)}27.76%{transform:translate(752px,80px)}28.08%{transform:translate(768px,80px)}28.71%{transform:translate(768px,112px)}29.34%{transform:translate(736px,112px)}29.65%,73.82%{transform:translate(736px,96px)}29.97%,47.63%{transform:translate(720px,96px)}32.49%{transform:translate(752px,0px)}32.81%{transform:translate(752px,16px)}33.44%{transform:translate(784px,16px)}33.75%{transform:translate(784px,32px)}34.38%{transform:translate(752px,32px)}35.33%{transform:translate(752px,-16px)}40.06%{transform:translate(576px,16px)}40.69%,65.3%{transform:translate(576px,48px)}41.01%,64.98%{transform:translate(560px,48px)}41.32%{transform:translate(560px,64px)}42.59%{transform:translate(544px,112px)}46.69%{transform:translate(752px,112px)}47%{transform:translate(752px,96px)}54.26%{transform:translate(592px,16px)}54.57%{transform:translate(592px,0px)}56.78%{transform:translate(704px,0px)}57.1%{transform:translate(704px,16px)}58.99%{transform:translate(608px,16px)}59.31%{transform:translate(608px,32px)}61.2%{transform:translate(704px,32px)}61.51%{transform:translate(704px,48px)}63.72%{transform:translate(592px,48px)}64.04%{transform:translate(592px,32px)}64.67%{transform:translate(560px,32px)}65.62%{transform:translate(576px,64px)}68.14%{transform:translate(704px,64px)}68.45%{transform:translate(704px,80px)}70.66%,84.54%{transform:translate(592px,80px)}70.98%,84.86%{transform:translate(592px,96px)}74.76%{transform:translate(736px,48px)}76.03%{transform:translate(800px,48px)}76.66%{transform:translate(800px,16px)}77.92%{transform:translate(736px,16px)}78.23%{transform:translate(736px,32px)}79.5%{transform:translate(800px,32px)}80.44%{transform:translate(800px,80px)}85.17%,86.44%{transform:translate(576px,96px)}85.49%{transform:translate(576px,80px)}85.8%{transform:translate(560px,80px)}86.12%{transform:translate(560px,96px)}88.33%{transform:translate(576px,0px)}98.42%{transform:translate(64px,0px)}98.74%{transform:translate(64px,-16px)}}.s.s1{transform:translate(16px,-16px);animation-name:s1}@keyframes s2{0%,99.68%{transform:translate(32px,-16px)}0.63%{transform:translate(0px,-16px)}0.95%{transform:translate(0px,0px)}1.26%{transform:translate(16px,0px)}2.52%{transform:translate(16px,64px)}12.93%,41.96%{transform:translate(544px,64px)}13.56%{transform:translate(544px,96px)}13.88%{transform:translate(528px,96px)}14.2%{transform:translate(528px,80px)}14.51%{transform:translate(544px,80px)}15.77%{transform:translate(544px,16px)}16.09%,40.06%,53.94%{transform:translate(560px,16px)}16.72%,39.43%,53.31%{transform:translate(560px,-16px)}19.87%,50.16%{transform:translate(720px,-16px)}20.19%,32.18%{transform:translate(720px,0px)}22.4%{transform:translate(832px,0px)}22.71%{transform:translate(832px,16px)}23.03%{transform:translate(816px,16px)}23.34%{transform:translate(816px,32px)}23.66%{transform:translate(832px,32px)}23.97%{transform:translate(832px,48px)}24.29%{transform:translate(816px,48px)}24.61%{transform:translate(816px,64px)}24.92%{transform:translate(832px,64px)}25.24%{transform:translate(832px,80px)}25.55%{transform:translate(816px,80px)}25.87%{transform:translate(816px,96px)}26.5%{transform:translate(784px,96px)}27.13%{transform:translate(784px,64px)}27.76%{transform:translate(752px,64px)}28.08%{transform:translate(752px,80px)}28.39%{transform:translate(768px,80px)}29.02%{transform:translate(768px,112px)}29.65%{transform:translate(736px,112px)}29.97%,74.13%{transform:translate(736px,96px)}30.28%,47.95%{transform:translate(720px,96px)}32.81%{transform:translate(752px,0px)}33.12%{transform:translate(752px,16px)}33.75%{transform:translate(784px,16px)}34.07%{transform:translate(784px,32px)}34.7%{transform:translate(752px,32px)}35.65%{transform:translate(752px,-16px)}40.38%{transform:translate(576px,16px)}41.01%,65.62%{transform:translate(576px,48px)}41.32%,65.3%{transform:translate(560px,48px)}41.64%{transform:translate(560px,64px)}42.9%{transform:translate(544px,112px)}47%{transform:translate(752px,112px)}47.32%{transform:translate(752px,96px)}54.57%{transform:translate(592px,16px)}54.89%{transform:translate(592px,0px)}57.1%{transform:translate(704px,0px)}57.41%{transform:translate(704px,16px)}59.31%{transform:translate(608px,16px)}59.62%{transform:translate(608px,32px)}61.51%{transform:translate(704px,32px)}61.83%{transform:translate(704px,48px)}64.04%{transform:translate(592px,48px)}64.35%{transform:translate(592px,32px)}64.98%{transform:translate(560px,32px)}65.93%{transform:translate(576px,64px)}68.45%{transform:translate(704px,64px)}68.77%{transform:translate(704px,80px)}70.98%,84.86%{transform:translate(592px,80px)}71.29%,85.17%{transform:translate(592px,96px)}75.08%{transform:translate(736px,48px)}76.34%{transform:translate(800px,48px)}76.97%{transform:translate(800px,16px)}78.23%{transform:translate(736px,16px)}78.55%{transform:translate(736px,32px)}79.81%{transform:translate(800px,32px)}80.76%{transform:translate(800px,80px)}85.49%,86.75%{transform:translate(576px,96px)}85.8%{transform:translate(576px,80px)}86.12%{transform:translate(560px,80px)}86.44%{transform:translate(560px,96px)}88.64%{transform:translate(576px,0px)}98.74%{transform:translate(64px,0px)}99.05%{transform:translate(64px,-16px)}}.s.s2{transform:translate(32px,-16px);animation-name:s2}@keyframes s3{0%,99.68%{transform:translate(48px,-16px)}0.95%{transform:translate(0px,-16px)}1.26%{transform:translate(0px,0px)}1.58%{transform:translate(16px,0px)}2.84%{transform:translate(16px,64px)}13.25%,42.27%{transform:translate(544px,64px)}13.88%{transform:translate(544px,96px)}14.2%{transform:translate(528px,96px)}14.51%{transform:translate(528px,80px)}14.83%{transform:translate(544px,80px)}16.09%{transform:translate(544px,16px)}16.4%,40.38%,54.26%{transform:translate(560px,16px)}17.03%,39.75%,53.63%{transform:translate(560px,-16px)}20.19%,50.47%{transform:translate(720px,-16px)}20.5%,32.49%{transform:translate(720px,0px)}22.71%{transform:translate(832px,0px)}23.03%{transform:translate(832px,16px)}23.34%{transform:translate(816px,16px)}23.66%{transform:translate(816px,32px)}23.97%{transform:translate(832px,32px)}24.29%{transform:translate(832px,48px)}24.61%{transform:translate(816px,48px)}24.92%{transform:translate(816px,64px)}25.24%{transform:translate(832px,64px)}25.55%{transform:translate(832px,80px)}25.87%{transform:translate(816px,80px)}26.18%{transform:translate(816px,96px)}26.81%{transform:translate(784px,96px)}27.44%{transform:translate(784px,64px)}28.08%{transform:translate(752px,64px)}28.39%{transform:translate(752px,80px)}28.71%{transform:translate(768px,80px)}29.34%{transform:translate(768px,112px)}29.97%{transform:translate(736px,112px)}30.28%,74.45%{transform:translate(736px,96px)}30.6%,48.26%{transform:translate(720px,96px)}33.12%{transform:translate(752px,0px)}33.44%{transform:translate(752px,16px)}34.07%{transform:translate(784px,16px)}34.38%{transform:translate(784px,32px)}35.02%{transform:translate(752px,32px)}35.96%{transform:translate(752px,-16px)}40.69%{transform:translate(576px,16px)}41.32%,65.93%{transform:translate(576px,48px)}41.64%,65.62%{transform:translate(560px,48px)}41.96%{transform:translate(560px,64px)}43.22%{transform:translate(544px,112px)}47.32%{transform:translate(752px,112px)}47.63%{transform:translate(752px,96px)}54.89%{transform:translate(592px,16px)}55.21%{transform:translate(592px,0px)}57.41%{transform:translate(704px,0px)}57.73%{transform:translate(704px,16px)}59.62%{transform:translate(608px,16px)}59.94%{transform:translate(608px,32px)}61.83%{transform:translate(704px,32px)}62.15%{transform:translate(704px,48px)}64.35%{transform:translate(592px,48px)}64.67%{transform:translate(592px,32px)}65.3%{transform:translate(560px,32px)}66.25%{transform:translate(576px,64px)}68.77%{transform:translate(704px,64px)}69.09%{transform:translate(704px,80px)}71.29%,85.17%{transform:translate(592px,80px)}71.61%,85.49%{transform:translate(592px,96px)}75.39%{transform:translate(736px,48px)}76.66%{transform:translate(800px,48px)}77.29%{transform:translate(800px,16px)}78.55%{transform:translate(736px,16px)}78.86%{transform:translate(736px,32px)}80.13%{transform:translate(800px,32px)}81.07%{transform:translate(800px,80px)}85.8%,87.07%{transform:translate(576px,96px)}86.12%{transform:translate(576px,80px)}86.44%{transform:translate(560px,80px)}86.75%{transform:translate(560px,96px)}88.96%{transform:translate(576px,0px)}99.05%{transform:translate(64px,0px)}99.37%{transform:translate(64px,-16px)}}.s.s3{transform:translate(48px,-16px);animation-name:s3}</style><rect class="c" x="2" y="2" rx="2" ry="2"/><rect class="c" x="2" y="18" rx="2" ry="2"/><rect class="c" x="2" y="34" rx="2" ry="2"/><rect class="c" x="2" y="50" rx="2" ry="2"/><rect class="c" x="2" y="66" rx="2" ry="2"/><rect class="c" x="2" y="82" rx="2" ry="2"/><rect class="c" x="2" y="98" rx="2" ry="2"/><rect class="c" x="18" y="2" rx="2" ry="2"/><rect class="c" x="18" y="18" rx="2" ry="2"/><rect class="c" x="18" y="34" rx="2" ry="2"/><rect class="c" x="18" y="50" rx="2" ry="2"/><rect class="c c0" x="18" y="66" rx="2" ry="2"/><rect class="c" x="18" y="82" rx="2" ry="2"/><rect class="c" x="18" y="98" rx="2" ry="2"/><rect class="c" x="34" y="2" rx="2" ry="2"/><rect class="c" x="34" y="18" rx="2" ry="2"/><rect class="c" x="34" y="34" rx="2" ry="2"/><rect class="c" x="34" y="50" rx="2" ry="2"/><rect class="c" x="34" y="66" rx="2" ry="2"/><rect class="c" x="34" y="82" rx="2" ry="2"/><rect class="c" x="34" y="98" rx="2" ry="2"/><rect class="c" x="50" y="2" rx="2" ry="2"/><rect class="c" x="50" y="18" rx="2" ry="2"/><rect class="c" x="50" y="34" rx="2" ry="2"/><rect class="c" x="50" y="50" rx="2" ry="2"/><rect class="c" x="50" y="66" rx="2" ry="2"/><rect class="c" x="50" y="82" rx="2" ry="2"/><rect class="c" x="50" y="98" rx="2" ry="2"/><rect class="c" x="66" y="2" rx="2" ry="2"/><rect class="c" x="66" y="18" rx="2" ry="2"/><rect class="c" x="66" y="34" rx="2" ry="2"/><rect class="c" x="66" y="50" rx="2" ry="2"/><rect class="c" x="66" y="66" rx="2" ry="2"/><rect class="c" x="66" y="82" rx="2" ry="2"/><rect class="c" x="66" y="98" rx="2" ry="2"/><rect class="c" x="82" y="2" rx="2" ry="2"/><rect class="c" x="82" y="18" rx="2" ry="2"/><rect class="c" x="82" y="34" rx="2" ry="2"/><rect class="c" x="82" y="50" rx="2" ry="2"/><rect class="c" x="82" y="66" rx="2" ry="2"/><rect class="c" x="82" y="82" rx="2" ry="2"/><rect class="c" x="82" y="98" rx="2" ry="2"/><rect class="c" x="98" y="2" rx="2" ry="2"/><rect class="c" x="98" y="18" rx="2" ry="2"/><rect class="c" x="98" y="34" rx="2" ry="2"/><rect class="c" x="98" y="50" rx="2" ry="2"/><rect class="c" x="98" y="66" rx="2" ry="2"/><rect class="c" x="98" y="82" rx="2" ry="2"/><rect class="c" x="98" y="98" rx="2" ry="2"/><rect class="c" x="114" y="2" rx="2" ry="2"/><rect class="c" x="114" y="18" rx="2" ry="2"/><rect class="c" x="114" y="34" rx="2" ry="2"/><rect class="c" x="114" y="50" rx="2" ry="2"/><rect class="c" x="114" y="66" rx="2" ry="2"/><rect class="c" x="114" y="82" rx="2" ry="2"/><rect class="c" x="114" y="98" rx="2" ry="2"/><rect class="c" x="130" y="2" rx="2" ry="2"/><rect class="c" x="130" y="18" rx="2" ry="2"/><rect class="c" x="130" y="34" rx="2" ry="2"/><rect class="c" x="130" y="50" rx="2" ry="2"/><rect class="c" x="130" y="66" rx="2" ry="2"/><rect class="c" x="130" y="82" rx="2" ry="2"/><rect class="c" x="130" y="98" rx="2" ry="2"/><rect class="c" x="146" y="2" rx="2" ry="2"/><rect class="c" x="146" y="18" rx="2" ry="2"/><rect class="c" x="146" y="34" rx="2" ry="2"/><rect class="c" x="146" y="50" rx="2" ry="2"/><rect class="c" x="146" y="66" rx="2" ry="2"/><rect class="c" x="146" y="82" rx="2" ry="2"/><rect class="c" x="146" y="98" rx="2" ry="2"/><rect class="c" x="162" y="2" rx="2" ry="2"/><rect class="c" x="162" y="18" rx="2" ry="2"/><rect class="c" x="162" y="34" rx="2" ry="2"/><rect class="c" x="162" y="50" rx="2" ry="2"/><rect class="c" x="162" y="66" rx="2" ry="2"/><rect class="c" x="162" y="82" rx="2" ry="2"/><rect class="c" x="162" y="98" rx="2" ry="2"/><rect class="c" x="178" y="2" rx="2" ry="2"/><rect class="c" x="178" y="18" rx="2" ry="2"/><rect class="c" x="178" y="34" rx="2" ry="2"/><rect class="c" x="178" y="50" rx="2" ry="2"/><rect class="c" x="178" y="66" rx="2" ry="2"/><rect class="c" x="178" y="82" rx="2" ry="2"/><rect class="c" x="178" y="98" rx="2" ry="2"/><rect class="c" x="194" y="2" rx="2" ry="2"/><rect class="c" x="194" y="18" rx="2" ry="2"/><rect class="c" x="194" y="34" rx="2" ry="2"/><rect class="c" x="194" y="50" rx="2" ry="2"/><rect class="c" x="194" y="66" rx="2" ry="2"/><rect class="c" x="194" y="82" rx="2" ry="2"/><rect class="c" x="194" y="98" rx="2" ry="2"/><rect class="c" x="210" y="2" rx="2" ry="2"/><rect class="c" x="210" y="18" rx="2" ry="2"/><rect class="c" x="210" y="34" rx="2" ry="2"/><rect class="c" x="210" y="50" rx="2" ry="2"/><rect class="c" x="210" y="66" rx="2" ry="2"/><rect class="c" x="210" y="82" rx="2" ry="2"/><rect class="c" x="210" y="98" rx="2" ry="2"/><rect class="c" x="226" y="2" rx="2" ry="2"/><rect class="c" x="226" y="18" rx="2" ry="2"/><rect class="c" x="226" y="34" rx="2" ry="2"/><rect class="c" x="226" y="50" rx="2" ry="2"/><rect class="c" x="226" y="66" rx="2" ry="2"/><rect class="c" x="226" y="82" rx="2" ry="2"/><rect class="c" x="226" y="98" rx="2" ry="2"/><rect class="c" x="242" y="2" rx="2" ry="2"/><rect class="c" x="242" y="18" rx="2" ry="2"/><rect class="c" x="242" y="34" rx="2" ry="2"/><rect class="c" x="242" y="50" rx="2" ry="2"/><rect class="c" x="242" y="66" rx="2" ry="2"/><rect class="c" x="242" y="82" rx="2" ry="2"/><rect class="c" x="242" y="98" rx="2" ry="2"/><rect class="c" x="258" y="2" rx="2" ry="2"/><rect class="c" x="258" y="18" rx="2" ry="2"/><rect class="c" x="258" y="34" rx="2" ry="2"/><rect class="c" x="258" y="50" rx="2" ry="2"/><rect class="c" x="258" y="66" rx="2" ry="2"/><rect class="c" x="258" y="82" rx="2" ry="2"/><rect class="c" x="258" y="98" rx="2" ry="2"/><rect class="c" x="274" y="2" rx="2" ry="2"/><rect class="c" x="274" y="18" rx="2" ry="2"/><rect class="c" x="274" y="34" rx="2" ry="2"/><rect class="c" x="274" y="50" rx="2" ry="2"/><rect class="c" x="274" y="66" rx="2" ry="2"/><rect class="c" x="274" y="82" rx="2" ry="2"/><rect class="c" x="274" y="98" rx="2" ry="2"/><rect class="c" x="290" y="2" rx="2" ry="2"/><rect class="c" x="290" y="18" rx="2" ry="2"/><rect class="c" x="290" y="34" rx="2" ry="2"/><rect class="c" x="290" y="50" rx="2" ry="2"/><rect class="c" x="290" y="66" rx="2" ry="2"/><rect class="c" x="290" y="82" rx="2" ry="2"/><rect class="c" x="290" y="98" rx="2" ry="2"/><rect class="c" x="306" y="2" rx="2" ry="2"/><rect class="c" x="306" y="18" rx="2" ry="2"/><rect class="c" x="306" y="34" rx="2" ry="2"/><rect class="c" x="306" y="50" rx="2" ry="2"/><rect class="c" x="306" y="66" rx="2" ry="2"/><rect class="c" x="306" y="82" rx="2" ry="2"/><rect class="c" x="306" y="98" rx="2" ry="2"/><rect class="c" x="322" y="2" rx="2" ry="2"/><rect class="c" x="322" y="18" rx="2" ry="2"/><rect class="c" x="322" y="34" rx="2" ry="2"/><rect class="c" x="322" y="50" rx="2" ry="2"/><rect class="c" x="322" y="66" rx="2" ry="2"/><rect class="c" x="322" y="82" rx="2" ry="2"/><rect class="c" x="322" y="98" rx="2" ry="2"/><rect class="c" x="338" y="2" rx="2" ry="2"/><rect class="c" x="338" y="18" rx="2" ry="2"/><rect class="c" x="338" y="34" rx="2" ry="2"/><rect class="c" x="338" y="50" rx="2" ry="2"/><rect class="c" x="338" y="66" rx="2" ry="2"/><rect class="c" x="338" y="82" rx="2" ry="2"/><rect class="c" x="338" y="98" rx="2" ry="2"/><rect class="c" x="354" y="2" rx="2" ry="2"/><rect class="c" x="354" y="18" rx="2" ry="2"/><rect class="c" x="354" y="34" rx="2" ry="2"/><rect class="c" x="354" y="50" rx="2" ry="2"/><rect class="c" x="354" y="66" rx="2" ry="2"/><rect class="c" x="354" y="82" rx="2" ry="2"/><rect class="c" x="354" y="98" rx="2" ry="2"/><rect class="c" x="370" y="2" rx="2" ry="2"/><rect class="c" x="370" y="18" rx="2" ry="2"/><rect class="c" x="370" y="34" rx="2" ry="2"/><rect class="c" x="370" y="50" rx="2" ry="2"/><rect class="c" x="370" y="66" rx="2" ry="2"/><rect class="c" x="370" y="82" rx="2" ry="2"/><rect class="c" x="370" y="98" rx="2" ry="2"/><rect class="c" x="386" y="2" rx="2" ry="2"/><rect class="c" x="386" y="18" rx="2" ry="2"/><rect class="c" x="386" y="34" rx="2" ry="2"/><rect class="c" x="386" y="50" rx="2" ry="2"/><rect class="c" x="386" y="66" rx="2" ry="2"/><rect class="c" x="386" y="82" rx="2" ry="2"/><rect class="c" x="386" y="98" rx="2" ry="2"/><rect class="c" x="402" y="2" rx="2" ry="2"/><rect class="c" x="402" y="18" rx="2" ry="2"/><rect class="c" x="402" y="34" rx="2" ry="2"/><rect class="c" x="402" y="50" rx="2" ry="2"/><rect class="c" x="402" y="66" rx="2" ry="2"/><rect class="c" x="402" y="82" rx="2" ry="2"/><rect class="c" x="402" y="98" rx="2" ry="2"/><rect class="c" x="418" y="2" rx="2" ry="2"/><rect class="c" x="418" y="18" rx="2" ry="2"/><rect class="c" x="418" y="34" rx="2" ry="2"/><rect class="c" x="418" y="50" rx="2" ry="2"/><rect class="c" x="418" y="66" rx="2" ry="2"/><rect class="c" x="418" y="82" rx="2" ry="2"/><rect class="c" x="418" y="98" rx="2" ry="2"/><rect class="c" x="434" y="2" rx="2" ry="2"/><rect class="c" x="434" y="18" rx="2" ry="2"/><rect class="c" x="434" y="34" rx="2" ry="2"/><rect class="c" x="434" y="50" rx="2" ry="2"/><rect class="c" x="434" y="66" rx="2" ry="2"/><rect class="c" x="434" y="82" rx="2" ry="2"/><rect class="c" x="434" y="98" rx="2" ry="2"/><rect class="c" x="450" y="2" rx="2" ry="2"/><rect class="c" x="450" y="18" rx="2" ry="2"/><rect class="c" x="450" y="34" rx="2" ry="2"/><rect class="c" x="450" y="50" rx="2" ry="2"/><rect class="c" x="450" y="66" rx="2" ry="2"/><rect class="c" x="450" y="82" rx="2" ry="2"/><rect class="c" x="450" y="98" rx="2" ry="2"/><rect class="c" x="466" y="2" rx="2" ry="2"/><rect class="c" x="466" y="18" rx="2" ry="2"/><rect class="c" x="466" y="34" rx="2" ry="2"/><rect class="c" x="466" y="50" rx="2" ry="2"/><rect class="c" x="466" y="66" rx="2" ry="2"/><rect class="c" x="466" y="82" rx="2" ry="2"/><rect class="c" x="466" y="98" rx="2" ry="2"/><rect class="c" x="482" y="2" rx="2" ry="2"/><rect class="c" x="482" y="18" rx="2" ry="2"/><rect class="c" x="482" y="34" rx="2" ry="2"/><rect class="c" x="482" y="50" rx="2" ry="2"/><rect class="c" x="482" y="66" rx="2" ry="2"/><rect class="c" x="482" y="82" rx="2" ry="2"/><rect class="c" x="482" y="98" rx="2" ry="2"/><rect class="c" x="498" y="2" rx="2" ry="2"/><rect class="c" x="498" y="18" rx="2" ry="2"/><rect class="c" x="498" y="34" rx="2" ry="2"/><rect class="c" x="498" y="50" rx="2" ry="2"/><rect class="c" x="498" y="66" rx="2" ry="2"/><rect class="c" x="498" y="82" rx="2" ry="2"/><rect class="c" x="498" y="98" rx="2" ry="2"/><rect class="c" x="514" y="2" rx="2" ry="2"/><rect class="c" x="514" y="18" rx="2" ry="2"/><rect class="c" x="514" y="34" rx="2" ry="2"/><rect class="c" x="514" y="50" rx="2" ry="2"/><rect class="c" x="514" y="66" rx="2" ry="2"/><rect class="c" x="514" y="82" rx="2" ry="2"/><rect class="c" x="514" y="98" rx="2" ry="2"/><rect class="c" x="530" y="2" rx="2" ry="2"/><rect class="c" x="530" y="18" rx="2" ry="2"/><rect class="c" x="530" y="34" rx="2" ry="2"/><rect class="c" x="530" y="50" rx="2" ry="2"/><rect class="c" x="530" y="66" rx="2" ry="2"/><rect class="c" x="530" y="82" rx="2" ry="2"/><rect class="c" x="530" y="98" rx="2" ry="2"/><rect class="c" x="546" y="2" rx="2" ry="2"/><rect class="c" x="546" y="18" rx="2" ry="2"/><rect class="c" x="546" y="34" rx="2" ry="2"/><rect class="c" x="546" y="50" rx="2" ry="2"/><rect class="c" x="546" y="66" rx="2" ry="2"/><rect class="c" x="546" y="82" rx="2" ry="2"/><rect class="c c1" x="546" y="98" rx="2" ry="2"/><rect class="c c2" x="562" y="2" rx="2" ry="2"/><rect class="c c3" x="562" y="18" rx="2" ry="2"/><rect class="c c4" x="562" y="34" rx="2" ry="2"/><rect class="c c5" x="562" y="50" rx="2" ry="2"/><rect class="c c6" x="562" y="66" rx="2" ry="2"/><rect class="c c7" x="562" y="82" rx="2" ry="2"/><rect class="c c8" x="562" y="98" rx="2" ry="2"/><rect class="c c9" x="578" y="2" rx="2" ry="2"/><rect class="c ca" x="578" y="18" rx="2" ry="2"/><rect class="c cb" x="578" y="34" rx="2" ry="2"/><rect class="c cc" x="578" y="50" rx="2" ry="2"/><rect class="c cd" x="578" y="66" rx="2" ry="2"/><rect class="c ce" x="578" y="82" rx="2" ry="2"/><rect class="c cf" x="578" y="98" rx="2" ry="2"/><rect class="c cg" x="594" y="2" rx="2" ry="2"/><rect class="c ch" x="594" y="18" rx="2" ry="2"/><rect class="c ci" x="594" y="34" rx="2" ry="2"/><rect class="c cj" x="594" y="50" rx="2" ry="2"/><rect class="c ck" x="594" y="66" rx="2" ry="2"/><rect class="c cl" x="594" y="82" rx="2" ry="2"/><rect class="c cm" x="594" y="98" rx="2" ry="2"/><rect class="c cn" x="610" y="2" rx="2" ry="2"/><rect class="c co" x="610" y="18" rx="2" ry="2"/><rect class="c cp" x="610" y="34" rx="2" ry="2"/><rect class="c cq" x="610" y="50" rx="2" ry="2"/><rect class="c cr" x="610" y="66" rx="2" ry="2"/><rect class="c cs" x="610" y="82" rx="2" ry="2"/><rect class="c ct" x="610" y="98" rx="2" ry="2"/><rect class="c cu" x="626" y="2" rx="2" ry="2"/><rect class="c cv" x="626" y="18" rx="2" ry="2"/><rect class="c cw" x="626" y="34" rx="2" ry="2"/><rect class="c cx" x="626" y="50" rx="2" ry="2"/><rect class="c cy" x="626" y="66" rx="2" ry="2"/><rect class="c cz" x="626" y="82" rx="2" ry="2"/><rect class="c c10" x="626" y="98" rx="2" ry="2"/><rect class="c c11" x="642" y="2" rx="2" ry="2"/><rect class="c c12" x="642" y="18" rx="2" ry="2"/><rect class="c c13" x="642" y="34" rx="2" ry="2"/><rect class="c c14" x="642" y="50" rx="2" ry="2"/><rect class="c c15" x="642" y="66" rx="2" ry="2"/><rect class="c c16" x="642" y="82" rx="2" ry="2"/><rect class="c c17" x="642" y="98" rx="2" ry="2"/><rect class="c c18" x="658" y="2" rx="2" ry="2"/><rect class="c c19" x="658" y="18" rx="2" ry="2"/><rect class="c c1a" x="658" y="34" rx="2" ry="2"/><rect class="c c1b" x="658" y="50" rx="2" ry="2"/><rect class="c c1c" x="658" y="66" rx="2" ry="2"/><rect class="c c1d" x="658" y="82" rx="2" ry="2"/><rect class="c c1e" x="658" y="98" rx="2" ry="2"/><rect class="c c1f" x="674" y="2" rx="2" ry="2"/><rect class="c c1g" x="674" y="18" rx="2" ry="2"/><rect class="c c1h" x="674" y="34" rx="2" ry="2"/><rect class="c c1i" x="674" y="50" rx="2" ry="2"/><rect class="c c1j" x="674" y="66" rx="2" ry="2"/><rect class="c c1k" x="674" y="82" rx="2" ry="2"/><rect class="c c1l" x="674" y="98" rx="2" ry="2"/><rect class="c c1m" x="690" y="2" rx="2" ry="2"/><rect class="c c1n" x="690" y="18" rx="2" ry="2"/><rect class="c c1o" x="690" y="34" rx="2" ry="2"/><rect class="c c1p" x="690" y="50" rx="2" ry="2"/><rect class="c c1q" x="690" y="66" rx="2" ry="2"/><rect class="c c1r" x="690" y="82" rx="2" ry="2"/><rect class="c c1s" x="690" y="98" rx="2" ry="2"/><rect class="c c1t" x="706" y="2" rx="2" ry="2"/><rect class="c c1u" x="706" y="18" rx="2" ry="2"/><rect class="c c1v" x="706" y="34" rx="2" ry="2"/><rect class="c c1w" x="706" y="50" rx="2" ry="2"/><rect class="c c1x" x="706" y="66" rx="2" ry="2"/><rect class="c c1y" x="706" y="82" rx="2" ry="2"/><rect class="c c1z" x="706" y="98" rx="2" ry="2"/><rect class="c c20" x="722" y="2" rx="2" ry="2"/><rect class="c c21" x="722" y="18" rx="2" ry="2"/><rect class="c c22" x="722" y="34" rx="2" ry="2"/><rect class="c c23" x="722" y="50" rx="2" ry="2"/><rect class="c c24" x="722" y="66" rx="2" ry="2"/><rect class="c c25" x="722" y="82" rx="2" ry="2"/><rect class="c c26" x="722" y="98" rx="2" ry="2"/><rect class="c c27" x="738" y="2" rx="2" ry="2"/><rect class="c c28" x="738" y="18" rx="2" ry="2"/><rect class="c c29" x="738" y="34" rx="2" ry="2"/><rect class="c c2a" x="738" y="50" rx="2" ry="2"/><rect class="c c2b" x="738" y="66" rx="2" ry="2"/><rect class="c c2c" x="738" y="82" rx="2" ry="2"/><rect class="c c2d" x="738" y="98" rx="2" ry="2"/><rect class="c c2e" x="754" y="2" rx="2" ry="2"/><rect class="c c2f" x="754" y="18" rx="2" ry="2"/><rect class="c c2g" x="754" y="34" rx="2" ry="2"/><rect class="c c2h" x="754" y="50" rx="2" ry="2"/><rect class="c c2i" x="754" y="66" rx="2" ry="2"/><rect class="c c2j" x="754" y="82" rx="2" ry="2"/><rect class="c c2k" x="754" y="98" rx="2" ry="2"/><rect class="c c2l" x="770" y="2" rx="2" ry="2"/><rect class="c c2m" x="770" y="18" rx="2" ry="2"/><rect class="c c2n" x="770" y="34" rx="2" ry="2"/><rect class="c c2o" x="770" y="50" rx="2" ry="2"/><rect class="c c2p" x="770" y="66" rx="2" ry="2"/><rect class="c c2q" x="770" y="82" rx="2" ry="2"/><rect class="c c2r" x="770" y="98" rx="2" ry="2"/><rect class="c c2s" x="786" y="2" rx="2" ry="2"/><rect class="c c2t" x="786" y="18" rx="2" ry="2"/><rect class="c c2u" x="786" y="34" rx="2" ry="2"/><rect class="c c2v" x="786" y="50" rx="2" ry="2"/><rect class="c c2w" x="786" y="66" rx="2" ry="2"/><rect class="c c2x" x="786" y="82" rx="2" ry="2"/><rect class="c c2y" x="786" y="98" rx="2" ry="2"/><rect class="c c2z" x="802" y="2" rx="2" ry="2"/><rect class="c c30" x="802" y="18" rx="2" ry="2"/><rect class="c c31" x="802" y="34" rx="2" ry="2"/><rect class="c c32" x="802" y="50" rx="2" ry="2"/><rect class="c c33" x="802" y="66" rx="2" ry="2"/><rect class="c c34" x="802" y="82" rx="2" ry="2"/><rect class="c c35" x="802" y="98" rx="2" ry="2"/><rect class="c c36" x="818" y="2" rx="2" ry="2"/><rect class="c c37" x="818" y="18" rx="2" ry="2"/><rect class="c c38" x="818" y="34" rx="2" ry="2"/><rect class="c c39" x="818" y="50" rx="2" ry="2"/><rect class="c c3a" x="818" y="66" rx="2" ry="2"/><rect class="c c3b" x="818" y="82" rx="2" ry="2"/><rect class="c c3c" x="818" y="98" rx="2" ry="2"/><rect class="c c3d" x="834" y="2" rx="2" ry="2"/><rect class="c c3e" x="834" y="18" rx="2" ry="2"/><rect class="c c3f" x="834" y="34" rx="2" ry="2"/><rect class="c c3g" x="834" y="50" rx="2" ry="2"/><rect class="c c3h" x="834" y="66" rx="2" ry="2"/><rect class="c" x="834" y="82" rx="2" ry="2"/><rect class="u u0" height="12" width="303.5" x="0.0" y="144"/><rect class="u u1" height="12" width="41.0" x="302.9" y="144"/><rect class="u u2" height="12" width="478.4" x="343.2" y="144"/><rect class="u u3" height="12" width="27.5" x="821.1" y="144"/><rect class="s s0" x="0.8" y="0.8" width="14.4" height="14.4" rx="4.5" ry="4.5"/><rect class="s s1" x="1.8" y="1.8" width="12.3" height="12.3" rx="4.1" ry="4.1"/><rect class="s s2" x="2.6" y="2.6" width="10.8" height="10.8" rx="3.6" ry="3.6"/><rect class="s s3" x="3.0" y="3.0" width="9.9" height="9.9" rx="3.3" ry="3.3"/></svg>