<svg viewBox="-16 -32 880 192" width="880" height="192" xmlns="http://www.w3.org/2000/svg"><desc>Generated with https://github.com/Platane/snk</desc><style>:root{--cb:#1b1f230a;--cs:purple;--ce:#161b22;--c0:#161b22;--c1:#01311f;--c2:#034525;--c3:#0f6d31;--c4:#00c647}.c{shape-rendering:geometricPrecision;fill:var(--ce);stroke-width:1px;stroke:var(--cb);animation:none 25500ms linear infinite;width:12px;height:12px}@keyframes c0{4.3%{fill:var(--c1)}4.32%,100%{fill:var(--ce)}}.c.c0{fill:var(--c1);animation-name:c0}@keyframes c1{18.03%{fill:var(--c1)}18.05%,100%{fill:var(--ce)}}.c.c1{fill:var(--c1);animation-name:c1}@keyframes c2{21.56%{fill:var(--c2)}21.58%,100%{fill:var(--ce)}}.c.c2{fill:var(--c2);animation-name:c2}@keyframes c3{21.17%{fill:var(--c1)}21.19%,100%{fill:var(--ce)}}.c.c3{fill:var(--c1);animation-name:c3}@keyframes c4{45.87%{fill:var(--c3)}45.89%,100%{fill:var(--ce)}}.c.c4{fill:var(--c3);animation-name:c4}@keyframes c5{23.52%{fill:var(--c2)}23.54%,100%{fill:var(--ce)}}.c.c5{fill:var(--c2);animation-name:c5}@keyframes c6{23.91%{fill:var(--c2)}23.93%,100%{fill:var(--ce)}}.c.c6{fill:var(--c2);animation-name:c6}@keyframes c7{79.99%{fill:var(--c4)}80.01%,100%{fill:var(--ce)}}.c.c7{fill:var(--c4);animation-name:c7}@keyframes c8{80.38%{fill:var(--c4)}80.4%,100%{fill:var(--ce)}}.c.c8{fill:var(--c4);animation-name:c8}@keyframes c9{83.13%{fill:var(--c4)}83.15%,100%{fill:var(--ce)}}.c.c9{fill:var(--c4);animation-name:c9}@keyframes ca{45.09%{fill:var(--c2)}45.11%,100%{fill:var(--ce)}}.c.ca{fill:var(--c2);animation-name:ca}@keyframes cb{45.48%{fill:var(--c2)}45.5%,100%{fill:var(--ce)}}.c.cb{fill:var(--c2);animation-name:cb}@keyframes cc{46.66%{fill:var(--c3)}46.68%,100%{fill:var(--ce)}}.c.cc{fill:var(--c3);animation-name:cc}@keyframes cd{77.64%{fill:var(--c3)}77.66%,100%{fill:var(--ce)}}.c.cd{fill:var(--c3);animation-name:cd}@keyframes ce{79.6%{fill:var(--c4)}79.62%,100%{fill:var(--ce)}}.c.ce{fill:var(--c4);animation-name:ce}@keyframes cf{79.21%{fill:var(--c3)}79.23%,100%{fill:var(--ce)}}.c.cf{fill:var(--c3);animation-name:cf}@keyframes cg{53.72%{fill:var(--c3)}53.74%,100%{fill:var(--ce)}}.c.cg{fill:var(--c3);animation-name:cg}@keyframes ch{54.11%{fill:var(--c3)}54.13%,100%{fill:var(--ce)}}.c.ch{fill:var(--c3);animation-name:ch}@keyframes ci{59.21%{fill:var(--c3)}59.23%,100%{fill:var(--ce)}}.c.ci{fill:var(--c3);animation-name:ci}@keyframes cj{47.05%{fill:var(--c3)}47.07%,100%{fill:var(--ce)}}.c.cj{fill:var(--c3);animation-name:cj}@keyframes ck{59.99%{fill:var(--c3)}60.01%,100%{fill:var(--ce)}}.c.ck{fill:var(--c3);animation-name:ck}@keyframes cl{65.87%{fill:var(--c3)}65.89%,100%{fill:var(--ce)}}.c.cl{fill:var(--c3);animation-name:cl}@keyframes cm{66.26%{fill:var(--c3)}66.28%,100%{fill:var(--ce)}}.c.cm{fill:var(--c3);animation-name:cm}@keyframes cn{53.32%{fill:var(--c3)}53.34%,100%{fill:var(--ce)}}.c.cn{fill:var(--c3);animation-name:cn}@keyframes co{54.5%{fill:var(--c3)}54.52%,100%{fill:var(--ce)}}.c.co{fill:var(--c3);animation-name:co}@keyframes cp{58.81%{fill:var(--c3)}58.83%,100%{fill:var(--ce)}}.c.cp{fill:var(--c3);animation-name:cp}@keyframes cq{47.44%{fill:var(--c3)}47.46%,100%{fill:var(--ce)}}.c.cq{fill:var(--c3);animation-name:cq}@keyframes cr{60.38%{fill:var(--c3)}60.4%,100%{fill:var(--ce)}}.c.cr{fill:var(--c3);animation-name:cr}@keyframes cs{65.48%{fill:var(--c3)}65.5%,100%{fill:var(--ce)}}.c.cs{fill:var(--c3);animation-name:cs}@keyframes ct{66.66%{fill:var(--c3)}66.68%,100%{fill:var(--ce)}}.c.ct{fill:var(--c3);animation-name:ct}@keyframes cu{52.93%{fill:var(--c3)}52.95%,100%{fill:var(--ce)}}.c.cu{fill:var(--c3);animation-name:cu}@keyframes cv{54.89%{fill:var(--c3)}54.91%,100%{fill:var(--ce)}}.c.cv{fill:var(--c3);animation-name:cv}@keyframes cw{58.42%{fill:var(--c3)}58.44%,100%{fill:var(--ce)}}.c.cw{fill:var(--c3);animation-name:cw}@keyframes cx{47.83%{fill:var(--c3)}47.85%,100%{fill:var(--ce)}}.c.cx{fill:var(--c3);animation-name:cx}@keyframes cy{60.77%{fill:var(--c3)}60.79%,100%{fill:var(--ce)}}.c.cy{fill:var(--c3);animation-name:cy}@keyframes cz{65.09%{fill:var(--c3)}65.11%,100%{fill:var(--ce)}}.c.cz{fill:var(--c3);animation-name:cz}@keyframes c10{67.05%{fill:var(--c3)}67.07%,100%{fill:var(--ce)}}.c.c10{fill:var(--c3);animation-name:c10}@keyframes c11{52.54%{fill:var(--c3)}52.56%,100%{fill:var(--ce)}}.c.c11{fill:var(--c3);animation-name:c11}@keyframes c12{55.28%{fill:var(--c3)}55.3%,100%{fill:var(--ce)}}.c.c12{fill:var(--c3);animation-name:c12}@keyframes c13{58.03%{fill:var(--c3)}58.05%,100%{fill:var(--ce)}}.c.c13{fill:var(--c3);animation-name:c13}@keyframes c14{48.23%{fill:var(--c3)}48.25%,100%{fill:var(--ce)}}.c.c14{fill:var(--c3);animation-name:c14}@keyframes c15{61.17%{fill:var(--c3)}61.19%,100%{fill:var(--ce)}}.c.c15{fill:var(--c3);animation-name:c15}@keyframes c16{64.7%{fill:var(--c3)}64.72%,100%{fill:var(--ce)}}.c.c16{fill:var(--c3);animation-name:c16}@keyframes c17{67.44%{fill:var(--c3)}67.46%,100%{fill:var(--ce)}}.c.c17{fill:var(--c3);animation-name:c17}@keyframes c18{52.15%{fill:var(--c3)}52.17%,100%{fill:var(--ce)}}.c.c18{fill:var(--c3);animation-name:c18}@keyframes c19{55.68%{fill:var(--c3)}55.7%,100%{fill:var(--ce)}}.c.c19{fill:var(--c3);animation-name:c19}@keyframes c1a{57.64%{fill:var(--c3)}57.66%,100%{fill:var(--ce)}}.c.c1a{fill:var(--c3);animation-name:c1a}@keyframes c1b{48.62%{fill:var(--c3)}48.64%,100%{fill:var(--ce)}}.c.c1b{fill:var(--c3);animation-name:c1b}@keyframes c1c{61.56%{fill:var(--c3)}61.58%,100%{fill:var(--ce)}}.c.c1c{fill:var(--c3);animation-name:c1c}@keyframes c1d{64.3%{fill:var(--c3)}64.32%,100%{fill:var(--ce)}}.c.c1d{fill:var(--c3);animation-name:c1d}@keyframes c1e{67.83%{fill:var(--c3)}67.85%,100%{fill:var(--ce)}}.c.c1e{fill:var(--c3);animation-name:c1e}@keyframes c1f{51.75%{fill:var(--c3)}51.77%,100%{fill:var(--ce)}}.c.c1f{fill:var(--c3);animation-name:c1f}@keyframes c1g{56.07%{fill:var(--c3)}56.09%,100%{fill:var(--ce)}}.c.c1g{fill:var(--c3);animation-name:c1g}@keyframes c1h{57.24%{fill:var(--c3)}57.26%,100%{fill:var(--ce)}}.c.c1h{fill:var(--c3);animation-name:c1h}@keyframes c1i{49.01%{fill:var(--c3)}49.03%,100%{fill:var(--ce)}}.c.c1i{fill:var(--c3);animation-name:c1i}@keyframes c1j{61.95%{fill:var(--c3)}61.97%,100%{fill:var(--ce)}}.c.c1j{fill:var(--c3);animation-name:c1j}@keyframes c1k{63.91%{fill:var(--c3)}63.93%,100%{fill:var(--ce)}}.c.c1k{fill:var(--c3);animation-name:c1k}@keyframes c1l{68.23%{fill:var(--c3)}68.25%,100%{fill:var(--ce)}}.c.c1l{fill:var(--c3);animation-name:c1l}@keyframes c1m{51.36%{fill:var(--c3)}51.38%,100%{fill:var(--ce)}}.c.c1m{fill:var(--c3);animation-name:c1m}@keyframes c1n{56.46%{fill:var(--c3)}56.48%,100%{fill:var(--ce)}}.c.c1n{fill:var(--c3);animation-name:c1n}@keyframes c1o{56.85%{fill:var(--c3)}56.87%,100%{fill:var(--ce)}}.c.c1o{fill:var(--c3);animation-name:c1o}@keyframes c1p{49.4%{fill:var(--c3)}49.42%,100%{fill:var(--ce)}}.c.c1p{fill:var(--c3);animation-name:c1p}@keyframes c1q{62.34%{fill:var(--c3)}62.36%,100%{fill:var(--ce)}}.c.c1q{fill:var(--c3);animation-name:c1q}@keyframes c1r{63.52%{fill:var(--c3)}63.54%,100%{fill:var(--ce)}}.c.c1r{fill:var(--c3);animation-name:c1r}@keyframes c1s{68.62%{fill:var(--c3)}68.64%,100%{fill:var(--ce)}}.c.c1s{fill:var(--c3);animation-name:c1s}@keyframes c1t{50.97%{fill:var(--c3)}50.99%,100%{fill:var(--ce)}}.c.c1t{fill:var(--c3);animation-name:c1t}@keyframes c1u{50.58%{fill:var(--c3)}50.6%,100%{fill:var(--ce)}}.c.c1u{fill:var(--c3);animation-name:c1u}@keyframes c1v{50.19%{fill:var(--c3)}50.21%,100%{fill:var(--ce)}}.c.c1v{fill:var(--c3);animation-name:c1v}@keyframes c1w{49.79%{fill:var(--c3)}49.81%,100%{fill:var(--ce)}}.c.c1w{fill:var(--c3);animation-name:c1w}@keyframes c1x{62.74%{fill:var(--c3)}62.76%,100%{fill:var(--ce)}}.c.c1x{fill:var(--c3);animation-name:c1x}@keyframes c1y{63.13%{fill:var(--c3)}63.15%,100%{fill:var(--ce)}}.c.c1y{fill:var(--c3);animation-name:c1y}@keyframes c1z{69.01%{fill:var(--c3)}69.03%,100%{fill:var(--ce)}}.c.c1z{fill:var(--c3);animation-name:c1z}@keyframes c20{34.89%{fill:var(--c2)}34.91%,100%{fill:var(--ce)}}.c.c20{fill:var(--c2);animation-name:c20}@keyframes c21{35.28%{fill:var(--c2)}35.3%,100%{fill:var(--ce)}}.c.c21{fill:var(--c2);animation-name:c21}@keyframes c22{35.68%{fill:var(--c2)}35.7%,100%{fill:var(--ce)}}.c.c22{fill:var(--c2);animation-name:c22}@keyframes c23{36.07%{fill:var(--c2)}36.09%,100%{fill:var(--ce)}}.c.c23{fill:var(--c2);animation-name:c23}@keyframes c24{36.46%{fill:var(--c2)}36.48%,100%{fill:var(--ce)}}.c.c24{fill:var(--c2);animation-name:c24}@keyframes c25{36.85%{fill:var(--c2)}36.87%,100%{fill:var(--ce)}}.c.c25{fill:var(--c2);animation-name:c25}@keyframes c26{30.19%{fill:var(--c2)}30.21%,100%{fill:var(--ce)}}.c.c26{fill:var(--c2);animation-name:c26}@keyframes c27{34.5%{fill:var(--c2)}34.52%,100%{fill:var(--ce)}}.c.c27{fill:var(--c2);animation-name:c27}@keyframes c28{72.54%{fill:var(--c3)}72.56%,100%{fill:var(--ce)}}.c.c28{fill:var(--c3);animation-name:c28}@keyframes c29{72.15%{fill:var(--c3)}72.17%,100%{fill:var(--ce)}}.c.c29{fill:var(--c3);animation-name:c29}@keyframes c2a{70.97%{fill:var(--c3)}70.99%,100%{fill:var(--ce)}}.c.c2a{fill:var(--c3);animation-name:c2a}@keyframes c2b{70.58%{fill:var(--c3)}70.6%,100%{fill:var(--ce)}}.c.c2b{fill:var(--c3);animation-name:c2b}@keyframes c2c{70.19%{fill:var(--c3)}70.21%,100%{fill:var(--ce)}}.c.c2c{fill:var(--c3);animation-name:c2c}@keyframes c2d{30.58%{fill:var(--c2)}30.6%,100%{fill:var(--ce)}}.c.c2d{fill:var(--c2);animation-name:c2d}@keyframes c2e{34.11%{fill:var(--c2)}34.13%,100%{fill:var(--ce)}}.c.c2e{fill:var(--c2);animation-name:c2e}@keyframes c2f{33.72%{fill:var(--c2)}33.74%,100%{fill:var(--ce)}}.c.c2f{fill:var(--c2);animation-name:c2f}@keyframes c2g{33.32%{fill:var(--c2)}33.34%,100%{fill:var(--ce)}}.c.c2g{fill:var(--c2);animation-name:c2g}@keyframes c2h{71.36%{fill:var(--c3)}71.38%,100%{fill:var(--ce)}}.c.c2h{fill:var(--c3);animation-name:c2h}@keyframes c2i{31.75%{fill:var(--c2)}31.77%,100%{fill:var(--ce)}}.c.c2i{fill:var(--c2);animation-name:c2i}@keyframes c2j{31.36%{fill:var(--c2)}31.38%,100%{fill:var(--ce)}}.c.c2j{fill:var(--c2);animation-name:c2j}.u{transform-origin:0 0;transform:scale(0,1);animation:none linear 25500ms infinite}@keyframes u0{4.3%{transform:scale(0.000,1)}4.32%,18.03%{transform:scale(0.333,1)}18.05%,21.17%{transform:scale(0.667,1)}21.19%,100%{transform:scale(1.000,1)}}.u.u0{fill:var(--c1);animation-name:u0;transform-origin:0.0px 0}@keyframes u1{21.56%{transform:scale(0.000,1)}21.58%,23.52%{transform:scale(0.053,1)}23.54%,23.91%{transform:scale(0.105,1)}23.93%,30.19%{transform:scale(0.158,1)}30.21%,30.58%{transform:scale(0.211,1)}30.6%,31.36%{transform:scale(0.263,1)}31.38%,31.75%{transform:scale(0.316,1)}31.77%,33.32%{transform:scale(0.368,1)}33.34%,33.72%{transform:scale(0.421,1)}33.74%,34.11%{transform:scale(0.474,1)}34.13%,34.5%{transform:scale(0.526,1)}34.52%,34.89%{transform:scale(0.579,1)}34.91%,35.28%{transform:scale(0.632,1)}35.3%,35.68%{transform:scale(0.684,1)}35.7%,36.07%{transform:scale(0.737,1)}36.09%,36.46%{transform:scale(0.789,1)}36.48%,36.85%{transform:scale(0.842,1)}36.87%,45.09%{transform:scale(0.895,1)}45.11%,45.48%{transform:scale(0.947,1)}45.5%,100%{transform:scale(1.000,1)}}.u.u1{fill:var(--c2);animation-name:u1;transform-origin:27.7px 0}@keyframes u2{45.87%{transform:scale(0.000,1)}45.89%,46.66%{transform:scale(0.015,1)}46.68%,47.05%{transform:scale(0.030,1)}47.07%,47.44%{transform:scale(0.045,1)}47.46%,47.83%{transform:scale(0.061,1)}47.85%,48.23%{transform:scale(0.076,1)}48.25%,48.62%{transform:scale(0.091,1)}48.64%,49.01%{transform:scale(0.106,1)}49.03%,49.4%{transform:scale(0.121,1)}49.42%,49.79%{transform:scale(0.136,1)}49.81%,50.19%{transform:scale(0.152,1)}50.21%,50.58%{transform:scale(0.167,1)}50.6%,50.97%{transform:scale(0.182,1)}50.99%,51.36%{transform:scale(0.197,1)}51.38%,51.75%{transform:scale(0.212,1)}51.77%,52.15%{transform:scale(0.227,1)}52.17%,52.54%{transform:scale(0.242,1)}52.56%,52.93%{transform:scale(0.258,1)}52.95%,53.32%{transform:scale(0.273,1)}53.34%,53.72%{transform:scale(0.288,1)}53.74%,54.11%{transform:scale(0.303,1)}54.13%,54.5%{transform:scale(0.318,1)}54.52%,54.89%{transform:scale(0.333,1)}54.91%,55.28%{transform:scale(0.348,1)}55.3%,55.68%{transform:scale(0.364,1)}55.7%,56.07%{transform:scale(0.379,1)}56.09%,56.46%{transform:scale(0.394,1)}56.48%,56.85%{transform:scale(0.409,1)}56.87%,57.24%{transform:scale(0.424,1)}57.26%,57.64%{transform:scale(0.439,1)}57.66%,58.03%{transform:scale(0.455,1)}58.05%,58.42%{transform:scale(0.470,1)}58.44%,58.81%{transform:scale(0.485,1)}58.83%,59.21%{transform:scale(0.500,1)}59.23%,59.99%{transform:scale(0.515,1)}60.01%,60.38%{transform:scale(0.530,1)}60.4%,60.77%{transform:scale(0.545,1)}60.79%,61.17%{transform:scale(0.561,1)}61.19%,61.56%{transform:scale(0.576,1)}61.58%,61.95%{transform:scale(0.591,1)}61.97%,62.34%{transform:scale(0.606,1)}62.36%,62.74%{transform:scale(0.621,1)}62.76%,63.13%{transform:scale(0.636,1)}63.15%,63.52%{transform:scale(0.652,1)}63.54%,63.91%{transform:scale(0.667,1)}63.93%,64.3%{transform:scale(0.682,1)}64.32%,64.7%{transform:scale(0.697,1)}64.72%,65.09%{transform:scale(0.712,1)}65.11%,65.48%{transform:scale(0.727,1)}65.5%,65.87%{transform:scale(0.742,1)}65.89%,66.26%{transform:scale(0.758,1)}66.28%,66.66%{transform:scale(0.773,1)}66.68%,67.05%{transform:scale(0.788,1)}67.07%,67.44%{transform:scale(0.803,1)}67.46%,67.83%{transform:scale(0.818,1)}67.85%,68.23%{transform:scale(0.833,1)}68.25%,68.62%{transform:scale(0.848,1)}68.64%,69.01%{transform:scale(0.864,1)}69.03%,70.19%{transform:scale(0.879,1)}70.21%,70.58%{transform:scale(0.894,1)}70.6%,70.97%{transform:scale(0.909,1)}70.99%,71.36%{transform:scale(0.924,1)}71.38%,72.15%{transform:scale(0.939,1)}72.17%,72.54%{transform:scale(0.955,1)}72.56%,77.64%{transform:scale(0.970,1)}77.66%,79.21%{transform:scale(0.985,1)}79.23%,100%{transform:scale(1.000,1)}}.u.u2{fill:var(--c3);animation-name:u2;transform-origin:202.8px 0}@keyframes u3{79.6%{transform:scale(0.000,1)}79.62%,79.99%{transform:scale(0.250,1)}80.01%,80.38%{transform:scale(0.500,1)}80.4%,83.13%{transform:scale(0.750,1)}83.15%,100%{transform:scale(1.000,1)}}.u.u3{fill:var(--c4);animation-name:u3;transform-origin:811.1px 0}.s{shape-rendering:geometricPrecision;fill:var(--cs);animation:none linear 25500ms infinite}@keyframes s0{0%,99.61%{transform:translate(0px,-16px)}0.39%{transform:translate(0px,0px)}2.75%{transform:translate(96px,0px)}4.31%{transform:translate(96px,64px)}17.25%,24.31%{transform:translate(624px,64px)}18.04%{transform:translate(624px,96px)}18.43%{transform:translate(608px,96px)}20.39%{transform:translate(608px,16px)}21.18%{transform:translate(640px,16px)}21.57%{transform:translate(640px,0px)}21.96%{transform:translate(624px,0px)}23.14%{transform:translate(624px,48px)}23.53%,46.27%{transform:translate(640px,48px)}23.92%{transform:translate(640px,64px)}25.49%,41.96%{transform:translate(624px,112px)}29.8%,37.65%{transform:translate(800px,112px)}30.2%{transform:translate(800px,96px)}30.98%{transform:translate(832px,96px)}31.76%{transform:translate(832px,64px)}32.16%{transform:translate(848px,64px)}32.94%{transform:translate(848px,32px)}33.33%,71.76%{transform:translate(832px,32px)}34.12%{transform:translate(832px,0px)}34.9%{transform:translate(800px,0px)}44.31%{transform:translate(624px,16px)}45.1%,76.47%{transform:translate(656px,16px)}45.49%{transform:translate(656px,32px)}45.88%{transform:translate(640px,32px)}49.8%{transform:translate(784px,48px)}50.98%{transform:translate(784px,0px)}53.73%{transform:translate(672px,0px)}54.12%{transform:translate(672px,16px)}56.47%{transform:translate(768px,16px)}56.86%{transform:translate(768px,32px)}59.22%{transform:translate(672px,32px)}60%,78.04%{transform:translate(672px,64px)}62.75%{transform:translate(784px,64px)}63.14%{transform:translate(784px,80px)}65.88%{transform:translate(672px,80px)}66.27%,78.82%{transform:translate(672px,96px)}69.8%{transform:translate(816px,96px)}70.98%{transform:translate(816px,48px)}71.37%{transform:translate(832px,48px)}72.16%{transform:translate(816px,32px)}72.55%{transform:translate(816px,16px)}77.65%{transform:translate(656px,64px)}79.22%,80.78%{transform:translate(656px,96px)}79.61%{transform:translate(656px,80px)}80%{transform:translate(640px,80px)}80.39%{transform:translate(640px,96px)}83.14%{transform:translate(656px,0px)}97.65%{transform:translate(64px,0px)}98.04%{transform:translate(64px,-16px)}}.s.s0{transform:translate(0px,-16px);animation-name:s0}@keyframes s1{0%,99.61%{transform:translate(16px,-16px)}0.39%{transform:translate(0px,-16px)}0.78%{transform:translate(0px,0px)}3.14%{transform:translate(96px,0px)}4.71%{transform:translate(96px,64px)}17.65%,24.71%{transform:translate(624px,64px)}18.43%{transform:translate(624px,96px)}18.82%{transform:translate(608px,96px)}20.78%{transform:translate(608px,16px)}21.57%{transform:translate(640px,16px)}21.96%{transform:translate(640px,0px)}22.35%{transform:translate(624px,0px)}23.53%{transform:translate(624px,48px)}23.92%,46.67%{transform:translate(640px,48px)}24.31%{transform:translate(640px,64px)}25.88%,42.35%{transform:translate(624px,112px)}30.2%,38.04%{transform:translate(800px,112px)}30.59%{transform:translate(800px,96px)}31.37%{transform:translate(832px,96px)}32.16%{transform:translate(832px,64px)}32.55%{transform:translate(848px,64px)}33.33%{transform:translate(848px,32px)}33.73%,72.16%{transform:translate(832px,32px)}34.51%{transform:translate(832px,0px)}35.29%{transform:translate(800px,0px)}44.71%{transform:translate(624px,16px)}45.49%,76.86%{transform:translate(656px,16px)}45.88%{transform:translate(656px,32px)}46.27%{transform:translate(640px,32px)}50.2%{transform:translate(784px,48px)}51.37%{transform:translate(784px,0px)}54.12%{transform:translate(672px,0px)}54.51%{transform:translate(672px,16px)}56.86%{transform:translate(768px,16px)}57.25%{transform:translate(768px,32px)}59.61%{transform:translate(672px,32px)}60.39%,78.43%{transform:translate(672px,64px)}63.14%{transform:translate(784px,64px)}63.53%{transform:translate(784px,80px)}66.27%{transform:translate(672px,80px)}66.67%,79.22%{transform:translate(672px,96px)}70.2%{transform:translate(816px,96px)}71.37%{transform:translate(816px,48px)}71.76%{transform:translate(832px,48px)}72.55%{transform:translate(816px,32px)}72.94%{transform:translate(816px,16px)}78.04%{transform:translate(656px,64px)}79.61%,81.18%{transform:translate(656px,96px)}80%{transform:translate(656px,80px)}80.39%{transform:translate(640px,80px)}80.78%{transform:translate(640px,96px)}83.53%{transform:translate(656px,0px)}98.04%{transform:translate(64px,0px)}98.43%{transform:translate(64px,-16px)}}.s.s1{transform:translate(16px,-16px);animation-name:s1}@keyframes s2{0%,99.61%{transform:translate(32px,-16px)}0.78%{transform:translate(0px,-16px)}1.18%{transform:translate(0px,0px)}3.53%{transform:translate(96px,0px)}5.1%{transform:translate(96px,64px)}18.04%,25.1%{transform:translate(624px,64px)}18.82%{transform:translate(624px,96px)}19.22%{transform:translate(608px,96px)}21.18%{transform:translate(608px,16px)}21.96%{transform:translate(640px,16px)}22.35%{transform:translate(640px,0px)}22.75%{transform:translate(624px,0px)}23.92%{transform:translate(624px,48px)}24.31%,47.06%{transform:translate(640px,48px)}24.71%{transform:translate(640px,64px)}26.27%,42.75%{transform:translate(624px,112px)}30.59%,38.43%{transform:translate(800px,112px)}30.98%{transform:translate(800px,96px)}31.76%{transform:translate(832px,96px)}32.55%{transform:translate(832px,64px)}32.94%{transform:translate(848px,64px)}33.73%{transform:translate(848px,32px)}34.12%,72.55%{transform:translate(832px,32px)}34.9%{transform:translate(832px,0px)}35.69%{transform:translate(800px,0px)}45.1%{transform:translate(624px,16px)}45.88%,77.25%{transform:translate(656px,16px)}46.27%{transform:translate(656px,32px)}46.67%{transform:translate(640px,32px)}50.59%{transform:translate(784px,48px)}51.76%{transform:translate(784px,0px)}54.51%{transform:translate(672px,0px)}54.9%{transform:translate(672px,16px)}57.25%{transform:translate(768px,16px)}57.65%{transform:translate(768px,32px)}60%{transform:translate(672px,32px)}60.78%,78.82%{transform:translate(672px,64px)}63.53%{transform:translate(784px,64px)}63.92%{transform:translate(784px,80px)}66.67%{transform:translate(672px,80px)}67.06%,79.61%{transform:translate(672px,96px)}70.59%{transform:translate(816px,96px)}71.76%{transform:translate(816px,48px)}72.16%{transform:translate(832px,48px)}72.94%{transform:translate(816px,32px)}73.33%{transform:translate(816px,16px)}78.43%{transform:translate(656px,64px)}80%,81.57%{transform:translate(656px,96px)}80.39%{transform:translate(656px,80px)}80.78%{transform:translate(640px,80px)}81.18%{transform:translate(640px,96px)}83.92%{transform:translate(656px,0px)}98.43%{transform:translate(64px,0px)}98.82%{transform:translate(64px,-16px)}}.s.s2{transform:translate(32px,-16px);animation-name:s2}@keyframes s3{0%,99.61%{transform:translate(48px,-16px)}1.18%{transform:translate(0px,-16px)}1.57%{transform:translate(0px,0px)}3.92%{transform:translate(96px,0px)}5.49%{transform:translate(96px,64px)}18.43%,25.49%{transform:translate(624px,64px)}19.22%{transform:translate(624px,96px)}19.61%{transform:translate(608px,96px)}21.57%{transform:translate(608px,16px)}22.35%{transform:translate(640px,16px)}22.75%{transform:translate(640px,0px)}23.14%{transform:translate(624px,0px)}24.31%{transform:translate(624px,48px)}24.71%,47.45%{transform:translate(640px,48px)}25.1%{transform:translate(640px,64px)}26.67%,43.14%{transform:translate(624px,112px)}30.98%,38.82%{transform:translate(800px,112px)}31.37%{transform:translate(800px,96px)}32.16%{transform:translate(832px,96px)}32.94%{transform:translate(832px,64px)}33.33%{transform:translate(848px,64px)}34.12%{transform:translate(848px,32px)}34.51%,72.94%{transform:translate(832px,32px)}35.29%{transform:translate(832px,0px)}36.08%{transform:translate(800px,0px)}45.49%{transform:translate(624px,16px)}46.27%,77.65%{transform:translate(656px,16px)}46.67%{transform:translate(656px,32px)}47.06%{transform:translate(640px,32px)}50.98%{transform:translate(784px,48px)}52.16%{transform:translate(784px,0px)}54.9%{transform:translate(672px,0px)}55.29%{transform:translate(672px,16px)}57.65%{transform:translate(768px,16px)}58.04%{transform:translate(768px,32px)}60.39%{transform:translate(672px,32px)}61.18%,79.22%{transform:translate(672px,64px)}63.92%{transform:translate(784px,64px)}64.31%{transform:translate(784px,80px)}67.06%{transform:translate(672px,80px)}67.45%,80%{transform:translate(672px,96px)}70.98%{transform:translate(816px,96px)}72.16%{transform:translate(816px,48px)}72.55%{transform:translate(832px,48px)}73.33%{transform:translate(816px,32px)}73.73%{transform:translate(816px,16px)}78.82%{transform:translate(656px,64px)}80.39%,81.96%{transform:translate(656px,96px)}80.78%{transform:translate(656px,80px)}81.18%{transform:translate(640px,80px)}81.57%{transform:translate(640px,96px)}84.31%{transform:translate(656px,0px)}98.82%{transform:translate(64px,0px)}99.22%{transform:translate(64px,-16px)}}.s.s3{transform:translate(48px,-16px);animation-name:s3}</style><rect class="c" x="2" y="2" rx="2" ry="2"/><rect class="c" x="2" y="18" rx="2" ry="2"/><rect class="c" x="2" y="34" rx="2" ry="2"/><rect class="c" x="2" y="50" rx="2" ry="2"/><rect class="c" x="2" y="66" rx="2" ry="2"/><rect class="c" x="2" y="82" rx="2" ry="2"/><rect class="c" x="2" y="98" rx="2" ry="2"/><rect class="c" x="18" y="2" rx="2" ry="2"/><rect class="c" x="18" y="18" rx="2" ry="2"/><rect class="c" x="18" y="34" rx="2" ry="2"/><rect class="c" x="18" y="50" rx="2" ry="2"/><rect class="c" x="18" y="66" rx="2" ry="2"/><rect class="c" x="18" y="82" rx="2" ry="2"/><rect class="c" x="18" y="98" rx="2" ry="2"/><rect class="c" x="34" y="2" rx="2" ry="2"/><rect class="c" x="34" y="18" rx="2" ry="2"/><rect class="c" x="34" y="34" rx="2" ry="2"/><rect class="c" x="34" y="50" rx="2" ry="2"/><rect class="c" x="34" y="66" rx="2" ry="2"/><rect class="c" x="34" y="82" rx="2" ry="2"/><rect class="c" x="34" y="98" rx="2" ry="2"/><rect class="c" x="50" y="2" rx="2" ry="2"/><rect class="c" x="50" y="18" rx="2" ry="2"/><rect class="c" x="50" y="34" rx="2" ry="2"/><rect class="c" x="50" y="50" rx="2" ry="2"/><rect class="c" x="50" y="66" rx="2" ry="2"/><rect class="c" x="50" y="82" rx="2" ry="2"/><rect class="c" x="50" y="98" rx="2" ry="2"/><rect class="c" x="66" y="2" rx="2" ry="2"/><rect class="c" x="66" y="18" rx="2" ry="2"/><rect class="c" x="66" y="34" rx="2" ry="2"/><rect class="c" x="66" y="50" rx="2" ry="2"/><rect class="c" x="66" y="66" rx="2" ry="2"/><rect class="c" x="66" y="82" rx="2" ry="2"/><rect class="c" x="66" y="98" rx="2" ry="2"/><rect class="c" x="82" y="2" rx="2" ry="2"/><rect class="c" x="82" y="18" rx="2" ry="2"/><rect class="c" x="82" y="34" rx="2" ry="2"/><rect class="c" x="82" y="50" rx="2" ry="2"/><rect class="c" x="82" y="66" rx="2" ry="2"/><rect class="c" x="82" y="82" rx="2" ry="2"/><rect class="c" x="82" y="98" rx="2" ry="2"/><rect class="c" x="98" y="2" rx="2" ry="2"/><rect class="c" x="98" y="18" rx="2" ry="2"/><rect class="c" x="98" y="34" rx="2" ry="2"/><rect class="c" x="98" y="50" rx="2" ry="2"/><rect class="c c0" x="98" y="66" rx="2" ry="2"/><rect class="c" x="98" y="82" rx="2" ry="2"/><rect class="c" x="98" y="98" rx="2" ry="2"/><rect class="c" x="114" y="2" rx="2" ry="2"/><rect class="c" x="114" y="18" rx="2" ry="2"/><rect class="c" x="114" y="34" rx="2" ry="2"/><rect class="c" x="114" y="50" rx="2" ry="2"/><rect class="c" x="114" y="66" rx="2" ry="2"/><rect class="c" x="114" y="82" rx="2" ry="2"/><rect class="c" x="114" y="98" rx="2" ry="2"/><rect class="c" x="130" y="2" rx="2" ry="2"/><rect class="c" x="130" y="18" rx="2" ry="2"/><rect class="c" x="130" y="34" rx="2" ry="2"/><rect class="c" x="130" y="50" rx="2" ry="2"/><rect class="c" x="130" y="66" rx="2" ry="2"/><rect class="c" x="130" y="82" rx="2" ry="2"/><rect class="c" x="130" y="98" rx="2" ry="2"/><rect class="c" x="146" y="2" rx="2" ry="2"/><rect class="c" x="146" y="18" rx="2" ry="2"/><rect class="c" x="146" y="34" rx="2" ry="2"/><rect class="c" x="146" y="50" rx="2" ry="2"/><rect class="c" x="146" y="66" rx="2" ry="2"/><rect class="c" x="146" y="82" rx="2" ry="2"/><rect class="c" x="146" y="98" rx="2" ry="2"/><rect class="c" x="162" y="2" rx="2" ry="2"/><rect class="c" x="162" y="18" rx="2" ry="2"/><rect class="c" x="162" y="34" rx="2" ry="2"/><rect class="c" x="162" y="50" rx="2" ry="2"/><rect class="c" x="162" y="66" rx="2" ry="2"/><rect class="c" x="162" y="82" rx="2" ry="2"/><rect class="c" x="162" y="98" rx="2" ry="2"/><rect class="c" x="178" y="2" rx="2" ry="2"/><rect class="c" x="178" y="18" rx="2" ry="2"/><rect class="c" x="178" y="34" rx="2" ry="2"/><rect class="c" x="178" y="50" rx="2" ry="2"/><rect class="c" x="178" y="66" rx="2" ry="2"/><rect class="c" x="178" y="82" rx="2" ry="2"/><rect class="c" x="178" y="98" rx="2" ry="2"/><rect class="c" x="194" y="2" rx="2" ry="2"/><rect class="c" x="194" y="18" rx="2" ry="2"/><rect class="c" x="194" y="34" rx="2" ry="2"/><rect class="c" x="194" y="50" rx="2" ry="2"/><rect class="c" x="194" y="66" rx="2" ry="2"/><rect class="c" x="194" y="82" rx="2" ry="2"/><rect class="c" x="194" y="98" rx="2" ry="2"/><rect class="c" x="210" y="2" rx="2" ry="2"/><rect class="c" x="210" y="18" rx="2" ry="2"/><rect class="c" x="210" y="34" rx="2" ry="2"/><rect class="c" x="210" y="50" rx="2" ry="2"/><rect class="c" x="210" y="66" rx="2" ry="2"/><rect class="c" x="210" y="82" rx="2" ry="2"/><rect class="c" x="210" y="98" rx="2" ry="2"/><rect class="c" x="226" y="2" rx="2" ry="2"/><rect class="c" x="226" y="18" rx="2" ry="2"/><rect class="c" x="226" y="34" rx="2" ry="2"/><rect class="c" x="226" y="50" rx="2" ry="2"/><rect class="c" x="226" y="66" rx="2" ry="2"/><rect class="c" x="226" y="82" rx="2" ry="2"/><rect class="c" x="226" y="98" rx="2" ry="2"/><rect class="c" x="242" y="2" rx="2" ry="2"/><rect class="c" x="242" y="18" rx="2" ry="2"/><rect class="c" x="242" y="34" rx="2" ry="2"/><rect class="c" x="242" y="50" rx="2" ry="2"/><rect class="c" x="242" y="66" rx="2" ry="2"/><rect class="c" x="242" y="82" rx="2" ry="2"/><rect class="c" x="242" y="98" rx="2" ry="2"/><rect class="c" x="258" y="2" rx="2" ry="2"/><rect class="c" x="258" y="18" rx="2" ry="2"/><rect class="c" x="258" y="34" rx="2" ry="2"/><rect class="c" x="258" y="50" rx="2" ry="2"/><rect class="c" x="258" y="66" rx="2" ry="2"/><rect class="c" x="258" y="82" rx="2" ry="2"/><rect class="c" x="258" y="98" rx="2" ry="2"/><rect class="c" x="274" y="2" rx="2" ry="2"/><rect class="c" x="274" y="18" rx="2" ry="2"/><rect class="c" x="274" y="34" rx="2" ry="2"/><rect class="c" x="274" y="50" rx="2" ry="2"/><rect class="c" x="274" y="66" rx="2" ry="2"/><rect class="c" x="274" y="82" rx="2" ry="2"/><rect class="c" x="274" y="98" rx="2" ry="2"/><rect class="c" x="290" y="2" rx="2" ry="2"/><rect class="c" x="290" y="18" rx="2" ry="2"/><rect class="c" x="290" y="34" rx="2" ry="2"/><rect class="c" x="290" y="50" rx="2" ry="2"/><rect class="c" x="290" y="66" rx="2" ry="2"/><rect class="c" x="290" y="82" rx="2" ry="2"/><rect class="c" x="290" y="98" rx="2" ry="2"/><rect class="c" x="306" y="2" rx="2" ry="2"/><rect class="c" x="306" y="18" rx="2" ry="2"/><rect class="c" x="306" y="34" rx="2" ry="2"/><rect class="c" x="306" y="50" rx="2" ry="2"/><rect class="c" x="306" y="66" rx="2" ry="2"/><rect class="c" x="306" y="82" rx="2" ry="2"/><rect class="c" x="306" y="98" rx="2" ry="2"/><rect class="c" x="322" y="2" rx="2" ry="2"/><rect class="c" x="322" y="18" rx="2" ry="2"/><rect class="c" x="322" y="34" rx="2" ry="2"/><rect class="c" x="322" y="50" rx="2" ry="2"/><rect class="c" x="322" y="66" rx="2" ry="2"/><rect class="c" x="322" y="82" rx="2" ry="2"/><rect class="c" x="322" y="98" rx="2" ry="2"/><rect class="c" x="338" y="2" rx="2" ry="2"/><rect class="c" x="338" y="18" rx="2" ry="2"/><rect class="c" x="338" y="34" rx="2" ry="2"/><rect class="c" x="338" y="50" rx="2" ry="2"/><rect class="c" x="338" y="66" rx="2" ry="2"/><rect class="c" x="338" y="82" rx="2" ry="2"/><rect class="c" x="338" y="98" rx="2" ry="2"/><rect class="c" x="354" y="2" rx="2" ry="2"/><rect class="c" x="354" y="18" rx="2" ry="2"/><rect class="c" x="354" y="34" rx="2" ry="2"/><rect class="c" x="354" y="50" rx="2" ry="2"/><rect class="c" x="354" y="66" rx="2" ry="2"/><rect class="c" x="354" y="82" rx="2" ry="2"/><rect class="c" x="354" y="98" rx="2" ry="2"/><rect class="c" x="370" y="2" rx="2" ry="2"/><rect class="c" x="370" y="18" rx="2" ry="2"/><rect class="c" x="370" y="34" rx="2" ry="2"/><rect class="c" x="370" y="50" rx="2" ry="2"/><rect class="c" x="370" y="66" rx="2" ry="2"/><rect class="c" x="370" y="82" rx="2" ry="2"/><rect class="c" x="370" y="98" rx="2" ry="2"/><rect class="c" x="386" y="2" rx="2" ry="2"/><rect class="c" x="386" y="18" rx="2" ry="2"/><rect class="c" x="386" y="34" rx="2" ry="2"/><rect class="c" x="386" y="50" rx="2" ry="2"/><rect class="c" x="386" y="66" rx="2" ry="2"/><rect class="c" x="386" y="82" rx="2" ry="2"/><rect class="c" x="386" y="98" rx="2" ry="2"/><rect class="c" x="402" y="2" rx="2" ry="2"/><rect class="c" x="402" y="18" rx="2" ry="2"/><rect class="c" x="402" y="34" rx="2" ry="2"/><rect class="c" x="402" y="50" rx="2" ry="2"/><rect class="c" x="402" y="66" rx="2" ry="2"/><rect class="c" x="402" y="82" rx="2" ry="2"/><rect class="c" x="402" y="98" rx="2" ry="2"/><rect class="c" x="418" y="2" rx="2" ry="2"/><rect class="c" x="418" y="18" rx="2" ry="2"/><rect class="c" x="418" y="34" rx="2" ry="2"/><rect class="c" x="418" y="50" rx="2" ry="2"/><rect class="c" x="418" y="66" rx="2" ry="2"/><rect class="c" x="418" y="82" rx="2" ry="2"/><rect class="c" x="418" y="98" rx="2" ry="2"/><rect class="c" x="434" y="2" rx="2" ry="2"/><rect class="c" x="434" y="18" rx="2" ry="2"/><rect class="c" x="434" y="34" rx="2" ry="2"/><rect class="c" x="434" y="50" rx="2" ry="2"/><rect class="c" x="434" y="66" rx="2" ry="2"/><rect class="c" x="434" y="82" rx="2" ry="2"/><rect class="c" x="434" y="98" rx="2" ry="2"/><rect class="c" x="450" y="2" rx="2" ry="2"/><rect class="c" x="450" y="18" rx="2" ry="2"/><rect class="c" x="450" y="34" rx="2" ry="2"/><rect class="c" x="450" y="50" rx="2" ry="2"/><rect class="c" x="450" y="66" rx="2" ry="2"/><rect class="c" x="450" y="82" rx="2" ry="2"/><rect class="c" x="450" y="98" rx="2" ry="2"/><rect class="c" x="466" y="2" rx="2" ry="2"/><rect class="c" x="466" y="18" rx="2" ry="2"/><rect class="c" x="466" y="34" rx="2" ry="2"/><rect class="c" x="466" y="50" rx="2" ry="2"/><rect class="c" x="466" y="66" rx="2" ry="2"/><rect class="c" x="466" y="82" rx="2" ry="2"/><rect class="c" x="466" y="98" rx="2" ry="2"/><rect class="c" x="482" y="2" rx="2" ry="2"/><rect class="c" x="482" y="18" rx="2" ry="2"/><rect class="c" x="482" y="34" rx="2" ry="2"/><rect class="c" x="482" y="50" rx="2" ry="2"/><rect class="c" x="482" y="66" rx="2" ry="2"/><rect class="c" x="482" y="82" rx="2" ry="2"/><rect class="c" x="482" y="98" rx="2" ry="2"/><rect class="c" x="498" y="2" rx="2" ry="2"/><rect class="c" x="498" y="18" rx="2" ry="2"/><rect class="c" x="498" y="34" rx="2" ry="2"/><rect class="c" x="498" y="50" rx="2" ry="2"/><rect class="c" x="498" y="66" rx="2" ry="2"/><rect class="c" x="498" y="82" rx="2" ry="2"/><rect class="c" x="498" y="98" rx="2" ry="2"/><rect class="c" x="514" y="2" rx="2" ry="2"/><rect class="c" x="514" y="18" rx="2" ry="2"/><rect class="c" x="514" y="34" rx="2" ry="2"/><rect class="c" x="514" y="50" rx="2" ry="2"/><rect class="c" x="514" y="66" rx="2" ry="2"/><rect class="c" x="514" y="82" rx="2" ry="2"/><rect class="c" x="514" y="98" rx="2" ry="2"/><rect class="c" x="530" y="2" rx="2" ry="2"/><rect class="c" x="530" y="18" rx="2" ry="2"/><rect class="c" x="530" y="34" rx="2" ry="2"/><rect class="c" x="530" y="50" rx="2" ry="2"/><rect class="c" x="530" y="66" rx="2" ry="2"/><rect class="c" x="530" y="82" rx="2" ry="2"/><rect class="c" x="530" y="98" rx="2" ry="2"/><rect class="c" x="546" y="2" rx="2" ry="2"/><rect class="c" x="546" y="18" rx="2" ry="2"/><rect class="c" x="546" y="34" rx="2" ry="2"/><rect class="c" x="546" y="50" rx="2" ry="2"/><rect class="c" x="546" y="66" rx="2" ry="2"/><rect class="c" x="546" y="82" rx="2" ry="2"/><rect class="c" x="546" y="98" rx="2" ry="2"/><rect class="c" x="562" y="2" rx="2" ry="2"/><rect class="c" x="562" y="18" rx="2" ry="2"/><rect class="c" x="562" y="34" rx="2" ry="2"/><rect class="c" x="562" y="50" rx="2" ry="2"/><rect class="c" x="562" y="66" rx="2" ry="2"/><rect class="c" x="562" y="82" rx="2" ry="2"/><rect class="c" x="562" y="98" rx="2" ry="2"/><rect class="c" x="578" y="2" rx="2" ry="2"/><rect class="c" x="578" y="18" rx="2" ry="2"/><rect class="c" x="578" y="34" rx="2" ry="2"/><rect class="c" x="578" y="50" rx="2" ry="2"/><rect class="c" x="578" y="66" rx="2" ry="2"/><rect class="c" x="578" y="82" rx="2" ry="2"/><rect class="c" x="578" y="98" rx="2" ry="2"/><rect class="c" x="594" y="2" rx="2" ry="2"/><rect class="c" x="594" y="18" rx="2" ry="2"/><rect class="c" x="594" y="34" rx="2" ry="2"/><rect class="c" x="594" y="50" rx="2" ry="2"/><rect class="c" x="594" y="66" rx="2" ry="2"/><rect class="c" x="594" y="82" rx="2" ry="2"/><rect class="c" x="594" y="98" rx="2" ry="2"/><rect class="c" x="610" y="2" rx="2" ry="2"/><rect class="c" x="610" y="18" rx="2" ry="2"/><rect class="c" x="610" y="34" rx="2" ry="2"/><rect class="c" x="610" y="50" rx="2" ry="2"/><rect class="c" x="610" y="66" rx="2" ry="2"/><rect class="c" x="610" y="82" rx="2" ry="2"/><rect class="c" x="610" y="98" rx="2" ry="2"/><rect class="c" x="626" y="2" rx="2" ry="2"/><rect class="c" x="626" y="18" rx="2" ry="2"/><rect class="c" x="626" y="34" rx="2" ry="2"/><rect class="c" x="626" y="50" rx="2" ry="2"/><rect class="c" x="626" y="66" rx="2" ry="2"/><rect class="c" x="626" y="82" rx="2" ry="2"/><rect class="c c1" x="626" y="98" rx="2" ry="2"/><rect class="c c2" x="642" y="2" rx="2" ry="2"/><rect class="c c3" x="642" y="18" rx="2" ry="2"/><rect class="c c4" x="642" y="34" rx="2" ry="2"/><rect class="c c5" x="642" y="50" rx="2" ry="2"/><rect class="c c6" x="642" y="66" rx="2" ry="2"/><rect class="c c7" x="642" y="82" rx="2" ry="2"/><rect class="c c8" x="642" y="98" rx="2" ry="2"/><rect class="c c9" x="658" y="2" rx="2" ry="2"/><rect class="c ca" x="658" y="18" rx="2" ry="2"/><rect class="c cb" x="658" y="34" rx="2" ry="2"/><rect class="c cc" x="658" y="50" rx="2" ry="2"/><rect class="c cd" x="658" y="66" rx="2" ry="2"/><rect class="c ce" x="658" y="82" rx="2" ry="2"/><rect class="c cf" x="658" y="98" rx="2" ry="2"/><rect class="c cg" x="674" y="2" rx="2" ry="2"/><rect class="c ch" x="674" y="18" rx="2" ry="2"/><rect class="c ci" x="674" y="34" rx="2" ry="2"/><rect class="c cj" x="674" y="50" rx="2" ry="2"/><rect class="c ck" x="674" y="66" rx="2" ry="2"/><rect class="c cl" x="674" y="82" rx="2" ry="2"/><rect class="c cm" x="674" y="98" rx="2" ry="2"/><rect class="c cn" x="690" y="2" rx="2" ry="2"/><rect class="c co" x="690" y="18" rx="2" ry="2"/><rect class="c cp" x="690" y="34" rx="2" ry="2"/><rect class="c cq" x="690" y="50" rx="2" ry="2"/><rect class="c cr" x="690" y="66" rx="2" ry="2"/><rect class="c cs" x="690" y="82" rx="2" ry="2"/><rect class="c ct" x="690" y="98" rx="2" ry="2"/><rect class="c cu" x="706" y="2" rx="2" ry="2"/><rect class="c cv" x="706" y="18" rx="2" ry="2"/><rect class="c cw" x="706" y="34" rx="2" ry="2"/><rect class="c cx" x="706" y="50" rx="2" ry="2"/><rect class="c cy" x="706" y="66" rx="2" ry="2"/><rect class="c cz" x="706" y="82" rx="2" ry="2"/><rect class="c c10" x="706" y="98" rx="2" ry="2"/><rect class="c c11" x="722" y="2" rx="2" ry="2"/><rect class="c c12" x="722" y="18" rx="2" ry="2"/><rect class="c c13" x="722" y="34" rx="2" ry="2"/><rect class="c c14" x="722" y="50" rx="2" ry="2"/><rect class="c c15" x="722" y="66" rx="2" ry="2"/><rect class="c c16" x="722" y="82" rx="2" ry="2"/><rect class="c c17" x="722" y="98" rx="2" ry="2"/><rect class="c c18" x="738" y="2" rx="2" ry="2"/><rect class="c c19" x="738" y="18" rx="2" ry="2"/><rect class="c c1a" x="738" y="34" rx="2" ry="2"/><rect class="c c1b" x="738" y="50" rx="2" ry="2"/><rect class="c c1c" x="738" y="66" rx="2" ry="2"/><rect class="c c1d" x="738" y="82" rx="2" ry="2"/><rect class="c c1e" x="738" y="98" rx="2" ry="2"/><rect class="c c1f" x="754" y="2" rx="2" ry="2"/><rect class="c c1g" x="754" y="18" rx="2" ry="2"/><rect class="c c1h" x="754" y="34" rx="2" ry="2"/><rect class="c c1i" x="754" y="50" rx="2" ry="2"/><rect class="c c1j" x="754" y="66" rx="2" ry="2"/><rect class="c c1k" x="754" y="82" rx="2" ry="2"/><rect class="c c1l" x="754" y="98" rx="2" ry="2"/><rect class="c c1m" x="770" y="2" rx="2" ry="2"/><rect class="c c1n" x="770" y="18" rx="2" ry="2"/><rect class="c c1o" x="770" y="34" rx="2" ry="2"/><rect class="c c1p" x="770" y="50" rx="2" ry="2"/><rect class="c c1q" x="770" y="66" rx="2" ry="2"/><rect class="c c1r" x="770" y="82" rx="2" ry="2"/><rect class="c c1s" x="770" y="98" rx="2" ry="2"/><rect class="c c1t" x="786" y="2" rx="2" ry="2"/><rect class="c c1u" x="786" y="18" rx="2" ry="2"/><rect class="c c1v" x="786" y="34" rx="2" ry="2"/><rect class="c c1w" x="786" y="50" rx="2" ry="2"/><rect class="c c1x" x="786" y="66" rx="2" ry="2"/><rect class="c c1y" x="786" y="82" rx="2" ry="2"/><rect class="c c1z" x="786" y="98" rx="2" ry="2"/><rect class="c c20" x="802" y="2" rx="2" ry="2"/><rect class="c c21" x="802" y="18" rx="2" ry="2"/><rect class="c c22" x="802" y="34" rx="2" ry="2"/><rect class="c c23" x="802" y="50" rx="2" ry="2"/><rect class="c c24" x="802" y="66" rx="2" ry="2"/><rect class="c c25" x="802" y="82" rx="2" ry="2"/><rect class="c c26" x="802" y="98" rx="2" ry="2"/><rect class="c c27" x="818" y="2" rx="2" ry="2"/><rect class="c c28" x="818" y="18" rx="2" ry="2"/><rect class="c c29" x="818" y="34" rx="2" ry="2"/><rect class="c c2a" x="818" y="50" rx="2" ry="2"/><rect class="c c2b" x="818" y="66" rx="2" ry="2"/><rect class="c c2c" x="818" y="82" rx="2" ry="2"/><rect class="c c2d" x="818" y="98" rx="2" ry="2"/><rect class="c c2e" x="834" y="2" rx="2" ry="2"/><rect class="c c2f" x="834" y="18" rx="2" ry="2"/><rect class="c c2g" x="834" y="34" rx="2" ry="2"/><rect class="c c2h" x="834" y="50" rx="2" ry="2"/><rect class="c c2i" x="834" y="66" rx="2" ry="2"/><rect class="c c2j" x="834" y="82" rx="2" ry="2"/><rect class="c" x="834" y="98" rx="2" ry="2"/><rect class="u u0" height="12" width="28.3" x="0.0" y="144"/><rect class="u u1" height="12" width="175.7" x="27.7" y="144"/><rect class="u u2" height="12" width="608.9" x="202.8" y="144"/><rect class="u u3" height="12" width="37.5" x="811.1" y="144"/><rect class="s s0" x="0.8" y="0.8" width="14.4" height="14.4" rx="4.5" ry="4.5"/><rect class="s s1" x="1.8" y="1.8" width="12.3" height="12.3" rx="4.1" ry="4.1"/><rect class="s s2" x="2.6" y="2.6" width="10.8" height="10.8" rx="3.6" ry="3.6"/><rect class="s s3" x="3.0" y="3.0" width="9.9" height="9.9" rx="3.3" ry="3.3"/></svg>