<svg viewBox="-16 -32 880 192" width="880" height="192" xmlns="http://www.w3.org/2000/svg"><desc>Generated with https://github.com/Platane/snk</desc><style>:root{--cb:#1b1f230a;--cs:purple;--ce:#ebedf0;--c0:#ebedf0;--c1:#9be9a8;--c2:#40c463;--c3:#30a14e;--c4:#216e39}.c{shape-rendering:geometricPrecision;fill:var(--ce);stroke-width:1px;stroke:var(--cb);animation:none 31100ms linear infinite;width:12px;height:12px}@keyframes c0{1.92%{fill:var(--c1)}1.94%,100%{fill:var(--ce)}}.c.c0{fill:var(--c1);animation-name:c0}@keyframes c1{13.17%{fill:var(--c1)}13.19%,100%{fill:var(--ce)}}.c.c1{fill:var(--c1);animation-name:c1}@keyframes c2{16.07%{fill:var(--c1)}16.09%,100%{fill:var(--ce)}}.c.c2{fill:var(--c1);animation-name:c2}@keyframes c3{15.75%{fill:var(--c1)}15.77%,100%{fill:var(--ce)}}.c.c3{fill:var(--c1);animation-name:c3}@keyframes c4{63.66%{fill:var(--c3)}63.68%,100%{fill:var(--ce)}}.c.c4{fill:var(--c3);animation-name:c4}@keyframes c5{39.54%{fill:var(--c2)}39.56%,100%{fill:var(--ce)}}.c.c5{fill:var(--c2);animation-name:c5}@keyframes c6{39.86%{fill:var(--c2)}39.88%,100%{fill:var(--ce)}}.c.c6{fill:var(--c2);animation-name:c6}@keyframes c7{85.2%{fill:var(--c4)}85.22%,100%{fill:var(--ce)}}.c.c7{fill:var(--c4);animation-name:c7}@keyframes c8{85.52%{fill:var(--c4)}85.54%,100%{fill:var(--ce)}}.c.c8{fill:var(--c4);animation-name:c8}@keyframes c9{87.77%{fill:var(--c4)}87.79%,100%{fill:var(--ce)}}.c.c9{fill:var(--c4);animation-name:c9}@keyframes ca{38.58%{fill:var(--c1)}38.6%,100%{fill:var(--ce)}}.c.ca{fill:var(--c1);animation-name:ca}@keyframes cb{38.9%{fill:var(--c2)}38.92%,100%{fill:var(--ce)}}.c.cb{fill:var(--c2);animation-name:cb}@keyframes cc{39.22%{fill:var(--c2)}39.24%,100%{fill:var(--ce)}}.c.cc{fill:var(--c2);animation-name:cc}@keyframes cd{64.62%{fill:var(--c3)}64.64%,100%{fill:var(--ce)}}.c.cd{fill:var(--c3);animation-name:cd}@keyframes ce{84.88%{fill:var(--c4)}84.9%,100%{fill:var(--ce)}}.c.ce{fill:var(--c4);animation-name:ce}@keyframes cf{84.56%{fill:var(--c3)}84.58%,100%{fill:var(--ce)}}.c.cf{fill:var(--c3);animation-name:cf}@keyframes cg{53.37%{fill:var(--c3)}53.39%,100%{fill:var(--ce)}}.c.cg{fill:var(--c3);animation-name:cg}@keyframes ch{53.04%{fill:var(--c2)}53.06%,100%{fill:var(--ce)}}.c.ch{fill:var(--c2);animation-name:ch}@keyframes ci{63.01%{fill:var(--c3)}63.03%,100%{fill:var(--ce)}}.c.ci{fill:var(--c3);animation-name:ci}@keyframes cj{62.69%{fill:var(--c3)}62.71%,100%{fill:var(--ce)}}.c.cj{fill:var(--c3);animation-name:cj}@keyframes ck{64.94%{fill:var(--c3)}64.96%,100%{fill:var(--ce)}}.c.ck{fill:var(--c3);animation-name:ck}@keyframes cl{69.76%{fill:var(--c3)}69.78%,100%{fill:var(--ce)}}.c.cl{fill:var(--c3);animation-name:cl}@keyframes cm{70.09%{fill:var(--c3)}70.11%,100%{fill:var(--ce)}}.c.cm{fill:var(--c3);animation-name:cm}@keyframes cn{53.69%{fill:var(--c3)}53.71%,100%{fill:var(--ce)}}.c.cn{fill:var(--c3);animation-name:cn}@keyframes co{57.87%{fill:var(--c3)}57.89%,100%{fill:var(--ce)}}.c.co{fill:var(--c3);animation-name:co}@keyframes cp{58.19%{fill:var(--c3)}58.21%,100%{fill:var(--ce)}}.c.cp{fill:var(--c3);animation-name:cp}@keyframes cq{62.37%{fill:var(--c3)}62.39%,100%{fill:var(--ce)}}.c.cq{fill:var(--c3);animation-name:cq}@keyframes cr{65.26%{fill:var(--c3)}65.28%,100%{fill:var(--ce)}}.c.cr{fill:var(--c3);animation-name:cr}@keyframes cs{69.44%{fill:var(--c3)}69.46%,100%{fill:var(--ce)}}.c.cs{fill:var(--c3);animation-name:cs}@keyframes ct{70.41%{fill:var(--c3)}70.43%,100%{fill:var(--ce)}}.c.ct{fill:var(--c3);animation-name:ct}@keyframes cu{54.01%{fill:var(--c3)}54.03%,100%{fill:var(--ce)}}.c.cu{fill:var(--c3);animation-name:cu}@keyframes cv{57.55%{fill:var(--c3)}57.57%,100%{fill:var(--ce)}}.c.cv{fill:var(--c3);animation-name:cv}@keyframes cw{58.51%{fill:var(--c3)}58.53%,100%{fill:var(--ce)}}.c.cw{fill:var(--c3);animation-name:cw}@keyframes cx{62.05%{fill:var(--c3)}62.07%,100%{fill:var(--ce)}}.c.cx{fill:var(--c3);animation-name:cx}@keyframes cy{65.58%{fill:var(--c3)}65.6%,100%{fill:var(--ce)}}.c.cy{fill:var(--c3);animation-name:cy}@keyframes cz{69.12%{fill:var(--c3)}69.14%,100%{fill:var(--ce)}}.c.cz{fill:var(--c3);animation-name:cz}@keyframes c10{70.73%{fill:var(--c3)}70.75%,100%{fill:var(--ce)}}.c.c10{fill:var(--c3);animation-name:c10}@keyframes c11{54.33%{fill:var(--c3)}54.35%,100%{fill:var(--ce)}}.c.c11{fill:var(--c3);animation-name:c11}@keyframes c12{57.22%{fill:var(--c3)}57.24%,100%{fill:var(--ce)}}.c.c12{fill:var(--c3);animation-name:c12}@keyframes c13{58.83%{fill:var(--c3)}58.85%,100%{fill:var(--ce)}}.c.c13{fill:var(--c3);animation-name:c13}@keyframes c14{61.73%{fill:var(--c3)}61.75%,100%{fill:var(--ce)}}.c.c14{fill:var(--c3);animation-name:c14}@keyframes c15{65.91%{fill:var(--c3)}65.93%,100%{fill:var(--ce)}}.c.c15{fill:var(--c3);animation-name:c15}@keyframes c16{68.8%{fill:var(--c3)}68.82%,100%{fill:var(--ce)}}.c.c16{fill:var(--c3);animation-name:c16}@keyframes c17{71.05%{fill:var(--c3)}71.07%,100%{fill:var(--ce)}}.c.c17{fill:var(--c3);animation-name:c17}@keyframes c18{54.65%{fill:var(--c3)}54.67%,100%{fill:var(--ce)}}.c.c18{fill:var(--c3);animation-name:c18}@keyframes c19{56.9%{fill:var(--c3)}56.92%,100%{fill:var(--ce)}}.c.c19{fill:var(--c3);animation-name:c19}@keyframes c1a{59.15%{fill:var(--c3)}59.17%,100%{fill:var(--ce)}}.c.c1a{fill:var(--c3);animation-name:c1a}@keyframes c1b{61.4%{fill:var(--c3)}61.42%,100%{fill:var(--ce)}}.c.c1b{fill:var(--c3);animation-name:c1b}@keyframes c1c{66.23%{fill:var(--c3)}66.25%,100%{fill:var(--ce)}}.c.c1c{fill:var(--c3);animation-name:c1c}@keyframes c1d{68.48%{fill:var(--c3)}68.5%,100%{fill:var(--ce)}}.c.c1d{fill:var(--c3);animation-name:c1d}@keyframes c1e{71.37%{fill:var(--c3)}71.39%,100%{fill:var(--ce)}}.c.c1e{fill:var(--c3);animation-name:c1e}@keyframes c1f{54.97%{fill:var(--c3)}54.99%,100%{fill:var(--ce)}}.c.c1f{fill:var(--c3);animation-name:c1f}@keyframes c1g{56.58%{fill:var(--c3)}56.6%,100%{fill:var(--ce)}}.c.c1g{fill:var(--c3);animation-name:c1g}@keyframes c1h{59.48%{fill:var(--c3)}59.5%,100%{fill:var(--ce)}}.c.c1h{fill:var(--c3);animation-name:c1h}@keyframes c1i{61.08%{fill:var(--c3)}61.1%,100%{fill:var(--ce)}}.c.c1i{fill:var(--c3);animation-name:c1i}@keyframes c1j{66.55%{fill:var(--c3)}66.57%,100%{fill:var(--ce)}}.c.c1j{fill:var(--c3);animation-name:c1j}@keyframes c1k{68.16%{fill:var(--c3)}68.18%,100%{fill:var(--ce)}}.c.c1k{fill:var(--c3);animation-name:c1k}@keyframes c1l{71.69%{fill:var(--c3)}71.71%,100%{fill:var(--ce)}}.c.c1l{fill:var(--c3);animation-name:c1l}@keyframes c1m{55.3%{fill:var(--c3)}55.32%,100%{fill:var(--ce)}}.c.c1m{fill:var(--c3);animation-name:c1m}@keyframes c1n{56.26%{fill:var(--c3)}56.28%,100%{fill:var(--ce)}}.c.c1n{fill:var(--c3);animation-name:c1n}@keyframes c1o{59.8%{fill:var(--c3)}59.82%,100%{fill:var(--ce)}}.c.c1o{fill:var(--c3);animation-name:c1o}@keyframes c1p{60.76%{fill:var(--c3)}60.78%,100%{fill:var(--ce)}}.c.c1p{fill:var(--c3);animation-name:c1p}@keyframes c1q{66.87%{fill:var(--c3)}66.89%,100%{fill:var(--ce)}}.c.c1q{fill:var(--c3);animation-name:c1q}@keyframes c1r{67.84%{fill:var(--c3)}67.86%,100%{fill:var(--ce)}}.c.c1r{fill:var(--c3);animation-name:c1r}@keyframes c1s{72.02%{fill:var(--c3)}72.04%,100%{fill:var(--ce)}}.c.c1s{fill:var(--c3);animation-name:c1s}@keyframes c1t{55.62%{fill:var(--c3)}55.64%,100%{fill:var(--ce)}}.c.c1t{fill:var(--c3);animation-name:c1t}@keyframes c1u{55.94%{fill:var(--c3)}55.96%,100%{fill:var(--ce)}}.c.c1u{fill:var(--c3);animation-name:c1u}@keyframes c1v{60.12%{fill:var(--c3)}60.14%,100%{fill:var(--ce)}}.c.c1v{fill:var(--c3);animation-name:c1v}@keyframes c1w{60.44%{fill:var(--c3)}60.46%,100%{fill:var(--ce)}}.c.c1w{fill:var(--c3);animation-name:c1w}@keyframes c1x{67.19%{fill:var(--c3)}67.21%,100%{fill:var(--ce)}}.c.c1x{fill:var(--c3);animation-name:c1x}@keyframes c1y{67.51%{fill:var(--c3)}67.53%,100%{fill:var(--ce)}}.c.c1y{fill:var(--c3);animation-name:c1y}@keyframes c1z{72.34%{fill:var(--c3)}72.36%,100%{fill:var(--ce)}}.c.c1z{fill:var(--c3);animation-name:c1z}@keyframes c20{19.93%{fill:var(--c1)}19.95%,100%{fill:var(--ce)}}.c.c20{fill:var(--c1);animation-name:c20}@keyframes c21{29.89%{fill:var(--c1)}29.91%,100%{fill:var(--ce)}}.c.c21{fill:var(--c1);animation-name:c21}@keyframes c22{29.57%{fill:var(--c1)}29.59%,100%{fill:var(--ce)}}.c.c22{fill:var(--c1);animation-name:c22}@keyframes c23{29.25%{fill:var(--c1)}29.27%,100%{fill:var(--ce)}}.c.c23{fill:var(--c1);animation-name:c23}@keyframes c24{28.93%{fill:var(--c1)}28.95%,100%{fill:var(--ce)}}.c.c24{fill:var(--c1);animation-name:c24}@keyframes c25{28.61%{fill:var(--c1)}28.63%,100%{fill:var(--ce)}}.c.c25{fill:var(--c1);animation-name:c25}@keyframes c26{28.29%{fill:var(--c1)}28.31%,100%{fill:var(--ce)}}.c.c26{fill:var(--c1);animation-name:c26}@keyframes c27{20.25%{fill:var(--c1)}20.27%,100%{fill:var(--ce)}}.c.c27{fill:var(--c1);animation-name:c27}@keyframes c28{77.16%{fill:var(--c3)}77.18%,100%{fill:var(--ce)}}.c.c28{fill:var(--c3);animation-name:c28}@keyframes c29{77.48%{fill:var(--c3)}77.5%,100%{fill:var(--ce)}}.c.c29{fill:var(--c3);animation-name:c29}@keyframes c2a{73.94%{fill:var(--c3)}73.96%,100%{fill:var(--ce)}}.c.c2a{fill:var(--c3);animation-name:c2a}@keyframes c2b{73.62%{fill:var(--c3)}73.64%,100%{fill:var(--ce)}}.c.c2b{fill:var(--c3);animation-name:c2b}@keyframes c2c{73.3%{fill:var(--c3)}73.32%,100%{fill:var(--ce)}}.c.c2c{fill:var(--c3);animation-name:c2c}@keyframes c2d{27.96%{fill:var(--c1)}27.98%,100%{fill:var(--ce)}}.c.c2d{fill:var(--c1);animation-name:c2d}@keyframes c2e{20.57%{fill:var(--c1)}20.59%,100%{fill:var(--ce)}}.c.c2e{fill:var(--c1);animation-name:c2e}@keyframes c2f{31.18%{fill:var(--c1)}31.2%,100%{fill:var(--ce)}}.c.c2f{fill:var(--c1);animation-name:c2f}@keyframes c2g{32.79%{fill:var(--c1)}32.81%,100%{fill:var(--ce)}}.c.c2g{fill:var(--c1);animation-name:c2g}@keyframes c2h{74.27%{fill:var(--c3)}74.29%,100%{fill:var(--ce)}}.c.c2h{fill:var(--c3);animation-name:c2h}@keyframes c2i{25.71%{fill:var(--c1)}25.73%,100%{fill:var(--ce)}}.c.c2i{fill:var(--c1);animation-name:c2i}@keyframes c2j{26.04%{fill:var(--c1)}26.06%,100%{fill:var(--ce)}}.c.c2j{fill:var(--c1);animation-name:c2j}@keyframes c2k{45.65%{fill:var(--c2)}45.67%,100%{fill:var(--ce)}}.c.c2k{fill:var(--c2);animation-name:c2k}@keyframes c2l{20.89%{fill:var(--c1)}20.91%,100%{fill:var(--ce)}}.c.c2l{fill:var(--c1);animation-name:c2l}@keyframes c2m{31.5%{fill:var(--c1)}31.52%,100%{fill:var(--ce)}}.c.c2m{fill:var(--c1);animation-name:c2m}@keyframes c2n{32.47%{fill:var(--c1)}32.49%,100%{fill:var(--ce)}}.c.c2n{fill:var(--c1);animation-name:c2n}@keyframes c2o{74.59%{fill:var(--c3)}74.61%,100%{fill:var(--ce)}}.c.c2o{fill:var(--c3);animation-name:c2o}@keyframes c2p{25.39%{fill:var(--c1)}25.41%,100%{fill:var(--ce)}}.c.c2p{fill:var(--c1);animation-name:c2p}@keyframes c2q{26.36%{fill:var(--c1)}26.38%,100%{fill:var(--ce)}}.c.c2q{fill:var(--c1);animation-name:c2q}@keyframes c2r{26.68%{fill:var(--c1)}26.7%,100%{fill:var(--ce)}}.c.c2r{fill:var(--c1);animation-name:c2r}@keyframes c2s{21.21%{fill:var(--c1)}21.23%,100%{fill:var(--ce)}}.c.c2s{fill:var(--c1);animation-name:c2s}@keyframes c2t{31.82%{fill:var(--c1)}31.84%,100%{fill:var(--ce)}}.c.c2t{fill:var(--c1);animation-name:c2t}@keyframes c2u{32.14%{fill:var(--c1)}32.16%,100%{fill:var(--ce)}}.c.c2u{fill:var(--c1);animation-name:c2u}@keyframes c2v{74.91%{fill:var(--c3)}74.93%,100%{fill:var(--ce)}}.c.c2v{fill:var(--c3);animation-name:c2v}@keyframes c2w{25.07%{fill:var(--c1)}25.09%,100%{fill:var(--ce)}}.c.c2w{fill:var(--c1);animation-name:c2w}@keyframes c2x{24.75%{fill:var(--c1)}24.77%,100%{fill:var(--ce)}}.c.c2x{fill:var(--c1);animation-name:c2x}@keyframes c2y{24.43%{fill:var(--c1)}24.45%,100%{fill:var(--ce)}}.c.c2y{fill:var(--c1);animation-name:c2y}@keyframes c2z{21.53%{fill:var(--c1)}21.55%,100%{fill:var(--ce)}}.c.c2z{fill:var(--c1);animation-name:c2z}@keyframes c30{75.87%{fill:var(--c3)}75.89%,100%{fill:var(--ce)}}.c.c30{fill:var(--c3);animation-name:c30}@keyframes c31{75.55%{fill:var(--c3)}75.57%,100%{fill:var(--ce)}}.c.c31{fill:var(--c3);animation-name:c31}@keyframes c32{75.23%{fill:var(--c3)}75.25%,100%{fill:var(--ce)}}.c.c32{fill:var(--c3);animation-name:c32}@keyframes c33{79.41%{fill:var(--c3)}79.43%,100%{fill:var(--ce)}}.c.c33{fill:var(--c3);animation-name:c33}@keyframes c34{79.73%{fill:var(--c3)}79.75%,100%{fill:var(--ce)}}.c.c34{fill:var(--c3);animation-name:c34}@keyframes c35{24.11%{fill:var(--c1)}24.13%,100%{fill:var(--ce)}}.c.c35{fill:var(--c1);animation-name:c35}@keyframes c36{21.85%{fill:var(--c1)}21.87%,100%{fill:var(--ce)}}.c.c36{fill:var(--c1);animation-name:c36}@keyframes c37{22.18%{fill:var(--c1)}22.2%,100%{fill:var(--ce)}}.c.c37{fill:var(--c1);animation-name:c37}@keyframes c38{22.5%{fill:var(--c1)}22.52%,100%{fill:var(--ce)}}.c.c38{fill:var(--c1);animation-name:c38}@keyframes c39{22.82%{fill:var(--c1)}22.84%,100%{fill:var(--ce)}}.c.c39{fill:var(--c1);animation-name:c39}@keyframes c3a{23.14%{fill:var(--c1)}23.16%,100%{fill:var(--ce)}}.c.c3a{fill:var(--c1);animation-name:c3a}@keyframes c3b{23.46%{fill:var(--c1)}23.48%,100%{fill:var(--ce)}}.c.c3b{fill:var(--c1);animation-name:c3b}@keyframes c3c{23.78%{fill:var(--c1)}23.8%,100%{fill:var(--ce)}}.c.c3c{fill:var(--c1);animation-name:c3c}.u{transform-origin:0 0;transform:scale(0,1);animation:none linear 31100ms infinite}@keyframes u0{1.92%{transform:scale(0.000,1)}1.94%,13.17%{transform:scale(0.025,1)}13.19%,15.75%{transform:scale(0.050,1)}15.77%,16.07%{transform:scale(0.075,1)}16.09%,19.93%{transform:scale(0.100,1)}19.95%,20.25%{transform:scale(0.125,1)}20.27%,20.57%{transform:scale(0.150,1)}20.59%,20.89%{transform:scale(0.175,1)}20.91%,21.21%{transform:scale(0.200,1)}21.23%,21.53%{transform:scale(0.225,1)}21.55%,21.85%{transform:scale(0.250,1)}21.87%,22.18%{transform:scale(0.275,1)}22.2%,22.5%{transform:scale(0.300,1)}22.52%,22.82%{transform:scale(0.325,1)}22.84%,23.14%{transform:scale(0.350,1)}23.16%,23.46%{transform:scale(0.375,1)}23.48%,23.78%{transform:scale(0.400,1)}23.8%,24.11%{transform:scale(0.425,1)}24.13%,24.43%{transform:scale(0.450,1)}24.45%,24.75%{transform:scale(0.475,1)}24.77%,25.07%{transform:scale(0.500,1)}25.09%,25.39%{transform:scale(0.525,1)}25.41%,25.71%{transform:scale(0.550,1)}25.73%,26.04%{transform:scale(0.575,1)}26.06%,26.36%{transform:scale(0.600,1)}26.38%,26.68%{transform:scale(0.625,1)}26.7%,27.96%{transform:scale(0.650,1)}27.98%,28.29%{transform:scale(0.675,1)}28.31%,28.61%{transform:scale(0.700,1)}28.63%,28.93%{transform:scale(0.725,1)}28.95%,29.25%{transform:scale(0.750,1)}29.27%,29.57%{transform:scale(0.775,1)}29.59%,29.89%{transform:scale(0.800,1)}29.91%,31.18%{transform:scale(0.825,1)}31.2%,31.5%{transform:scale(0.850,1)}31.52%,31.82%{transform:scale(0.875,1)}31.84%,32.14%{transform:scale(0.900,1)}32.16%,32.47%{transform:scale(0.925,1)}32.49%,32.79%{transform:scale(0.950,1)}32.81%,38.58%{transform:scale(0.975,1)}38.6%,100%{transform:scale(1.000,1)}}.u.u0{fill:var(--c1);animation-name:u0;transform-origin:0.0px 0}@keyframes u1{38.9%{transform:scale(0.000,1)}38.92%,39.22%{transform:scale(0.167,1)}39.24%,39.54%{transform:scale(0.333,1)}39.56%,39.86%{transform:scale(0.500,1)}39.88%,45.65%{transform:scale(0.667,1)}45.67%,53.04%{transform:scale(0.833,1)}53.06%,100%{transform:scale(1.000,1)}}.u.u1{fill:var(--c2);animation-name:u1;transform-origin:280.3px 0}@keyframes u2{53.37%{transform:scale(0.000,1)}53.39%,53.69%{transform:scale(0.014,1)}53.71%,54.01%{transform:scale(0.028,1)}54.03%,54.33%{transform:scale(0.042,1)}54.35%,54.65%{transform:scale(0.056,1)}54.67%,54.97%{transform:scale(0.070,1)}54.99%,55.3%{transform:scale(0.085,1)}55.32%,55.62%{transform:scale(0.099,1)}55.64%,55.94%{transform:scale(0.113,1)}55.96%,56.26%{transform:scale(0.127,1)}56.28%,56.58%{transform:scale(0.141,1)}56.6%,56.9%{transform:scale(0.155,1)}56.92%,57.22%{transform:scale(0.169,1)}57.24%,57.55%{transform:scale(0.183,1)}57.57%,57.87%{transform:scale(0.197,1)}57.89%,58.19%{transform:scale(0.211,1)}58.21%,58.51%{transform:scale(0.225,1)}58.53%,58.83%{transform:scale(0.239,1)}58.85%,59.15%{transform:scale(0.254,1)}59.17%,59.48%{transform:scale(0.268,1)}59.5%,59.8%{transform:scale(0.282,1)}59.82%,60.12%{transform:scale(0.296,1)}60.14%,60.44%{transform:scale(0.310,1)}60.46%,60.76%{transform:scale(0.324,1)}60.78%,61.08%{transform:scale(0.338,1)}61.1%,61.4%{transform:scale(0.352,1)}61.42%,61.73%{transform:scale(0.366,1)}61.75%,62.05%{transform:scale(0.380,1)}62.07%,62.37%{transform:scale(0.394,1)}62.39%,62.69%{transform:scale(0.408,1)}62.71%,63.01%{transform:scale(0.423,1)}63.03%,63.66%{transform:scale(0.437,1)}63.68%,64.62%{transform:scale(0.451,1)}64.64%,64.94%{transform:scale(0.465,1)}64.96%,65.26%{transform:scale(0.479,1)}65.28%,65.58%{transform:scale(0.493,1)}65.6%,65.91%{transform:scale(0.507,1)}65.93%,66.23%{transform:scale(0.521,1)}66.25%,66.55%{transform:scale(0.535,1)}66.57%,66.87%{transform:scale(0.549,1)}66.89%,67.19%{transform:scale(0.563,1)}67.21%,67.51%{transform:scale(0.577,1)}67.53%,67.84%{transform:scale(0.592,1)}67.86%,68.16%{transform:scale(0.606,1)}68.18%,68.48%{transform:scale(0.620,1)}68.5%,68.8%{transform:scale(0.634,1)}68.82%,69.12%{transform:scale(0.648,1)}69.14%,69.44%{transform:scale(0.662,1)}69.46%,69.76%{transform:scale(0.676,1)}69.78%,70.09%{transform:scale(0.690,1)}70.11%,70.41%{transform:scale(0.704,1)}70.43%,70.73%{transform:scale(0.718,1)}70.75%,71.05%{transform:scale(0.732,1)}71.07%,71.37%{transform:scale(0.746,1)}71.39%,71.69%{transform:scale(0.761,1)}71.71%,72.02%{transform:scale(0.775,1)}72.04%,72.34%{transform:scale(0.789,1)}72.36%,73.3%{transform:scale(0.803,1)}73.32%,73.62%{transform:scale(0.817,1)}73.64%,73.94%{transform:scale(0.831,1)}73.96%,74.27%{transform:scale(0.845,1)}74.29%,74.59%{transform:scale(0.859,1)}74.61%,74.91%{transform:scale(0.873,1)}74.93%,75.23%{transform:scale(0.887,1)}75.25%,75.55%{transform:scale(0.901,1)}75.57%,75.87%{transform:scale(0.915,1)}75.89%,77.16%{transform:scale(0.930,1)}77.18%,77.48%{transform:scale(0.944,1)}77.5%,79.41%{transform:scale(0.958,1)}79.43%,79.73%{transform:scale(0.972,1)}79.75%,84.56%{transform:scale(0.986,1)}84.58%,100%{transform:scale(1.000,1)}}.u.u2{fill:var(--c3);animation-name:u2;transform-origin:322.4px 0}@keyframes u3{84.88%{transform:scale(0.000,1)}84.9%,85.2%{transform:scale(0.250,1)}85.22%,85.52%{transform:scale(0.500,1)}85.54%,87.77%{transform:scale(0.750,1)}87.79%,100%{transform:scale(1.000,1)}}.u.u3{fill:var(--c4);animation-name:u3;transform-origin:820.0px 0}.s{shape-rendering:geometricPrecision;fill:var(--cs);animation:none linear 31100ms infinite}@keyframes s0{0%,99.68%{transform:translate(0px,-16px)}0.32%{transform:translate(0px,0px)}0.64%{transform:translate(16px,0px)}1.93%{transform:translate(16px,64px)}12.54%,40.19%{transform:translate(544px,64px)}13.18%{transform:translate(544px,96px)}13.5%{transform:translate(528px,96px)}13.83%{transform:translate(528px,80px)}14.15%{transform:translate(544px,80px)}15.43%{transform:translate(544px,16px)}15.76%,38.26%,52.41%{transform:translate(560px,16px)}16.4%,37.62%,51.77%{transform:translate(560px,-16px)}19.61%,48.55%{transform:translate(720px,-16px)}19.94%,30.23%{transform:translate(720px,0px)}21.86%{transform:translate(816px,0px)}23.79%{transform:translate(816px,96px)}24.44%{transform:translate(784px,96px)}25.08%{transform:translate(784px,64px)}25.72%{transform:translate(752px,64px)}26.05%{transform:translate(752px,80px)}26.37%{transform:translate(768px,80px)}27.01%{transform:translate(768px,112px)}27.65%{transform:translate(736px,112px)}27.97%,72.99%{transform:translate(736px,96px)}28.3%,46.3%{transform:translate(720px,96px)}30.87%{transform:translate(752px,0px)}31.19%{transform:translate(752px,16px)}31.83%{transform:translate(784px,16px)}32.15%{transform:translate(784px,32px)}32.8%{transform:translate(752px,32px)}33.76%{transform:translate(752px,-16px)}38.59%{transform:translate(576px,16px)}39.23%,64.31%{transform:translate(576px,48px)}39.55%,63.99%{transform:translate(560px,48px)}39.87%{transform:translate(560px,64px)}41.16%{transform:translate(544px,112px)}45.34%{transform:translate(752px,112px)}45.66%{transform:translate(752px,96px)}53.05%{transform:translate(592px,16px)}53.38%{transform:translate(592px,0px)}55.63%{transform:translate(704px,0px)}55.95%{transform:translate(704px,16px)}57.88%{transform:translate(608px,16px)}58.2%{transform:translate(608px,32px)}60.13%{transform:translate(704px,32px)}60.45%{transform:translate(704px,48px)}62.7%{transform:translate(592px,48px)}63.02%{transform:translate(592px,32px)}63.67%{transform:translate(560px,32px)}64.63%{transform:translate(576px,64px)}67.2%{transform:translate(704px,64px)}67.52%{transform:translate(704px,80px)}69.77%,83.92%{transform:translate(592px,80px)}70.1%,84.24%{transform:translate(592px,96px)}73.95%{transform:translate(736px,48px)}75.24%{transform:translate(800px,48px)}75.88%{transform:translate(800px,16px)}77.17%{transform:translate(736px,16px)}77.49%{transform:translate(736px,32px)}78.78%{transform:translate(800px,32px)}79.74%{transform:translate(800px,80px)}84.57%,85.85%{transform:translate(576px,96px)}84.89%{transform:translate(576px,80px)}85.21%{transform:translate(560px,80px)}85.53%{transform:translate(560px,96px)}87.78%{transform:translate(576px,0px)}98.07%{transform:translate(64px,0px)}98.39%{transform:translate(64px,-16px)}}.s.s0{transform:translate(0px,-16px);animation-name:s0}@keyframes s1{0%,99.68%{transform:translate(16px,-16px)}0.32%{transform:translate(0px,-16px)}0.64%{transform:translate(0px,0px)}0.96%{transform:translate(16px,0px)}2.25%{transform:translate(16px,64px)}12.86%,40.51%{transform:translate(544px,64px)}13.5%{transform:translate(544px,96px)}13.83%{transform:translate(528px,96px)}14.15%{transform:translate(528px,80px)}14.47%{transform:translate(544px,80px)}15.76%{transform:translate(544px,16px)}16.08%,38.59%,52.73%{transform:translate(560px,16px)}16.72%,37.94%,52.09%{transform:translate(560px,-16px)}19.94%,48.87%{transform:translate(720px,-16px)}20.26%,30.55%{transform:translate(720px,0px)}22.19%{transform:translate(816px,0px)}24.12%{transform:translate(816px,96px)}24.76%{transform:translate(784px,96px)}25.4%{transform:translate(784px,64px)}26.05%{transform:translate(752px,64px)}26.37%{transform:translate(752px,80px)}26.69%{transform:translate(768px,80px)}27.33%{transform:translate(768px,112px)}27.97%{transform:translate(736px,112px)}28.3%,73.31%{transform:translate(736px,96px)}28.62%,46.62%{transform:translate(720px,96px)}31.19%{transform:translate(752px,0px)}31.51%{transform:translate(752px,16px)}32.15%{transform:translate(784px,16px)}32.48%{transform:translate(784px,32px)}33.12%{transform:translate(752px,32px)}34.08%{transform:translate(752px,-16px)}38.91%{transform:translate(576px,16px)}39.55%,64.63%{transform:translate(576px,48px)}39.87%,64.31%{transform:translate(560px,48px)}40.19%{transform:translate(560px,64px)}41.48%{transform:translate(544px,112px)}45.66%{transform:translate(752px,112px)}45.98%{transform:translate(752px,96px)}53.38%{transform:translate(592px,16px)}53.7%{transform:translate(592px,0px)}55.95%{transform:translate(704px,0px)}56.27%{transform:translate(704px,16px)}58.2%{transform:translate(608px,16px)}58.52%{transform:translate(608px,32px)}60.45%{transform:translate(704px,32px)}60.77%{transform:translate(704px,48px)}63.02%{transform:translate(592px,48px)}63.34%{transform:translate(592px,32px)}63.99%{transform:translate(560px,32px)}64.95%{transform:translate(576px,64px)}67.52%{transform:translate(704px,64px)}67.85%{transform:translate(704px,80px)}70.1%,84.24%{transform:translate(592px,80px)}70.42%,84.57%{transform:translate(592px,96px)}74.28%{transform:translate(736px,48px)}75.56%{transform:translate(800px,48px)}76.21%{transform:translate(800px,16px)}77.49%{transform:translate(736px,16px)}77.81%{transform:translate(736px,32px)}79.1%{transform:translate(800px,32px)}80.06%{transform:translate(800px,80px)}84.89%,86.17%{transform:translate(576px,96px)}85.21%{transform:translate(576px,80px)}85.53%{transform:translate(560px,80px)}85.85%{transform:translate(560px,96px)}88.1%{transform:translate(576px,0px)}98.39%{transform:translate(64px,0px)}98.71%{transform:translate(64px,-16px)}}.s.s1{transform:translate(16px,-16px);animation-name:s1}@keyframes s2{0%,99.68%{transform:translate(32px,-16px)}0.64%{transform:translate(0px,-16px)}0.96%{transform:translate(0px,0px)}1.29%{transform:translate(16px,0px)}2.57%{transform:translate(16px,64px)}13.18%,40.84%{transform:translate(544px,64px)}13.83%{transform:translate(544px,96px)}14.15%{transform:translate(528px,96px)}14.47%{transform:translate(528px,80px)}14.79%{transform:translate(544px,80px)}16.08%{transform:translate(544px,16px)}16.4%,38.91%,53.05%{transform:translate(560px,16px)}17.04%,38.26%,52.41%{transform:translate(560px,-16px)}20.26%,49.2%{transform:translate(720px,-16px)}20.58%,30.87%{transform:translate(720px,0px)}22.51%{transform:translate(816px,0px)}24.44%{transform:translate(816px,96px)}25.08%{transform:translate(784px,96px)}25.72%{transform:translate(784px,64px)}26.37%{transform:translate(752px,64px)}26.69%{transform:translate(752px,80px)}27.01%{transform:translate(768px,80px)}27.65%{transform:translate(768px,112px)}28.3%{transform:translate(736px,112px)}28.62%,73.63%{transform:translate(736px,96px)}28.94%,46.95%{transform:translate(720px,96px)}31.51%{transform:translate(752px,0px)}31.83%{transform:translate(752px,16px)}32.48%{transform:translate(784px,16px)}32.8%{transform:translate(784px,32px)}33.44%{transform:translate(752px,32px)}34.41%{transform:translate(752px,-16px)}39.23%{transform:translate(576px,16px)}39.87%,64.95%{transform:translate(576px,48px)}40.19%,64.63%{transform:translate(560px,48px)}40.51%{transform:translate(560px,64px)}41.8%{transform:translate(544px,112px)}45.98%{transform:translate(752px,112px)}46.3%{transform:translate(752px,96px)}53.7%{transform:translate(592px,16px)}54.02%{transform:translate(592px,0px)}56.27%{transform:translate(704px,0px)}56.59%{transform:translate(704px,16px)}58.52%{transform:translate(608px,16px)}58.84%{transform:translate(608px,32px)}60.77%{transform:translate(704px,32px)}61.09%{transform:translate(704px,48px)}63.34%{transform:translate(592px,48px)}63.67%{transform:translate(592px,32px)}64.31%{transform:translate(560px,32px)}65.27%{transform:translate(576px,64px)}67.85%{transform:translate(704px,64px)}68.17%{transform:translate(704px,80px)}70.42%,84.57%{transform:translate(592px,80px)}70.74%,84.89%{transform:translate(592px,96px)}74.6%{transform:translate(736px,48px)}75.88%{transform:translate(800px,48px)}76.53%{transform:translate(800px,16px)}77.81%{transform:translate(736px,16px)}78.14%{transform:translate(736px,32px)}79.42%{transform:translate(800px,32px)}80.39%{transform:translate(800px,80px)}85.21%,86.5%{transform:translate(576px,96px)}85.53%{transform:translate(576px,80px)}85.85%{transform:translate(560px,80px)}86.17%{transform:translate(560px,96px)}88.42%{transform:translate(576px,0px)}98.71%{transform:translate(64px,0px)}99.04%{transform:translate(64px,-16px)}}.s.s2{transform:translate(32px,-16px);animation-name:s2}@keyframes s3{0%,99.68%{transform:translate(48px,-16px)}0.96%{transform:translate(0px,-16px)}1.29%{transform:translate(0px,0px)}1.61%{transform:translate(16px,0px)}2.89%{transform:translate(16px,64px)}13.5%,41.16%{transform:translate(544px,64px)}14.15%{transform:translate(544px,96px)}14.47%{transform:translate(528px,96px)}14.79%{transform:translate(528px,80px)}15.11%{transform:translate(544px,80px)}16.4%{transform:translate(544px,16px)}16.72%,39.23%,53.38%{transform:translate(560px,16px)}17.36%,38.59%,52.73%{transform:translate(560px,-16px)}20.58%,49.52%{transform:translate(720px,-16px)}20.9%,31.19%{transform:translate(720px,0px)}22.83%{transform:translate(816px,0px)}24.76%{transform:translate(816px,96px)}25.4%{transform:translate(784px,96px)}26.05%{transform:translate(784px,64px)}26.69%{transform:translate(752px,64px)}27.01%{transform:translate(752px,80px)}27.33%{transform:translate(768px,80px)}27.97%{transform:translate(768px,112px)}28.62%{transform:translate(736px,112px)}28.94%,73.95%{transform:translate(736px,96px)}29.26%,47.27%{transform:translate(720px,96px)}31.83%{transform:translate(752px,0px)}32.15%{transform:translate(752px,16px)}32.8%{transform:translate(784px,16px)}33.12%{transform:translate(784px,32px)}33.76%{transform:translate(752px,32px)}34.73%{transform:translate(752px,-16px)}39.55%{transform:translate(576px,16px)}40.19%,65.27%{transform:translate(576px,48px)}40.51%,64.95%{transform:translate(560px,48px)}40.84%{transform:translate(560px,64px)}42.12%{transform:translate(544px,112px)}46.3%{transform:translate(752px,112px)}46.62%{transform:translate(752px,96px)}54.02%{transform:translate(592px,16px)}54.34%{transform:translate(592px,0px)}56.59%{transform:translate(704px,0px)}56.91%{transform:translate(704px,16px)}58.84%{transform:translate(608px,16px)}59.16%{transform:translate(608px,32px)}61.09%{transform:translate(704px,32px)}61.41%{transform:translate(704px,48px)}63.67%{transform:translate(592px,48px)}63.99%{transform:translate(592px,32px)}64.63%{transform:translate(560px,32px)}65.59%{transform:translate(576px,64px)}68.17%{transform:translate(704px,64px)}68.49%{transform:translate(704px,80px)}70.74%,84.89%{transform:translate(592px,80px)}71.06%,85.21%{transform:translate(592px,96px)}74.92%{transform:translate(736px,48px)}76.21%{transform:translate(800px,48px)}76.85%{transform:translate(800px,16px)}78.14%{transform:translate(736px,16px)}78.46%{transform:translate(736px,32px)}79.74%{transform:translate(800px,32px)}80.71%{transform:translate(800px,80px)}85.53%,86.82%{transform:translate(576px,96px)}85.85%{transform:translate(576px,80px)}86.17%{transform:translate(560px,80px)}86.5%{transform:translate(560px,96px)}88.75%{transform:translate(576px,0px)}99.04%{transform:translate(64px,0px)}99.36%{transform:translate(64px,-16px)}}.s.s3{transform:translate(48px,-16px);animation-name:s3}</style><rect class="c" x="2" y="2" rx="2" ry="2"/><rect class="c" x="2" y="18" rx="2" ry="2"/><rect class="c" x="2" y="34" rx="2" ry="2"/><rect class="c" x="2" y="50" rx="2" ry="2"/><rect class="c" x="2" y="66" rx="2" ry="2"/><rect class="c" x="2" y="82" rx="2" ry="2"/><rect class="c" x="2" y="98" rx="2" ry="2"/><rect class="c" x="18" y="2" rx="2" ry="2"/><rect class="c" x="18" y="18" rx="2" ry="2"/><rect class="c" x="18" y="34" rx="2" ry="2"/><rect class="c" x="18" y="50" rx="2" ry="2"/><rect class="c c0" x="18" y="66" rx="2" ry="2"/><rect class="c" x="18" y="82" rx="2" ry="2"/><rect class="c" x="18" y="98" rx="2" ry="2"/><rect class="c" x="34" y="2" rx="2" ry="2"/><rect class="c" x="34" y="18" rx="2" ry="2"/><rect class="c" x="34" y="34" rx="2" ry="2"/><rect class="c" x="34" y="50" rx="2" ry="2"/><rect class="c" x="34" y="66" rx="2" ry="2"/><rect class="c" x="34" y="82" rx="2" ry="2"/><rect class="c" x="34" y="98" rx="2" ry="2"/><rect class="c" x="50" y="2" rx="2" ry="2"/><rect class="c" x="50" y="18" rx="2" ry="2"/><rect class="c" x="50" y="34" rx="2" ry="2"/><rect class="c" x="50" y="50" rx="2" ry="2"/><rect class="c" x="50" y="66" rx="2" ry="2"/><rect class="c" x="50" y="82" rx="2" ry="2"/><rect class="c" x="50" y="98" rx="2" ry="2"/><rect class="c" x="66" y="2" rx="2" ry="2"/><rect class="c" x="66" y="18" rx="2" ry="2"/><rect class="c" x="66" y="34" rx="2" ry="2"/><rect class="c" x="66" y="50" rx="2" ry="2"/><rect class="c" x="66" y="66" rx="2" ry="2"/><rect class="c" x="66" y="82" rx="2" ry="2"/><rect class="c" x="66" y="98" rx="2" ry="2"/><rect class="c" x="82" y="2" rx="2" ry="2"/><rect class="c" x="82" y="18" rx="2" ry="2"/><rect class="c" x="82" y="34" rx="2" ry="2"/><rect class="c" x="82" y="50" rx="2" ry="2"/><rect class="c" x="82" y="66" rx="2" ry="2"/><rect class="c" x="82" y="82" rx="2" ry="2"/><rect class="c" x="82" y="98" rx="2" ry="2"/><rect class="c" x="98" y="2" rx="2" ry="2"/><rect class="c" x="98" y="18" rx="2" ry="2"/><rect class="c" x="98" y="34" rx="2" ry="2"/><rect class="c" x="98" y="50" rx="2" ry="2"/><rect class="c" x="98" y="66" rx="2" ry="2"/><rect class="c" x="98" y="82" rx="2" ry="2"/><rect class="c" x="98" y="98" rx="2" ry="2"/><rect class="c" x="114" y="2" rx="2" ry="2"/><rect class="c" x="114" y="18" rx="2" ry="2"/><rect class="c" x="114" y="34" rx="2" ry="2"/><rect class="c" x="114" y="50" rx="2" ry="2"/><rect class="c" x="114" y="66" rx="2" ry="2"/><rect class="c" x="114" y="82" rx="2" ry="2"/><rect class="c" x="114" y="98" rx="2" ry="2"/><rect class="c" x="130" y="2" rx="2" ry="2"/><rect class="c" x="130" y="18" rx="2" ry="2"/><rect class="c" x="130" y="34" rx="2" ry="2"/><rect class="c" x="130" y="50" rx="2" ry="2"/><rect class="c" x="130" y="66" rx="2" ry="2"/><rect class="c" x="130" y="82" rx="2" ry="2"/><rect class="c" x="130" y="98" rx="2" ry="2"/><rect class="c" x="146" y="2" rx="2" ry="2"/><rect class="c" x="146" y="18" rx="2" ry="2"/><rect class="c" x="146" y="34" rx="2" ry="2"/><rect class="c" x="146" y="50" rx="2" ry="2"/><rect class="c" x="146" y="66" rx="2" ry="2"/><rect class="c" x="146" y="82" rx="2" ry="2"/><rect class="c" x="146" y="98" rx="2" ry="2"/><rect class="c" x="162" y="2" rx="2" ry="2"/><rect class="c" x="162" y="18" rx="2" ry="2"/><rect class="c" x="162" y="34" rx="2" ry="2"/><rect class="c" x="162" y="50" rx="2" ry="2"/><rect class="c" x="162" y="66" rx="2" ry="2"/><rect class="c" x="162" y="82" rx="2" ry="2"/><rect class="c" x="162" y="98" rx="2" ry="2"/><rect class="c" x="178" y="2" rx="2" ry="2"/><rect class="c" x="178" y="18" rx="2" ry="2"/><rect class="c" x="178" y="34" rx="2" ry="2"/><rect class="c" x="178" y="50" rx="2" ry="2"/><rect class="c" x="178" y="66" rx="2" ry="2"/><rect class="c" x="178" y="82" rx="2" ry="2"/><rect class="c" x="178" y="98" rx="2" ry="2"/><rect class="c" x="194" y="2" rx="2" ry="2"/><rect class="c" x="194" y="18" rx="2" ry="2"/><rect class="c" x="194" y="34" rx="2" ry="2"/><rect class="c" x="194" y="50" rx="2" ry="2"/><rect class="c" x="194" y="66" rx="2" ry="2"/><rect class="c" x="194" y="82" rx="2" ry="2"/><rect class="c" x="194" y="98" rx="2" ry="2"/><rect class="c" x="210" y="2" rx="2" ry="2"/><rect class="c" x="210" y="18" rx="2" ry="2"/><rect class="c" x="210" y="34" rx="2" ry="2"/><rect class="c" x="210" y="50" rx="2" ry="2"/><rect class="c" x="210" y="66" rx="2" ry="2"/><rect class="c" x="210" y="82" rx="2" ry="2"/><rect class="c" x="210" y="98" rx="2" ry="2"/><rect class="c" x="226" y="2" rx="2" ry="2"/><rect class="c" x="226" y="18" rx="2" ry="2"/><rect class="c" x="226" y="34" rx="2" ry="2"/><rect class="c" x="226" y="50" rx="2" ry="2"/><rect class="c" x="226" y="66" rx="2" ry="2"/><rect class="c" x="226" y="82" rx="2" ry="2"/><rect class="c" x="226" y="98" rx="2" ry="2"/><rect class="c" x="242" y="2" rx="2" ry="2"/><rect class="c" x="242" y="18" rx="2" ry="2"/><rect class="c" x="242" y="34" rx="2" ry="2"/><rect class="c" x="242" y="50" rx="2" ry="2"/><rect class="c" x="242" y="66" rx="2" ry="2"/><rect class="c" x="242" y="82" rx="2" ry="2"/><rect class="c" x="242" y="98" rx="2" ry="2"/><rect class="c" x="258" y="2" rx="2" ry="2"/><rect class="c" x="258" y="18" rx="2" ry="2"/><rect class="c" x="258" y="34" rx="2" ry="2"/><rect class="c" x="258" y="50" rx="2" ry="2"/><rect class="c" x="258" y="66" rx="2" ry="2"/><rect class="c" x="258" y="82" rx="2" ry="2"/><rect class="c" x="258" y="98" rx="2" ry="2"/><rect class="c" x="274" y="2" rx="2" ry="2"/><rect class="c" x="274" y="18" rx="2" ry="2"/><rect class="c" x="274" y="34" rx="2" ry="2"/><rect class="c" x="274" y="50" rx="2" ry="2"/><rect class="c" x="274" y="66" rx="2" ry="2"/><rect class="c" x="274" y="82" rx="2" ry="2"/><rect class="c" x="274" y="98" rx="2" ry="2"/><rect class="c" x="290" y="2" rx="2" ry="2"/><rect class="c" x="290" y="18" rx="2" ry="2"/><rect class="c" x="290" y="34" rx="2" ry="2"/><rect class="c" x="290" y="50" rx="2" ry="2"/><rect class="c" x="290" y="66" rx="2" ry="2"/><rect class="c" x="290" y="82" rx="2" ry="2"/><rect class="c" x="290" y="98" rx="2" ry="2"/><rect class="c" x="306" y="2" rx="2" ry="2"/><rect class="c" x="306" y="18" rx="2" ry="2"/><rect class="c" x="306" y="34" rx="2" ry="2"/><rect class="c" x="306" y="50" rx="2" ry="2"/><rect class="c" x="306" y="66" rx="2" ry="2"/><rect class="c" x="306" y="82" rx="2" ry="2"/><rect class="c" x="306" y="98" rx="2" ry="2"/><rect class="c" x="322" y="2" rx="2" ry="2"/><rect class="c" x="322" y="18" rx="2" ry="2"/><rect class="c" x="322" y="34" rx="2" ry="2"/><rect class="c" x="322" y="50" rx="2" ry="2"/><rect class="c" x="322" y="66" rx="2" ry="2"/><rect class="c" x="322" y="82" rx="2" ry="2"/><rect class="c" x="322" y="98" rx="2" ry="2"/><rect class="c" x="338" y="2" rx="2" ry="2"/><rect class="c" x="338" y="18" rx="2" ry="2"/><rect class="c" x="338" y="34" rx="2" ry="2"/><rect class="c" x="338" y="50" rx="2" ry="2"/><rect class="c" x="338" y="66" rx="2" ry="2"/><rect class="c" x="338" y="82" rx="2" ry="2"/><rect class="c" x="338" y="98" rx="2" ry="2"/><rect class="c" x="354" y="2" rx="2" ry="2"/><rect class="c" x="354" y="18" rx="2" ry="2"/><rect class="c" x="354" y="34" rx="2" ry="2"/><rect class="c" x="354" y="50" rx="2" ry="2"/><rect class="c" x="354" y="66" rx="2" ry="2"/><rect class="c" x="354" y="82" rx="2" ry="2"/><rect class="c" x="354" y="98" rx="2" ry="2"/><rect class="c" x="370" y="2" rx="2" ry="2"/><rect class="c" x="370" y="18" rx="2" ry="2"/><rect class="c" x="370" y="34" rx="2" ry="2"/><rect class="c" x="370" y="50" rx="2" ry="2"/><rect class="c" x="370" y="66" rx="2" ry="2"/><rect class="c" x="370" y="82" rx="2" ry="2"/><rect class="c" x="370" y="98" rx="2" ry="2"/><rect class="c" x="386" y="2" rx="2" ry="2"/><rect class="c" x="386" y="18" rx="2" ry="2"/><rect class="c" x="386" y="34" rx="2" ry="2"/><rect class="c" x="386" y="50" rx="2" ry="2"/><rect class="c" x="386" y="66" rx="2" ry="2"/><rect class="c" x="386" y="82" rx="2" ry="2"/><rect class="c" x="386" y="98" rx="2" ry="2"/><rect class="c" x="402" y="2" rx="2" ry="2"/><rect class="c" x="402" y="18" rx="2" ry="2"/><rect class="c" x="402" y="34" rx="2" ry="2"/><rect class="c" x="402" y="50" rx="2" ry="2"/><rect class="c" x="402" y="66" rx="2" ry="2"/><rect class="c" x="402" y="82" rx="2" ry="2"/><rect class="c" x="402" y="98" rx="2" ry="2"/><rect class="c" x="418" y="2" rx="2" ry="2"/><rect class="c" x="418" y="18" rx="2" ry="2"/><rect class="c" x="418" y="34" rx="2" ry="2"/><rect class="c" x="418" y="50" rx="2" ry="2"/><rect class="c" x="418" y="66" rx="2" ry="2"/><rect class="c" x="418" y="82" rx="2" ry="2"/><rect class="c" x="418" y="98" rx="2" ry="2"/><rect class="c" x="434" y="2" rx="2" ry="2"/><rect class="c" x="434" y="18" rx="2" ry="2"/><rect class="c" x="434" y="34" rx="2" ry="2"/><rect class="c" x="434" y="50" rx="2" ry="2"/><rect class="c" x="434" y="66" rx="2" ry="2"/><rect class="c" x="434" y="82" rx="2" ry="2"/><rect class="c" x="434" y="98" rx="2" ry="2"/><rect class="c" x="450" y="2" rx="2" ry="2"/><rect class="c" x="450" y="18" rx="2" ry="2"/><rect class="c" x="450" y="34" rx="2" ry="2"/><rect class="c" x="450" y="50" rx="2" ry="2"/><rect class="c" x="450" y="66" rx="2" ry="2"/><rect class="c" x="450" y="82" rx="2" ry="2"/><rect class="c" x="450" y="98" rx="2" ry="2"/><rect class="c" x="466" y="2" rx="2" ry="2"/><rect class="c" x="466" y="18" rx="2" ry="2"/><rect class="c" x="466" y="34" rx="2" ry="2"/><rect class="c" x="466" y="50" rx="2" ry="2"/><rect class="c" x="466" y="66" rx="2" ry="2"/><rect class="c" x="466" y="82" rx="2" ry="2"/><rect class="c" x="466" y="98" rx="2" ry="2"/><rect class="c" x="482" y="2" rx="2" ry="2"/><rect class="c" x="482" y="18" rx="2" ry="2"/><rect class="c" x="482" y="34" rx="2" ry="2"/><rect class="c" x="482" y="50" rx="2" ry="2"/><rect class="c" x="482" y="66" rx="2" ry="2"/><rect class="c" x="482" y="82" rx="2" ry="2"/><rect class="c" x="482" y="98" rx="2" ry="2"/><rect class="c" x="498" y="2" rx="2" ry="2"/><rect class="c" x="498" y="18" rx="2" ry="2"/><rect class="c" x="498" y="34" rx="2" ry="2"/><rect class="c" x="498" y="50" rx="2" ry="2"/><rect class="c" x="498" y="66" rx="2" ry="2"/><rect class="c" x="498" y="82" rx="2" ry="2"/><rect class="c" x="498" y="98" rx="2" ry="2"/><rect class="c" x="514" y="2" rx="2" ry="2"/><rect class="c" x="514" y="18" rx="2" ry="2"/><rect class="c" x="514" y="34" rx="2" ry="2"/><rect class="c" x="514" y="50" rx="2" ry="2"/><rect class="c" x="514" y="66" rx="2" ry="2"/><rect class="c" x="514" y="82" rx="2" ry="2"/><rect class="c" x="514" y="98" rx="2" ry="2"/><rect class="c" x="530" y="2" rx="2" ry="2"/><rect class="c" x="530" y="18" rx="2" ry="2"/><rect class="c" x="530" y="34" rx="2" ry="2"/><rect class="c" x="530" y="50" rx="2" ry="2"/><rect class="c" x="530" y="66" rx="2" ry="2"/><rect class="c" x="530" y="82" rx="2" ry="2"/><rect class="c" x="530" y="98" rx="2" ry="2"/><rect class="c" x="546" y="2" rx="2" ry="2"/><rect class="c" x="546" y="18" rx="2" ry="2"/><rect class="c" x="546" y="34" rx="2" ry="2"/><rect class="c" x="546" y="50" rx="2" ry="2"/><rect class="c" x="546" y="66" rx="2" ry="2"/><rect class="c" x="546" y="82" rx="2" ry="2"/><rect class="c c1" x="546" y="98" rx="2" ry="2"/><rect class="c c2" x="562" y="2" rx="2" ry="2"/><rect class="c c3" x="562" y="18" rx="2" ry="2"/><rect class="c c4" x="562" y="34" rx="2" ry="2"/><rect class="c c5" x="562" y="50" rx="2" ry="2"/><rect class="c c6" x="562" y="66" rx="2" ry="2"/><rect class="c c7" x="562" y="82" rx="2" ry="2"/><rect class="c c8" x="562" y="98" rx="2" ry="2"/><rect class="c c9" x="578" y="2" rx="2" ry="2"/><rect class="c ca" x="578" y="18" rx="2" ry="2"/><rect class="c cb" x="578" y="34" rx="2" ry="2"/><rect class="c cc" x="578" y="50" rx="2" ry="2"/><rect class="c cd" x="578" y="66" rx="2" ry="2"/><rect class="c ce" x="578" y="82" rx="2" ry="2"/><rect class="c cf" x="578" y="98" rx="2" ry="2"/><rect class="c cg" x="594" y="2" rx="2" ry="2"/><rect class="c ch" x="594" y="18" rx="2" ry="2"/><rect class="c ci" x="594" y="34" rx="2" ry="2"/><rect class="c cj" x="594" y="50" rx="2" ry="2"/><rect class="c ck" x="594" y="66" rx="2" ry="2"/><rect class="c cl" x="594" y="82" rx="2" ry="2"/><rect class="c cm" x="594" y="98" rx="2" ry="2"/><rect class="c cn" x="610" y="2" rx="2" ry="2"/><rect class="c co" x="610" y="18" rx="2" ry="2"/><rect class="c cp" x="610" y="34" rx="2" ry="2"/><rect class="c cq" x="610" y="50" rx="2" ry="2"/><rect class="c cr" x="610" y="66" rx="2" ry="2"/><rect class="c cs" x="610" y="82" rx="2" ry="2"/><rect class="c ct" x="610" y="98" rx="2" ry="2"/><rect class="c cu" x="626" y="2" rx="2" ry="2"/><rect class="c cv" x="626" y="18" rx="2" ry="2"/><rect class="c cw" x="626" y="34" rx="2" ry="2"/><rect class="c cx" x="626" y="50" rx="2" ry="2"/><rect class="c cy" x="626" y="66" rx="2" ry="2"/><rect class="c cz" x="626" y="82" rx="2" ry="2"/><rect class="c c10" x="626" y="98" rx="2" ry="2"/><rect class="c c11" x="642" y="2" rx="2" ry="2"/><rect class="c c12" x="642" y="18" rx="2" ry="2"/><rect class="c c13" x="642" y="34" rx="2" ry="2"/><rect class="c c14" x="642" y="50" rx="2" ry="2"/><rect class="c c15" x="642" y="66" rx="2" ry="2"/><rect class="c c16" x="642" y="82" rx="2" ry="2"/><rect class="c c17" x="642" y="98" rx="2" ry="2"/><rect class="c c18" x="658" y="2" rx="2" ry="2"/><rect class="c c19" x="658" y="18" rx="2" ry="2"/><rect class="c c1a" x="658" y="34" rx="2" ry="2"/><rect class="c c1b" x="658" y="50" rx="2" ry="2"/><rect class="c c1c" x="658" y="66" rx="2" ry="2"/><rect class="c c1d" x="658" y="82" rx="2" ry="2"/><rect class="c c1e" x="658" y="98" rx="2" ry="2"/><rect class="c c1f" x="674" y="2" rx="2" ry="2"/><rect class="c c1g" x="674" y="18" rx="2" ry="2"/><rect class="c c1h" x="674" y="34" rx="2" ry="2"/><rect class="c c1i" x="674" y="50" rx="2" ry="2"/><rect class="c c1j" x="674" y="66" rx="2" ry="2"/><rect class="c c1k" x="674" y="82" rx="2" ry="2"/><rect class="c c1l" x="674" y="98" rx="2" ry="2"/><rect class="c c1m" x="690" y="2" rx="2" ry="2"/><rect class="c c1n" x="690" y="18" rx="2" ry="2"/><rect class="c c1o" x="690" y="34" rx="2" ry="2"/><rect class="c c1p" x="690" y="50" rx="2" ry="2"/><rect class="c c1q" x="690" y="66" rx="2" ry="2"/><rect class="c c1r" x="690" y="82" rx="2" ry="2"/><rect class="c c1s" x="690" y="98" rx="2" ry="2"/><rect class="c c1t" x="706" y="2" rx="2" ry="2"/><rect class="c c1u" x="706" y="18" rx="2" ry="2"/><rect class="c c1v" x="706" y="34" rx="2" ry="2"/><rect class="c c1w" x="706" y="50" rx="2" ry="2"/><rect class="c c1x" x="706" y="66" rx="2" ry="2"/><rect class="c c1y" x="706" y="82" rx="2" ry="2"/><rect class="c c1z" x="706" y="98" rx="2" ry="2"/><rect class="c c20" x="722" y="2" rx="2" ry="2"/><rect class="c c21" x="722" y="18" rx="2" ry="2"/><rect class="c c22" x="722" y="34" rx="2" ry="2"/><rect class="c c23" x="722" y="50" rx="2" ry="2"/><rect class="c c24" x="722" y="66" rx="2" ry="2"/><rect class="c c25" x="722" y="82" rx="2" ry="2"/><rect class="c c26" x="722" y="98" rx="2" ry="2"/><rect class="c c27" x="738" y="2" rx="2" ry="2"/><rect class="c c28" x="738" y="18" rx="2" ry="2"/><rect class="c c29" x="738" y="34" rx="2" ry="2"/><rect class="c c2a" x="738" y="50" rx="2" ry="2"/><rect class="c c2b" x="738" y="66" rx="2" ry="2"/><rect class="c c2c" x="738" y="82" rx="2" ry="2"/><rect class="c c2d" x="738" y="98" rx="2" ry="2"/><rect class="c c2e" x="754" y="2" rx="2" ry="2"/><rect class="c c2f" x="754" y="18" rx="2" ry="2"/><rect class="c c2g" x="754" y="34" rx="2" ry="2"/><rect class="c c2h" x="754" y="50" rx="2" ry="2"/><rect class="c c2i" x="754" y="66" rx="2" ry="2"/><rect class="c c2j" x="754" y="82" rx="2" ry="2"/><rect class="c c2k" x="754" y="98" rx="2" ry="2"/><rect class="c c2l" x="770" y="2" rx="2" ry="2"/><rect class="c c2m" x="770" y="18" rx="2" ry="2"/><rect class="c c2n" x="770" y="34" rx="2" ry="2"/><rect class="c c2o" x="770" y="50" rx="2" ry="2"/><rect class="c c2p" x="770" y="66" rx="2" ry="2"/><rect class="c c2q" x="770" y="82" rx="2" ry="2"/><rect class="c c2r" x="770" y="98" rx="2" ry="2"/><rect class="c c2s" x="786" y="2" rx="2" ry="2"/><rect class="c c2t" x="786" y="18" rx="2" ry="2"/><rect class="c c2u" x="786" y="34" rx="2" ry="2"/><rect class="c c2v" x="786" y="50" rx="2" ry="2"/><rect class="c c2w" x="786" y="66" rx="2" ry="2"/><rect class="c c2x" x="786" y="82" rx="2" ry="2"/><rect class="c c2y" x="786" y="98" rx="2" ry="2"/><rect class="c c2z" x="802" y="2" rx="2" ry="2"/><rect class="c c30" x="802" y="18" rx="2" ry="2"/><rect class="c c31" x="802" y="34" rx="2" ry="2"/><rect class="c c32" x="802" y="50" rx="2" ry="2"/><rect class="c c33" x="802" y="66" rx="2" ry="2"/><rect class="c c34" x="802" y="82" rx="2" ry="2"/><rect class="c c35" x="802" y="98" rx="2" ry="2"/><rect class="c c36" x="818" y="2" rx="2" ry="2"/><rect class="c c37" x="818" y="18" rx="2" ry="2"/><rect class="c c38" x="818" y="34" rx="2" ry="2"/><rect class="c c39" x="818" y="50" rx="2" ry="2"/><rect class="c c3a" x="818" y="66" rx="2" ry="2"/><rect class="c c3b" x="818" y="82" rx="2" ry="2"/><rect class="c c3c" x="818" y="98" rx="2" ry="2"/><rect class="c" x="834" y="2" rx="2" ry="2"/><rect class="u u0" height="12" width="280.9" x="0.0" y="144"/><rect class="u u1" height="12" width="42.6" x="280.3" y="144"/><rect class="u u2" height="12" width="498.2" x="322.4" y="144"/><rect class="u u3" height="12" width="28.6" x="820.0" y="144"/><rect class="s s0" x="0.8" y="0.8" width="14.4" height="14.4" rx="4.5" ry="4.5"/><rect class="s s1" x="1.8" y="1.8" width="12.3" height="12.3" rx="4.1" ry="4.1"/><rect class="s s2" x="2.6" y="2.6" width="10.8" height="10.8" rx="3.6" ry="3.6"/><rect class="s s3" x="3.0" y="3.0" width="9.9" height="9.9" rx="3.3" ry="3.3"/></svg>