<svg viewBox="-16 -32 880 192" width="880" height="192" xmlns="http://www.w3.org/2000/svg"><desc>Generated with https://github.com/Platane/snk</desc><style>:root{--cb:#1b1f230a;--cs:purple;--ce:#161b22;--c0:#161b22;--c1:#01311f;--c2:#034525;--c3:#0f6d31;--c4:#00c647}.c{shape-rendering:geometricPrecision;fill:var(--ce);stroke-width:1px;stroke:var(--cb);animation:none 25900ms linear infinite;width:12px;height:12px}@keyframes c0{3.46%{fill:var(--c1)}3.48%,100%{fill:var(--ce)}}.c.c0{fill:var(--c1);animation-name:c0}@keyframes c1{16.98%{fill:var(--c1)}17%,100%{fill:var(--ce)}}.c.c1{fill:var(--c1);animation-name:c1}@keyframes c2{20.45%{fill:var(--c2)}20.47%,100%{fill:var(--ce)}}.c.c2{fill:var(--c2);animation-name:c2}@keyframes c3{20.07%{fill:var(--c1)}20.09%,100%{fill:var(--ce)}}.c.c3{fill:var(--c1);animation-name:c3}@keyframes c4{46.71%{fill:var(--c3)}46.73%,100%{fill:var(--ce)}}.c.c4{fill:var(--c3);animation-name:c4}@keyframes c5{22.38%{fill:var(--c2)}22.4%,100%{fill:var(--ce)}}.c.c5{fill:var(--c2);animation-name:c5}@keyframes c6{22.77%{fill:var(--c2)}22.79%,100%{fill:var(--ce)}}.c.c6{fill:var(--c2);animation-name:c6}@keyframes c7{81.07%{fill:var(--c4)}81.09%,100%{fill:var(--ce)}}.c.c7{fill:var(--c4);animation-name:c7}@keyframes c8{81.46%{fill:var(--c4)}81.48%,100%{fill:var(--ce)}}.c.c8{fill:var(--c4);animation-name:c8}@keyframes c9{84.16%{fill:var(--c4)}84.18%,100%{fill:var(--ce)}}.c.c9{fill:var(--c4);animation-name:c9}@keyframes ca{45.94%{fill:var(--c2)}45.96%,100%{fill:var(--ce)}}.c.ca{fill:var(--c2);animation-name:ca}@keyframes cb{46.32%{fill:var(--c2)}46.34%,100%{fill:var(--ce)}}.c.cb{fill:var(--c2);animation-name:cb}@keyframes cc{47.48%{fill:var(--c3)}47.5%,100%{fill:var(--ce)}}.c.cc{fill:var(--c3);animation-name:cc}@keyframes cd{78.75%{fill:var(--c3)}78.77%,100%{fill:var(--ce)}}.c.cd{fill:var(--c3);animation-name:cd}@keyframes ce{80.68%{fill:var(--c4)}80.7%,100%{fill:var(--ce)}}.c.ce{fill:var(--c4);animation-name:ce}@keyframes cf{80.3%{fill:var(--c3)}80.32%,100%{fill:var(--ce)}}.c.cf{fill:var(--c3);animation-name:cf}@keyframes cg{54.43%{fill:var(--c3)}54.45%,100%{fill:var(--ce)}}.c.cg{fill:var(--c3);animation-name:cg}@keyframes ch{54.82%{fill:var(--c3)}54.84%,100%{fill:var(--ce)}}.c.ch{fill:var(--c3);animation-name:ch}@keyframes ci{59.84%{fill:var(--c3)}59.86%,100%{fill:var(--ce)}}.c.ci{fill:var(--c3);animation-name:ci}@keyframes cj{47.87%{fill:var(--c3)}47.89%,100%{fill:var(--ce)}}.c.cj{fill:var(--c3);animation-name:cj}@keyframes ck{60.61%{fill:var(--c3)}60.63%,100%{fill:var(--ce)}}.c.ck{fill:var(--c3);animation-name:ck}@keyframes cl{66.4%{fill:var(--c3)}66.42%,100%{fill:var(--ce)}}.c.cl{fill:var(--c3);animation-name:cl}@keyframes cm{66.79%{fill:var(--c3)}66.81%,100%{fill:var(--ce)}}.c.cm{fill:var(--c3);animation-name:cm}@keyframes cn{54.04%{fill:var(--c3)}54.06%,100%{fill:var(--ce)}}.c.cn{fill:var(--c3);animation-name:cn}@keyframes co{55.2%{fill:var(--c3)}55.22%,100%{fill:var(--ce)}}.c.co{fill:var(--c3);animation-name:co}@keyframes cp{59.45%{fill:var(--c3)}59.47%,100%{fill:var(--ce)}}.c.cp{fill:var(--c3);animation-name:cp}@keyframes cq{48.25%{fill:var(--c3)}48.27%,100%{fill:var(--ce)}}.c.cq{fill:var(--c3);animation-name:cq}@keyframes cr{60.99%{fill:var(--c3)}61.01%,100%{fill:var(--ce)}}.c.cr{fill:var(--c3);animation-name:cr}@keyframes cs{66.01%{fill:var(--c3)}66.03%,100%{fill:var(--ce)}}.c.cs{fill:var(--c3);animation-name:cs}@keyframes ct{67.17%{fill:var(--c3)}67.19%,100%{fill:var(--ce)}}.c.ct{fill:var(--c3);animation-name:ct}@keyframes cu{53.66%{fill:var(--c3)}53.68%,100%{fill:var(--ce)}}.c.cu{fill:var(--c3);animation-name:cu}@keyframes cv{55.59%{fill:var(--c3)}55.61%,100%{fill:var(--ce)}}.c.cv{fill:var(--c3);animation-name:cv}@keyframes cw{59.06%{fill:var(--c3)}59.08%,100%{fill:var(--ce)}}.c.cw{fill:var(--c3);animation-name:cw}@keyframes cx{48.64%{fill:var(--c3)}48.66%,100%{fill:var(--ce)}}.c.cx{fill:var(--c3);animation-name:cx}@keyframes cy{61.38%{fill:var(--c3)}61.4%,100%{fill:var(--ce)}}.c.cy{fill:var(--c3);animation-name:cy}@keyframes cz{65.63%{fill:var(--c3)}65.65%,100%{fill:var(--ce)}}.c.cz{fill:var(--c3);animation-name:cz}@keyframes c10{67.56%{fill:var(--c3)}67.58%,100%{fill:var(--ce)}}.c.c10{fill:var(--c3);animation-name:c10}@keyframes c11{53.27%{fill:var(--c3)}53.29%,100%{fill:var(--ce)}}.c.c11{fill:var(--c3);animation-name:c11}@keyframes c12{55.97%{fill:var(--c3)}55.99%,100%{fill:var(--ce)}}.c.c12{fill:var(--c3);animation-name:c12}@keyframes c13{58.68%{fill:var(--c3)}58.7%,100%{fill:var(--ce)}}.c.c13{fill:var(--c3);animation-name:c13}@keyframes c14{49.02%{fill:var(--c3)}49.04%,100%{fill:var(--ce)}}.c.c14{fill:var(--c3);animation-name:c14}@keyframes c15{61.77%{fill:var(--c3)}61.79%,100%{fill:var(--ce)}}.c.c15{fill:var(--c3);animation-name:c15}@keyframes c16{65.24%{fill:var(--c3)}65.26%,100%{fill:var(--ce)}}.c.c16{fill:var(--c3);animation-name:c16}@keyframes c17{67.94%{fill:var(--c3)}67.96%,100%{fill:var(--ce)}}.c.c17{fill:var(--c3);animation-name:c17}@keyframes c18{52.89%{fill:var(--c3)}52.91%,100%{fill:var(--ce)}}.c.c18{fill:var(--c3);animation-name:c18}@keyframes c19{56.36%{fill:var(--c3)}56.38%,100%{fill:var(--ce)}}.c.c19{fill:var(--c3);animation-name:c19}@keyframes c1a{58.29%{fill:var(--c3)}58.31%,100%{fill:var(--ce)}}.c.c1a{fill:var(--c3);animation-name:c1a}@keyframes c1b{49.41%{fill:var(--c3)}49.43%,100%{fill:var(--ce)}}.c.c1b{fill:var(--c3);animation-name:c1b}@keyframes c1c{62.15%{fill:var(--c3)}62.17%,100%{fill:var(--ce)}}.c.c1c{fill:var(--c3);animation-name:c1c}@keyframes c1d{64.85%{fill:var(--c3)}64.87%,100%{fill:var(--ce)}}.c.c1d{fill:var(--c3);animation-name:c1d}@keyframes c1e{68.33%{fill:var(--c3)}68.35%,100%{fill:var(--ce)}}.c.c1e{fill:var(--c3);animation-name:c1e}@keyframes c1f{52.5%{fill:var(--c3)}52.52%,100%{fill:var(--ce)}}.c.c1f{fill:var(--c3);animation-name:c1f}@keyframes c1g{56.75%{fill:var(--c3)}56.77%,100%{fill:var(--ce)}}.c.c1g{fill:var(--c3);animation-name:c1g}@keyframes c1h{57.91%{fill:var(--c3)}57.93%,100%{fill:var(--ce)}}.c.c1h{fill:var(--c3);animation-name:c1h}@keyframes c1i{49.8%{fill:var(--c3)}49.82%,100%{fill:var(--ce)}}.c.c1i{fill:var(--c3);animation-name:c1i}@keyframes c1j{62.54%{fill:var(--c3)}62.56%,100%{fill:var(--ce)}}.c.c1j{fill:var(--c3);animation-name:c1j}@keyframes c1k{64.47%{fill:var(--c3)}64.49%,100%{fill:var(--ce)}}.c.c1k{fill:var(--c3);animation-name:c1k}@keyframes c1l{68.72%{fill:var(--c3)}68.74%,100%{fill:var(--ce)}}.c.c1l{fill:var(--c3);animation-name:c1l}@keyframes c1m{52.11%{fill:var(--c3)}52.13%,100%{fill:var(--ce)}}.c.c1m{fill:var(--c3);animation-name:c1m}@keyframes c1n{57.13%{fill:var(--c3)}57.15%,100%{fill:var(--ce)}}.c.c1n{fill:var(--c3);animation-name:c1n}@keyframes c1o{57.52%{fill:var(--c3)}57.54%,100%{fill:var(--ce)}}.c.c1o{fill:var(--c3);animation-name:c1o}@keyframes c1p{50.18%{fill:var(--c3)}50.2%,100%{fill:var(--ce)}}.c.c1p{fill:var(--c3);animation-name:c1p}@keyframes c1q{62.92%{fill:var(--c3)}62.94%,100%{fill:var(--ce)}}.c.c1q{fill:var(--c3);animation-name:c1q}@keyframes c1r{64.08%{fill:var(--c3)}64.1%,100%{fill:var(--ce)}}.c.c1r{fill:var(--c3);animation-name:c1r}@keyframes c1s{69.1%{fill:var(--c3)}69.12%,100%{fill:var(--ce)}}.c.c1s{fill:var(--c3);animation-name:c1s}@keyframes c1t{51.73%{fill:var(--c3)}51.75%,100%{fill:var(--ce)}}.c.c1t{fill:var(--c3);animation-name:c1t}@keyframes c1u{51.34%{fill:var(--c3)}51.36%,100%{fill:var(--ce)}}.c.c1u{fill:var(--c3);animation-name:c1u}@keyframes c1v{50.96%{fill:var(--c3)}50.98%,100%{fill:var(--ce)}}.c.c1v{fill:var(--c3);animation-name:c1v}@keyframes c1w{50.57%{fill:var(--c3)}50.59%,100%{fill:var(--ce)}}.c.c1w{fill:var(--c3);animation-name:c1w}@keyframes c1x{63.31%{fill:var(--c3)}63.33%,100%{fill:var(--ce)}}.c.c1x{fill:var(--c3);animation-name:c1x}@keyframes c1y{63.7%{fill:var(--c3)}63.72%,100%{fill:var(--ce)}}.c.c1y{fill:var(--c3);animation-name:c1y}@keyframes c1z{69.49%{fill:var(--c3)}69.51%,100%{fill:var(--ce)}}.c.c1z{fill:var(--c3);animation-name:c1z}@keyframes c20{35.13%{fill:var(--c2)}35.15%,100%{fill:var(--ce)}}.c.c20{fill:var(--c2);animation-name:c20}@keyframes c21{34.74%{fill:var(--c2)}34.76%,100%{fill:var(--ce)}}.c.c21{fill:var(--c2);animation-name:c21}@keyframes c22{34.35%{fill:var(--c2)}34.37%,100%{fill:var(--ce)}}.c.c22{fill:var(--c2);animation-name:c22}@keyframes c23{33.97%{fill:var(--c2)}33.99%,100%{fill:var(--ce)}}.c.c23{fill:var(--c2);animation-name:c23}@keyframes c24{33.58%{fill:var(--c2)}33.6%,100%{fill:var(--ce)}}.c.c24{fill:var(--c2);animation-name:c24}@keyframes c25{33.19%{fill:var(--c2)}33.21%,100%{fill:var(--ce)}}.c.c25{fill:var(--c2);animation-name:c25}@keyframes c26{28.95%{fill:var(--c2)}28.97%,100%{fill:var(--ce)}}.c.c26{fill:var(--c2);animation-name:c26}@keyframes c27{35.51%{fill:var(--c2)}35.53%,100%{fill:var(--ce)}}.c.c27{fill:var(--c2);animation-name:c27}@keyframes c28{73.74%{fill:var(--c3)}73.76%,100%{fill:var(--ce)}}.c.c28{fill:var(--c3);animation-name:c28}@keyframes c29{73.35%{fill:var(--c3)}73.37%,100%{fill:var(--ce)}}.c.c29{fill:var(--c3);animation-name:c29}@keyframes c2a{71.42%{fill:var(--c3)}71.44%,100%{fill:var(--ce)}}.c.c2a{fill:var(--c3);animation-name:c2a}@keyframes c2b{71.03%{fill:var(--c3)}71.05%,100%{fill:var(--ce)}}.c.c2b{fill:var(--c3);animation-name:c2b}@keyframes c2c{70.65%{fill:var(--c3)}70.67%,100%{fill:var(--ce)}}.c.c2c{fill:var(--c3);animation-name:c2c}@keyframes c2d{29.33%{fill:var(--c2)}29.35%,100%{fill:var(--ce)}}.c.c2d{fill:var(--c2);animation-name:c2d}@keyframes c2e{35.9%{fill:var(--c2)}35.92%,100%{fill:var(--ce)}}.c.c2e{fill:var(--c2);animation-name:c2e}@keyframes c2f{37.83%{fill:var(--c2)}37.85%,100%{fill:var(--ce)}}.c.c2f{fill:var(--c2);animation-name:c2f}@keyframes c2g{38.21%{fill:var(--c2)}38.23%,100%{fill:var(--ce)}}.c.c2g{fill:var(--c2);animation-name:c2g}@keyframes c2h{71.8%{fill:var(--c3)}71.82%,100%{fill:var(--ce)}}.c.c2h{fill:var(--c3);animation-name:c2h}@keyframes c2i{31.26%{fill:var(--c2)}31.28%,100%{fill:var(--ce)}}.c.c2i{fill:var(--c2);animation-name:c2i}@keyframes c2j{31.65%{fill:var(--c2)}31.67%,100%{fill:var(--ce)}}.c.c2j{fill:var(--c2);animation-name:c2j}@keyframes c2k{29.72%{fill:var(--c2)}29.74%,100%{fill:var(--ce)}}.c.c2k{fill:var(--c2);animation-name:c2k}@keyframes c2l{36.28%{fill:var(--c2)}36.3%,100%{fill:var(--ce)}}.c.c2l{fill:var(--c2);animation-name:c2l}@keyframes c2m{37.44%{fill:var(--c2)}37.46%,100%{fill:var(--ce)}}.c.c2m{fill:var(--c2);animation-name:c2m}@keyframes c2n{38.6%{fill:var(--c2)}38.62%,100%{fill:var(--ce)}}.c.c2n{fill:var(--c2);animation-name:c2n}@keyframes c2o{72.19%{fill:var(--c3)}72.21%,100%{fill:var(--ce)}}.c.c2o{fill:var(--c3);animation-name:c2o}@keyframes c2p{30.88%{fill:var(--c2)}30.9%,100%{fill:var(--ce)}}.c.c2p{fill:var(--c2);animation-name:c2p}@keyframes c2q{30.49%{fill:var(--c2)}30.51%,100%{fill:var(--ce)}}.c.c2q{fill:var(--c2);animation-name:c2q}@keyframes c2r{30.11%{fill:var(--c2)}30.13%,100%{fill:var(--ce)}}.c.c2r{fill:var(--c2);animation-name:c2r}@keyframes c2s{36.67%{fill:var(--c2)}36.69%,100%{fill:var(--ce)}}.c.c2s{fill:var(--c2);animation-name:c2s}@keyframes c2t{37.06%{fill:var(--c2)}37.08%,100%{fill:var(--ce)}}.c.c2t{fill:var(--c2);animation-name:c2t}.u{transform-origin:0 0;transform:scale(0,1);animation:none linear 25900ms infinite}@keyframes u0{3.46%{transform:scale(0.000,1)}3.48%,16.98%{transform:scale(0.333,1)}17%,20.07%{transform:scale(0.667,1)}20.09%,100%{transform:scale(1.000,1)}}.u.u0{fill:var(--c1);animation-name:u0;transform-origin:0.0px 0}@keyframes u1{20.45%{transform:scale(0.000,1)}20.47%,22.38%{transform:scale(0.036,1)}22.4%,22.77%{transform:scale(0.071,1)}22.79%,28.95%{transform:scale(0.107,1)}28.97%,29.33%{transform:scale(0.143,1)}29.35%,29.72%{transform:scale(0.179,1)}29.74%,30.11%{transform:scale(0.214,1)}30.13%,30.49%{transform:scale(0.250,1)}30.51%,30.88%{transform:scale(0.286,1)}30.9%,31.26%{transform:scale(0.321,1)}31.28%,31.65%{transform:scale(0.357,1)}31.67%,33.19%{transform:scale(0.393,1)}33.21%,33.58%{transform:scale(0.429,1)}33.6%,33.97%{transform:scale(0.464,1)}33.99%,34.35%{transform:scale(0.500,1)}34.37%,34.74%{transform:scale(0.536,1)}34.76%,35.13%{transform:scale(0.571,1)}35.15%,35.51%{transform:scale(0.607,1)}35.53%,35.9%{transform:scale(0.643,1)}35.92%,36.28%{transform:scale(0.679,1)}36.3%,36.67%{transform:scale(0.714,1)}36.69%,37.06%{transform:scale(0.750,1)}37.08%,37.44%{transform:scale(0.786,1)}37.46%,37.83%{transform:scale(0.821,1)}37.85%,38.21%{transform:scale(0.857,1)}38.23%,38.6%{transform:scale(0.893,1)}38.62%,45.94%{transform:scale(0.929,1)}45.96%,46.32%{transform:scale(0.964,1)}46.34%,100%{transform:scale(1.000,1)}}.u.u1{fill:var(--c2);animation-name:u1;transform-origin:24.9px 0}@keyframes u2{46.71%{transform:scale(0.000,1)}46.73%,47.48%{transform:scale(0.015,1)}47.5%,47.87%{transform:scale(0.030,1)}47.89%,48.25%{transform:scale(0.045,1)}48.27%,48.64%{transform:scale(0.060,1)}48.66%,49.02%{transform:scale(0.075,1)}49.04%,49.41%{transform:scale(0.090,1)}49.43%,49.8%{transform:scale(0.104,1)}49.82%,50.18%{transform:scale(0.119,1)}50.2%,50.57%{transform:scale(0.134,1)}50.59%,50.96%{transform:scale(0.149,1)}50.98%,51.34%{transform:scale(0.164,1)}51.36%,51.73%{transform:scale(0.179,1)}51.75%,52.11%{transform:scale(0.194,1)}52.13%,52.5%{transform:scale(0.209,1)}52.52%,52.89%{transform:scale(0.224,1)}52.91%,53.27%{transform:scale(0.239,1)}53.29%,53.66%{transform:scale(0.254,1)}53.68%,54.04%{transform:scale(0.269,1)}54.06%,54.43%{transform:scale(0.284,1)}54.45%,54.82%{transform:scale(0.299,1)}54.84%,55.2%{transform:scale(0.313,1)}55.22%,55.59%{transform:scale(0.328,1)}55.61%,55.97%{transform:scale(0.343,1)}55.99%,56.36%{transform:scale(0.358,1)}56.38%,56.75%{transform:scale(0.373,1)}56.77%,57.13%{transform:scale(0.388,1)}57.15%,57.52%{transform:scale(0.403,1)}57.54%,57.91%{transform:scale(0.418,1)}57.93%,58.29%{transform:scale(0.433,1)}58.31%,58.68%{transform:scale(0.448,1)}58.7%,59.06%{transform:scale(0.463,1)}59.08%,59.45%{transform:scale(0.478,1)}59.47%,59.84%{transform:scale(0.493,1)}59.86%,60.61%{transform:scale(0.507,1)}60.63%,60.99%{transform:scale(0.522,1)}61.01%,61.38%{transform:scale(0.537,1)}61.4%,61.77%{transform:scale(0.552,1)}61.79%,62.15%{transform:scale(0.567,1)}62.17%,62.54%{transform:scale(0.582,1)}62.56%,62.92%{transform:scale(0.597,1)}62.94%,63.31%{transform:scale(0.612,1)}63.33%,63.7%{transform:scale(0.627,1)}63.72%,64.08%{transform:scale(0.642,1)}64.1%,64.47%{transform:scale(0.657,1)}64.49%,64.85%{transform:scale(0.672,1)}64.87%,65.24%{transform:scale(0.687,1)}65.26%,65.63%{transform:scale(0.701,1)}65.65%,66.01%{transform:scale(0.716,1)}66.03%,66.4%{transform:scale(0.731,1)}66.42%,66.79%{transform:scale(0.746,1)}66.81%,67.17%{transform:scale(0.761,1)}67.19%,67.56%{transform:scale(0.776,1)}67.58%,67.94%{transform:scale(0.791,1)}67.96%,68.33%{transform:scale(0.806,1)}68.35%,68.72%{transform:scale(0.821,1)}68.74%,69.1%{transform:scale(0.836,1)}69.12%,69.49%{transform:scale(0.851,1)}69.51%,70.65%{transform:scale(0.866,1)}70.67%,71.03%{transform:scale(0.881,1)}71.05%,71.42%{transform:scale(0.896,1)}71.44%,71.8%{transform:scale(0.910,1)}71.82%,72.19%{transform:scale(0.925,1)}72.21%,73.35%{transform:scale(0.940,1)}73.37%,73.74%{transform:scale(0.955,1)}73.76%,78.75%{transform:scale(0.970,1)}78.77%,80.3%{transform:scale(0.985,1)}80.32%,100%{transform:scale(1.000,1)}}.u.u2{fill:var(--c3);animation-name:u2;transform-origin:257.7px 0}@keyframes u3{80.68%{transform:scale(0.000,1)}80.7%,81.07%{transform:scale(0.250,1)}81.09%,81.46%{transform:scale(0.500,1)}81.48%,84.16%{transform:scale(0.750,1)}84.18%,100%{transform:scale(1.000,1)}}.u.u3{fill:var(--c4);animation-name:u3;transform-origin:814.7px 0}.s{shape-rendering:geometricPrecision;fill:var(--cs);animation:none linear 25900ms infinite}@keyframes s0{0%,99.61%{transform:translate(0px,-16px)}0.39%{transform:translate(0px,0px)}1.93%{transform:translate(64px,0px)}3.47%{transform:translate(64px,64px)}16.22%,23.17%{transform:translate(592px,64px)}16.99%{transform:translate(592px,96px)}17.37%{transform:translate(576px,96px)}19.31%{transform:translate(576px,16px)}20.08%,45.56%{transform:translate(608px,16px)}20.46%{transform:translate(608px,0px)}20.85%{transform:translate(592px,0px)}22.01%{transform:translate(592px,48px)}22.39%,47.1%{transform:translate(608px,48px)}22.78%{transform:translate(608px,64px)}24.32%{transform:translate(592px,112px)}28.57%{transform:translate(768px,112px)}28.96%,32.82%{transform:translate(768px,96px)}30.12%{transform:translate(816px,96px)}30.89%{transform:translate(816px,64px)}31.27%{transform:translate(800px,64px)}32.05%{transform:translate(800px,96px)}35.14%{transform:translate(768px,0px)}36.68%{transform:translate(832px,0px)}37.07%{transform:translate(832px,16px)}37.84%,39.38%{transform:translate(800px,16px)}38.22%{transform:translate(800px,32px)}38.61%,72.59%{transform:translate(816px,32px)}39%{transform:translate(816px,16px)}39.77%{transform:translate(800px,0px)}40.15%{transform:translate(784px,0px)}40.54%{transform:translate(784px,-16px)}44.79%{transform:translate(608px,-16px)}45.95%,77.61%{transform:translate(624px,16px)}46.33%{transform:translate(624px,32px)}46.72%{transform:translate(608px,32px)}50.58%{transform:translate(752px,48px)}51.74%{transform:translate(752px,0px)}54.44%{transform:translate(640px,0px)}54.83%{transform:translate(640px,16px)}57.14%{transform:translate(736px,16px)}57.53%{transform:translate(736px,32px)}59.85%{transform:translate(640px,32px)}60.62%,79.15%{transform:translate(640px,64px)}63.32%{transform:translate(752px,64px)}63.71%{transform:translate(752px,80px)}66.41%{transform:translate(640px,80px)}66.8%,79.92%{transform:translate(640px,96px)}70.27%{transform:translate(784px,96px)}71.43%{transform:translate(784px,48px)}72.2%{transform:translate(816px,48px)}73.36%{transform:translate(784px,32px)}73.75%{transform:translate(784px,16px)}78.76%{transform:translate(624px,64px)}80.31%,81.85%{transform:translate(624px,96px)}80.69%{transform:translate(624px,80px)}81.08%{transform:translate(608px,80px)}81.47%{transform:translate(608px,96px)}84.17%{transform:translate(624px,0px)}96.91%{transform:translate(96px,0px)}97.3%{transform:translate(96px,-16px)}}.s.s0{transform:translate(0px,-16px);animation-name:s0}@keyframes s1{0%,99.61%{transform:translate(16px,-16px)}0.39%{transform:translate(0px,-16px)}0.77%{transform:translate(0px,0px)}2.32%{transform:translate(64px,0px)}3.86%{transform:translate(64px,64px)}16.6%,23.55%{transform:translate(592px,64px)}17.37%{transform:translate(592px,96px)}17.76%{transform:translate(576px,96px)}19.69%{transform:translate(576px,16px)}20.46%,45.95%{transform:translate(608px,16px)}20.85%{transform:translate(608px,0px)}21.24%{transform:translate(592px,0px)}22.39%{transform:translate(592px,48px)}22.78%,47.49%{transform:translate(608px,48px)}23.17%{transform:translate(608px,64px)}24.71%{transform:translate(592px,112px)}28.96%{transform:translate(768px,112px)}29.34%,33.2%{transform:translate(768px,96px)}30.5%{transform:translate(816px,96px)}31.27%{transform:translate(816px,64px)}31.66%{transform:translate(800px,64px)}32.43%{transform:translate(800px,96px)}35.52%{transform:translate(768px,0px)}37.07%{transform:translate(832px,0px)}37.45%{transform:translate(832px,16px)}38.22%,39.77%{transform:translate(800px,16px)}38.61%{transform:translate(800px,32px)}39%,72.97%{transform:translate(816px,32px)}39.38%{transform:translate(816px,16px)}40.15%{transform:translate(800px,0px)}40.54%{transform:translate(784px,0px)}40.93%{transform:translate(784px,-16px)}45.17%{transform:translate(608px,-16px)}46.33%,77.99%{transform:translate(624px,16px)}46.72%{transform:translate(624px,32px)}47.1%{transform:translate(608px,32px)}50.97%{transform:translate(752px,48px)}52.12%{transform:translate(752px,0px)}54.83%{transform:translate(640px,0px)}55.21%{transform:translate(640px,16px)}57.53%{transform:translate(736px,16px)}57.92%{transform:translate(736px,32px)}60.23%{transform:translate(640px,32px)}61%,79.54%{transform:translate(640px,64px)}63.71%{transform:translate(752px,64px)}64.09%{transform:translate(752px,80px)}66.8%{transform:translate(640px,80px)}67.18%,80.31%{transform:translate(640px,96px)}70.66%{transform:translate(784px,96px)}71.81%{transform:translate(784px,48px)}72.59%{transform:translate(816px,48px)}73.75%{transform:translate(784px,32px)}74.13%{transform:translate(784px,16px)}79.15%{transform:translate(624px,64px)}80.69%,82.24%{transform:translate(624px,96px)}81.08%{transform:translate(624px,80px)}81.47%{transform:translate(608px,80px)}81.85%{transform:translate(608px,96px)}84.56%{transform:translate(624px,0px)}97.3%{transform:translate(96px,0px)}97.68%{transform:translate(96px,-16px)}}.s.s1{transform:translate(16px,-16px);animation-name:s1}@keyframes s2{0%,99.61%{transform:translate(32px,-16px)}0.77%{transform:translate(0px,-16px)}1.16%{transform:translate(0px,0px)}2.7%{transform:translate(64px,0px)}4.25%{transform:translate(64px,64px)}16.99%,23.94%{transform:translate(592px,64px)}17.76%{transform:translate(592px,96px)}18.15%{transform:translate(576px,96px)}20.08%{transform:translate(576px,16px)}20.85%,46.33%{transform:translate(608px,16px)}21.24%{transform:translate(608px,0px)}21.62%{transform:translate(592px,0px)}22.78%{transform:translate(592px,48px)}23.17%,47.88%{transform:translate(608px,48px)}23.55%{transform:translate(608px,64px)}25.1%{transform:translate(592px,112px)}29.34%{transform:translate(768px,112px)}29.73%,33.59%{transform:translate(768px,96px)}30.89%{transform:translate(816px,96px)}31.66%{transform:translate(816px,64px)}32.05%{transform:translate(800px,64px)}32.82%{transform:translate(800px,96px)}35.91%{transform:translate(768px,0px)}37.45%{transform:translate(832px,0px)}37.84%{transform:translate(832px,16px)}38.61%,40.15%{transform:translate(800px,16px)}39%{transform:translate(800px,32px)}39.38%,73.36%{transform:translate(816px,32px)}39.77%{transform:translate(816px,16px)}40.54%{transform:translate(800px,0px)}40.93%{transform:translate(784px,0px)}41.31%{transform:translate(784px,-16px)}45.56%{transform:translate(608px,-16px)}46.72%,78.38%{transform:translate(624px,16px)}47.1%{transform:translate(624px,32px)}47.49%{transform:translate(608px,32px)}51.35%{transform:translate(752px,48px)}52.51%{transform:translate(752px,0px)}55.21%{transform:translate(640px,0px)}55.6%{transform:translate(640px,16px)}57.92%{transform:translate(736px,16px)}58.3%{transform:translate(736px,32px)}60.62%{transform:translate(640px,32px)}61.39%,79.92%{transform:translate(640px,64px)}64.09%{transform:translate(752px,64px)}64.48%{transform:translate(752px,80px)}67.18%{transform:translate(640px,80px)}67.57%,80.69%{transform:translate(640px,96px)}71.04%{transform:translate(784px,96px)}72.2%{transform:translate(784px,48px)}72.97%{transform:translate(816px,48px)}74.13%{transform:translate(784px,32px)}74.52%{transform:translate(784px,16px)}79.54%{transform:translate(624px,64px)}81.08%,82.63%{transform:translate(624px,96px)}81.47%{transform:translate(624px,80px)}81.85%{transform:translate(608px,80px)}82.24%{transform:translate(608px,96px)}84.94%{transform:translate(624px,0px)}97.68%{transform:translate(96px,0px)}98.07%{transform:translate(96px,-16px)}}.s.s2{transform:translate(32px,-16px);animation-name:s2}@keyframes s3{0%,99.61%{transform:translate(48px,-16px)}1.16%{transform:translate(0px,-16px)}1.54%{transform:translate(0px,0px)}3.09%{transform:translate(64px,0px)}4.63%{transform:translate(64px,64px)}17.37%,24.32%{transform:translate(592px,64px)}18.15%{transform:translate(592px,96px)}18.53%{transform:translate(576px,96px)}20.46%{transform:translate(576px,16px)}21.24%,46.72%{transform:translate(608px,16px)}21.62%{transform:translate(608px,0px)}22.01%{transform:translate(592px,0px)}23.17%{transform:translate(592px,48px)}23.55%,48.26%{transform:translate(608px,48px)}23.94%{transform:translate(608px,64px)}25.48%{transform:translate(592px,112px)}29.73%{transform:translate(768px,112px)}30.12%,33.98%{transform:translate(768px,96px)}31.27%{transform:translate(816px,96px)}32.05%{transform:translate(816px,64px)}32.43%{transform:translate(800px,64px)}33.2%{transform:translate(800px,96px)}36.29%{transform:translate(768px,0px)}37.84%{transform:translate(832px,0px)}38.22%{transform:translate(832px,16px)}39%,40.54%{transform:translate(800px,16px)}39.38%{transform:translate(800px,32px)}39.77%,73.75%{transform:translate(816px,32px)}40.15%{transform:translate(816px,16px)}40.93%{transform:translate(800px,0px)}41.31%{transform:translate(784px,0px)}41.7%{transform:translate(784px,-16px)}45.95%{transform:translate(608px,-16px)}47.1%,78.76%{transform:translate(624px,16px)}47.49%{transform:translate(624px,32px)}47.88%{transform:translate(608px,32px)}51.74%{transform:translate(752px,48px)}52.9%{transform:translate(752px,0px)}55.6%{transform:translate(640px,0px)}55.98%{transform:translate(640px,16px)}58.3%{transform:translate(736px,16px)}58.69%{transform:translate(736px,32px)}61%{transform:translate(640px,32px)}61.78%,80.31%{transform:translate(640px,64px)}64.48%{transform:translate(752px,64px)}64.86%{transform:translate(752px,80px)}67.57%{transform:translate(640px,80px)}67.95%,81.08%{transform:translate(640px,96px)}71.43%{transform:translate(784px,96px)}72.59%{transform:translate(784px,48px)}73.36%{transform:translate(816px,48px)}74.52%{transform:translate(784px,32px)}74.9%{transform:translate(784px,16px)}79.92%{transform:translate(624px,64px)}81.47%,83.01%{transform:translate(624px,96px)}81.85%{transform:translate(624px,80px)}82.24%{transform:translate(608px,80px)}82.63%{transform:translate(608px,96px)}85.33%{transform:translate(624px,0px)}98.07%{transform:translate(96px,0px)}98.46%{transform:translate(96px,-16px)}}.s.s3{transform:translate(48px,-16px);animation-name:s3}</style><rect class="c" x="2" y="2" rx="2" ry="2"/><rect class="c" x="2" y="18" rx="2" ry="2"/><rect class="c" x="2" y="34" rx="2" ry="2"/><rect class="c" x="2" y="50" rx="2" ry="2"/><rect class="c" x="2" y="66" rx="2" ry="2"/><rect class="c" x="2" y="82" rx="2" ry="2"/><rect class="c" x="2" y="98" rx="2" ry="2"/><rect class="c" x="18" y="2" rx="2" ry="2"/><rect class="c" x="18" y="18" rx="2" ry="2"/><rect class="c" x="18" y="34" rx="2" ry="2"/><rect class="c" x="18" y="50" rx="2" ry="2"/><rect class="c" x="18" y="66" rx="2" ry="2"/><rect class="c" x="18" y="82" rx="2" ry="2"/><rect class="c" x="18" y="98" rx="2" ry="2"/><rect class="c" x="34" y="2" rx="2" ry="2"/><rect class="c" x="34" y="18" rx="2" ry="2"/><rect class="c" x="34" y="34" rx="2" ry="2"/><rect class="c" x="34" y="50" rx="2" ry="2"/><rect class="c" x="34" y="66" rx="2" ry="2"/><rect class="c" x="34" y="82" rx="2" ry="2"/><rect class="c" x="34" y="98" rx="2" ry="2"/><rect class="c" x="50" y="2" rx="2" ry="2"/><rect class="c" x="50" y="18" rx="2" ry="2"/><rect class="c" x="50" y="34" rx="2" ry="2"/><rect class="c" x="50" y="50" rx="2" ry="2"/><rect class="c" x="50" y="66" rx="2" ry="2"/><rect class="c" x="50" y="82" rx="2" ry="2"/><rect class="c" x="50" y="98" rx="2" ry="2"/><rect class="c" x="66" y="2" rx="2" ry="2"/><rect class="c" x="66" y="18" rx="2" ry="2"/><rect class="c" x="66" y="34" rx="2" ry="2"/><rect class="c" x="66" y="50" rx="2" ry="2"/><rect class="c c0" x="66" y="66" rx="2" ry="2"/><rect class="c" x="66" y="82" rx="2" ry="2"/><rect class="c" x="66" y="98" rx="2" ry="2"/><rect class="c" x="82" y="2" rx="2" ry="2"/><rect class="c" x="82" y="18" rx="2" ry="2"/><rect class="c" x="82" y="34" rx="2" ry="2"/><rect class="c" x="82" y="50" rx="2" ry="2"/><rect class="c" x="82" y="66" rx="2" ry="2"/><rect class="c" x="82" y="82" rx="2" ry="2"/><rect class="c" x="82" y="98" rx="2" ry="2"/><rect class="c" x="98" y="2" rx="2" ry="2"/><rect class="c" x="98" y="18" rx="2" ry="2"/><rect class="c" x="98" y="34" rx="2" ry="2"/><rect class="c" x="98" y="50" rx="2" ry="2"/><rect class="c" x="98" y="66" rx="2" ry="2"/><rect class="c" x="98" y="82" rx="2" ry="2"/><rect class="c" x="98" y="98" rx="2" ry="2"/><rect class="c" x="114" y="2" rx="2" ry="2"/><rect class="c" x="114" y="18" rx="2" ry="2"/><rect class="c" x="114" y="34" rx="2" ry="2"/><rect class="c" x="114" y="50" rx="2" ry="2"/><rect class="c" x="114" y="66" rx="2" ry="2"/><rect class="c" x="114" y="82" rx="2" ry="2"/><rect class="c" x="114" y="98" rx="2" ry="2"/><rect class="c" x="130" y="2" rx="2" ry="2"/><rect class="c" x="130" y="18" rx="2" ry="2"/><rect class="c" x="130" y="34" rx="2" ry="2"/><rect class="c" x="130" y="50" rx="2" ry="2"/><rect class="c" x="130" y="66" rx="2" ry="2"/><rect class="c" x="130" y="82" rx="2" ry="2"/><rect class="c" x="130" y="98" rx="2" ry="2"/><rect class="c" x="146" y="2" rx="2" ry="2"/><rect class="c" x="146" y="18" rx="2" ry="2"/><rect class="c" x="146" y="34" rx="2" ry="2"/><rect class="c" x="146" y="50" rx="2" ry="2"/><rect class="c" x="146" y="66" rx="2" ry="2"/><rect class="c" x="146" y="82" rx="2" ry="2"/><rect class="c" x="146" y="98" rx="2" ry="2"/><rect class="c" x="162" y="2" rx="2" ry="2"/><rect class="c" x="162" y="18" rx="2" ry="2"/><rect class="c" x="162" y="34" rx="2" ry="2"/><rect class="c" x="162" y="50" rx="2" ry="2"/><rect class="c" x="162" y="66" rx="2" ry="2"/><rect class="c" x="162" y="82" rx="2" ry="2"/><rect class="c" x="162" y="98" rx="2" ry="2"/><rect class="c" x="178" y="2" rx="2" ry="2"/><rect class="c" x="178" y="18" rx="2" ry="2"/><rect class="c" x="178" y="34" rx="2" ry="2"/><rect class="c" x="178" y="50" rx="2" ry="2"/><rect class="c" x="178" y="66" rx="2" ry="2"/><rect class="c" x="178" y="82" rx="2" ry="2"/><rect class="c" x="178" y="98" rx="2" ry="2"/><rect class="c" x="194" y="2" rx="2" ry="2"/><rect class="c" x="194" y="18" rx="2" ry="2"/><rect class="c" x="194" y="34" rx="2" ry="2"/><rect class="c" x="194" y="50" rx="2" ry="2"/><rect class="c" x="194" y="66" rx="2" ry="2"/><rect class="c" x="194" y="82" rx="2" ry="2"/><rect class="c" x="194" y="98" rx="2" ry="2"/><rect class="c" x="210" y="2" rx="2" ry="2"/><rect class="c" x="210" y="18" rx="2" ry="2"/><rect class="c" x="210" y="34" rx="2" ry="2"/><rect class="c" x="210" y="50" rx="2" ry="2"/><rect class="c" x="210" y="66" rx="2" ry="2"/><rect class="c" x="210" y="82" rx="2" ry="2"/><rect class="c" x="210" y="98" rx="2" ry="2"/><rect class="c" x="226" y="2" rx="2" ry="2"/><rect class="c" x="226" y="18" rx="2" ry="2"/><rect class="c" x="226" y="34" rx="2" ry="2"/><rect class="c" x="226" y="50" rx="2" ry="2"/><rect class="c" x="226" y="66" rx="2" ry="2"/><rect class="c" x="226" y="82" rx="2" ry="2"/><rect class="c" x="226" y="98" rx="2" ry="2"/><rect class="c" x="242" y="2" rx="2" ry="2"/><rect class="c" x="242" y="18" rx="2" ry="2"/><rect class="c" x="242" y="34" rx="2" ry="2"/><rect class="c" x="242" y="50" rx="2" ry="2"/><rect class="c" x="242" y="66" rx="2" ry="2"/><rect class="c" x="242" y="82" rx="2" ry="2"/><rect class="c" x="242" y="98" rx="2" ry="2"/><rect class="c" x="258" y="2" rx="2" ry="2"/><rect class="c" x="258" y="18" rx="2" ry="2"/><rect class="c" x="258" y="34" rx="2" ry="2"/><rect class="c" x="258" y="50" rx="2" ry="2"/><rect class="c" x="258" y="66" rx="2" ry="2"/><rect class="c" x="258" y="82" rx="2" ry="2"/><rect class="c" x="258" y="98" rx="2" ry="2"/><rect class="c" x="274" y="2" rx="2" ry="2"/><rect class="c" x="274" y="18" rx="2" ry="2"/><rect class="c" x="274" y="34" rx="2" ry="2"/><rect class="c" x="274" y="50" rx="2" ry="2"/><rect class="c" x="274" y="66" rx="2" ry="2"/><rect class="c" x="274" y="82" rx="2" ry="2"/><rect class="c" x="274" y="98" rx="2" ry="2"/><rect class="c" x="290" y="2" rx="2" ry="2"/><rect class="c" x="290" y="18" rx="2" ry="2"/><rect class="c" x="290" y="34" rx="2" ry="2"/><rect class="c" x="290" y="50" rx="2" ry="2"/><rect class="c" x="290" y="66" rx="2" ry="2"/><rect class="c" x="290" y="82" rx="2" ry="2"/><rect class="c" x="290" y="98" rx="2" ry="2"/><rect class="c" x="306" y="2" rx="2" ry="2"/><rect class="c" x="306" y="18" rx="2" ry="2"/><rect class="c" x="306" y="34" rx="2" ry="2"/><rect class="c" x="306" y="50" rx="2" ry="2"/><rect class="c" x="306" y="66" rx="2" ry="2"/><rect class="c" x="306" y="82" rx="2" ry="2"/><rect class="c" x="306" y="98" rx="2" ry="2"/><rect class="c" x="322" y="2" rx="2" ry="2"/><rect class="c" x="322" y="18" rx="2" ry="2"/><rect class="c" x="322" y="34" rx="2" ry="2"/><rect class="c" x="322" y="50" rx="2" ry="2"/><rect class="c" x="322" y="66" rx="2" ry="2"/><rect class="c" x="322" y="82" rx="2" ry="2"/><rect class="c" x="322" y="98" rx="2" ry="2"/><rect class="c" x="338" y="2" rx="2" ry="2"/><rect class="c" x="338" y="18" rx="2" ry="2"/><rect class="c" x="338" y="34" rx="2" ry="2"/><rect class="c" x="338" y="50" rx="2" ry="2"/><rect class="c" x="338" y="66" rx="2" ry="2"/><rect class="c" x="338" y="82" rx="2" ry="2"/><rect class="c" x="338" y="98" rx="2" ry="2"/><rect class="c" x="354" y="2" rx="2" ry="2"/><rect class="c" x="354" y="18" rx="2" ry="2"/><rect class="c" x="354" y="34" rx="2" ry="2"/><rect class="c" x="354" y="50" rx="2" ry="2"/><rect class="c" x="354" y="66" rx="2" ry="2"/><rect class="c" x="354" y="82" rx="2" ry="2"/><rect class="c" x="354" y="98" rx="2" ry="2"/><rect class="c" x="370" y="2" rx="2" ry="2"/><rect class="c" x="370" y="18" rx="2" ry="2"/><rect class="c" x="370" y="34" rx="2" ry="2"/><rect class="c" x="370" y="50" rx="2" ry="2"/><rect class="c" x="370" y="66" rx="2" ry="2"/><rect class="c" x="370" y="82" rx="2" ry="2"/><rect class="c" x="370" y="98" rx="2" ry="2"/><rect class="c" x="386" y="2" rx="2" ry="2"/><rect class="c" x="386" y="18" rx="2" ry="2"/><rect class="c" x="386" y="34" rx="2" ry="2"/><rect class="c" x="386" y="50" rx="2" ry="2"/><rect class="c" x="386" y="66" rx="2" ry="2"/><rect class="c" x="386" y="82" rx="2" ry="2"/><rect class="c" x="386" y="98" rx="2" ry="2"/><rect class="c" x="402" y="2" rx="2" ry="2"/><rect class="c" x="402" y="18" rx="2" ry="2"/><rect class="c" x="402" y="34" rx="2" ry="2"/><rect class="c" x="402" y="50" rx="2" ry="2"/><rect class="c" x="402" y="66" rx="2" ry="2"/><rect class="c" x="402" y="82" rx="2" ry="2"/><rect class="c" x="402" y="98" rx="2" ry="2"/><rect class="c" x="418" y="2" rx="2" ry="2"/><rect class="c" x="418" y="18" rx="2" ry="2"/><rect class="c" x="418" y="34" rx="2" ry="2"/><rect class="c" x="418" y="50" rx="2" ry="2"/><rect class="c" x="418" y="66" rx="2" ry="2"/><rect class="c" x="418" y="82" rx="2" ry="2"/><rect class="c" x="418" y="98" rx="2" ry="2"/><rect class="c" x="434" y="2" rx="2" ry="2"/><rect class="c" x="434" y="18" rx="2" ry="2"/><rect class="c" x="434" y="34" rx="2" ry="2"/><rect class="c" x="434" y="50" rx="2" ry="2"/><rect class="c" x="434" y="66" rx="2" ry="2"/><rect class="c" x="434" y="82" rx="2" ry="2"/><rect class="c" x="434" y="98" rx="2" ry="2"/><rect class="c" x="450" y="2" rx="2" ry="2"/><rect class="c" x="450" y="18" rx="2" ry="2"/><rect class="c" x="450" y="34" rx="2" ry="2"/><rect class="c" x="450" y="50" rx="2" ry="2"/><rect class="c" x="450" y="66" rx="2" ry="2"/><rect class="c" x="450" y="82" rx="2" ry="2"/><rect class="c" x="450" y="98" rx="2" ry="2"/><rect class="c" x="466" y="2" rx="2" ry="2"/><rect class="c" x="466" y="18" rx="2" ry="2"/><rect class="c" x="466" y="34" rx="2" ry="2"/><rect class="c" x="466" y="50" rx="2" ry="2"/><rect class="c" x="466" y="66" rx="2" ry="2"/><rect class="c" x="466" y="82" rx="2" ry="2"/><rect class="c" x="466" y="98" rx="2" ry="2"/><rect class="c" x="482" y="2" rx="2" ry="2"/><rect class="c" x="482" y="18" rx="2" ry="2"/><rect class="c" x="482" y="34" rx="2" ry="2"/><rect class="c" x="482" y="50" rx="2" ry="2"/><rect class="c" x="482" y="66" rx="2" ry="2"/><rect class="c" x="482" y="82" rx="2" ry="2"/><rect class="c" x="482" y="98" rx="2" ry="2"/><rect class="c" x="498" y="2" rx="2" ry="2"/><rect class="c" x="498" y="18" rx="2" ry="2"/><rect class="c" x="498" y="34" rx="2" ry="2"/><rect class="c" x="498" y="50" rx="2" ry="2"/><rect class="c" x="498" y="66" rx="2" ry="2"/><rect class="c" x="498" y="82" rx="2" ry="2"/><rect class="c" x="498" y="98" rx="2" ry="2"/><rect class="c" x="514" y="2" rx="2" ry="2"/><rect class="c" x="514" y="18" rx="2" ry="2"/><rect class="c" x="514" y="34" rx="2" ry="2"/><rect class="c" x="514" y="50" rx="2" ry="2"/><rect class="c" x="514" y="66" rx="2" ry="2"/><rect class="c" x="514" y="82" rx="2" ry="2"/><rect class="c" x="514" y="98" rx="2" ry="2"/><rect class="c" x="530" y="2" rx="2" ry="2"/><rect class="c" x="530" y="18" rx="2" ry="2"/><rect class="c" x="530" y="34" rx="2" ry="2"/><rect class="c" x="530" y="50" rx="2" ry="2"/><rect class="c" x="530" y="66" rx="2" ry="2"/><rect class="c" x="530" y="82" rx="2" ry="2"/><rect class="c" x="530" y="98" rx="2" ry="2"/><rect class="c" x="546" y="2" rx="2" ry="2"/><rect class="c" x="546" y="18" rx="2" ry="2"/><rect class="c" x="546" y="34" rx="2" ry="2"/><rect class="c" x="546" y="50" rx="2" ry="2"/><rect class="c" x="546" y="66" rx="2" ry="2"/><rect class="c" x="546" y="82" rx="2" ry="2"/><rect class="c" x="546" y="98" rx="2" ry="2"/><rect class="c" x="562" y="2" rx="2" ry="2"/><rect class="c" x="562" y="18" rx="2" ry="2"/><rect class="c" x="562" y="34" rx="2" ry="2"/><rect class="c" x="562" y="50" rx="2" ry="2"/><rect class="c" x="562" y="66" rx="2" ry="2"/><rect class="c" x="562" y="82" rx="2" ry="2"/><rect class="c" x="562" y="98" rx="2" ry="2"/><rect class="c" x="578" y="2" rx="2" ry="2"/><rect class="c" x="578" y="18" rx="2" ry="2"/><rect class="c" x="578" y="34" rx="2" ry="2"/><rect class="c" x="578" y="50" rx="2" ry="2"/><rect class="c" x="578" y="66" rx="2" ry="2"/><rect class="c" x="578" y="82" rx="2" ry="2"/><rect class="c" x="578" y="98" rx="2" ry="2"/><rect class="c" x="594" y="2" rx="2" ry="2"/><rect class="c" x="594" y="18" rx="2" ry="2"/><rect class="c" x="594" y="34" rx="2" ry="2"/><rect class="c" x="594" y="50" rx="2" ry="2"/><rect class="c" x="594" y="66" rx="2" ry="2"/><rect class="c" x="594" y="82" rx="2" ry="2"/><rect class="c c1" x="594" y="98" rx="2" ry="2"/><rect class="c c2" x="610" y="2" rx="2" ry="2"/><rect class="c c3" x="610" y="18" rx="2" ry="2"/><rect class="c c4" x="610" y="34" rx="2" ry="2"/><rect class="c c5" x="610" y="50" rx="2" ry="2"/><rect class="c c6" x="610" y="66" rx="2" ry="2"/><rect class="c c7" x="610" y="82" rx="2" ry="2"/><rect class="c c8" x="610" y="98" rx="2" ry="2"/><rect class="c c9" x="626" y="2" rx="2" ry="2"/><rect class="c ca" x="626" y="18" rx="2" ry="2"/><rect class="c cb" x="626" y="34" rx="2" ry="2"/><rect class="c cc" x="626" y="50" rx="2" ry="2"/><rect class="c cd" x="626" y="66" rx="2" ry="2"/><rect class="c ce" x="626" y="82" rx="2" ry="2"/><rect class="c cf" x="626" y="98" rx="2" ry="2"/><rect class="c cg" x="642" y="2" rx="2" ry="2"/><rect class="c ch" x="642" y="18" rx="2" ry="2"/><rect class="c ci" x="642" y="34" rx="2" ry="2"/><rect class="c cj" x="642" y="50" rx="2" ry="2"/><rect class="c ck" x="642" y="66" rx="2" ry="2"/><rect class="c cl" x="642" y="82" rx="2" ry="2"/><rect class="c cm" x="642" y="98" rx="2" ry="2"/><rect class="c cn" x="658" y="2" rx="2" ry="2"/><rect class="c co" x="658" y="18" rx="2" ry="2"/><rect class="c cp" x="658" y="34" rx="2" ry="2"/><rect class="c cq" x="658" y="50" rx="2" ry="2"/><rect class="c cr" x="658" y="66" rx="2" ry="2"/><rect class="c cs" x="658" y="82" rx="2" ry="2"/><rect class="c ct" x="658" y="98" rx="2" ry="2"/><rect class="c cu" x="674" y="2" rx="2" ry="2"/><rect class="c cv" x="674" y="18" rx="2" ry="2"/><rect class="c cw" x="674" y="34" rx="2" ry="2"/><rect class="c cx" x="674" y="50" rx="2" ry="2"/><rect class="c cy" x="674" y="66" rx="2" ry="2"/><rect class="c cz" x="674" y="82" rx="2" ry="2"/><rect class="c c10" x="674" y="98" rx="2" ry="2"/><rect class="c c11" x="690" y="2" rx="2" ry="2"/><rect class="c c12" x="690" y="18" rx="2" ry="2"/><rect class="c c13" x="690" y="34" rx="2" ry="2"/><rect class="c c14" x="690" y="50" rx="2" ry="2"/><rect class="c c15" x="690" y="66" rx="2" ry="2"/><rect class="c c16" x="690" y="82" rx="2" ry="2"/><rect class="c c17" x="690" y="98" rx="2" ry="2"/><rect class="c c18" x="706" y="2" rx="2" ry="2"/><rect class="c c19" x="706" y="18" rx="2" ry="2"/><rect class="c c1a" x="706" y="34" rx="2" ry="2"/><rect class="c c1b" x="706" y="50" rx="2" ry="2"/><rect class="c c1c" x="706" y="66" rx="2" ry="2"/><rect class="c c1d" x="706" y="82" rx="2" ry="2"/><rect class="c c1e" x="706" y="98" rx="2" ry="2"/><rect class="c c1f" x="722" y="2" rx="2" ry="2"/><rect class="c c1g" x="722" y="18" rx="2" ry="2"/><rect class="c c1h" x="722" y="34" rx="2" ry="2"/><rect class="c c1i" x="722" y="50" rx="2" ry="2"/><rect class="c c1j" x="722" y="66" rx="2" ry="2"/><rect class="c c1k" x="722" y="82" rx="2" ry="2"/><rect class="c c1l" x="722" y="98" rx="2" ry="2"/><rect class="c c1m" x="738" y="2" rx="2" ry="2"/><rect class="c c1n" x="738" y="18" rx="2" ry="2"/><rect class="c c1o" x="738" y="34" rx="2" ry="2"/><rect class="c c1p" x="738" y="50" rx="2" ry="2"/><rect class="c c1q" x="738" y="66" rx="2" ry="2"/><rect class="c c1r" x="738" y="82" rx="2" ry="2"/><rect class="c c1s" x="738" y="98" rx="2" ry="2"/><rect class="c c1t" x="754" y="2" rx="2" ry="2"/><rect class="c c1u" x="754" y="18" rx="2" ry="2"/><rect class="c c1v" x="754" y="34" rx="2" ry="2"/><rect class="c c1w" x="754" y="50" rx="2" ry="2"/><rect class="c c1x" x="754" y="66" rx="2" ry="2"/><rect class="c c1y" x="754" y="82" rx="2" ry="2"/><rect class="c c1z" x="754" y="98" rx="2" ry="2"/><rect class="c c20" x="770" y="2" rx="2" ry="2"/><rect class="c c21" x="770" y="18" rx="2" ry="2"/><rect class="c c22" x="770" y="34" rx="2" ry="2"/><rect class="c c23" x="770" y="50" rx="2" ry="2"/><rect class="c c24" x="770" y="66" rx="2" ry="2"/><rect class="c c25" x="770" y="82" rx="2" ry="2"/><rect class="c c26" x="770" y="98" rx="2" ry="2"/><rect class="c c27" x="786" y="2" rx="2" ry="2"/><rect class="c c28" x="786" y="18" rx="2" ry="2"/><rect class="c c29" x="786" y="34" rx="2" ry="2"/><rect class="c c2a" x="786" y="50" rx="2" ry="2"/><rect class="c c2b" x="786" y="66" rx="2" ry="2"/><rect class="c c2c" x="786" y="82" rx="2" ry="2"/><rect class="c c2d" x="786" y="98" rx="2" ry="2"/><rect class="c c2e" x="802" y="2" rx="2" ry="2"/><rect class="c c2f" x="802" y="18" rx="2" ry="2"/><rect class="c c2g" x="802" y="34" rx="2" ry="2"/><rect class="c c2h" x="802" y="50" rx="2" ry="2"/><rect class="c c2i" x="802" y="66" rx="2" ry="2"/><rect class="c c2j" x="802" y="82" rx="2" ry="2"/><rect class="c c2k" x="802" y="98" rx="2" ry="2"/><rect class="c c2l" x="818" y="2" rx="2" ry="2"/><rect class="c c2m" x="818" y="18" rx="2" ry="2"/><rect class="c c2n" x="818" y="34" rx="2" ry="2"/><rect class="c c2o" x="818" y="50" rx="2" ry="2"/><rect class="c c2p" x="818" y="66" rx="2" ry="2"/><rect class="c c2q" x="818" y="82" rx="2" ry="2"/><rect class="c c2r" x="818" y="98" rx="2" ry="2"/><rect class="c c2s" x="834" y="2" rx="2" ry="2"/><rect class="c c2t" x="834" y="18" rx="2" ry="2"/><rect class="c" x="834" y="34" rx="2" ry="2"/><rect class="u u0" height="12" width="25.5" x="0.0" y="144"/><rect class="u u1" height="12" width="233.4" x="24.9" y="144"/><rect class="u u2" height="12" width="557.6" x="257.7" y="144"/><rect class="u u3" height="12" width="33.9" x="814.7" y="144"/><rect class="s s0" x="0.8" y="0.8" width="14.4" height="14.4" rx="4.5" ry="4.5"/><rect class="s s1" x="1.8" y="1.8" width="12.3" height="12.3" rx="4.1" ry="4.1"/><rect class="s s2" x="2.6" y="2.6" width="10.8" height="10.8" rx="3.6" ry="3.6"/><rect class="s s3" x="3.0" y="3.0" width="9.9" height="9.9" rx="3.3" ry="3.3"/></svg>