<svg viewBox="-16 -32 880 192" width="880" height="192" xmlns="http://www.w3.org/2000/svg"><desc>Generated with https://github.com/Platane/snk</desc><style>:root{--cb:#1b1f230a;--cs:purple;--ce:#161b22;--c0:#161b22;--c1:#01311f;--c2:#034525;--c3:#0f6d31;--c4:#00c647}.c{shape-rendering:geometricPrecision;fill:var(--ce);stroke-width:1px;stroke:var(--cb);animation:none 32300ms linear infinite;width:12px;height:12px}@keyframes c0{2.16%{fill:var(--c1)}2.18%,100%{fill:var(--ce)}}.c.c0{fill:var(--c1);animation-name:c0}@keyframes c1{12.99%{fill:var(--c1)}13.01%,100%{fill:var(--ce)}}.c.c1{fill:var(--c1);animation-name:c1}@keyframes c2{15.78%{fill:var(--c1)}15.8%,100%{fill:var(--ce)}}.c.c2{fill:var(--c1);animation-name:c2}@keyframes c3{15.47%{fill:var(--c1)}15.49%,100%{fill:var(--ce)}}.c.c3{fill:var(--c1);animation-name:c3}@keyframes c4{64.7%{fill:var(--c3)}64.72%,100%{fill:var(--ce)}}.c.c4{fill:var(--c3);animation-name:c4}@keyframes c5{41.48%{fill:var(--c2)}41.5%,100%{fill:var(--ce)}}.c.c5{fill:var(--c2);animation-name:c5}@keyframes c6{41.79%{fill:var(--c2)}41.81%,100%{fill:var(--ce)}}.c.c6{fill:var(--c2);animation-name:c6}@keyframes c7{85.44%{fill:var(--c4)}85.46%,100%{fill:var(--ce)}}.c.c7{fill:var(--c4);animation-name:c7}@keyframes c8{85.75%{fill:var(--c4)}85.77%,100%{fill:var(--ce)}}.c.c8{fill:var(--c4);animation-name:c8}@keyframes c9{87.92%{fill:var(--c4)}87.94%,100%{fill:var(--ce)}}.c.c9{fill:var(--c4);animation-name:c9}@keyframes ca{40.55%{fill:var(--c1)}40.57%,100%{fill:var(--ce)}}.c.ca{fill:var(--c1);animation-name:ca}@keyframes cb{40.86%{fill:var(--c2)}40.88%,100%{fill:var(--ce)}}.c.cb{fill:var(--c2);animation-name:cb}@keyframes cc{41.17%{fill:var(--c2)}41.19%,100%{fill:var(--ce)}}.c.cc{fill:var(--c2);animation-name:cc}@keyframes cd{65.62%{fill:var(--c3)}65.64%,100%{fill:var(--ce)}}.c.cd{fill:var(--c3);animation-name:cd}@keyframes ce{85.13%{fill:var(--c4)}85.15%,100%{fill:var(--ce)}}.c.ce{fill:var(--c4);animation-name:ce}@keyframes cf{84.82%{fill:var(--c3)}84.84%,100%{fill:var(--ce)}}.c.cf{fill:var(--c3);animation-name:cf}@keyframes cg{54.79%{fill:var(--c3)}54.81%,100%{fill:var(--ce)}}.c.cg{fill:var(--c3);animation-name:cg}@keyframes ch{54.48%{fill:var(--c2)}54.5%,100%{fill:var(--ce)}}.c.ch{fill:var(--c2);animation-name:ch}@keyframes ci{64.08%{fill:var(--c3)}64.1%,100%{fill:var(--ce)}}.c.ci{fill:var(--c3);animation-name:ci}@keyframes cj{63.77%{fill:var(--c3)}63.79%,100%{fill:var(--ce)}}.c.cj{fill:var(--c3);animation-name:cj}@keyframes ck{65.93%{fill:var(--c3)}65.95%,100%{fill:var(--ce)}}.c.ck{fill:var(--c3);animation-name:ck}@keyframes cl{70.58%{fill:var(--c3)}70.6%,100%{fill:var(--ce)}}.c.cl{fill:var(--c3);animation-name:cl}@keyframes cm{70.89%{fill:var(--c3)}70.91%,100%{fill:var(--ce)}}.c.cm{fill:var(--c3);animation-name:cm}@keyframes cn{55.1%{fill:var(--c3)}55.12%,100%{fill:var(--ce)}}.c.cn{fill:var(--c3);animation-name:cn}@keyframes co{59.12%{fill:var(--c3)}59.14%,100%{fill:var(--ce)}}.c.co{fill:var(--c3);animation-name:co}@keyframes cp{59.43%{fill:var(--c3)}59.45%,100%{fill:var(--ce)}}.c.cp{fill:var(--c3);animation-name:cp}@keyframes cq{63.46%{fill:var(--c3)}63.48%,100%{fill:var(--ce)}}.c.cq{fill:var(--c3);animation-name:cq}@keyframes cr{66.24%{fill:var(--c3)}66.26%,100%{fill:var(--ce)}}.c.cr{fill:var(--c3);animation-name:cr}@keyframes cs{70.27%{fill:var(--c3)}70.29%,100%{fill:var(--ce)}}.c.cs{fill:var(--c3);animation-name:cs}@keyframes ct{71.2%{fill:var(--c3)}71.22%,100%{fill:var(--ce)}}.c.ct{fill:var(--c3);animation-name:ct}@keyframes cu{55.41%{fill:var(--c3)}55.43%,100%{fill:var(--ce)}}.c.cu{fill:var(--c3);animation-name:cu}@keyframes cv{58.81%{fill:var(--c3)}58.83%,100%{fill:var(--ce)}}.c.cv{fill:var(--c3);animation-name:cv}@keyframes cw{59.74%{fill:var(--c3)}59.76%,100%{fill:var(--ce)}}.c.cw{fill:var(--c3);animation-name:cw}@keyframes cx{63.15%{fill:var(--c3)}63.17%,100%{fill:var(--ce)}}.c.cx{fill:var(--c3);animation-name:cx}@keyframes cy{66.55%{fill:var(--c3)}66.57%,100%{fill:var(--ce)}}.c.cy{fill:var(--c3);animation-name:cy}@keyframes cz{69.96%{fill:var(--c3)}69.98%,100%{fill:var(--ce)}}.c.cz{fill:var(--c3);animation-name:cz}@keyframes c10{71.51%{fill:var(--c3)}71.53%,100%{fill:var(--ce)}}.c.c10{fill:var(--c3);animation-name:c10}@keyframes c11{55.72%{fill:var(--c3)}55.74%,100%{fill:var(--ce)}}.c.c11{fill:var(--c3);animation-name:c11}@keyframes c12{58.5%{fill:var(--c3)}58.52%,100%{fill:var(--ce)}}.c.c12{fill:var(--c3);animation-name:c12}@keyframes c13{60.05%{fill:var(--c3)}60.07%,100%{fill:var(--ce)}}.c.c13{fill:var(--c3);animation-name:c13}@keyframes c14{62.84%{fill:var(--c3)}62.86%,100%{fill:var(--ce)}}.c.c14{fill:var(--c3);animation-name:c14}@keyframes c15{66.86%{fill:var(--c3)}66.88%,100%{fill:var(--ce)}}.c.c15{fill:var(--c3);animation-name:c15}@keyframes c16{69.65%{fill:var(--c3)}69.67%,100%{fill:var(--ce)}}.c.c16{fill:var(--c3);animation-name:c16}@keyframes c17{71.82%{fill:var(--c3)}71.84%,100%{fill:var(--ce)}}.c.c17{fill:var(--c3);animation-name:c17}@keyframes c18{56.03%{fill:var(--c3)}56.05%,100%{fill:var(--ce)}}.c.c18{fill:var(--c3);animation-name:c18}@keyframes c19{58.19%{fill:var(--c3)}58.21%,100%{fill:var(--ce)}}.c.c19{fill:var(--c3);animation-name:c19}@keyframes c1a{60.36%{fill:var(--c3)}60.38%,100%{fill:var(--ce)}}.c.c1a{fill:var(--c3);animation-name:c1a}@keyframes c1b{62.53%{fill:var(--c3)}62.55%,100%{fill:var(--ce)}}.c.c1b{fill:var(--c3);animation-name:c1b}@keyframes c1c{67.17%{fill:var(--c3)}67.19%,100%{fill:var(--ce)}}.c.c1c{fill:var(--c3);animation-name:c1c}@keyframes c1d{69.34%{fill:var(--c3)}69.36%,100%{fill:var(--ce)}}.c.c1d{fill:var(--c3);animation-name:c1d}@keyframes c1e{72.13%{fill:var(--c3)}72.15%,100%{fill:var(--ce)}}.c.c1e{fill:var(--c3);animation-name:c1e}@keyframes c1f{56.34%{fill:var(--c3)}56.36%,100%{fill:var(--ce)}}.c.c1f{fill:var(--c3);animation-name:c1f}@keyframes c1g{57.88%{fill:var(--c3)}57.9%,100%{fill:var(--ce)}}.c.c1g{fill:var(--c3);animation-name:c1g}@keyframes c1h{60.67%{fill:var(--c3)}60.69%,100%{fill:var(--ce)}}.c.c1h{fill:var(--c3);animation-name:c1h}@keyframes c1i{62.22%{fill:var(--c3)}62.24%,100%{fill:var(--ce)}}.c.c1i{fill:var(--c3);animation-name:c1i}@keyframes c1j{67.48%{fill:var(--c3)}67.5%,100%{fill:var(--ce)}}.c.c1j{fill:var(--c3);animation-name:c1j}@keyframes c1k{69.03%{fill:var(--c3)}69.05%,100%{fill:var(--ce)}}.c.c1k{fill:var(--c3);animation-name:c1k}@keyframes c1l{72.44%{fill:var(--c3)}72.46%,100%{fill:var(--ce)}}.c.c1l{fill:var(--c3);animation-name:c1l}@keyframes c1m{56.65%{fill:var(--c3)}56.67%,100%{fill:var(--ce)}}.c.c1m{fill:var(--c3);animation-name:c1m}@keyframes c1n{57.58%{fill:var(--c3)}57.6%,100%{fill:var(--ce)}}.c.c1n{fill:var(--c3);animation-name:c1n}@keyframes c1o{60.98%{fill:var(--c3)}61%,100%{fill:var(--ce)}}.c.c1o{fill:var(--c3);animation-name:c1o}@keyframes c1p{61.91%{fill:var(--c3)}61.93%,100%{fill:var(--ce)}}.c.c1p{fill:var(--c3);animation-name:c1p}@keyframes c1q{67.79%{fill:var(--c3)}67.81%,100%{fill:var(--ce)}}.c.c1q{fill:var(--c3);animation-name:c1q}@keyframes c1r{68.72%{fill:var(--c3)}68.74%,100%{fill:var(--ce)}}.c.c1r{fill:var(--c3);animation-name:c1r}@keyframes c1s{72.75%{fill:var(--c3)}72.77%,100%{fill:var(--ce)}}.c.c1s{fill:var(--c3);animation-name:c1s}@keyframes c1t{56.96%{fill:var(--c3)}56.98%,100%{fill:var(--ce)}}.c.c1t{fill:var(--c3);animation-name:c1t}@keyframes c1u{57.27%{fill:var(--c3)}57.29%,100%{fill:var(--ce)}}.c.c1u{fill:var(--c3);animation-name:c1u}@keyframes c1v{61.29%{fill:var(--c3)}61.31%,100%{fill:var(--ce)}}.c.c1v{fill:var(--c3);animation-name:c1v}@keyframes c1w{61.6%{fill:var(--c3)}61.62%,100%{fill:var(--ce)}}.c.c1w{fill:var(--c3);animation-name:c1w}@keyframes c1x{68.1%{fill:var(--c3)}68.12%,100%{fill:var(--ce)}}.c.c1x{fill:var(--c3);animation-name:c1x}@keyframes c1y{68.41%{fill:var(--c3)}68.43%,100%{fill:var(--ce)}}.c.c1y{fill:var(--c3);animation-name:c1y}@keyframes c1z{73.06%{fill:var(--c3)}73.08%,100%{fill:var(--ce)}}.c.c1z{fill:var(--c3);animation-name:c1z}@keyframes c20{19.49%{fill:var(--c1)}19.51%,100%{fill:var(--ce)}}.c.c20{fill:var(--c1);animation-name:c20}@keyframes c21{26.62%{fill:var(--c1)}26.64%,100%{fill:var(--ce)}}.c.c21{fill:var(--c1);animation-name:c21}@keyframes c22{26.92%{fill:var(--c1)}26.94%,100%{fill:var(--ce)}}.c.c22{fill:var(--c1);animation-name:c22}@keyframes c23{27.23%{fill:var(--c1)}27.25%,100%{fill:var(--ce)}}.c.c23{fill:var(--c1);animation-name:c23}@keyframes c24{27.54%{fill:var(--c1)}27.56%,100%{fill:var(--ce)}}.c.c24{fill:var(--c1);animation-name:c24}@keyframes c25{27.85%{fill:var(--c1)}27.87%,100%{fill:var(--ce)}}.c.c25{fill:var(--c1);animation-name:c25}@keyframes c26{28.16%{fill:var(--c1)}28.18%,100%{fill:var(--ce)}}.c.c26{fill:var(--c1);animation-name:c26}@keyframes c27{19.8%{fill:var(--c1)}19.82%,100%{fill:var(--ce)}}.c.c27{fill:var(--c1);animation-name:c27}@keyframes c28{77.7%{fill:var(--c3)}77.72%,100%{fill:var(--ce)}}.c.c28{fill:var(--c3);animation-name:c28}@keyframes c29{78.01%{fill:var(--c3)}78.03%,100%{fill:var(--ce)}}.c.c29{fill:var(--c3);animation-name:c29}@keyframes c2a{74.6%{fill:var(--c3)}74.62%,100%{fill:var(--ce)}}.c.c2a{fill:var(--c3);animation-name:c2a}@keyframes c2b{74.29%{fill:var(--c3)}74.31%,100%{fill:var(--ce)}}.c.c2b{fill:var(--c3);animation-name:c2b}@keyframes c2c{73.98%{fill:var(--c3)}74%,100%{fill:var(--ce)}}.c.c2c{fill:var(--c3);animation-name:c2c}@keyframes c2d{28.47%{fill:var(--c1)}28.49%,100%{fill:var(--ce)}}.c.c2d{fill:var(--c1);animation-name:c2d}@keyframes c2e{20.11%{fill:var(--c1)}20.13%,100%{fill:var(--ce)}}.c.c2e{fill:var(--c1);animation-name:c2e}@keyframes c2f{23.52%{fill:var(--c1)}23.54%,100%{fill:var(--ce)}}.c.c2f{fill:var(--c1);animation-name:c2f}@keyframes c2g{23.83%{fill:var(--c1)}23.85%,100%{fill:var(--ce)}}.c.c2g{fill:var(--c1);animation-name:c2g}@keyframes c2h{74.91%{fill:var(--c3)}74.93%,100%{fill:var(--ce)}}.c.c2h{fill:var(--c3);animation-name:c2h}@keyframes c2i{32.5%{fill:var(--c1)}32.52%,100%{fill:var(--ce)}}.c.c2i{fill:var(--c1);animation-name:c2i}@keyframes c2j{32.81%{fill:var(--c1)}32.83%,100%{fill:var(--ce)}}.c.c2j{fill:var(--c1);animation-name:c2j}@keyframes c2k{47.36%{fill:var(--c2)}47.38%,100%{fill:var(--ce)}}.c.c2k{fill:var(--c2);animation-name:c2k}@keyframes c2l{20.42%{fill:var(--c1)}20.44%,100%{fill:var(--ce)}}.c.c2l{fill:var(--c1);animation-name:c2l}@keyframes c2m{23.21%{fill:var(--c1)}23.23%,100%{fill:var(--ce)}}.c.c2m{fill:var(--c1);animation-name:c2m}@keyframes c2n{24.14%{fill:var(--c1)}24.16%,100%{fill:var(--ce)}}.c.c2n{fill:var(--c1);animation-name:c2n}@keyframes c2o{75.22%{fill:var(--c3)}75.24%,100%{fill:var(--ce)}}.c.c2o{fill:var(--c3);animation-name:c2o}@keyframes c2p{32.19%{fill:var(--c1)}32.21%,100%{fill:var(--ce)}}.c.c2p{fill:var(--c1);animation-name:c2p}@keyframes c2q{33.12%{fill:var(--c1)}33.14%,100%{fill:var(--ce)}}.c.c2q{fill:var(--c1);animation-name:c2q}@keyframes c2r{29.71%{fill:var(--c1)}29.73%,100%{fill:var(--ce)}}.c.c2r{fill:var(--c1);animation-name:c2r}@keyframes c2s{20.73%{fill:var(--c1)}20.75%,100%{fill:var(--ce)}}.c.c2s{fill:var(--c1);animation-name:c2s}@keyframes c2t{22.9%{fill:var(--c1)}22.92%,100%{fill:var(--ce)}}.c.c2t{fill:var(--c1);animation-name:c2t}@keyframes c2u{24.45%{fill:var(--c1)}24.47%,100%{fill:var(--ce)}}.c.c2u{fill:var(--c1);animation-name:c2u}@keyframes c2v{75.53%{fill:var(--c3)}75.55%,100%{fill:var(--ce)}}.c.c2v{fill:var(--c3);animation-name:c2v}@keyframes c2w{31.88%{fill:var(--c1)}31.9%,100%{fill:var(--ce)}}.c.c2w{fill:var(--c1);animation-name:c2w}@keyframes c2x{31.57%{fill:var(--c1)}31.59%,100%{fill:var(--ce)}}.c.c2x{fill:var(--c1);animation-name:c2x}@keyframes c2y{30.02%{fill:var(--c1)}30.04%,100%{fill:var(--ce)}}.c.c2y{fill:var(--c1);animation-name:c2y}@keyframes c2z{21.04%{fill:var(--c1)}21.06%,100%{fill:var(--ce)}}.c.c2z{fill:var(--c1);animation-name:c2z}@keyframes c30{76.46%{fill:var(--c3)}76.48%,100%{fill:var(--ce)}}.c.c30{fill:var(--c3);animation-name:c30}@keyframes c31{76.15%{fill:var(--c3)}76.17%,100%{fill:var(--ce)}}.c.c31{fill:var(--c3);animation-name:c31}@keyframes c32{75.84%{fill:var(--c3)}75.86%,100%{fill:var(--ce)}}.c.c32{fill:var(--c3);animation-name:c32}@keyframes c33{79.87%{fill:var(--c3)}79.89%,100%{fill:var(--ce)}}.c.c33{fill:var(--c3);animation-name:c33}@keyframes c34{80.18%{fill:var(--c3)}80.2%,100%{fill:var(--ce)}}.c.c34{fill:var(--c3);animation-name:c34}@keyframes c35{30.33%{fill:var(--c1)}30.35%,100%{fill:var(--ce)}}.c.c35{fill:var(--c1);animation-name:c35}@keyframes c36{21.35%{fill:var(--c1)}21.37%,100%{fill:var(--ce)}}.c.c36{fill:var(--c1);animation-name:c36}.u{transform-origin:0 0;transform:scale(0,1);animation:none linear 32300ms infinite}@keyframes u0{2.16%{transform:scale(0.000,1)}2.18%,12.99%{transform:scale(0.029,1)}13.01%,15.47%{transform:scale(0.059,1)}15.49%,15.78%{transform:scale(0.088,1)}15.8%,19.49%{transform:scale(0.118,1)}19.51%,19.8%{transform:scale(0.147,1)}19.82%,20.11%{transform:scale(0.176,1)}20.13%,20.42%{transform:scale(0.206,1)}20.44%,20.73%{transform:scale(0.235,1)}20.75%,21.04%{transform:scale(0.265,1)}21.06%,21.35%{transform:scale(0.294,1)}21.37%,22.9%{transform:scale(0.324,1)}22.92%,23.21%{transform:scale(0.353,1)}23.23%,23.52%{transform:scale(0.382,1)}23.54%,23.83%{transform:scale(0.412,1)}23.85%,24.14%{transform:scale(0.441,1)}24.16%,24.45%{transform:scale(0.471,1)}24.47%,26.62%{transform:scale(0.500,1)}26.64%,26.92%{transform:scale(0.529,1)}26.94%,27.23%{transform:scale(0.559,1)}27.25%,27.54%{transform:scale(0.588,1)}27.56%,27.85%{transform:scale(0.618,1)}27.87%,28.16%{transform:scale(0.647,1)}28.18%,28.47%{transform:scale(0.676,1)}28.49%,29.71%{transform:scale(0.706,1)}29.73%,30.02%{transform:scale(0.735,1)}30.04%,30.33%{transform:scale(0.765,1)}30.35%,31.57%{transform:scale(0.794,1)}31.59%,31.88%{transform:scale(0.824,1)}31.9%,32.19%{transform:scale(0.853,1)}32.21%,32.5%{transform:scale(0.882,1)}32.52%,32.81%{transform:scale(0.912,1)}32.83%,33.12%{transform:scale(0.941,1)}33.14%,40.55%{transform:scale(0.971,1)}40.57%,100%{transform:scale(1.000,1)}}.u.u0{fill:var(--c1);animation-name:u0;transform-origin:0.0px 0}@keyframes u1{40.86%{transform:scale(0.000,1)}40.88%,41.17%{transform:scale(0.167,1)}41.19%,41.48%{transform:scale(0.333,1)}41.5%,41.79%{transform:scale(0.500,1)}41.81%,47.36%{transform:scale(0.667,1)}47.38%,54.48%{transform:scale(0.833,1)}54.5%,100%{transform:scale(1.000,1)}}.u.u1{fill:var(--c2);animation-name:u1;transform-origin:250.7px 0}@keyframes u2{54.79%{transform:scale(0.000,1)}54.81%,55.1%{transform:scale(0.014,1)}55.12%,55.41%{transform:scale(0.028,1)}55.43%,55.72%{transform:scale(0.042,1)}55.74%,56.03%{transform:scale(0.056,1)}56.05%,56.34%{transform:scale(0.070,1)}56.36%,56.65%{transform:scale(0.085,1)}56.67%,56.96%{transform:scale(0.099,1)}56.98%,57.27%{transform:scale(0.113,1)}57.29%,57.58%{transform:scale(0.127,1)}57.6%,57.88%{transform:scale(0.141,1)}57.9%,58.19%{transform:scale(0.155,1)}58.21%,58.5%{transform:scale(0.169,1)}58.52%,58.81%{transform:scale(0.183,1)}58.83%,59.12%{transform:scale(0.197,1)}59.14%,59.43%{transform:scale(0.211,1)}59.45%,59.74%{transform:scale(0.225,1)}59.76%,60.05%{transform:scale(0.239,1)}60.07%,60.36%{transform:scale(0.254,1)}60.38%,60.67%{transform:scale(0.268,1)}60.69%,60.98%{transform:scale(0.282,1)}61%,61.29%{transform:scale(0.296,1)}61.31%,61.6%{transform:scale(0.310,1)}61.62%,61.91%{transform:scale(0.324,1)}61.93%,62.22%{transform:scale(0.338,1)}62.24%,62.53%{transform:scale(0.352,1)}62.55%,62.84%{transform:scale(0.366,1)}62.86%,63.15%{transform:scale(0.380,1)}63.17%,63.46%{transform:scale(0.394,1)}63.48%,63.77%{transform:scale(0.408,1)}63.79%,64.08%{transform:scale(0.423,1)}64.1%,64.7%{transform:scale(0.437,1)}64.72%,65.62%{transform:scale(0.451,1)}65.64%,65.93%{transform:scale(0.465,1)}65.95%,66.24%{transform:scale(0.479,1)}66.26%,66.55%{transform:scale(0.493,1)}66.57%,66.86%{transform:scale(0.507,1)}66.88%,67.17%{transform:scale(0.521,1)}67.19%,67.48%{transform:scale(0.535,1)}67.5%,67.79%{transform:scale(0.549,1)}67.81%,68.1%{transform:scale(0.563,1)}68.12%,68.41%{transform:scale(0.577,1)}68.43%,68.72%{transform:scale(0.592,1)}68.74%,69.03%{transform:scale(0.606,1)}69.05%,69.34%{transform:scale(0.620,1)}69.36%,69.65%{transform:scale(0.634,1)}69.67%,69.96%{transform:scale(0.648,1)}69.98%,70.27%{transform:scale(0.662,1)}70.29%,70.58%{transform:scale(0.676,1)}70.6%,70.89%{transform:scale(0.690,1)}70.91%,71.2%{transform:scale(0.704,1)}71.22%,71.51%{transform:scale(0.718,1)}71.53%,71.82%{transform:scale(0.732,1)}71.84%,72.13%{transform:scale(0.746,1)}72.15%,72.44%{transform:scale(0.761,1)}72.46%,72.75%{transform:scale(0.775,1)}72.77%,73.06%{transform:scale(0.789,1)}73.08%,73.98%{transform:scale(0.803,1)}74%,74.29%{transform:scale(0.817,1)}74.31%,74.6%{transform:scale(0.831,1)}74.62%,74.91%{transform:scale(0.845,1)}74.93%,75.22%{transform:scale(0.859,1)}75.24%,75.53%{transform:scale(0.873,1)}75.55%,75.84%{transform:scale(0.887,1)}75.86%,76.15%{transform:scale(0.901,1)}76.17%,76.46%{transform:scale(0.915,1)}76.48%,77.7%{transform:scale(0.930,1)}77.72%,78.01%{transform:scale(0.944,1)}78.03%,79.87%{transform:scale(0.958,1)}79.89%,80.18%{transform:scale(0.972,1)}80.2%,84.82%{transform:scale(0.986,1)}84.84%,100%{transform:scale(1.000,1)}}.u.u2{fill:var(--c3);animation-name:u2;transform-origin:295.0px 0}@keyframes u3{85.13%{transform:scale(0.000,1)}85.15%,85.44%{transform:scale(0.250,1)}85.46%,85.75%{transform:scale(0.500,1)}85.77%,87.92%{transform:scale(0.750,1)}87.94%,100%{transform:scale(1.000,1)}}.u.u3{fill:var(--c4);animation-name:u3;transform-origin:818.5px 0}.s{shape-rendering:geometricPrecision;fill:var(--cs);animation:none linear 32300ms infinite}@keyframes s0{0%,99.69%{transform:translate(0px,-16px)}0.31%{transform:translate(0px,0px)}0.93%{transform:translate(32px,0px)}2.17%{transform:translate(32px,64px)}12.38%,42.11%{transform:translate(560px,64px)}13%{transform:translate(560px,96px)}13.31%{transform:translate(544px,96px)}13.62%{transform:translate(544px,80px)}13.93%{transform:translate(560px,80px)}15.17%,39.94%{transform:translate(560px,16px)}15.48%,53.87%{transform:translate(576px,16px)}16.1%,53.25%{transform:translate(576px,-16px)}19.2%,50.15%{transform:translate(736px,-16px)}19.5%,26.32%{transform:translate(736px,0px)}21.36%{transform:translate(832px,0px)}21.67%{transform:translate(832px,-16px)}22.29%{transform:translate(800px,-16px)}22.91%{transform:translate(800px,16px)}23.53%{transform:translate(768px,16px)}23.84%{transform:translate(768px,32px)}24.46%{transform:translate(800px,32px)}25.08%{transform:translate(800px,0px)}28.17%,47.99%{transform:translate(736px,96px)}28.48%,73.68%{transform:translate(752px,96px)}28.79%{transform:translate(752px,112px)}29.41%,33.75%{transform:translate(784px,112px)}29.72%{transform:translate(784px,96px)}30.34%{transform:translate(816px,96px)}30.65%{transform:translate(816px,112px)}30.96%{transform:translate(800px,112px)}31.89%{transform:translate(800px,64px)}32.51%{transform:translate(768px,64px)}32.82%{transform:translate(768px,80px)}33.13%{transform:translate(784px,80px)}38.08%,43.03%{transform:translate(560px,112px)}40.56%{transform:translate(592px,16px)}41.18%,65.33%{transform:translate(592px,48px)}41.49%,65.02%{transform:translate(576px,48px)}41.8%{transform:translate(576px,64px)}47.06%{transform:translate(768px,112px)}47.37%{transform:translate(768px,96px)}54.49%{transform:translate(608px,16px)}54.8%{transform:translate(608px,0px)}56.97%{transform:translate(720px,0px)}57.28%{transform:translate(720px,16px)}59.13%{transform:translate(624px,16px)}59.44%{transform:translate(624px,32px)}61.3%{transform:translate(720px,32px)}61.61%{transform:translate(720px,48px)}63.78%{transform:translate(608px,48px)}64.09%{transform:translate(608px,32px)}64.71%{transform:translate(576px,32px)}65.63%{transform:translate(592px,64px)}68.11%{transform:translate(720px,64px)}68.42%{transform:translate(720px,80px)}70.59%,84.21%{transform:translate(608px,80px)}70.9%,84.52%{transform:translate(608px,96px)}74.61%{transform:translate(752px,48px)}75.85%{transform:translate(816px,48px)}76.47%{transform:translate(816px,16px)}77.71%{transform:translate(752px,16px)}78.02%{transform:translate(752px,32px)}79.26%{transform:translate(816px,32px)}80.19%{transform:translate(816px,80px)}84.83%,86.07%{transform:translate(592px,96px)}85.14%{transform:translate(592px,80px)}85.45%{transform:translate(576px,80px)}85.76%{transform:translate(576px,96px)}87.93%{transform:translate(592px,0px)}97.52%{transform:translate(96px,0px)}97.83%{transform:translate(96px,-16px)}}.s.s0{transform:translate(0px,-16px);animation-name:s0}@keyframes s1{0%,99.69%{transform:translate(16px,-16px)}0.31%{transform:translate(0px,-16px)}0.62%{transform:translate(0px,0px)}1.24%{transform:translate(32px,0px)}2.48%{transform:translate(32px,64px)}12.69%,42.41%{transform:translate(560px,64px)}13.31%{transform:translate(560px,96px)}13.62%{transform:translate(544px,96px)}13.93%{transform:translate(544px,80px)}14.24%{transform:translate(560px,80px)}15.48%,40.25%{transform:translate(560px,16px)}15.79%,54.18%{transform:translate(576px,16px)}16.41%,53.56%{transform:translate(576px,-16px)}19.5%,50.46%{transform:translate(736px,-16px)}19.81%,26.63%{transform:translate(736px,0px)}21.67%{transform:translate(832px,0px)}21.98%{transform:translate(832px,-16px)}22.6%{transform:translate(800px,-16px)}23.22%{transform:translate(800px,16px)}23.84%{transform:translate(768px,16px)}24.15%{transform:translate(768px,32px)}24.77%{transform:translate(800px,32px)}25.39%{transform:translate(800px,0px)}28.48%,48.3%{transform:translate(736px,96px)}28.79%,73.99%{transform:translate(752px,96px)}29.1%{transform:translate(752px,112px)}29.72%,34.06%{transform:translate(784px,112px)}30.03%{transform:translate(784px,96px)}30.65%{transform:translate(816px,96px)}30.96%{transform:translate(816px,112px)}31.27%{transform:translate(800px,112px)}32.2%{transform:translate(800px,64px)}32.82%{transform:translate(768px,64px)}33.13%{transform:translate(768px,80px)}33.44%{transform:translate(784px,80px)}38.39%,43.34%{transform:translate(560px,112px)}40.87%{transform:translate(592px,16px)}41.49%,65.63%{transform:translate(592px,48px)}41.8%,65.33%{transform:translate(576px,48px)}42.11%{transform:translate(576px,64px)}47.37%{transform:translate(768px,112px)}47.68%{transform:translate(768px,96px)}54.8%{transform:translate(608px,16px)}55.11%{transform:translate(608px,0px)}57.28%{transform:translate(720px,0px)}57.59%{transform:translate(720px,16px)}59.44%{transform:translate(624px,16px)}59.75%{transform:translate(624px,32px)}61.61%{transform:translate(720px,32px)}61.92%{transform:translate(720px,48px)}64.09%{transform:translate(608px,48px)}64.4%{transform:translate(608px,32px)}65.02%{transform:translate(576px,32px)}65.94%{transform:translate(592px,64px)}68.42%{transform:translate(720px,64px)}68.73%{transform:translate(720px,80px)}70.9%,84.52%{transform:translate(608px,80px)}71.21%,84.83%{transform:translate(608px,96px)}74.92%{transform:translate(752px,48px)}76.16%{transform:translate(816px,48px)}76.78%{transform:translate(816px,16px)}78.02%{transform:translate(752px,16px)}78.33%{transform:translate(752px,32px)}79.57%{transform:translate(816px,32px)}80.5%{transform:translate(816px,80px)}85.14%,86.38%{transform:translate(592px,96px)}85.45%{transform:translate(592px,80px)}85.76%{transform:translate(576px,80px)}86.07%{transform:translate(576px,96px)}88.24%{transform:translate(592px,0px)}97.83%{transform:translate(96px,0px)}98.14%{transform:translate(96px,-16px)}}.s.s1{transform:translate(16px,-16px);animation-name:s1}@keyframes s2{0%,99.69%{transform:translate(32px,-16px)}0.62%{transform:translate(0px,-16px)}0.93%{transform:translate(0px,0px)}1.55%{transform:translate(32px,0px)}2.79%{transform:translate(32px,64px)}13%,42.72%{transform:translate(560px,64px)}13.62%{transform:translate(560px,96px)}13.93%{transform:translate(544px,96px)}14.24%{transform:translate(544px,80px)}14.55%{transform:translate(560px,80px)}15.79%,40.56%{transform:translate(560px,16px)}16.1%,54.49%{transform:translate(576px,16px)}16.72%,53.87%{transform:translate(576px,-16px)}19.81%,50.77%{transform:translate(736px,-16px)}20.12%,26.93%{transform:translate(736px,0px)}21.98%{transform:translate(832px,0px)}22.29%{transform:translate(832px,-16px)}22.91%{transform:translate(800px,-16px)}23.53%{transform:translate(800px,16px)}24.15%{transform:translate(768px,16px)}24.46%{transform:translate(768px,32px)}25.08%{transform:translate(800px,32px)}25.7%{transform:translate(800px,0px)}28.79%,48.61%{transform:translate(736px,96px)}29.1%,74.3%{transform:translate(752px,96px)}29.41%{transform:translate(752px,112px)}30.03%,34.37%{transform:translate(784px,112px)}30.34%{transform:translate(784px,96px)}30.96%{transform:translate(816px,96px)}31.27%{transform:translate(816px,112px)}31.58%{transform:translate(800px,112px)}32.51%{transform:translate(800px,64px)}33.13%{transform:translate(768px,64px)}33.44%{transform:translate(768px,80px)}33.75%{transform:translate(784px,80px)}38.7%,43.65%{transform:translate(560px,112px)}41.18%{transform:translate(592px,16px)}41.8%,65.94%{transform:translate(592px,48px)}42.11%,65.63%{transform:translate(576px,48px)}42.41%{transform:translate(576px,64px)}47.68%{transform:translate(768px,112px)}47.99%{transform:translate(768px,96px)}55.11%{transform:translate(608px,16px)}55.42%{transform:translate(608px,0px)}57.59%{transform:translate(720px,0px)}57.89%{transform:translate(720px,16px)}59.75%{transform:translate(624px,16px)}60.06%{transform:translate(624px,32px)}61.92%{transform:translate(720px,32px)}62.23%{transform:translate(720px,48px)}64.4%{transform:translate(608px,48px)}64.71%{transform:translate(608px,32px)}65.33%{transform:translate(576px,32px)}66.25%{transform:translate(592px,64px)}68.73%{transform:translate(720px,64px)}69.04%{transform:translate(720px,80px)}71.21%,84.83%{transform:translate(608px,80px)}71.52%,85.14%{transform:translate(608px,96px)}75.23%{transform:translate(752px,48px)}76.47%{transform:translate(816px,48px)}77.09%{transform:translate(816px,16px)}78.33%{transform:translate(752px,16px)}78.64%{transform:translate(752px,32px)}79.88%{transform:translate(816px,32px)}80.8%{transform:translate(816px,80px)}85.45%,86.69%{transform:translate(592px,96px)}85.76%{transform:translate(592px,80px)}86.07%{transform:translate(576px,80px)}86.38%{transform:translate(576px,96px)}88.54%{transform:translate(592px,0px)}98.14%{transform:translate(96px,0px)}98.45%{transform:translate(96px,-16px)}}.s.s2{transform:translate(32px,-16px);animation-name:s2}@keyframes s3{0%,99.69%{transform:translate(48px,-16px)}0.93%{transform:translate(0px,-16px)}1.24%{transform:translate(0px,0px)}1.86%{transform:translate(32px,0px)}3.1%{transform:translate(32px,64px)}13.31%,43.03%{transform:translate(560px,64px)}13.93%{transform:translate(560px,96px)}14.24%{transform:translate(544px,96px)}14.55%{transform:translate(544px,80px)}14.86%{transform:translate(560px,80px)}16.1%,40.87%{transform:translate(560px,16px)}16.41%,54.8%{transform:translate(576px,16px)}17.03%,54.18%{transform:translate(576px,-16px)}20.12%,51.08%{transform:translate(736px,-16px)}20.43%,27.24%{transform:translate(736px,0px)}22.29%{transform:translate(832px,0px)}22.6%{transform:translate(832px,-16px)}23.22%{transform:translate(800px,-16px)}23.84%{transform:translate(800px,16px)}24.46%{transform:translate(768px,16px)}24.77%{transform:translate(768px,32px)}25.39%{transform:translate(800px,32px)}26.01%{transform:translate(800px,0px)}29.1%,48.92%{transform:translate(736px,96px)}29.41%,74.61%{transform:translate(752px,96px)}29.72%{transform:translate(752px,112px)}30.34%,34.67%{transform:translate(784px,112px)}30.65%{transform:translate(784px,96px)}31.27%{transform:translate(816px,96px)}31.58%{transform:translate(816px,112px)}31.89%{transform:translate(800px,112px)}32.82%{transform:translate(800px,64px)}33.44%{transform:translate(768px,64px)}33.75%{transform:translate(768px,80px)}34.06%{transform:translate(784px,80px)}39.01%,43.96%{transform:translate(560px,112px)}41.49%{transform:translate(592px,16px)}42.11%,66.25%{transform:translate(592px,48px)}42.41%,65.94%{transform:translate(576px,48px)}42.72%{transform:translate(576px,64px)}47.99%{transform:translate(768px,112px)}48.3%{transform:translate(768px,96px)}55.42%{transform:translate(608px,16px)}55.73%{transform:translate(608px,0px)}57.89%{transform:translate(720px,0px)}58.2%{transform:translate(720px,16px)}60.06%{transform:translate(624px,16px)}60.37%{transform:translate(624px,32px)}62.23%{transform:translate(720px,32px)}62.54%{transform:translate(720px,48px)}64.71%{transform:translate(608px,48px)}65.02%{transform:translate(608px,32px)}65.63%{transform:translate(576px,32px)}66.56%{transform:translate(592px,64px)}69.04%{transform:translate(720px,64px)}69.35%{transform:translate(720px,80px)}71.52%,85.14%{transform:translate(608px,80px)}71.83%,85.45%{transform:translate(608px,96px)}75.54%{transform:translate(752px,48px)}76.78%{transform:translate(816px,48px)}77.4%{transform:translate(816px,16px)}78.64%{transform:translate(752px,16px)}78.95%{transform:translate(752px,32px)}80.19%{transform:translate(816px,32px)}81.11%{transform:translate(816px,80px)}85.76%,87%{transform:translate(592px,96px)}86.07%{transform:translate(592px,80px)}86.38%{transform:translate(576px,80px)}86.69%{transform:translate(576px,96px)}88.85%{transform:translate(592px,0px)}98.45%{transform:translate(96px,0px)}98.76%{transform:translate(96px,-16px)}}.s.s3{transform:translate(48px,-16px);animation-name:s3}</style><rect class="c" x="2" y="2" rx="2" ry="2"/><rect class="c" x="2" y="18" rx="2" ry="2"/><rect class="c" x="2" y="34" rx="2" ry="2"/><rect class="c" x="2" y="50" rx="2" ry="2"/><rect class="c" x="2" y="66" rx="2" ry="2"/><rect class="c" x="2" y="82" rx="2" ry="2"/><rect class="c" x="2" y="98" rx="2" ry="2"/><rect class="c" x="18" y="2" rx="2" ry="2"/><rect class="c" x="18" y="18" rx="2" ry="2"/><rect class="c" x="18" y="34" rx="2" ry="2"/><rect class="c" x="18" y="50" rx="2" ry="2"/><rect class="c" x="18" y="66" rx="2" ry="2"/><rect class="c" x="18" y="82" rx="2" ry="2"/><rect class="c" x="18" y="98" rx="2" ry="2"/><rect class="c" x="34" y="2" rx="2" ry="2"/><rect class="c" x="34" y="18" rx="2" ry="2"/><rect class="c" x="34" y="34" rx="2" ry="2"/><rect class="c" x="34" y="50" rx="2" ry="2"/><rect class="c c0" x="34" y="66" rx="2" ry="2"/><rect class="c" x="34" y="82" rx="2" ry="2"/><rect class="c" x="34" y="98" rx="2" ry="2"/><rect class="c" x="50" y="2" rx="2" ry="2"/><rect class="c" x="50" y="18" rx="2" ry="2"/><rect class="c" x="50" y="34" rx="2" ry="2"/><rect class="c" x="50" y="50" rx="2" ry="2"/><rect class="c" x="50" y="66" rx="2" ry="2"/><rect class="c" x="50" y="82" rx="2" ry="2"/><rect class="c" x="50" y="98" rx="2" ry="2"/><rect class="c" x="66" y="2" rx="2" ry="2"/><rect class="c" x="66" y="18" rx="2" ry="2"/><rect class="c" x="66" y="34" rx="2" ry="2"/><rect class="c" x="66" y="50" rx="2" ry="2"/><rect class="c" x="66" y="66" rx="2" ry="2"/><rect class="c" x="66" y="82" rx="2" ry="2"/><rect class="c" x="66" y="98" rx="2" ry="2"/><rect class="c" x="82" y="2" rx="2" ry="2"/><rect class="c" x="82" y="18" rx="2" ry="2"/><rect class="c" x="82" y="34" rx="2" ry="2"/><rect class="c" x="82" y="50" rx="2" ry="2"/><rect class="c" x="82" y="66" rx="2" ry="2"/><rect class="c" x="82" y="82" rx="2" ry="2"/><rect class="c" x="82" y="98" rx="2" ry="2"/><rect class="c" x="98" y="2" rx="2" ry="2"/><rect class="c" x="98" y="18" rx="2" ry="2"/><rect class="c" x="98" y="34" rx="2" ry="2"/><rect class="c" x="98" y="50" rx="2" ry="2"/><rect class="c" x="98" y="66" rx="2" ry="2"/><rect class="c" x="98" y="82" rx="2" ry="2"/><rect class="c" x="98" y="98" rx="2" ry="2"/><rect class="c" x="114" y="2" rx="2" ry="2"/><rect class="c" x="114" y="18" rx="2" ry="2"/><rect class="c" x="114" y="34" rx="2" ry="2"/><rect class="c" x="114" y="50" rx="2" ry="2"/><rect class="c" x="114" y="66" rx="2" ry="2"/><rect class="c" x="114" y="82" rx="2" ry="2"/><rect class="c" x="114" y="98" rx="2" ry="2"/><rect class="c" x="130" y="2" rx="2" ry="2"/><rect class="c" x="130" y="18" rx="2" ry="2"/><rect class="c" x="130" y="34" rx="2" ry="2"/><rect class="c" x="130" y="50" rx="2" ry="2"/><rect class="c" x="130" y="66" rx="2" ry="2"/><rect class="c" x="130" y="82" rx="2" ry="2"/><rect class="c" x="130" y="98" rx="2" ry="2"/><rect class="c" x="146" y="2" rx="2" ry="2"/><rect class="c" x="146" y="18" rx="2" ry="2"/><rect class="c" x="146" y="34" rx="2" ry="2"/><rect class="c" x="146" y="50" rx="2" ry="2"/><rect class="c" x="146" y="66" rx="2" ry="2"/><rect class="c" x="146" y="82" rx="2" ry="2"/><rect class="c" x="146" y="98" rx="2" ry="2"/><rect class="c" x="162" y="2" rx="2" ry="2"/><rect class="c" x="162" y="18" rx="2" ry="2"/><rect class="c" x="162" y="34" rx="2" ry="2"/><rect class="c" x="162" y="50" rx="2" ry="2"/><rect class="c" x="162" y="66" rx="2" ry="2"/><rect class="c" x="162" y="82" rx="2" ry="2"/><rect class="c" x="162" y="98" rx="2" ry="2"/><rect class="c" x="178" y="2" rx="2" ry="2"/><rect class="c" x="178" y="18" rx="2" ry="2"/><rect class="c" x="178" y="34" rx="2" ry="2"/><rect class="c" x="178" y="50" rx="2" ry="2"/><rect class="c" x="178" y="66" rx="2" ry="2"/><rect class="c" x="178" y="82" rx="2" ry="2"/><rect class="c" x="178" y="98" rx="2" ry="2"/><rect class="c" x="194" y="2" rx="2" ry="2"/><rect class="c" x="194" y="18" rx="2" ry="2"/><rect class="c" x="194" y="34" rx="2" ry="2"/><rect class="c" x="194" y="50" rx="2" ry="2"/><rect class="c" x="194" y="66" rx="2" ry="2"/><rect class="c" x="194" y="82" rx="2" ry="2"/><rect class="c" x="194" y="98" rx="2" ry="2"/><rect class="c" x="210" y="2" rx="2" ry="2"/><rect class="c" x="210" y="18" rx="2" ry="2"/><rect class="c" x="210" y="34" rx="2" ry="2"/><rect class="c" x="210" y="50" rx="2" ry="2"/><rect class="c" x="210" y="66" rx="2" ry="2"/><rect class="c" x="210" y="82" rx="2" ry="2"/><rect class="c" x="210" y="98" rx="2" ry="2"/><rect class="c" x="226" y="2" rx="2" ry="2"/><rect class="c" x="226" y="18" rx="2" ry="2"/><rect class="c" x="226" y="34" rx="2" ry="2"/><rect class="c" x="226" y="50" rx="2" ry="2"/><rect class="c" x="226" y="66" rx="2" ry="2"/><rect class="c" x="226" y="82" rx="2" ry="2"/><rect class="c" x="226" y="98" rx="2" ry="2"/><rect class="c" x="242" y="2" rx="2" ry="2"/><rect class="c" x="242" y="18" rx="2" ry="2"/><rect class="c" x="242" y="34" rx="2" ry="2"/><rect class="c" x="242" y="50" rx="2" ry="2"/><rect class="c" x="242" y="66" rx="2" ry="2"/><rect class="c" x="242" y="82" rx="2" ry="2"/><rect class="c" x="242" y="98" rx="2" ry="2"/><rect class="c" x="258" y="2" rx="2" ry="2"/><rect class="c" x="258" y="18" rx="2" ry="2"/><rect class="c" x="258" y="34" rx="2" ry="2"/><rect class="c" x="258" y="50" rx="2" ry="2"/><rect class="c" x="258" y="66" rx="2" ry="2"/><rect class="c" x="258" y="82" rx="2" ry="2"/><rect class="c" x="258" y="98" rx="2" ry="2"/><rect class="c" x="274" y="2" rx="2" ry="2"/><rect class="c" x="274" y="18" rx="2" ry="2"/><rect class="c" x="274" y="34" rx="2" ry="2"/><rect class="c" x="274" y="50" rx="2" ry="2"/><rect class="c" x="274" y="66" rx="2" ry="2"/><rect class="c" x="274" y="82" rx="2" ry="2"/><rect class="c" x="274" y="98" rx="2" ry="2"/><rect class="c" x="290" y="2" rx="2" ry="2"/><rect class="c" x="290" y="18" rx="2" ry="2"/><rect class="c" x="290" y="34" rx="2" ry="2"/><rect class="c" x="290" y="50" rx="2" ry="2"/><rect class="c" x="290" y="66" rx="2" ry="2"/><rect class="c" x="290" y="82" rx="2" ry="2"/><rect class="c" x="290" y="98" rx="2" ry="2"/><rect class="c" x="306" y="2" rx="2" ry="2"/><rect class="c" x="306" y="18" rx="2" ry="2"/><rect class="c" x="306" y="34" rx="2" ry="2"/><rect class="c" x="306" y="50" rx="2" ry="2"/><rect class="c" x="306" y="66" rx="2" ry="2"/><rect class="c" x="306" y="82" rx="2" ry="2"/><rect class="c" x="306" y="98" rx="2" ry="2"/><rect class="c" x="322" y="2" rx="2" ry="2"/><rect class="c" x="322" y="18" rx="2" ry="2"/><rect class="c" x="322" y="34" rx="2" ry="2"/><rect class="c" x="322" y="50" rx="2" ry="2"/><rect class="c" x="322" y="66" rx="2" ry="2"/><rect class="c" x="322" y="82" rx="2" ry="2"/><rect class="c" x="322" y="98" rx="2" ry="2"/><rect class="c" x="338" y="2" rx="2" ry="2"/><rect class="c" x="338" y="18" rx="2" ry="2"/><rect class="c" x="338" y="34" rx="2" ry="2"/><rect class="c" x="338" y="50" rx="2" ry="2"/><rect class="c" x="338" y="66" rx="2" ry="2"/><rect class="c" x="338" y="82" rx="2" ry="2"/><rect class="c" x="338" y="98" rx="2" ry="2"/><rect class="c" x="354" y="2" rx="2" ry="2"/><rect class="c" x="354" y="18" rx="2" ry="2"/><rect class="c" x="354" y="34" rx="2" ry="2"/><rect class="c" x="354" y="50" rx="2" ry="2"/><rect class="c" x="354" y="66" rx="2" ry="2"/><rect class="c" x="354" y="82" rx="2" ry="2"/><rect class="c" x="354" y="98" rx="2" ry="2"/><rect class="c" x="370" y="2" rx="2" ry="2"/><rect class="c" x="370" y="18" rx="2" ry="2"/><rect class="c" x="370" y="34" rx="2" ry="2"/><rect class="c" x="370" y="50" rx="2" ry="2"/><rect class="c" x="370" y="66" rx="2" ry="2"/><rect class="c" x="370" y="82" rx="2" ry="2"/><rect class="c" x="370" y="98" rx="2" ry="2"/><rect class="c" x="386" y="2" rx="2" ry="2"/><rect class="c" x="386" y="18" rx="2" ry="2"/><rect class="c" x="386" y="34" rx="2" ry="2"/><rect class="c" x="386" y="50" rx="2" ry="2"/><rect class="c" x="386" y="66" rx="2" ry="2"/><rect class="c" x="386" y="82" rx="2" ry="2"/><rect class="c" x="386" y="98" rx="2" ry="2"/><rect class="c" x="402" y="2" rx="2" ry="2"/><rect class="c" x="402" y="18" rx="2" ry="2"/><rect class="c" x="402" y="34" rx="2" ry="2"/><rect class="c" x="402" y="50" rx="2" ry="2"/><rect class="c" x="402" y="66" rx="2" ry="2"/><rect class="c" x="402" y="82" rx="2" ry="2"/><rect class="c" x="402" y="98" rx="2" ry="2"/><rect class="c" x="418" y="2" rx="2" ry="2"/><rect class="c" x="418" y="18" rx="2" ry="2"/><rect class="c" x="418" y="34" rx="2" ry="2"/><rect class="c" x="418" y="50" rx="2" ry="2"/><rect class="c" x="418" y="66" rx="2" ry="2"/><rect class="c" x="418" y="82" rx="2" ry="2"/><rect class="c" x="418" y="98" rx="2" ry="2"/><rect class="c" x="434" y="2" rx="2" ry="2"/><rect class="c" x="434" y="18" rx="2" ry="2"/><rect class="c" x="434" y="34" rx="2" ry="2"/><rect class="c" x="434" y="50" rx="2" ry="2"/><rect class="c" x="434" y="66" rx="2" ry="2"/><rect class="c" x="434" y="82" rx="2" ry="2"/><rect class="c" x="434" y="98" rx="2" ry="2"/><rect class="c" x="450" y="2" rx="2" ry="2"/><rect class="c" x="450" y="18" rx="2" ry="2"/><rect class="c" x="450" y="34" rx="2" ry="2"/><rect class="c" x="450" y="50" rx="2" ry="2"/><rect class="c" x="450" y="66" rx="2" ry="2"/><rect class="c" x="450" y="82" rx="2" ry="2"/><rect class="c" x="450" y="98" rx="2" ry="2"/><rect class="c" x="466" y="2" rx="2" ry="2"/><rect class="c" x="466" y="18" rx="2" ry="2"/><rect class="c" x="466" y="34" rx="2" ry="2"/><rect class="c" x="466" y="50" rx="2" ry="2"/><rect class="c" x="466" y="66" rx="2" ry="2"/><rect class="c" x="466" y="82" rx="2" ry="2"/><rect class="c" x="466" y="98" rx="2" ry="2"/><rect class="c" x="482" y="2" rx="2" ry="2"/><rect class="c" x="482" y="18" rx="2" ry="2"/><rect class="c" x="482" y="34" rx="2" ry="2"/><rect class="c" x="482" y="50" rx="2" ry="2"/><rect class="c" x="482" y="66" rx="2" ry="2"/><rect class="c" x="482" y="82" rx="2" ry="2"/><rect class="c" x="482" y="98" rx="2" ry="2"/><rect class="c" x="498" y="2" rx="2" ry="2"/><rect class="c" x="498" y="18" rx="2" ry="2"/><rect class="c" x="498" y="34" rx="2" ry="2"/><rect class="c" x="498" y="50" rx="2" ry="2"/><rect class="c" x="498" y="66" rx="2" ry="2"/><rect class="c" x="498" y="82" rx="2" ry="2"/><rect class="c" x="498" y="98" rx="2" ry="2"/><rect class="c" x="514" y="2" rx="2" ry="2"/><rect class="c" x="514" y="18" rx="2" ry="2"/><rect class="c" x="514" y="34" rx="2" ry="2"/><rect class="c" x="514" y="50" rx="2" ry="2"/><rect class="c" x="514" y="66" rx="2" ry="2"/><rect class="c" x="514" y="82" rx="2" ry="2"/><rect class="c" x="514" y="98" rx="2" ry="2"/><rect class="c" x="530" y="2" rx="2" ry="2"/><rect class="c" x="530" y="18" rx="2" ry="2"/><rect class="c" x="530" y="34" rx="2" ry="2"/><rect class="c" x="530" y="50" rx="2" ry="2"/><rect class="c" x="530" y="66" rx="2" ry="2"/><rect class="c" x="530" y="82" rx="2" ry="2"/><rect class="c" x="530" y="98" rx="2" ry="2"/><rect class="c" x="546" y="2" rx="2" ry="2"/><rect class="c" x="546" y="18" rx="2" ry="2"/><rect class="c" x="546" y="34" rx="2" ry="2"/><rect class="c" x="546" y="50" rx="2" ry="2"/><rect class="c" x="546" y="66" rx="2" ry="2"/><rect class="c" x="546" y="82" rx="2" ry="2"/><rect class="c" x="546" y="98" rx="2" ry="2"/><rect class="c" x="562" y="2" rx="2" ry="2"/><rect class="c" x="562" y="18" rx="2" ry="2"/><rect class="c" x="562" y="34" rx="2" ry="2"/><rect class="c" x="562" y="50" rx="2" ry="2"/><rect class="c" x="562" y="66" rx="2" ry="2"/><rect class="c" x="562" y="82" rx="2" ry="2"/><rect class="c c1" x="562" y="98" rx="2" ry="2"/><rect class="c c2" x="578" y="2" rx="2" ry="2"/><rect class="c c3" x="578" y="18" rx="2" ry="2"/><rect class="c c4" x="578" y="34" rx="2" ry="2"/><rect class="c c5" x="578" y="50" rx="2" ry="2"/><rect class="c c6" x="578" y="66" rx="2" ry="2"/><rect class="c c7" x="578" y="82" rx="2" ry="2"/><rect class="c c8" x="578" y="98" rx="2" ry="2"/><rect class="c c9" x="594" y="2" rx="2" ry="2"/><rect class="c ca" x="594" y="18" rx="2" ry="2"/><rect class="c cb" x="594" y="34" rx="2" ry="2"/><rect class="c cc" x="594" y="50" rx="2" ry="2"/><rect class="c cd" x="594" y="66" rx="2" ry="2"/><rect class="c ce" x="594" y="82" rx="2" ry="2"/><rect class="c cf" x="594" y="98" rx="2" ry="2"/><rect class="c cg" x="610" y="2" rx="2" ry="2"/><rect class="c ch" x="610" y="18" rx="2" ry="2"/><rect class="c ci" x="610" y="34" rx="2" ry="2"/><rect class="c cj" x="610" y="50" rx="2" ry="2"/><rect class="c ck" x="610" y="66" rx="2" ry="2"/><rect class="c cl" x="610" y="82" rx="2" ry="2"/><rect class="c cm" x="610" y="98" rx="2" ry="2"/><rect class="c cn" x="626" y="2" rx="2" ry="2"/><rect class="c co" x="626" y="18" rx="2" ry="2"/><rect class="c cp" x="626" y="34" rx="2" ry="2"/><rect class="c cq" x="626" y="50" rx="2" ry="2"/><rect class="c cr" x="626" y="66" rx="2" ry="2"/><rect class="c cs" x="626" y="82" rx="2" ry="2"/><rect class="c ct" x="626" y="98" rx="2" ry="2"/><rect class="c cu" x="642" y="2" rx="2" ry="2"/><rect class="c cv" x="642" y="18" rx="2" ry="2"/><rect class="c cw" x="642" y="34" rx="2" ry="2"/><rect class="c cx" x="642" y="50" rx="2" ry="2"/><rect class="c cy" x="642" y="66" rx="2" ry="2"/><rect class="c cz" x="642" y="82" rx="2" ry="2"/><rect class="c c10" x="642" y="98" rx="2" ry="2"/><rect class="c c11" x="658" y="2" rx="2" ry="2"/><rect class="c c12" x="658" y="18" rx="2" ry="2"/><rect class="c c13" x="658" y="34" rx="2" ry="2"/><rect class="c c14" x="658" y="50" rx="2" ry="2"/><rect class="c c15" x="658" y="66" rx="2" ry="2"/><rect class="c c16" x="658" y="82" rx="2" ry="2"/><rect class="c c17" x="658" y="98" rx="2" ry="2"/><rect class="c c18" x="674" y="2" rx="2" ry="2"/><rect class="c c19" x="674" y="18" rx="2" ry="2"/><rect class="c c1a" x="674" y="34" rx="2" ry="2"/><rect class="c c1b" x="674" y="50" rx="2" ry="2"/><rect class="c c1c" x="674" y="66" rx="2" ry="2"/><rect class="c c1d" x="674" y="82" rx="2" ry="2"/><rect class="c c1e" x="674" y="98" rx="2" ry="2"/><rect class="c c1f" x="690" y="2" rx="2" ry="2"/><rect class="c c1g" x="690" y="18" rx="2" ry="2"/><rect class="c c1h" x="690" y="34" rx="2" ry="2"/><rect class="c c1i" x="690" y="50" rx="2" ry="2"/><rect class="c c1j" x="690" y="66" rx="2" ry="2"/><rect class="c c1k" x="690" y="82" rx="2" ry="2"/><rect class="c c1l" x="690" y="98" rx="2" ry="2"/><rect class="c c1m" x="706" y="2" rx="2" ry="2"/><rect class="c c1n" x="706" y="18" rx="2" ry="2"/><rect class="c c1o" x="706" y="34" rx="2" ry="2"/><rect class="c c1p" x="706" y="50" rx="2" ry="2"/><rect class="c c1q" x="706" y="66" rx="2" ry="2"/><rect class="c c1r" x="706" y="82" rx="2" ry="2"/><rect class="c c1s" x="706" y="98" rx="2" ry="2"/><rect class="c c1t" x="722" y="2" rx="2" ry="2"/><rect class="c c1u" x="722" y="18" rx="2" ry="2"/><rect class="c c1v" x="722" y="34" rx="2" ry="2"/><rect class="c c1w" x="722" y="50" rx="2" ry="2"/><rect class="c c1x" x="722" y="66" rx="2" ry="2"/><rect class="c c1y" x="722" y="82" rx="2" ry="2"/><rect class="c c1z" x="722" y="98" rx="2" ry="2"/><rect class="c c20" x="738" y="2" rx="2" ry="2"/><rect class="c c21" x="738" y="18" rx="2" ry="2"/><rect class="c c22" x="738" y="34" rx="2" ry="2"/><rect class="c c23" x="738" y="50" rx="2" ry="2"/><rect class="c c24" x="738" y="66" rx="2" ry="2"/><rect class="c c25" x="738" y="82" rx="2" ry="2"/><rect class="c c26" x="738" y="98" rx="2" ry="2"/><rect class="c c27" x="754" y="2" rx="2" ry="2"/><rect class="c c28" x="754" y="18" rx="2" ry="2"/><rect class="c c29" x="754" y="34" rx="2" ry="2"/><rect class="c c2a" x="754" y="50" rx="2" ry="2"/><rect class="c c2b" x="754" y="66" rx="2" ry="2"/><rect class="c c2c" x="754" y="82" rx="2" ry="2"/><rect class="c c2d" x="754" y="98" rx="2" ry="2"/><rect class="c c2e" x="770" y="2" rx="2" ry="2"/><rect class="c c2f" x="770" y="18" rx="2" ry="2"/><rect class="c c2g" x="770" y="34" rx="2" ry="2"/><rect class="c c2h" x="770" y="50" rx="2" ry="2"/><rect class="c c2i" x="770" y="66" rx="2" ry="2"/><rect class="c c2j" x="770" y="82" rx="2" ry="2"/><rect class="c c2k" x="770" y="98" rx="2" ry="2"/><rect class="c c2l" x="786" y="2" rx="2" ry="2"/><rect class="c c2m" x="786" y="18" rx="2" ry="2"/><rect class="c c2n" x="786" y="34" rx="2" ry="2"/><rect class="c c2o" x="786" y="50" rx="2" ry="2"/><rect class="c c2p" x="786" y="66" rx="2" ry="2"/><rect class="c c2q" x="786" y="82" rx="2" ry="2"/><rect class="c c2r" x="786" y="98" rx="2" ry="2"/><rect class="c c2s" x="802" y="2" rx="2" ry="2"/><rect class="c c2t" x="802" y="18" rx="2" ry="2"/><rect class="c c2u" x="802" y="34" rx="2" ry="2"/><rect class="c c2v" x="802" y="50" rx="2" ry="2"/><rect class="c c2w" x="802" y="66" rx="2" ry="2"/><rect class="c c2x" x="802" y="82" rx="2" ry="2"/><rect class="c c2y" x="802" y="98" rx="2" ry="2"/><rect class="c c2z" x="818" y="2" rx="2" ry="2"/><rect class="c c30" x="818" y="18" rx="2" ry="2"/><rect class="c c31" x="818" y="34" rx="2" ry="2"/><rect class="c c32" x="818" y="50" rx="2" ry="2"/><rect class="c c33" x="818" y="66" rx="2" ry="2"/><rect class="c c34" x="818" y="82" rx="2" ry="2"/><rect class="c c35" x="818" y="98" rx="2" ry="2"/><rect class="c c36" x="834" y="2" rx="2" ry="2"/><rect class="c" x="834" y="18" rx="2" ry="2"/><rect class="u u0" height="12" width="251.3" x="0.0" y="144"/><rect class="u u1" height="12" width="44.8" x="250.7" y="144"/><rect class="u u2" height="12" width="524.1" x="295.0" y="144"/><rect class="u u3" height="12" width="30.1" x="818.5" y="144"/><rect class="s s0" x="0.8" y="0.8" width="14.4" height="14.4" rx="4.5" ry="4.5"/><rect class="s s1" x="1.8" y="1.8" width="12.3" height="12.3" rx="4.1" ry="4.1"/><rect class="s s2" x="2.6" y="2.6" width="10.8" height="10.8" rx="3.6" ry="3.6"/><rect class="s s3" x="3.0" y="3.0" width="9.9" height="9.9" rx="3.3" ry="3.3"/></svg>